<?xml version="1.0" encoding="UTF-8"?>
<svg width="172px" height="128px" viewBox="0 0 172 128" version="1.1" xmlns="http://www.w3.org/2000/svg" xmlns:xlink="http://www.w3.org/1999/xlink">
    <!-- Generator: sketchtool 63.1 (101010) - https://sketch.com -->
    <title>72A87896-E107-4AC8-A8A2-8417E1C2097C</title>
    <desc>Created with sketchtool.</desc>
    <g id="Assignments-List-page-UI" stroke="none" stroke-width="1" fill="none" fill-rule="evenodd">
        <g id="Assign_not-enrolled-in-courses" transform="translate(-94.000000, -222.000000)">
            <g id="Group-3" transform="translate(94.000000, 222.000000)">
                <g>
                    <polygon id="Fill-8" fill="#ECECE8" points="20.5234975 106.276752 23.2064433 106.276752 23.2064433 106.171142 20.5234975 106.171142"></polygon>
                    <path d="M172,116.87963 C172,119.521584 133.496516,121.663366 86,121.663366 C38.503484,121.663366 0,119.521584 0,116.87963 C0,114.238099 38.503484,112.096317 86,112.096317 C133.496516,112.096317 172,114.238099 172,116.87963" id="Fill-30" fill="#E6E6E6"></path>
                    <path d="M60.9579015,49.6107723 L60.9579015,61.2452541 C60.9579015,63.5386931 60.0707882,65.7438416 58.4812709,67.4019274 L47.5897734,78.7592871 L53.755931,78.7592871 L65.068532,67.6587723 C66.775399,65.9842112 67.7362266,63.6971089 67.7362266,61.3094653 L67.7362266,49.6107723 L60.9579015,49.6107723" id="Fill-96" fill="#426AA5"></path>
                    <path d="M58.5359212,67.3440528 C58.5350739,67.3436304 58.5346502,67.3436304 58.5333793,67.3432079 C59.0235369,66.8252937 59.4446404,66.2545743 59.7920296,65.6449901 C59.445064,66.2545743 59.0243842,66.8252937 58.5359212,67.3440528 M65.883202,66.7412277 C66.1577241,66.3855314 66.4038621,66.0108251 66.6203448,65.6209109 C66.4042857,66.0112475 66.1581478,66.3859538 65.883202,66.7412277 M60.9557833,61.4319736 C60.9570542,61.3698746 60.9579015,61.3073531 60.9579015,61.2448317 L60.9579015,61.2452541 C60.9579015,61.3073531 60.9570542,61.3698746 60.9557833,61.4319736" id="Fill-97" fill="#FFFFFE"></path>
                    <path d="M63.5908571,69.1064818 C61.9937143,68.4711287 60.2817635,67.8835116 58.5359212,67.3440528 C59.0243842,66.8252937 59.445064,66.2545743 59.7920296,65.6449901 C60.5194286,64.3700594 60.9235862,62.9253069 60.9557833,61.4378878 C60.9557833,61.436198 60.9557833,61.4345083 60.9557833,61.4328185 C60.9557833,61.432396 60.9557833,61.432396 60.9557833,61.4319736 C60.9570542,61.3698746 60.9579015,61.3073531 60.9579015,61.2452541 C60.9579015,61.2448317 60.9579015,61.2448317 60.9579015,61.2448317 L60.9579015,50.9338614 L60.9579015,60.6153927 L67.515931,63.2556568 C67.332069,64.084066 67.0300099,64.8803696 66.6203448,65.6209109 C66.4038621,66.0108251 66.1577241,66.3855314 65.883202,66.7412277 C65.6345222,67.0635512 65.3621182,67.3698218 65.0672611,67.657505 L63.5908571,69.1064818" id="Fill-98" fill="#D7D7D7"></path>
                    <path d="M67.6739507,62.3694521 C67.7619507,62.0516194 67.8109507,61.7312269 67.8199507,61.4082747 C67.8109507,61.7316535 67.7629507,62.0524726 67.6739507,62.3694521" id="Fill-99" fill="#C8C8C3"></path>
                    <path d="M67.515931,63.2556568 L60.9579015,60.6153927 L60.9579015,50.9338614 L67.7362266,50.9338614 L67.7362266,61.308198 C67.7362266,61.3288977 67.7362266,61.3491749 67.735803,61.3694521 C67.735803,61.370297 67.735803,61.3715644 67.735803,61.3724092 C67.735803,61.3762112 67.735803,61.3800132 67.735803,61.3838152 C67.735803,61.385505 67.735803,61.3871947 67.735803,61.3893069 C67.735803,61.3918416 67.735803,61.3943762 67.735803,61.3964884 C67.735803,61.4002904 67.735803,61.4032475 67.735803,61.4066271 C67.735803,61.4070495 67.735803,61.4074719 67.735803,61.4078944 C67.7319901,61.7276832 67.7112315,62.0449373 67.6739507,62.3596568 C67.6375172,62.661703 67.5849852,62.9603696 67.515931,63.2556568" id="Fill-100" fill="#B2B2B2"></path>
                    <path d="M43.3079901,80.0266139 L34.1856355,114.693914 C34.01533,115.341518 33.427734,115.793531 32.7566798,115.793531 L16.4509951,115.793531 C16.1768966,115.793531 15.9235567,115.669333 15.7562167,115.453043 C15.5888768,115.236752 15.532532,114.960475 15.6024335,114.696026 L24.7307192,80.0266139 L22.9789458,80.0266139 L13.9629261,114.267248 C13.7591527,115.042429 13.9239507,115.850983 14.414532,116.485069 C14.9051133,117.119578 15.6473399,117.4833 16.4509951,117.4833 L32.7566798,117.4833 C34.1974975,117.4833 35.4591133,116.512528 35.8247192,115.123116 L45.0597635,80.0266139 L43.3079901,80.0266139" id="Fill-101" fill="#426AA5"></path>
                    <path d="M32.7566798,117.4833 L16.4509951,117.4833 C15.6473399,117.4833 14.9051133,117.119578 14.414532,116.485069 C14.0616355,116.029254 13.8773498,115.483459 13.8773498,114.924568 C13.8773498,114.705743 13.905734,114.485228 13.9629261,114.267248 L21.7330049,84.7583894 L23.3551429,85.2522244 L18.7912118,102.584607 L18.7636749,102.690218 L15.6024335,114.696026 C15.5825222,114.770376 15.5727783,114.845993 15.5727783,114.920343 C15.5727783,115.111287 15.6359015,115.297584 15.7562167,115.453043 C15.9235567,115.669333 16.1768966,115.793531 16.4509951,115.793531 L32.7566798,115.793531 C33.427734,115.793531 34.01533,115.341518 34.1856355,114.693914 L39.3723251,94.983604 L40.248,98.3137162 L39.124069,102.584607 L39.0961084,102.690218 L37.7107882,107.954693 L37.6832512,108.060304 L35.8247192,115.123116 C35.4591133,116.512528 34.1974975,117.4833 32.7566798,117.4833" id="Fill-102" fill="#D7D7D7"></path>
                    <path d="M41.1240985,94.9840264 L40.2484236,91.6539142 L42.9720394,81.3036568 L42.9728867,81.3036568 L40.5593793,90.4736106 L42.1810936,90.9666007 L41.1240985,94.9840264 M44.4247192,82.4404488 L44.7233892,81.3036568 L44.7238128,81.3036568 L44.4247192,82.4404488" id="Fill-103" fill="#D7D7D7"></path>
                    <polyline id="Fill-104" fill="#426AA5" points="47.0411527 117.4833 37.0647291 79.5484092 35.4256453 79.9763432 45.2893793 117.4833 47.0411527 117.4833"></polyline>
                    <polyline id="Fill-105" fill="#426AA5" points="67.3761281 117.4833 57.3997044 79.5484092 55.7606207 79.9763432 65.6243547 117.4833 67.3761281 117.4833"></polyline>
                    <polyline id="Fill-106" fill="#D7D7D7" points="47.0411527 117.4833 45.2893793 117.4833 37.4299113 87.5972013 39.3308079 88.1713003 37.5256552 81.3036568 37.5265025 81.3036568 47.0411527 117.4833"></polyline>
                    <path d="M67.3761281,117.4833 L65.6243547,117.4833 L62.3406798,104.99802 C62.6524828,104.267617 63.0180887,103.40668 63.4218227,102.447736 L67.3761281,117.4833 M59.405665,87.2634719 L57.8419901,81.3036568 L57.8614778,81.3036568 L59.4175271,87.2208053 C59.4137143,87.2343234 59.4094778,87.2495314 59.405665,87.2634719" id="Fill-107" fill="#D7D7D7"></path>
                    <path d="M23.3551429,85.2522244 L23.3551429,85.2522244 L23.7520985,83.7441056 L23.7525222,83.7441056 L23.3551429,85.2522244 M23.7804828,83.638495 L23.7800591,83.638495 L24.3947685,81.3036568 L24.3956158,81.3036568 L23.7804828,83.638495" id="Fill-108" fill="#C9C8C3"></path>
                    <polyline id="Fill-109" fill="#B7B7B3" points="23.7525222 83.7441056 23.7520985 83.7441056 23.7800591 83.638495 23.7804828 83.638495 23.7525222 83.7441056"></polyline>
                    <path d="M21.7330468,84.7583894 L21.7325813,84.757967 L22.0258774,83.7441056 L22.0263429,83.7441056 L21.7330468,84.7583894 M22.0570692,83.638495 L22.0566036,83.638495 L22.7321157,81.3036568 L22.7325813,81.3036568 L22.0570692,83.638495" id="Fill-110" fill="#C9C8C3"></path>
                    <polyline id="Fill-111" fill="#B7B7B3" points="21.9999015 83.7441056 21.9994778 83.7441056 22.0274384 83.638495 22.0278621 83.638495 21.9999015 83.7441056"></polyline>
                    <polyline id="Fill-112" fill="#B2B2B2" points="23.3551429 85.2522244 21.7330049 84.7583894 22.6425714 81.3036568 24.3947685 81.3036568 23.7800591 83.638495 23.7520985 83.7441056 23.3551429 85.2522244"></polyline>
                    <path d="M37.4299113,87.5972013 L37.4286404,87.5967789 L36.4157044,83.7441056 L36.4165517,83.7441056 L37.4299113,87.5972013 M36.3885911,83.638495 L36.3877438,83.638495 L35.7738818,81.3036568 L35.7747291,81.3036568 L36.3885911,83.638495" id="Fill-113" fill="#C9C8C3"></path>
                    <polyline id="Fill-114" fill="#B7B7B3" points="36.4165517 83.7441056 36.4157044 83.7441056 36.3877438 83.638495 36.3885911 83.638495 36.4165517 83.7441056"></polyline>
                    <polyline id="Fill-115" fill="#B2B2B2" points="39.3308079 88.1713003 37.4299113 87.5972013 35.7747291 81.3036568 37.5256552 81.3036568 39.3308079 88.1713003"></polyline>
                    <path d="M42.1861773,90.967868 L42.1810936,90.9666007 L44.0815665,83.7441056 L44.0824138,83.7441056 L42.1861773,90.967868 M44.1103744,83.638495 L44.1095271,83.638495 L44.4247192,82.4404488 L44.1103744,83.638495" id="Fill-116" fill="#B3B0B0"></path>
                    <polyline id="Fill-117" fill="#B7B7B3" points="44.0824138 83.7441056 44.0815665 83.7441056 44.1095271 83.638495 44.1103744 83.638495 44.0824138 83.7441056"></polyline>
                    <polyline id="Fill-118" fill="#B2B2B2" points="42.1810936 90.9666007 40.5593793 90.4736106 42.9728867 81.3036568 44.7233892 81.3036568 44.1095271 83.638495 44.0815665 83.7441056 42.1810936 90.9666007"></polyline>
                    <path d="M58.52067,90.5935842 L57.1052709,85.2044884 C57.1090837,85.1812541 57.1128966,85.1567525 57.1167094,85.1330957 L58.5363448,90.5314851 C58.5312611,90.5521848 58.5257537,90.5728845 58.52067,90.5935842" id="Fill-119" fill="#C9C8C3"></path>
                    <path d="M58.5363448,90.5314851 L57.1167094,85.1330957 C57.3272611,83.8146535 57.5225616,82.5291617 57.6949852,81.3036568 L57.8419901,81.3036568 L59.405665,87.2634719 C59.1061478,88.3322508 58.8155271,89.4284884 58.5363448,90.5314851" id="Fill-120" fill="#B2B2B2"></path>
                    <path d="M21.433064,80.6070495 L13.4922562,37.8436436 L13.3854975,37.1973069 C13.2329852,36.3680528 13.4405714,35.5290825 13.9578424,34.9106271 C14.4590148,34.3107591 15.1830246,33.9804092 15.9964236,33.9804092 L33.1455862,33.9804092 C34.7257833,33.9804092 36.2568374,35.2925149 36.5584729,36.9053993 L36.6855665,37.6265083 L44.6039212,80.2910627 L42.9373005,80.5990231 L34.9943744,37.8035116 L34.8905813,37.204066 C34.7384926,36.392132 33.9225517,35.6701782 33.1455862,35.6701782 L15.9964236,35.6701782 C15.6905517,35.6701782 15.4355172,35.781703 15.2592808,35.9925017 C15.0652512,36.2248449 14.9906897,36.5585743 15.0546601,36.907934 L15.1749754,37.6159472 L23.0996847,80.2995116 L21.433064,80.6070495" id="Fill-121" fill="#426AA5"></path>
                    <path d="M21.433064,80.6070495 L13.4922562,37.8436436 L13.3854975,37.1973069 C13.3524532,37.0190363 13.3363547,36.8403432 13.3363547,36.6637624 C13.3367783,36.0178482 13.5519901,35.3964356 13.9578424,34.9106271 C14.4590148,34.3107591 15.1830246,33.9804092 15.9964236,33.9804092 L24.8654384,33.9804092 C24.9556749,34.5186007 25.0908177,35.0846733 25.2640887,35.6701782 L15.9964236,35.6701782 C15.6905517,35.6701782 15.4355172,35.781703 15.2592808,35.9925017 C15.1105813,36.1703498 15.0322069,36.4077624 15.0322069,36.6658746 C15.0322069,36.7448713 15.0398325,36.8259802 15.0546601,36.907934 L15.1749754,37.6159472 L15.2059015,37.7823894 L14.3230246,37.7823894 L17.5342562,55.1025215 L18.4213695,55.1025215 L22.7777143,78.566231 L22.7777143,78.8344818 L22.2714581,78.8344818 C21.8007882,78.8344818 21.4195074,79.2151023 21.4195074,79.6844356 L21.4195074,80.4541254 C21.4195074,80.5060858 21.4241675,80.5576238 21.4334877,80.6070495 L21.433064,80.6070495" id="Fill-122" fill="#D7D7D7"></path>
                    <path d="M57.48867,76.3657294 L24.8959409,76.3657294 C23.7262562,76.3657294 22.7777143,77.3111551 22.7777143,78.4779406 L22.7777143,81.3036568 L59.6068966,81.3036568 L59.6068966,78.4779406 C59.6068966,77.3111551 58.6583547,76.3657294 57.48867,76.3657294" id="Fill-123" fill="#6BB7BF"></path>
                    <path d="M60.1131527,78.8344818 L22.2714581,78.8344818 C21.8007882,78.8344818 21.4195074,79.2151023 21.4195074,79.6844356 L21.4195074,80.4541254 C21.4195074,80.9230363 21.8007882,81.3036568 22.2714581,81.3036568 L60.1131527,81.3036568 C60.583399,81.3036568 60.9651034,80.9230363 60.9651034,80.4541254 L60.9651034,79.6844356 C60.9651034,79.2151023 60.583399,78.8344818 60.1131527,78.8344818" id="Fill-124" fill="#426AA5"></path>
                    <path d="M60.1131527,81.3036568 L57.6949852,81.3036568 C57.8153005,80.4477888 57.924601,79.6227591 58.0207685,78.8344818 L60.1131527,78.8344818 C60.583399,78.8344818 60.9651034,79.2151023 60.9651034,79.6844356 L60.9651034,80.4541254 C60.9651034,80.9230363 60.583399,81.3036568 60.1131527,81.3036568 M47.9134384,81.3036568 L22.2714581,81.3036568 C21.8533202,81.3036568 21.5055074,81.0033003 21.4334877,80.6070495 C21.4241675,80.5576238 21.4195074,80.5060858 21.4195074,80.4541254 L21.4195074,79.6844356 C21.4195074,79.2151023 21.8007882,78.8344818 22.2714581,78.8344818 L48.3646207,78.8344818 C48.2015172,79.6189571 48.0515468,80.446099 47.9134384,81.3036568" id="Fill-125" fill="#D7D7D7"></path>
                    <polyline id="Fill-126" fill="#6BB7BF" points="39.0681478 55.1025215 17.5342562 55.1025215 14.3230246 37.7823894 35.8526798 37.7823894 39.0384926 54.9419934 39.0681478 55.1025215"></polyline>
                    <path d="M48.6022857,37.7498614 C48.2438818,37.7570429 47.8791232,37.7629571 47.5097044,37.767604 C47.8795468,37.7625347 48.2438818,37.7566205 48.6022857,37.7498614 Z M46.5412512,30.0280396 C50.0130246,31.8056753 50.6433916,36.810693 52.0410877,38.9457526 C52.454016,39.5765239 53.1047291,40.5405792 53.9932271,41.8379186 C54.2565542,42.2224155 55.3066116,43.8886407 57.143399,46.8365941 C56.0607734,46.8773597 55.0758291,48.287082 53.9932271,48.287082 C53.3504622,48.287082 49.3164544,42.6327904 48.9314158,42.0933274 C48.2084101,41.0803518 47.514755,38.9915876 47.3135567,37.7823894 C46.6423759,33.7486064 46.5412512,30.0280396 46.5412512,30.0280396 Z" id="Fill-129" fill="#FD8656"></path>
                    <path d="M48.6022857,37.7498614 C48.9691626,37.7422574 49.3296847,37.7333861 49.6846995,37.7232475 C49.3301084,37.7338086 48.9691626,37.7422574 48.6022857,37.7498614" id="Fill-130" fill="#E5E5E0"></path>
                    <path d="M46.5412512,30.0280396 C46.8040942,30.3040404 47.4733799,30.974872 47.8557883,32.5971237 C48.1610439,33.892078 47.8795468,37.7625347 47.5097044,37.7667591 C47.4088768,35.9354719 46.6924926,31.2020066 46.5412512,30.0280396 Z" id="Fill-131" fill="#FF6F35"></path>
                    <polyline id="Fill-132" fill="#242C2E" points="56.9078522 40.6030363 65.8751527 50.0560264 66.4907094 49.4755908 57.5234089 40.0221782 56.9078522 40.6030363"></polyline>
                    <path d="M50.7904138,45.8793399 C50.7904138,45.8793399 57.633133,45.6681188 58.3423153,45.597571 C59.0514975,45.5274455 62.0170148,43.8376766 62.6524828,43.7671287 C63.2879507,43.6965809 64.982532,46.37233 65.1943547,47.0059934 C65.4061773,47.6396568 60.3931823,49.3294257 59.8987882,49.2588779 C59.4043941,49.18833 58.3423153,48.6535182 58.3423153,48.6535182 L50.7904138,49.5406469 L50.7904138,45.8793399" id="Fill-133" fill="#FFD4B2"></path>
                    <polyline id="Fill-134" fill="#FF9366" points="46.7674778 114.172198 50.1422365 113.710046 50.6099409 105.71068 47.2398424 106.176211 46.7674778 114.172198"></polyline>
                    <path d="M50.3964236,113.304924 L46.5840394,113.067512 C46.4514384,113.053571 46.3323941,113.149043 46.3179901,113.281267 L46.3175665,113.285069 L45.9434877,116.284409 C45.9227291,116.612224 46.1705616,116.895683 46.4993103,116.920185 C47.8308276,116.981439 48.4696847,116.944264 50.1485911,117.035512 C51.1784729,117.096766 53.207734,117.315168 54.629064,117.177875 C56.0503941,117.040581 55.8762759,115.643564 55.2624138,115.576818 C53.8071921,115.411644 51.8796059,114.345399 50.9687685,113.536 C50.8090542,113.397861 50.6078227,113.31633 50.3964236,113.304924" id="Fill-135" fill="#1D315F"></path>
                    <path d="M52.1024433,113.352103 C51.8855369,113.233958 51.3030246,113.527077 50.892936,113.793277 C51.4928177,113.97872 51.9401872,113.98869 52.1104926,113.816707 C52.1825123,113.730466 52.2104729,113.606339 52.1846305,113.489191 C52.1795468,113.42987 52.1486207,113.377527 52.1024433,113.352103 Z M51.5661084,114.106337 C51.2602365,114.075429 50.958601,114.004642 50.6662857,113.895969 L50.6099409,113.821692 L50.6459507,113.727974 C50.759064,113.646718 51.7626798,112.945824 52.169803,113.165664 C52.2630049,113.218006 52.3269754,113.32319 52.3388374,113.443828 C52.3850148,113.628772 52.3362956,113.828173 52.2142857,113.956786 C52.0215271,114.100355 51.7902167,114.153694 51.5661084,114.106337 L51.5661084,114.106337 Z" id="Fill-136" fill="#426AA5"></path>
                    <path d="M51.2556114,112.462152 C51.1895108,112.457505 51.1247234,112.479894 51.0765707,112.523406 C50.8511283,112.707591 50.789843,113.263525 50.7784614,113.582469 C51.0967073,113.353083 51.4644192,112.839393 51.4425316,112.590997 C51.4385918,112.54495 51.4114512,112.487498 51.2954468,112.467644 L51.2556114,112.462152 Z M50.6860957,113.780594 L50.6510755,113.783551 L50.6103645,113.71934 C50.6121155,113.689347 50.595481,112.698719 50.9680081,112.388224 C51.0673779,112.30965 51.1982658,112.277122 51.3247762,112.299934 C51.468359,112.31303 51.5848011,112.41864 51.6066887,112.556356 C51.6614077,112.929373 51.0927675,113.607815 50.7303087,113.785663 L50.6860957,113.780594 L50.6860957,113.780594 Z" id="Fill-137" fill="#426AA5"></path>
                    <path d="M46.9759113,110.582284 L47.0801281,108.845201 L47.0822463,108.845624 L46.9797241,110.581861 L46.9759113,110.582284 M50.3913399,109.446337 L50.4116749,109.099089 L50.3913399,109.446337" id="Fill-138" fill="#C9C8C3"></path>
                    <polyline id="Fill-139" fill="#FFD4B2" points="46.9797241 110.581861 47.0822463 108.845624 50.4116749 109.099089 50.342197 110.287419 46.9797241 110.581861"></polyline>
                    <path d="M46.9030443,67.1463498 L46.0794778,62.0026931 L27.1594778,60.8743498 C27.1594778,60.8743498 25.1475862,71.577769 26.693468,74.4292541 C28.6634187,78.0635248 36.8067291,77.7940066 42.8885813,77.5244884 C45.3253892,77.4163432 47.43133,77.308198 48.6764236,77.4514059 C46.0752414,88.0589307 46.3294286,108.788172 46.3294286,108.788172 L52.5443054,109.261307 C52.5443054,109.261307 57.3264138,86.9242508 58.2931724,76.3108119 C58.9455862,69.1487261 52.9946404,69.3269967 46.9030443,67.1463498" id="Fill-140" fill="#2B478A"></path>
                    <polyline id="Fill-141" fill="#426AA5" points="45.6007586 109.079657 53.0696256 109.56969 53.70933 106.380251 45.5033202 106.000053 45.6007586 109.079657"></polyline>
                    <polyline id="Fill-142" fill="#FF9366" points="54.5528079 111.184686 57.9500197 111.433927 60.0784138 103.707036 56.6850148 103.462442 54.5528079 111.184686"></polyline>
                    <path d="M58.2834286,111.090482 L54.604069,110.066482 C54.477399,110.025083 54.3409852,110.093941 54.2990443,110.220251 L54.298197,110.224053 L53.3055961,113.079762 C53.2170542,113.396172 53.400069,113.724832 53.716532,113.816924 C55.0061084,114.153188 55.6386108,114.249927 57.2615961,114.687578 C58.2558916,114.96132 60.1953399,115.596673 61.6141281,115.757624 C63.0324926,115.918574 63.1540788,114.516066 62.5681773,114.32301 C61.1790443,113.859168 59.5166601,112.416106 58.7947685,111.435617 C58.6676749,111.267063 58.4876256,111.145399 58.2834286,111.090482" id="Fill-143" fill="#1D315F"></path>
                    <path d="M59.949202,111.50964 C59.7581379,111.334338 59.1366502,111.483785 58.6880099,111.649778 C59.2421379,111.99004 59.6776453,112.114665 59.875064,111.983318 C59.9606404,111.914024 60.0102069,111.795088 60.0055468,111.669429 C60.0110542,111.607892 59.9898719,111.54739 59.949202,111.50964 Z M59.2912808,112.138452 C58.9976946,112.029341 58.7151232,111.880929 58.4486502,111.696319 L58.4067094,111.606341 L58.4579704,111.5205 C58.5833695,111.46672 59.6890837,111.011141 60.048335,111.337441 C60.1300985,111.414491 60.173734,111.537047 60.1644138,111.662706 C60.1766995,111.862313 60.093665,112.052094 59.9517438,112.15138 C59.737803,112.24808 59.5022562,112.243426 59.2912808,112.138452 L59.2912808,112.138452 Z" id="Fill-144" fill="#426AA5"></path>
                    <path d="M59.2794187,110.440343 C59.2179901,110.422601 59.1514778,110.43105 59.0968276,110.464422 C58.8451823,110.598759 58.671064,111.130614 58.5935369,111.440264 C58.9426207,111.279314 59.3980394,110.85138 59.4293892,110.603828 C59.4353202,110.557782 59.4217635,110.496528 59.3158522,110.453439 L59.2794187,110.440343 Z M58.4647488,111.615578 L58.4312808,111.611353 L58.4058621,111.53996 C58.4139113,111.511234 58.6049754,110.538772 59.022266,110.310231 C59.1332611,110.253201 59.2633202,110.24771 59.3785517,110.295446 C59.512,110.337267 59.5996946,110.464 59.5916453,110.602983 C59.565803,110.978535 58.8858522,111.52771 58.5058424,111.629096 L58.4647488,111.615578 L58.4647488,111.615578 Z" id="Fill-145" fill="#426AA5"></path>
                    <path d="M55.5102463,107.717281 L55.5068571,107.716858 L55.9707488,106.041452 L55.972867,106.042297 L55.5102463,107.717281 M59.0769163,107.342574 L59.1764729,106.980964 L59.0769163,107.342574" id="Fill-146" fill="#C9C8C3"></path>
                    <polyline id="Fill-147" fill="#FFD4B2" points="58.8604335 108.127894 55.5102463 107.717281 55.972867 106.042297 59.1764729 106.980964 58.8604335 108.127894"></polyline>
                    <path d="M61.2290345,107.582521 L55.2471626,105.829386 C55.2471626,105.829386 58.8184926,85.7295842 62.4406601,78.7592871 C62.1695271,78.6705743 61.8094286,78.5565149 61.364601,78.4255578 C60.5639113,78.1847657 59.5005616,77.8848317 58.2508079,77.538429 C49.5576059,75.1347327 31.938197,70.6272739 31.938197,70.6272739 L39.9874581,63.1373729 C39.9874581,63.1373729 72.048936,68.0123564 72.7140591,76.4358548 C73.0317931,80.4870759 61.2290345,107.582521 61.2290345,107.582521" id="Fill-148" fill="#2B478A"></path>
                    <polyline id="Fill-149" fill="#426AA5" points="54.4752808 105.961611 61.6780985 107.99229 62.9697931 105.005624 55.0234778 102.92932 54.4752808 105.961611"></polyline>
                    <path d="M61.364601,78.4255578 L61.364601,78.4255578 C60.8524138,78.2717888 60.232197,78.0935182 59.5247094,77.8941254 C59.1264828,77.7821782 58.7007192,77.6634719 58.2508079,77.538429 C58.5007586,75.4938086 58.5049951,73.1492541 57.5179015,71.9537426 C55.5564236,69.5711683 50.5108079,68.1728845 47.6384926,67.6659538 C45.2364236,67.2435116 37.1659803,66.4028515 37.1659803,66.4028515 C37.1659803,66.4028515 38.7707488,66.249505 41.3655764,66.249505 C45.3999507,66.249505 51.8287685,66.6204092 58.3440099,68.5150627 C63.6353399,70.0569769 62.6058818,75.2149967 61.364601,78.4255578" id="Fill-150" fill="#233862"></path>
                    <path d="M46.5412512,30.0280396 C46.5412512,30.0280396 49.2864729,40.1666535 46.0794778,62.0026931 C40.1018424,61.8759604 30.0572118,61.6436172 27.1467685,61.5802508 C27.0747488,58.5386667 29.3243054,43.6349043 26.693468,29.2591947 C28.5875862,28.9313795 30.5033103,28.7421254 32.4253892,28.6931221 C35.2379704,28.591736 38.0543645,28.6525677 40.8601675,28.8747723 C42.7809754,29.1109175 44.680601,29.4961848 46.5412512,30.0280396" id="Fill-151" fill="#426AA5"></path>
                    <path d="M46.0794778,62.0026931 C40.1018424,61.8759604 30.0572118,61.6436172 27.1467685,61.5802508 C27.1454975,61.5312475 27.1450739,61.4792871 27.1450739,61.4239472 C27.1454975,59.3277888 27.9745714,52.8521716 27.9741478,44.8485809 C27.9741478,44.6276436 27.9733005,44.4045941 27.9720296,44.1815446 C28.9714089,45.1451353 30.1033892,46.1154851 31.212069,46.8175842 C32.7426995,48.8731881 34.1953793,50.4083432 35.1155369,50.878099 C35.7959113,51.225769 37.012197,51.3660198 38.5313892,51.3660198 C40.2293596,51.3660198 42.3073399,51.1907063 44.4408177,50.9338614 L47.3135567,50.9338614 C47.0733498,54.2183498 46.6814778,57.9045809 46.0794778,62.0026931 M43.2283448,45.4792871 C40.8733005,45.4792871 39.0012118,45.4395776 38.5428276,45.3242508 C37.0799803,44.9554587 33.605665,37.5010429 31.6069064,33.9804092 C29.6081478,30.460198 26.693468,29.2591947 26.693468,29.2591947 C28.2524828,28.9892541 29.8259015,28.8135182 31.4056749,28.7324092 L31.4048276,28.7328317 C31.4048276,28.7328317 31.4052512,28.7400132 31.4069458,28.7535314 C31.4848966,29.4987195 31.932266,30.1184422 32.5041872,30.6173465 C33.0972906,31.2260858 34.009399,31.9214257 35.4120887,32.6074719 L38.0996946,30.6701518 C38.0996946,30.6701518 38.866069,35.6173729 39.34733,39.3137426 C39.34733,39.3137426 39.315133,33.3995512 38.8042167,31.1289241 L40.8601675,31.8563696 C41.0101379,31.3583102 41.0597044,30.8627855 41.0597044,30.4234455 C41.0592808,29.5477228 40.8601675,28.8958944 40.8601675,28.8958944 L40.8258522,28.8722376 C40.8372906,28.8730825 40.8487291,28.8739274 40.8601675,28.8747723 C42.7809754,29.1109175 44.680601,29.4961848 46.5412512,30.0280396 C46.5412512,30.0280396 47.6355271,34.0691221 47.6351036,42.5441584 C47.6351036,43.4600132 47.6223941,44.4265611 47.5940099,45.4467591 C46.0972709,45.4661914 44.5831626,45.4792871 43.2283448,45.4792871" id="Fill-152" fill="#FF9366"></path>
                    <path d="M27.9720296,44.1815446 C27.9707586,44.1806997 27.9699113,44.1794323 27.9686404,44.178165 C27.9652512,43.3751023 27.9525419,42.5572541 27.9292414,41.728 C27.929665,41.7284224 27.9300887,41.7292673 27.9305123,41.7296898 C27.9542365,42.5593663 27.9673695,43.3780594 27.9720296,44.1815446" id="Fill-153" fill="#3963A0"></path>
                    <path d="M31.212069,46.8175842 C30.1033892,46.1154851 28.9714089,45.1451353 27.9720296,44.1815446 C27.9673695,43.3780594 27.9542365,42.5593663 27.9305123,41.7296898 C28.9493793,43.560132 30.1012709,45.3259406 31.212069,46.8175842" id="Fill-154" fill="#FF6F35"></path>
                    <path d="M26.693468,29.2591947 C20.217202,31.5868515 31.5853005,49.0759604 35.1155369,50.878099 C38.6457734,52.6806601 56.5803744,48.9069835 56.5803744,48.9069835 L55.8741576,45.2887657 C55.8741576,45.2887657 40.0056749,45.6926205 38.5428276,45.3242508 C37.0799803,44.9554587 33.605665,37.5010429 31.6069064,33.9804092 C29.6081478,30.460198 26.693468,29.2591947 26.693468,29.2591947" id="Fill-155" fill="#426AA5"></path>
                    <path d="M38.5313892,51.3660198 C37.012197,51.3660198 35.7959113,51.225769 35.1155369,50.878099 C32.3436256,49.4633399 24.7400394,38.3776106 24.7358008,32.5529769 C24.734532,30.9591023 25.3022167,29.7593663 26.693468,29.2591947 C26.693468,29.2591947 29.6081478,30.460198 31.6069064,33.9804092 C33.605665,37.5010429 37.0799803,44.9554587 38.5428276,45.3242508 C39.0012118,45.4395776 40.8733005,45.4792871 43.2283448,45.4792871 C47.1263054,45.4792871 52.3468867,45.3707195 54.6710049,45.3174917 L55.3191823,48.7092805 L41.6803448,48.7092805 C41.5689261,48.7092805 41.4664039,48.7456106 41.3837931,48.8077096 C41.2003547,48.8613597 41.0465714,48.969505 41.0465714,49.1460858 L41.0465714,50.3838416 C41.0465714,50.538033 41.1601084,50.6749043 41.3083842,50.7653069 C41.3990443,50.8688053 41.532069,50.9338614 41.6803448,50.9338614 L44.4408177,50.9338614 C42.3073399,51.1907063 40.2293596,51.3660198 38.5313892,51.3660198" id="Fill-156" fill="#FD8656"></path>
                    <polyline id="Fill-157" fill="#426AA5" points="54.6032217 44.9639076 55.5212611 49.7658086 57.2158424 49.18833 56.5803744 44.9639076 54.6032217 44.9639076"></polyline>
                    <polyline id="Fill-158" fill="#FF6F35" points="57.143399 48.7092805 55.3191823 48.7092805 54.6032217 44.9639076 56.5803744 44.9639076 57.143399 48.7092805"></polyline>
                    <path d="M39.34733,39.3137426 C38.866069,35.6173729 38.0996946,30.6701518 38.0996946,30.6701518 L35.4120887,32.6074719 C34.009399,31.9214257 33.0972906,31.2260858 32.5041872,30.6173465 C33.7162365,31.6738746 35.4874975,32.1850297 35.4874975,32.1850297 L38.0996946,30.2840396 L40.8601675,31.8563696 L38.8042167,31.1289241 C39.315133,33.3995512 39.34733,39.3137426 39.34733,39.3137426" id="Fill-161" fill="#FF6F35"></path>
                    <path d="M33.4633202,19.2642112 C33.937803,21.9805149 34.3614483,26.9484356 32.4253892,28.7142442 L38.0996946,30.2840396 L40.8601675,28.8958944 C37.8480493,28.1101518 37.9751429,25.8712079 38.547064,23.7801188 L33.4633202,19.2642112" id="Fill-162" fill="#FFD4B2"></path>
                    <path d="M36.7563302,26.7204121 C34.9324267,26.5081281 34.0512301,25.1017978 33.9537917,23.893613 C33.8936341,23.4048473 35.0638672,23.9687748 35.1854534,23.491415 L38.2813205,25.9211389 C38.2813205,26.4382067 37.7729904,26.7046312 36.7563302,26.7204121 Z" id="Fill-163" fill="#F4C199"></path>
                    <path d="M39.3324361,14.7028016 C38.0988059,16.0393787 39.1603148,17.5639426 43.0927775,19.4154031 C44.0306524,17.3564674 43.4622122,13.9212992 42.1923113,13.3224193 C40.9224104,12.7235394 40.4092057,13.5438642 39.3324361,14.7028016" id="Fill-164" fill="#242C2E" transform="translate(41.202230, 16.268334) rotate(21.000000) translate(-41.202230, -16.268334) "></path>
                    <path d="M32.5970304,17.9375565 C33.5930997,21.4737414 33.9976344,23.5905647 36.2068758,25.0379704 C39.5334407,27.21118 43.6141326,24.6083338 43.6981822,20.8429203 C43.7691608,17.4620819 42.1309874,12.2445737 38.3074973,11.5847315 C35.5772934,11.0992276 32.9655928,12.9146483 32.473866,15.6395945 C32.335926,16.4050476 32.3779491,17.1918821 32.5970304,17.9375565" id="Fill-165" fill="#FFD4B2" transform="translate(38.047397, 18.667517) rotate(21.000000) translate(-38.047397, -18.667517) "></path>
                    <path d="M34.1724728,12.5394864 C35.9763424,12.7490701 36.1609154,14.5998668 34.3784825,18.5612889 C32.3254617,17.6081724 30.5199977,14.626358 31.1013957,13.3495644 C31.6827936,12.0727708 32.5972601,12.3592671 34.1724728,12.5394864" id="Fill-171" fill="#242C2E" transform="translate(33.307642, 15.470173) rotate(21.000000) translate(-33.307642, -15.470173) "></path>
                    <path d="M31.0426021,19.2947373 C31.4805626,20.1090869 32.2249041,20.716073 33.1118621,20.9831561 C34.2888406,21.3243405 34.8911957,20.275729 34.5788752,19.1603714 C34.2960943,18.1548608 33.3403293,16.7654272 32.1544142,16.914463 C30.968499,17.0634989 30.5099576,18.2936902 31.0426021,19.2947373" id="Fill-172" fill="#FFD4B2" transform="translate(32.741575, 18.976035) rotate(21.000000) translate(-32.741575, -18.976035) "></path>
                    <path d="M32.954625,14.7759696 C32.954625,14.7759696 32.0604623,13.6252443 33.8167521,11.323383 C35.5730415,9.02194432 39.811585,8.31344764 43.0739779,8.94424145 C46.3363709,9.57503526 44.3916677,13.1689527 43.2264976,13.7688792 L43.3684805,13.2050007 C43.3684805,13.2050007 41.3626349,14.2988962 39.3476656,14.3008113 L39.9881306,13.7013836 C39.9881306,13.7013836 34.8583938,15.0323665 32.954625,14.7759696" id="Fill-173" fill="#242C2E" transform="translate(38.800206, 11.766697) rotate(21.000000) translate(-38.800206, -11.766697) "></path>
                    <path d="M33.4167192,27.0430627 C33.4167192,27.0430627 36.477133,29.3335446 38.0996946,29.8615974 C38.0996946,29.8615974 38.8508177,28.4489505 38.5428276,27.2863894 L40.8601675,28.8958944 C40.8601675,28.8958944 41.3092315,30.365571 40.8601675,31.8563696 L38.0996946,30.2840396 L35.4874975,32.1850297 C35.4874975,32.1850297 31.6272414,31.0706271 31.4048276,28.7328317 L33.4167192,27.0430627" id="Fill-177" fill="#426AA5"></path>
                    <path d="M35.4874975,32.1850297 C35.4874975,32.1850297 31.6272414,31.0706271 31.4048276,28.7328317 L33.4167192,27.0430627 C33.4167192,27.0430627 36.477133,29.3335446 38.0996946,29.8615974 C38.0996946,29.8615974 38.6173892,28.8882904 38.6169655,27.8925941 C38.6169655,27.6885545 38.594936,27.48367 38.5428276,27.2863894 L40.8601675,28.8958944 C40.8601675,28.8958944 41.0592808,29.5477228 41.0597044,30.4234455 C41.0597044,30.8627855 41.0101379,31.3583102 40.8601675,31.8563696 L38.0996946,30.2840396 L35.4874975,32.1850297" id="Fill-178" fill="#FF8C5E"></path>
                    <path d="M41.3083842,50.7653069 C41.1601084,50.6749043 41.0465714,50.538033 41.0465714,50.3838416 L41.0465714,49.1460858 C41.0465714,48.969505 41.2003547,48.8613597 41.3837931,48.8077096 C41.2639015,48.8976898 41.1863744,49.0408977 41.1863744,49.2018482 L41.1863744,50.4408713 C41.1863744,50.5650693 41.2321281,50.6787063 41.3083842,50.7653069" id="Fill-181" fill="#B6BCC1"></path>
                    <path d="M58.4753399,50.878099 L41.6820394,50.878099 C41.5613005,50.878099 41.4240394,50.8358548 41.3083842,50.7653069 C41.2321281,50.6787063 41.1863744,50.5650693 41.1863744,50.4408713 L41.1863744,49.2018482 C41.1863744,49.0408977 41.2639015,48.8976898 41.3837931,48.8077096 C41.4812315,48.7794059 41.5867192,48.7658878 41.6820394,48.7658878 L58.4753399,48.7658878 C58.7464729,48.7658878 58.8396749,48.8757228 58.8396749,49.1460858 L58.8396749,50.3838416 C58.8396749,50.658429 58.7464729,50.878099 58.4753399,50.878099" id="Fill-182" fill="#718FBC"></path>
                    <path d="M155.224086,102.401012 C155.224086,102.401012 151.968372,96.0479026 155.687977,89.7847739 C159.408007,83.5216452 160.486184,82.0464769 158.114618,80.7635198 C155.743475,79.4801403 154.655554,85.7736848 154.655554,85.7736848 C154.655554,85.7736848 152.656795,81.4440743 154.307317,76.9129587 C155.95784,72.3818432 156.992805,65.0017772 154.738588,64.2101205 C152.484795,63.4184637 154.308588,73.4168267 152.352618,76.8246683 C152.352618,76.8246683 150.710145,73.0307145 150.439859,69.3913746 C150.169574,65.7520347 150.591948,59.9409191 148.81179,58.4501205 C147.032056,56.9597442 145.891603,57.9909257 147.640835,66.0223977 C149.390066,74.0538696 149.377357,80.5822921 149.377357,80.5822921 C149.377357,80.5822921 145.513711,70.047005 142.921002,69.7398894 C140.328293,69.4323515 140.331258,72.8444175 142.550736,75.8036254 C144.770214,78.7628333 149.050303,84.0640611 149.752707,86.7921931 C149.752707,86.7921931 145.512017,78.863797 141.697514,81.2936848 C137.882588,83.7235726 145.017623,88.5123779 148.197505,90.2427013 C151.377386,91.9730248 153.585849,102.820074 153.585849,102.820074 L155.224086,102.401012" id="Fill-12" fill="#6BB7BF"></path>
                    <path d="M152.644792,104.610389 C152.644792,104.610389 155.81493,98.2141906 152.011443,92.0013325 C148.207955,85.7884744 147.11029,84.3276692 149.464063,83.0130289 C151.817837,81.6983886 152.990063,87.9767253 152.990063,87.9767253 C152.990063,87.9767253 154.930783,83.6209233 153.219679,79.1121972 C151.508576,74.6034711 150.374477,67.2381906 152.617679,66.4165404 C154.860881,65.5948903 153.171384,75.6164876 155.172684,78.9981378 C155.172684,78.9981378 156.76432,75.1826395 156.985886,71.53992 C157.207029,67.8972005 156.707127,62.0919992 158.46695,60.5779662 C160.226349,59.0635107 161.380783,60.0794843 159.739157,68.1337682 C158.097955,76.1876296 158.198359,82.7156296 158.198359,82.7156296 C158.198359,82.7156296 161.920083,72.1296494 164.508556,71.7878936 C167.097029,71.4461378 167.139393,74.8573589 164.960162,77.8461378 C162.780507,80.8349167 158.57159,86.1927517 157.906467,88.929755 C157.906467,88.929755 162.040398,80.9455966 165.887098,83.3243688 C169.733797,85.7031411 162.664004,90.5869959 159.507423,92.3595636 C156.351265,94.1321312 154.288536,105.007484 154.288536,105.007484 L152.644792,104.610389" id="Fill-13" fill="#A7D29E"></path>
                    <polyline id="Fill-14" fill="#8FA7C3" points="166.368483 98.4290429 140.179576 98.4290429 142.299074 115.190706 164.248985 115.190706 166.368483 98.4290429 157.616561 127.686568"></polyline>
                    <polygon id="Fill-5" fill="#ECECE8" points="112.865892 112.325703 116.54864 112.325703 116.54864 112.220092 112.865892 112.220092"></polygon>
                    <path d="M141.06974,115.262099 L76.0465379,115.262099 C74.3731388,115.262099 73.1221142,113.908172 73.2530206,112.238257 L81.4501339,7.37034983 C81.5806167,5.70043564 83.0430403,4.34650825 84.7164393,4.34650825 L149.739641,4.34650825 C151.41304,4.34650825 152.664065,5.70043564 152.533582,7.37034983 L144.336045,112.238257 C144.205562,113.908172 142.743139,115.262099 141.06974,115.262099" id="Fill-32" fill="#AFCDFB"></path>
                    <path d="M132.261306,11.2035908 L101.123375,11.2035908 C100.538321,11.2035908 100.101119,10.7304554 100.146873,10.1466403 L100.626016,4.01658086 C100.671346,3.43276568 101.182686,2.95963036 101.76774,2.95963036 L132.905671,2.95963036 C133.490301,2.95963036 133.927927,3.43276568 133.882173,4.01658086 L133.40303,10.1466403 C133.357277,10.7304554 132.845937,11.2035908 132.261306,11.2035908" id="Fill-34" fill="#426AA5"></path>
                    <path d="M133.514026,8.72343234 L129.383484,8.72343234 L129.413986,8.33478548 C129.41907,8.2680396 129.421612,8.20129373 129.421612,8.13581518 C129.419494,6.85539274 128.421809,5.84448845 127.112745,5.84448845 L107.109484,5.84448845 C105.73306,5.84448845 104.526095,6.96142574 104.418912,8.33478548 L104.38841,8.72343234 L100.257868,8.72343234 L100.626016,4.01658086 C100.671346,3.43276568 101.182686,2.95963036 101.76774,2.95963036 L114.900745,2.95963036 L114.752045,4.86188779 L119.623966,4.86188779 L119.772666,2.95963036 L132.905671,2.95963036 C133.463188,2.95963036 133.88641,3.38925413 133.885142,3.9350495 C133.885142,3.96208581 133.884292,3.98912211 133.882173,4.01658086 L133.514026,8.72343234 M128.536193,8.72343234 L105.2357,8.72343234 L105.266203,8.33478548 C105.336952,7.42780198 106.134252,6.68979538 107.043395,6.68979538 L127.046656,6.68979538 C127.911316,6.68979538 128.570508,7.35767657 128.571779,8.20340594 C128.571779,8.24649505 128.570085,8.29042904 128.566695,8.33478548 L128.536193,8.72343234" id="Fill-35" fill="#2B478A"></path>
                    <path d="M119.623966,4.86188779 L114.752045,4.86188779 L114.941838,2.43115512 C115.046902,1.08863366 116.222518,1.12561225e-15 117.568016,1.12561225e-15 C118.91309,1.12561225e-15 119.918824,1.08863366 119.81376,2.43115512 L119.623966,4.86188779" id="Fill-36" fill="#426AA5"></path>
                    <path d="M119.623966,4.86188779 L114.752045,4.86188779 L114.941838,2.43115512 C115.046902,1.08863366 116.222518,1.12561225e-15 117.568016,1.12561225e-15 C118.847425,1.12561225e-15 119.819691,0.984712871 119.821385,2.23640924 C119.821385,2.30062046 119.818843,2.36567657 119.81376,2.43115512 L119.623966,4.86188779" id="Fill-37" fill="#9ABCEF"></path>
                    <polyline id="Fill-38" fill="#FFFFFE" points="140.194489 110.885175 77.6059763 110.885175 85.5916906 8.72343234 148.180627 8.72343234 140.194489 110.885175"></polyline>
                    <path d="M107.043395,6.68979538 C106.134252,6.68979538 105.336952,7.42780198 105.266203,8.33478548 L105.012439,11.5804092 C104.941691,12.4873927 105.623336,13.2253993 106.532479,13.2253993 L126.53574,13.2253993 C127.444883,13.2253993 128.242183,12.4873927 128.312932,11.5804092 L128.566695,8.33478548 C128.637444,7.42780198 127.955799,6.68979538 127.046656,6.68979538 L107.043395,6.68979538 M126.470075,14.0707063 L106.46639,14.0707063 C105.089966,14.0707063 104.057966,12.953769 104.165149,11.5804092 L104.418912,8.33478548 C104.526095,6.96142574 105.73306,5.84448845 107.109484,5.84448845 L127.112745,5.84448845 C128.489168,5.84448845 129.521168,6.96142574 129.413986,8.33478548 L129.160223,11.5804092 C129.05304,12.953769 127.846075,14.0707063 126.470075,14.0707063" id="Fill-39" fill="#233862"></path>
                    <path d="M126.470075,14.0707063 L106.46639,14.0707063 C105.157326,14.0707063 104.159641,13.0602244 104.157523,11.779802 C104.157523,11.713901 104.160065,11.6475776 104.165149,11.5804092 L104.418912,8.33478548 C104.526095,6.96142574 105.73306,5.84448845 107.109484,5.84448845 L127.112745,5.84448845 C128.421809,5.84448845 129.419494,6.85539274 129.421612,8.13581518 C129.421612,8.20129373 129.41907,8.2680396 129.413986,8.33478548 L129.160223,11.5804092 C129.05304,12.953769 127.846075,14.0707063 126.470075,14.0707063 M105.007356,11.7117888 C105.008627,12.5579406 105.667819,13.2253993 106.532479,13.2253993 L126.53574,13.2253993 C127.444883,13.2253993 128.242183,12.4873927 128.312932,11.5804092 L128.566695,8.33478548 C128.570085,8.29042904 128.571779,8.24649505 128.571779,8.20340594 C128.570508,7.35767657 127.911316,6.68979538 127.046656,6.68979538 L107.043395,6.68979538 C106.134252,6.68979538 105.336952,7.42780198 105.266203,8.33478548 L105.012439,11.5804092 C105.00905,11.6247657 105.007356,11.6686997 105.007356,11.7117888" id="Fill-40" fill="#9ABCEF"></path>
                    <path d="M125.437651,7.29346535 L108.491838,7.29346535 C108.170292,7.29346535 107.929661,7.03324092 107.954656,6.71218482 L108.087257,5.02072607 C108.112252,4.69966997 108.393129,4.43944554 108.715099,4.43944554 L125.660912,4.43944554 C125.982459,4.43944554 126.22309,4.69966997 126.198095,5.02072607 L126.065494,6.71218482 C126.040498,7.03324092 125.759622,7.29346535 125.437651,7.29346535" id="Fill-41" fill="#E9F3FE"></path>
                    <polyline id="Fill-42" fill="#426AA5" points="139.786518 23.650429 92.3382423 23.650429 92.7419763 18.4856502 140.190252 18.4856502 139.786518 23.650429"></polyline>
                    <polyline id="Fill-63" fill="#E6E6E6" points="139.755931 23.6567657 92.3076552 23.6567657 92.7113892 18.1650165 140.159665 18.1650165 139.755931 23.6567657"></polyline>
                    <polyline id="Fill-64" fill="#D7D7D7" points="140.011004 36.3955116 88.9184926 36.3955116 89.087065 35.0627063 140.179576 35.0627063 140.011004 36.3955116"></polyline>
                    <polyline id="Fill-65" fill="#D7D7D7" points="139.587359 39.3935842 88.4948473 39.3935842 88.6634197 38.0603564 139.755931 38.0603564 139.587359 39.3935842"></polyline>
                    <polyline id="Fill-72" fill="#D7D7D7" points="138.315737 59.1672607 87.2239113 59.1672607 87.3924837 57.834033 138.484995 57.834033 138.315737 59.1672607"></polyline>
                    <polyline id="Fill-73" fill="#D7D7D7" points="137.892775 62.5873531 86.800266 62.5873531 86.9688407 61.2541254 138.06135 61.2541254 137.892775 62.5873531"></polyline>
                    <polyline id="Fill-80" fill="#D7D7D7" points="136.621841 81.5972541 85.52933 81.5972541 85.6979024 80.2640264 136.790414 80.2640264 136.621841 81.5972541"></polyline>
                    <polyline id="Fill-81" fill="#D7D7D7" points="136.198196 84.9767921 85.1056847 84.9767921 85.2742571 83.6435644 136.366768 83.6435644 136.198196 84.9767921"></polyline>
                    <path d="M83.4852414,50.9338614 L41.2566995,50.9338614 C40.9838719,50.9338614 40.7627291,50.7133465 40.7627291,50.4408713 L40.7627291,49.2018482 C40.7627291,48.9297954 40.9838719,48.7092805 41.2566995,48.7092805 L83.4852414,48.7092805 C83.7584926,48.7092805 83.9796355,48.9297954 83.9796355,49.2018482 L83.9796355,50.4408713 C83.9796355,50.7133465 83.7584926,50.9338614 83.4852414,50.9338614" id="Fill-179" fill="#37474F"></path>
                    <path d="M83.9110049,50.878099 L58.4753399,50.878099 C58.7464729,50.878099 58.8396749,50.658429 58.8396749,50.3838416 L58.8396749,49.1460858 C58.8396749,48.8757228 58.7464729,48.7658878 58.4753399,48.7658878 L41.6820394,48.7658878 C41.5867192,48.7658878 41.4812315,48.7794059 41.3837931,48.8077096 C41.4812315,48.7794059 41.5867192,48.7658878 41.6820394,48.7658878 L83.9110049,48.7658878 C84.1821379,48.7658878 84.2583941,48.8757228 84.2583941,49.1460858 L84.2583941,50.3838416 C84.2583941,50.658429 84.1821379,50.878099 83.9110049,50.878099" id="Fill-180" fill="#37474F"></path>
                    <polygon id="Rectangle" fill="#E6E6E6" points="88.4948473 41.8305893 93.6538863 41.8305893 93.1549458 46.9591023 88.071202 46.9591023"></polygon>
                    <polygon id="Rectangle" fill="#E6E6E6" points="97.391399 41.8305893 102.550438 41.8305893 102.051498 46.9591023 96.9677537 46.9591023"></polygon>
                    <polygon id="Rectangle" fill="#E6E6E6" points="106.287951 41.8305893 111.44699 41.8305893 110.948049 46.9591023 105.864305 46.9591023"></polygon>
                    <polygon id="Rectangle" fill="#E6E6E6" points="115.184502 41.8305893 120.343541 41.8305893 119.844601 46.9591023 114.760857 46.9591023"></polygon>
                    <polygon id="Rectangle" fill="#E6E6E6" points="86.800266 65.4785479 91.959305 65.4785479 91.4603645 70.6070609 86.3766207 70.6070609"></polygon>
                    <polygon id="Rectangle" fill="#E6E6E6" points="95.6968177 65.4785479 100.855857 65.4785479 100.356916 70.6070609 95.2731724 70.6070609"></polygon>
                    <polygon id="Rectangle" fill="#E6E6E6" points="104.593369 65.4785479 109.752408 65.4785479 109.253468 70.6070609 104.169724 70.6070609"></polygon>
                    <polygon id="Rectangle" fill="#E6E6E6" points="113.489921 65.4785479 118.64896 65.4785479 118.15002 70.6070609 113.066276 70.6070609"></polygon>
                    <polygon id="Rectangle" fill="#E6E6E6" points="85.1056847 87.8679868 90.2647237 87.8679868 89.7657833 92.9964998 84.6820394 92.9964998"></polygon>
                    <polygon id="Rectangle" fill="#E6E6E6" points="94.0022365 87.8679868 99.1612754 87.8679868 98.662335 92.9964998 93.5785911 92.9964998"></polygon>
                    <polygon id="Rectangle" fill="#E6E6E6" points="102.898788 87.8679868 108.057827 87.8679868 107.558887 92.9964998 102.475143 92.9964998"></polygon>
                    <polygon id="Rectangle" fill="#E6E6E6" points="111.79534 87.8679868 116.954379 87.8679868 116.455438 92.9964998 111.371695 92.9964998"></polygon>
                </g>
            </g>
        </g>
    </g>
</svg>