<svg width="28" height="23" viewBox="0 0 28 23" fill="none" xmlns="http://www.w3.org/2000/svg">
<path opacity="0.5" d="M26.125 0.75H8.25C7.47656 0.75 6.875 1.39453 6.875 2.125V6.25C4.55469 6.25 2.75 8.09766 2.75 10.375C2.75 12.6953 4.55469 14.5 6.875 14.5C9.15234 14.5 11 12.6953 11 10.375C11 8.61328 9.83984 7.10938 8.25 6.50781V2.125H26.125V17.25H23.375V14.5C23.375 13.7695 22.7305 13.125 22 13.125H16.5C15.7266 13.125 15.125 13.7695 15.125 14.5V17.25H13.1055C13.0625 17.25 13.0625 17.207 13.0195 17.1641C12.2891 16.0469 11.043 15.4883 9.71094 15.4883C8.55078 15.4883 8.25 15.875 6.875 15.875C5.5 15.875 5.19922 15.4883 3.99609 15.4883C2.66406 15.4883 1.41797 16.0469 0.6875 17.1641C0.257812 17.8086 0 18.582 0 19.4414V21.0312C0 22.0195 0.730469 22.75 1.71875 22.75H12.0312C12.9766 22.75 13.75 22.0195 13.75 21.0312V19.4414C13.75 19.1836 13.707 18.9258 13.6211 18.625H26.125C26.8555 18.625 27.5 18.0234 27.5 17.25V2.125C27.5 1.39453 26.8555 0.75 26.125 0.75ZM9.625 10.375C9.625 11.9219 8.37891 13.125 6.875 13.125C5.32812 13.125 4.125 11.9219 4.125 10.375C4.125 8.87109 5.32812 7.625 6.875 7.625C8.37891 7.625 9.625 8.87109 9.625 10.375ZM12.375 21.0312C12.375 21.2461 12.2031 21.375 12.0312 21.375H1.71875C1.50391 21.375 1.375 21.2461 1.375 21.0312V19.4414C1.375 18.8828 1.50391 18.3672 1.80469 17.8945C2.27734 17.25 3.09375 16.8633 3.99609 16.8633C4.94141 16.8633 5.28516 17.25 6.875 17.25C8.42188 17.25 8.80859 16.8633 9.71094 16.8633C10.6133 16.8633 11.4297 17.25 11.9023 17.8945C12.2031 18.3672 12.375 18.8828 12.375 19.4414V21.0312ZM22 17.25H16.5V14.5H22V17.25Z" fill="#333333"/>
</svg>
