<svg xmlns="http://www.w3.org/2000/svg" xmlns:xlink="http://www.w3.org/1999/xlink" width="252" height="168" viewBox="0 0 252 168">
    <defs>
        <path id="wdlghr2vca" d="M0.291 0.358L240.48 0.358 240.48 33.818 0.291 33.818z"/>
    </defs>
    <g fill="none" fill-rule="evenodd">
        <g>
            <g>
                <path fill="#E4E4DE" d="M40.372 20.202c0 11.158-9.037 20.203-20.186 20.203C9.038 40.405 0 31.36 0 20.202 0 9.045 9.038 0 20.186 0c11.149 0 20.186 9.045 20.186 20.202" transform="translate(-54 -140) translate(54 140)"/>
                <path fill="#CFD0CA" d="M40.372 20.652c0 10.646-8.624 19.277-19.262 19.277-10.637 0-19.26-8.63-19.26-19.277 0-10.646 8.623-19.277 19.26-19.277 10.638 0 19.262 8.63 19.262 19.277" transform="translate(-54 -140) translate(54 140)"/>
                <path fill="#FFFFFE" d="M39.156 20.652c0 9.974-8.08 18.06-18.046 18.06S3.065 30.626 3.065 20.652c0-9.974 8.08-18.06 18.045-18.06 9.967 0 18.046 8.086 18.046 18.06" transform="translate(-54 -140) translate(54 140)"/>
                <path fill="#D8D9D3" d="M8.481 33.552c-.886-.87-1.684-1.83-2.377-2.866.693 1.036 1.491 1.997 2.377 2.866" transform="translate(-54 -140) translate(54 140)"/>
                <path fill="#F1F0EC" d="M9.476 34.457c-.331-.28-.651-.57-.961-.872l-.001-.002-.018-.016-.009-.01-.006-.005c-.886-.87-1.684-1.83-2.377-2.866l-.013-.02-.001-.002c-.596-.894-1.114-1.845-1.545-2.842L29.51 4.665c2.293 1.209 4.294 2.897 5.87 4.932h-7.56c-2.867 0-5.19 2.325-5.19 5.194v11.778c-4.917 2.965-9.67 5.82-13.154 7.888" transform="translate(-54 -140) translate(54 140)"/>
                <path fill="#D8D9D3" d="M15.444 37.804c-.1-.033-.2-.068-.299-.102l.3.102h-.001" transform="translate(-54 -140) translate(54 140)"/>
                <path fill="#F1F0EC" d="M15.444 37.804c-.1-.034-.2-.067-.299-.102-.88-.31-1.73-.684-2.543-1.12 2.685-1.554 6.248-3.61 10.027-5.788v3.609l-7.185 3.4" transform="translate(-54 -140) translate(54 140)"/>
                <path fill="#B9BAB6" d="M20.936 6.641L21.285 6.641 21.285 3.903 20.936 3.903zM13.959 8.605L12.592 6.235 12.894 6.06 14.262 8.431 13.959 8.605M8.899 13.798L6.53 12.429 6.705 12.127 9.074 13.496 8.899 13.798M4.375 20.826L7.11 20.826 7.11 20.477 4.375 20.477zM6.705 29.178L6.53 28.875 8.899 27.506 9.074 27.809 6.705 29.178M12.894 35.244L12.592 35.07 13.959 32.699 14.262 32.874 12.894 35.244M20.936 37.401L21.285 37.401 21.285 34.664 20.936 34.664zM29.327 35.244L27.96 32.874 28.262 32.699 29.629 35.07 29.327 35.244M35.517 29.178L33.148 27.809 33.322 27.506 35.691 28.875 35.517 29.178M35.111 20.826L37.846 20.826 37.846 20.477 35.111 20.477zM33.322 13.798L33.148 13.496 35.517 12.127 35.691 12.429 33.322 13.798M28.262 8.605L27.96 8.431 29.327 6.06 29.629 6.235 28.262 8.605" transform="translate(-54 -140) translate(54 140)"/>
                <path fill="#B9BAB6" d="M21.373 5.143L21.966 21.871 20.255 21.85 20.908 5.137 21.373 5.143" transform="translate(-54 -140) translate(54 140)"/>
                <path fill="#959894" d="M31.784 14.819L20.539 22.002 19.721 20.496 31.562 14.41 31.784 14.819" transform="translate(-54 -140) translate(54 140)"/>
                <path fill="#B9BAB6" d="M21.695 20.652c0 .323-.262.585-.585.585-.322 0-.584-.262-.584-.585 0-.323.262-.585.584-.585.323 0 .585.262.585.585" transform="translate(-54 -140) translate(54 140)"/>
                <path fill="#CFD0CA" d="M182.514 108.646h28.903l.601-9.37h-30.02l.516 9.37zm29.238.357h-29.576l-.554-10.085h30.777l-.647 10.085zM183.675 120.249h27.196l.523-8.39h-28.136l.417 8.39zm27.532.357h-27.872l-.453-9.104h28.893l-.568 9.104z" transform="translate(-54 -140) translate(54 140)"/>
                <path fill="#CFD0CA" d="M195.156 104.697h4.342l.221-1.718h-4.784l.221 1.718zm4.656.357h-4.97l-.313-2.432h5.596l-.313 2.432zM195.156 116.913h4.342l.221-1.718h-4.784l.221 1.718zm4.656.357h-4.97l-.313-2.432h5.596l-.313 2.432z" transform="translate(-54 -140) translate(54 140)"/>
                <path fill="#E4E4DE" d="M185.495 124.756L184.157 134.28 182.41 134.28 182.41 124.756 185.495 124.756" transform="translate(-54 -140) translate(54 140)"/>
                <path fill="#CFD0CA" d="M185.495 124.756L185.051 127.921 182.41 127.921 182.41 124.756 185.495 124.756" transform="translate(-54 -140) translate(54 140)"/>
                <path fill="#B9BAB6" d="M198.849 43.568L204.567 43.568 204.567 37.846 198.849 37.846z" transform="translate(-54 -140) translate(54 140)"/>
                <path fill="#E4E4DE" d="M210.969 43.568L216.687 43.568 216.687 37.846 210.969 37.846z" transform="translate(-54 -140) translate(54 140)"/>
                <g transform="translate(-54 -140) translate(54 140) translate(11.17 133.922)">
                    <mask id="m7539r2zub" fill="#fff">
                        <use xlink:href="#wdlghr2vca"/>
                    </mask>
                    <path fill="#E4E4DE" d="M218.854 10.542c0 5.624-48.927 10.183-109.282 10.183-60.354 0-109.28-4.559-109.28-10.183S49.217.358 109.571.358c60.355 0 109.282 4.56 109.282 10.184" mask="url(#m7539r2zub)"/>
                    <path fill="#E4E4DE" d="M240.48 24.549c0 5.132-19.788 9.293-44.198 9.293s-44.198-4.16-44.198-9.293c0-5.133 19.788-9.293 44.198-9.293s44.198 4.16 44.198 9.293" mask="url(#m7539r2zub)"/>
                </g>
                <path fill="#132529" d="M22.447 100.412c.048-.395.097-.793.181-1.182.009-.037-.044-.05-.05-.011-.06.39-.135.776-.193 1.166-.029.195-.055.39-.079.586-.022.179-.064.373-.047.553l.068.005c.047-.175.042-.371.06-.552.018-.188.038-.376.06-.565M21.686 96.027c-.102.385-.202.775-.273 1.168-.036.198-.067.398-.093.598-.026.192-.061.393-.04.586l.03.002c.057-.178.068-.373.092-.558.026-.192.055-.385.089-.576.07-.404.142-.804.244-1.202l-.05-.018" transform="translate(-54 -140) translate(54 140)"/>
                <path fill="#334F55" d="M216.75 143.05H27.82c-2.867 0-5.19-2.326-5.19-5.194V14.79c0-2.869 2.323-5.194 5.19-5.194h188.93c2.866 0 5.19 2.325 5.19 5.194v123.065c0 2.868-2.324 5.194-5.19 5.194" transform="translate(-54 -140) translate(54 140)"/>
                <path fill="#253C40" d="M31.258 90.845h-1.066c-.278 0-.504-.225-.504-.503V62.306c0-.278.226-.503.504-.503h1.066c.277 0 .503.225.503.503v28.036c0 .278-.226.503-.503.503M218.603 76.324c0 2.074-1.68 3.756-3.753 3.756-2.073 0-3.753-1.682-3.753-3.756s1.68-3.756 3.753-3.756c2.073 0 3.753 1.682 3.753 3.756" transform="translate(-54 -140) translate(54 140)"/>
                <path fill="#FFFFFE" d="M36.579 137.265L208.111 137.265 208.111 15.227 36.579 15.227z" transform="translate(-54 -140) translate(54 140)"/>
                <path fill="#132529" d="M36.579 19.419L208.111 19.419 208.111 15.226 36.579 15.226z" transform="translate(-54 -140) translate(54 140)"/>
                <path fill="#B9BAB6" d="M39.91 17.323c0 .574-.466 1.04-1.04 1.04-.573 0-1.039-.466-1.039-1.04 0-.575.466-1.04 1.04-1.04.573 0 1.038.465 1.038 1.04" transform="translate(-54 -140) translate(54 140)"/>
                <path fill="#FFFFFE" d="M44.152 17.323c0 .574-.465 1.04-1.039 1.04-.574 0-1.039-.466-1.039-1.04 0-.575.465-1.04 1.04-1.04.573 0 1.038.465 1.038 1.04" transform="translate(-54 -140) translate(54 140)"/>
                <path fill="#F5BB3D" d="M48.395 17.323c0 .574-.465 1.04-1.04 1.04-.573 0-1.038-.466-1.038-1.04 0-.575.465-1.04 1.039-1.04.574 0 1.04.465 1.04 1.04M75.858 57.497L92.972 57.497 92.972 40.37 75.858 40.37z" transform="translate(-54 -140) translate(54 140)"/>
                <path fill="#E4E4DE" d="M93.995 57.497L111.109 57.497 111.109 40.37 93.995 40.37z" transform="translate(-54 -140) translate(54 140)"/>
                <path fill="#CFD0CA" d="M112.132 57.497L129.246 57.497 129.246 40.37 112.132 40.37z" transform="translate(-54 -140) translate(54 140)"/>
                <path fill="#E4E4DE" d="M130.269 57.497L147.383 57.497 147.383 40.37 130.269 40.37zM148.406 57.497L165.519 57.497 165.519 40.37 148.406 40.37zM166.543 57.497L183.656 57.497 183.656 40.37 166.543 40.37zM184.68 57.497L201.794 57.497 201.794 40.37 184.68 40.37z" transform="translate(-54 -140) translate(54 140)"/>
                <path fill="#F5BB3D" d="M75.858 75.582L92.972 75.582 92.972 58.455 75.858 58.455z" transform="translate(-54 -140) translate(54 140)"/>
                <path fill="#E4E4DE" d="M93.995 75.582L111.109 75.582 111.109 58.455 93.995 58.455zM112.132 75.582L129.246 75.582 129.246 58.455 112.132 58.455zM130.269 75.582L147.383 75.582 147.383 58.455 130.269 58.455zM148.406 75.582L165.519 75.582 165.519 58.455 148.406 58.455zM166.543 75.582L183.656 75.582 183.656 58.455 166.543 58.455zM184.68 75.582L201.794 75.582 201.794 58.455 184.68 58.455z" transform="translate(-54 -140) translate(54 140)"/>
                <path fill="#F5BB3D" d="M75.858 93.666L92.972 93.666 92.972 76.539 75.858 76.539z" transform="translate(-54 -140) translate(54 140)"/>
                <path fill="#E4E4DE" d="M93.995 93.666L111.109 93.666 111.109 76.539 93.995 76.539zM112.132 93.666L129.246 93.666 129.246 76.539 112.132 76.539zM130.269 93.666L147.383 93.666 147.383 76.539 130.269 76.539zM148.406 93.666L165.519 93.666 165.519 76.539 148.406 76.539z" transform="translate(-54 -140) translate(54 140)"/>
                <path fill="#CFD0CA" d="M166.543 93.666L183.656 93.666 183.656 76.539 166.543 76.539z" transform="translate(-54 -140) translate(54 140)"/>
                <path fill="#E4E4DE" d="M184.68 93.666L201.794 93.666 201.794 76.539 184.68 76.539z" transform="translate(-54 -140) translate(54 140)"/>
                <path fill="#F5BB3D" d="M75.858 111.751L92.972 111.751 92.972 94.623 75.858 94.623z" transform="translate(-54 -140) translate(54 140)"/>
                <path fill="#E4E4DE" d="M93.995 111.751L111.109 111.751 111.109 94.623 93.995 94.623zM112.132 111.751L129.246 111.751 129.246 94.623 112.132 94.623zM130.269 111.751L147.383 111.751 147.383 94.623 130.269 94.623zM148.406 111.751L165.519 111.751 165.519 94.623 148.406 94.623zM166.543 111.751L183.656 111.751 183.656 94.623 166.543 94.623zM184.68 111.751L201.794 111.751 201.794 94.623 184.68 94.623z" transform="translate(-54 -140) translate(54 140)"/>
                <path fill="#F5BB3D" d="M75.858 129.835L92.972 129.835 92.972 112.708 75.858 112.708z" transform="translate(-54 -140) translate(54 140)"/>
                <path fill="#E4E4DE" d="M93.995 129.835L111.109 129.835 111.109 112.708 93.995 112.708zM112.132 129.835L129.246 129.835 129.246 112.708 112.132 112.708zM130.269 129.835L147.383 129.835 147.383 112.708 130.269 112.708zM148.406 129.835L165.519 129.835 165.519 112.708 148.406 112.708zM166.543 129.835L183.656 129.835 183.656 112.708 166.543 112.708zM184.68 129.835L201.794 129.835 201.794 112.708 184.68 112.708z" transform="translate(-54 -140) translate(54 140)"/>
                <path fill="#F5BB3D" d="M128.15 43.53c0 1.097-.89 1.987-1.986 1.987-1.097 0-1.986-.89-1.986-1.988 0-1.098.889-1.987 1.986-1.987 1.096 0 1.985.89 1.985 1.987M97.854 62.102c0 .573-.464 1.037-1.036 1.037-.572 0-1.035-.464-1.035-1.037 0-.572.463-1.036 1.035-1.036.572 0 1.036.464 1.036 1.036" transform="translate(-54 -140) translate(54 140)"/>
                <path fill="#B9BAB6" d="M99.186 61.954L109.321 61.954 109.321 61.066 99.186 61.066zM99.186 63.546L105.758 63.546 105.758 62.658 99.186 62.658z" transform="translate(-54 -140) translate(54 140)"/>
                <path fill="#F5BB3D" d="M152.265 116.086c0 .573-.464 1.037-1.036 1.037-.572 0-1.035-.464-1.035-1.037 0-.572.463-1.036 1.035-1.036.572 0 1.036.464 1.036 1.036" transform="translate(-54 -140) translate(54 140)"/>
                <path fill="#B9BAB6" d="M153.596 115.939L163.732 115.939 163.732 115.05 153.596 115.05zM153.596 117.53L160.169 117.53 160.169 116.642 153.596 116.642z" transform="translate(-54 -140) translate(54 140)"/>
                <path fill="#F5BB3D" d="M170.402 43.263c0 .572-.464 1.036-1.036 1.036-.572 0-1.035-.464-1.035-1.036 0-.573.463-1.037 1.035-1.037.572 0 1.036.464 1.036 1.037" transform="translate(-54 -140) translate(54 140)"/>
                <path fill="#B9BAB6" d="M171.734 43.114L181.869 43.114 181.869 42.226 171.734 42.226zM171.734 44.707L178.306 44.707 178.306 43.818 171.734 43.818zM99.186 66.591L109.321 66.591 109.321 65.703 99.186 65.703z" transform="translate(-54 -140) translate(54 140)"/>
                <path fill="#F5BB3D" d="M96.818 65.481L97.21 66.21 98.024 66.358 97.452 66.956 97.563 67.776 96.818 67.416 96.074 67.776 96.185 66.956 95.613 66.358 96.427 66.21 96.818 65.481" transform="translate(-54 -140) translate(54 140)"/>
                <path fill="#B9BAB6" d="M171.738 79.591L181.874 79.591 181.874 78.703 171.738 78.703z" transform="translate(-54 -140) translate(54 140)"/>
                <path fill="#F5BB3D" d="M169.371 78.482L169.762 79.211 170.576 79.358 170.005 79.956 170.116 80.776 169.371 80.417 168.626 80.776 168.737 79.956 168.166 79.358 168.979 79.211 169.371 78.482M134.128 97.872c0 .573-.463 1.037-1.035 1.037-.572 0-1.037-.464-1.037-1.037 0-.572.465-1.036 1.037-1.036.572 0 1.035.464 1.035 1.036" transform="translate(-54 -140) translate(54 140)"/>
                <path fill="#B9BAB6" d="M135.46 97.724L145.595 97.724 145.595 96.836 135.46 96.836z" transform="translate(-54 -140) translate(54 140)"/>
                <path fill="#959894" d="M81.648 38.684c.048-.06.136-.067.195-.02.118.097.32.21.51.206.134 0 .254-.04.334-.098.08-.06.115-.126.115-.193l-.024-.085c-.016-.027-.04-.054-.08-.08-.077-.051-.208-.097-.366-.126h-.005c-.126-.024-.243-.057-.345-.104-.102-.048-.19-.115-.249-.21-.04-.063-.06-.138-.06-.218 0-.16.09-.3.213-.39.126-.091.288-.142.462-.142.256 0 .446.125.582.213.062.043.08.129.038.19-.04.065-.126.083-.19.04-.136-.09-.267-.17-.43-.17-.12 0-.227.037-.3.09-.072.054-.1.113-.1.169l.018.075.072.07c.07.047.19.09.334.117h.005c.136.027.262.061.37.112.109.054.205.123.266.222.04.064.064.145.064.227 0 .171-.096.318-.23.414-.13.097-.304.153-.494.153-.288-.003-.531-.147-.684-.267-.058-.048-.066-.137-.021-.195M84.262 39.149c-.43 0-.772-.348-.772-.773v-.952c0-.083.064-.147.147-.147.08 0 .15.064.15.147v.952c0 .262.214.476.475.476.265 0 .476-.214.476-.476v-.952c0-.083.067-.147.15-.147.082 0 .146.064.146.147v.952c0 .425-.344.773-.772.773M85.914 39.001c0 .081-.067.148-.144.148-.083 0-.147-.067-.147-.148v-1.556c-.003-.045.02-.093.059-.122.067-.046.157-.033.203.032l.863 1.195v-1.102c0-.077.064-.144.144-.144.08 0 .147.067.147.144v1.553c0 .081-.067.148-.147.148-.043 0-.082-.022-.11-.054l-.013-.016-.855-1.187v1.11M101.243 37.424v1.577c0 .081-.07.148-.15.148-.083 0-.147-.067-.147-.148v-1.125l-.384.535c-.03.04-.073.061-.12.061h-.006c-.048 0-.094-.02-.123-.061l-.382-.535v1.125c0 .081-.067.148-.15.148-.08 0-.147-.067-.147-.148v-1.577c0-.08.067-.147.148-.147h.007c.043 0 .091.021.118.062l.532.737.531-.737c.03-.04.072-.062.12-.062h.003c.08.003.15.067.15.147M103.207 38.186c0-.182-.072-.35-.181-.468-.113-.12-.262-.19-.423-.19-.17 0-.32.07-.432.19-.113.118-.182.286-.182.468 0 .182.07.35.182.465.112.12.262.193.432.193.16 0 .31-.072.423-.193.11-.115.181-.283.181-.465zm.035-.676c.166.176.27.412.27.676 0 .265-.104.503-.27.677-.157.173-.393.286-.639.286-.256 0-.491-.113-.654-.286-.166-.174-.265-.412-.265-.677 0-.264.1-.5.265-.676.163-.177.398-.286.654-.286.246 0 .482.11.639.286zM104.261 39.001c0 .081-.067.148-.144.148-.083 0-.147-.067-.147-.148v-1.556c-.003-.045.019-.093.058-.122.067-.046.158-.033.204.032l.862 1.195v-1.102c0-.077.065-.144.145-.144.08 0 .147.067.147.144v1.553c0 .081-.067.148-.147.148-.043 0-.083-.022-.11-.054l-.013-.016-.855-1.187v1.11M119.434 37.574h-.424V39c0 .083-.064.148-.147.148-.08 0-.147-.065-.147-.148v-1.427h-.423c-.082 0-.146-.07-.146-.15 0-.083.064-.147.146-.147h1.141c.08 0 .147.064.147.147 0 .08-.067.15-.147.15M120.796 39.149c-.43 0-.772-.348-.772-.773v-.952c0-.083.064-.147.147-.147.08 0 .15.064.15.147v.952c0 .262.213.476.475.476.264 0 .475-.214.475-.476v-.952c0-.083.067-.147.15-.147.083 0 .147.064.147.147v.952c0 .425-.345.773-.772.773M122.06 39.001v-1.577c0-.083.065-.147.148-.147h.873c.077 0 .147.064.147.147 0 .083-.07.15-.147.15h-.724v.49h.623c.08 0 .147.069.147.146 0 .083-.068.15-.147.15h-.623v.492h.724c.077 0 .147.067.147.15 0 .08-.07.147-.147.147h-.865l-.006-.003-.002.003c-.083 0-.148-.067-.148-.148M138.372 37.5l-.655 1.558-.013.024-.003.002-.013.016-.003.009-.019.013h-.002l-.024.016h-.003l-.003.003-.021.005h-.005l-.027.003-.024-.003h-.008l-.019-.005-.005-.003-.024-.016h-.003l-.019-.013-.005-.009-.01-.016-.006-.002-.01-.024-.35-.829-.35.829-.011.024-.003.002-.016.016-.003.009-.015.013h-.006l-.021.016h-.003l-.003.003-.021.005h-.008l-.024.003-.027-.003h-.008l-.019-.005-.005-.003-.024-.016h-.003l-.018-.013-.006-.009-.013-.016v-.002l-.013-.024-.658-1.559c-.029-.072.003-.16.08-.19.073-.032.16.003.19.078l.524 1.238.344-.821c.025-.06.08-.091.14-.091.056 0 .112.032.139.09l.344.822.521-1.238c.032-.075.117-.11.195-.078.072.03.107.118.075.19M138.797 39.001v-1.577c0-.083.064-.147.147-.147h.874c.077 0 .147.064.147.147 0 .083-.07.15-.147.15h-.724v.49h.622c.08 0 .147.069.147.146 0 .083-.067.15-.147.15h-.622v.492h.724c.077 0 .147.067.147.15 0 .08-.07.147-.147.147h-.866l-.005-.003-.003.003c-.083 0-.147-.067-.147-.148M140.677 38.852h.166c.352-.003.635-.286.635-.642 0-.35-.283-.636-.635-.636h-.166v1.278zm-.297.15v-1.578c0-.083.064-.147.147-.147h.316c.515 0 .932.42.932.933 0 .519-.417.939-.932.939h-.316c-.083 0-.147-.067-.147-.148zM155.487 37.574h-.425V39c0 .083-.063.148-.146.148-.081 0-.148-.065-.148-.148v-1.427h-.422c-.083 0-.147-.07-.147-.15 0-.083.064-.147.147-.147h1.141c.08 0 .147.064.147.147 0 .08-.067.15-.147.15M156.074 39.001v-1.577c0-.083.064-.147.147-.147.083 0 .149.064.149.147v.642h.692v-.642c0-.083.064-.147.147-.147.083 0 .15.064.15.147v1.577c0 .083-.067.148-.15.148-.083 0-.147-.065-.147-.148v-.641h-.692v.641c0 .083-.066.148-.15.148-.082 0-.146-.065-.146-.148M158.741 39.149c-.43 0-.772-.348-.772-.773v-.952c0-.083.064-.147.147-.147.08 0 .15.064.15.147v.952c0 .262.213.476.475.476.265 0 .476-.214.476-.476v-.952c0-.083.067-.147.15-.147.082 0 .146.064.146.147v.952c0 .425-.344.773-.772.773M173.33 39.001v-1.577c0-.08.064-.147.147-.147h.873c.077 0 .147.067.147.147 0 .083-.07.15-.147.15h-.724v.49h.623c.08 0 .147.069.147.146 0 .083-.068.15-.147.15h-.623v.641c0 .081-.066.148-.15.148-.082 0-.146-.067-.146-.148M175.808 37.852c0-.155-.123-.278-.276-.278h-.328v.55h.328c.153 0 .276-.122.276-.272zm.374 1.075c.027.077-.016.16-.094.187l-.058.008h-.003c-.027 0-.067-.005-.104-.03-.035-.02-.064-.056-.086-.093-.037-.078-.056-.174-.056-.321-.002-.05-.013-.086-.032-.115l-.08-.077c-.056-.038-.126-.06-.15-.064h-.315v.58c0 .08-.067.147-.15.147-.083 0-.146-.067-.146-.148v-1.577c0-.083.063-.147.146-.147h.478c.319 0 .572.257.572.575 0 .176-.08.332-.208.438.035.027.067.06.093.1.054.077.089.176.089.288-.003.08.005.131.01.158.043.013.078.045.094.09zM176.632 37.424c0-.083.064-.147.147-.147.08 0 .15.064.15.147v1.577c0 .083-.07.148-.15.148-.083 0-.147-.065-.147-.148v-1.577M190.993 38.684c.048-.06.136-.067.194-.02.118.097.321.21.51.206.134 0 .255-.04.335-.098.08-.06.114-.126.114-.193l-.023-.085c-.016-.027-.04-.054-.08-.08-.078-.051-.209-.097-.366-.126h-.006c-.125-.024-.243-.057-.345-.104-.101-.048-.19-.115-.248-.21-.04-.063-.062-.138-.062-.218 0-.16.091-.3.215-.39.125-.091.288-.142.462-.142.256 0 .445.125.581.213.062.043.081.129.038.19-.04.065-.125.083-.19.04-.136-.09-.267-.17-.43-.17-.12 0-.226.037-.299.09-.072.054-.101.113-.101.169l.018.075.072.07c.07.047.19.09.334.117h.006c.136.027.262.061.368.112.11.054.206.123.267.222.041.064.065.145.065.227 0 .171-.096.318-.23.414-.13.097-.305.153-.494.153-.289-.003-.532-.147-.684-.267-.06-.048-.067-.137-.021-.195M193.636 38.413l-.216-.574-.217.574h.433zm.11.294h-.65l-.13.348c-.025.059-.08.094-.14.094l-.05-.008c-.078-.03-.115-.115-.088-.193l.59-1.575c.024-.058.083-.096.142-.093.061-.003.117.035.141.093l.59 1.575c.027.078-.01.163-.088.193l-.05.008c-.06 0-.115-.035-.136-.094l-.131-.348zM195.393 37.574h-.425V39c0 .083-.064.148-.147.148-.08 0-.147-.065-.147-.148v-1.427h-.422c-.083 0-.147-.07-.147-.15 0-.083.064-.147.147-.147h1.14c.081 0 .148.064.148.147 0 .08-.067.15-.147.15M44.322 49.233v-1.578c0-.08.064-.147.147-.147h.874c.077 0 .147.067.147.147 0 .083-.07.15-.147.15h-.724v.49h.622c.08 0 .147.069.147.147 0 .082-.067.15-.147.15h-.622v.64c0 .081-.067.148-.15.148-.083 0-.147-.067-.147-.147M46.8 48.083c0-.155-.122-.278-.275-.278h-.328v.55h.328c.153 0 .275-.122.275-.272zm.374 1.075c.027.077-.016.16-.093.187l-.059.008h-.003c-.026 0-.066-.005-.104-.03-.035-.02-.064-.055-.085-.093-.038-.077-.057-.174-.057-.32-.002-.051-.013-.086-.031-.115l-.08-.078c-.057-.038-.126-.059-.15-.065h-.315v.58c0 .081-.067.148-.15.148-.083 0-.147-.067-.147-.147v-1.578c0-.083.064-.147.147-.147h.478c.318 0 .572.257.572.575 0 .177-.08.332-.208.439.034.026.066.059.093.098.053.078.088.177.088.29-.003.08.005.13.01.157.044.014.078.045.094.09zM47.624 47.655c0-.083.065-.147.147-.147.08 0 .15.064.15.147v1.578c0 .082-.07.147-.15.147-.082 0-.147-.065-.147-.147v-1.578M46.376 50.861v1.578c0 .083-.07.147-.15.147-.083 0-.147-.064-.147-.147v-1.315l-.107.06-.075.022c-.05 0-.099-.026-.126-.074-.045-.067-.02-.161.049-.201l.328-.195.011-.006.013-.007.016-.004.01-.002.02-.003h.03l.01.003.016.006.01.002.017.008.02.016.012.01.008.011.01.011.003.006.003.007.005.014.006.013.002.014.006.018v.008" transform="translate(-54 -140) translate(54 140)"/>
                <path fill="#F9C75A" d="M50.805 53.198L70.418 53.198 70.418 47.17 50.805 47.17z" transform="translate(-54 -140) translate(54 140)"/>
                <path fill="#FFFFFE" d="M52.584 49.229L68.638 49.229 68.638 48.859 52.584 48.859zM52.584 50.389L68.638 50.389 68.638 50.019 52.584 50.019zM52.584 51.549L63.331 51.549 63.331 51.179 52.584 51.179z" transform="translate(-54 -140) translate(54 140)"/>
                <path fill="#959894" d="M44.784 58.004v1.578c0 .08-.07.147-.15.147-.083 0-.147-.067-.147-.147v-1.126l-.385.535c-.029.04-.072.062-.12.062h-.005c-.048 0-.094-.022-.123-.062l-.382-.535v1.126c0 .08-.067.147-.15.147-.08 0-.147-.067-.147-.147v-1.578c0-.08.067-.147.148-.147h.007c.043 0 .091.022.118.062l.532.738.531-.738c.03-.04.072-.062.12-.062h.003c.08.003.15.067.15.147M46.748 58.766c0-.182-.072-.35-.181-.468-.112-.12-.262-.19-.422-.19-.171 0-.32.07-.433.19-.112.118-.182.286-.182.468 0 .182.07.35.182.465.112.12.262.193.433.193.16 0 .31-.072.422-.193.11-.114.181-.283.181-.465zm.035-.676c.166.176.27.412.27.676 0 .265-.104.503-.27.677-.157.174-.392.286-.638.286-.257 0-.492-.112-.655-.286-.165-.174-.264-.412-.264-.677 0-.264.099-.5.264-.676.163-.177.398-.286.655-.286.246 0 .48.11.638.286zM47.802 59.582c0 .08-.067.147-.144.147-.083 0-.147-.067-.147-.147v-1.556c-.003-.045.019-.094.059-.123.066-.046.157-.032.203.032l.863 1.195v-1.102c0-.077.064-.144.144-.144.08 0 .147.067.147.144v1.554c0 .08-.067.147-.147.147-.043 0-.083-.022-.11-.054l-.013-.016-.855-1.187v1.11M46.34 61.63l-.532.66h.532v-.66zm.47.808c0 .083-.067.147-.15.147h-.026v.203c0 .083-.064.147-.147.147-.083 0-.147-.064-.147-.147v-.203h-.842l-.09-.032c-.067-.051-.075-.142-.025-.206l.989-1.23.005-.005.008-.011.014-.008.01-.008.017-.006.01-.007.016-.006.01-.003h.046l.013.003.016.006.011.002.014.01.013.009.003.003.008.005.01.01.008.012.01.012.006.011.006.016.002.011.003.016.003.013v1.089h.026c.083 0 .15.067.15.147z" transform="translate(-54 -140) translate(54 140)"/>
                <path fill="#FDE1A0" d="M50.805 71.811L70.418 71.811 70.418 57.519 50.805 57.519z" transform="translate(-54 -140) translate(54 140)"/>
                <path fill="#FFFFFE" d="M52.584 59.578L68.638 59.578 68.638 59.208 52.584 59.208zM52.584 60.738L68.638 60.738 68.638 60.368 52.584 60.368zM52.584 61.898L63.331 61.898 63.331 61.528 52.584 61.528zM52.584 64.362L68.638 64.362 68.638 63.991 52.584 63.991zM52.584 65.522L68.638 65.522 68.638 65.151 52.584 65.151zM52.584 66.681L66.724 66.681 66.724 66.311 52.584 66.311zM52.584 67.841L68.638 67.841 68.638 67.471 52.584 67.471zM52.584 69.001L68.638 69.001 68.638 68.631 52.584 68.631zM52.584 70.162L63.331 70.162 63.331 69.791 52.584 69.791z" transform="translate(-54 -140) translate(54 140)"/>
                <path fill="#959894" d="M44.322 76.976V75.4c0-.08.064-.147.147-.147h.874c.077 0 .147.066.147.147 0 .083-.07.15-.147.15h-.724v.489h.622c.08 0 .147.07.147.147 0 .083-.067.15-.147.15h-.622v.641c0 .08-.067.147-.15.147-.083 0-.147-.067-.147-.147M46.8 75.827c0-.156-.122-.279-.275-.279h-.328v.551h.328c.153 0 .275-.123.275-.272zm.374 1.075c.027.077-.016.16-.093.187l-.059.008h-.003c-.026 0-.066-.006-.104-.03-.035-.021-.064-.056-.085-.093-.038-.078-.057-.174-.057-.321-.002-.051-.013-.086-.031-.115l-.08-.078c-.057-.037-.126-.059-.15-.064h-.315v.58c0 .08-.067.147-.15.147-.083 0-.147-.067-.147-.147V75.4c0-.083.064-.147.147-.147h.478c.318 0 .572.257.572.575 0 .176-.08.331-.208.438.034.027.066.059.093.1.053.077.088.175.088.288-.003.08.005.13.01.158.044.013.078.045.094.09zM47.624 75.399c0-.083.065-.147.147-.147.08 0 .15.064.15.147v1.577c0 .083-.07.147-.15.147-.082 0-.147-.064-.147-.147V75.4M45.568 78.605v1.577c0 .083-.07.147-.15.147-.082 0-.147-.064-.147-.147v-1.315l-.106.061-.075.022c-.051 0-.1-.027-.126-.075-.045-.067-.021-.16.048-.2l.329-.196.01-.005.014-.008.016-.003.01-.003.02-.002h.029l.01.002.016.006.011.002.016.009.01.008.012.008.01.01.008.011.011.01.003.006.002.008.006.013.005.014.002.013.006.019v.008M46.893 79.196c.13.128.194.3.194.47 0 .17-.066.34-.194.468-.129.131-.3.195-.468.195h-.005c-.166 0-.34-.064-.465-.195-.062-.056-.062-.152 0-.214.056-.058.155-.058.213 0 .07.073.16.107.257.107.09 0 .184-.034.254-.107.069-.07.106-.163.106-.254 0-.096-.034-.187-.106-.256-.07-.073-.16-.105-.254-.105-.09 0-.187.032-.257.105-.058.059-.155.059-.213 0l-.03-.035-.002-.008-.006-.013-.002-.019-.003-.006v-.045l.08-.693c.008-.045.032-.082.067-.106l.01-.006.008-.005.07-.016h.788c.086 0 .152.066.152.152 0 .08-.066.15-.152.15h-.657l-.032.265c.059-.016.12-.024.18-.024.167 0 .338.064.467.195" transform="translate(-54 -140) translate(54 140)"/>
                <path fill="#F9C75A" d="M50.805 80.942L70.418 80.942 70.418 74.913 50.805 74.913z" transform="translate(-54 -140) translate(54 140)"/>
                <path fill="#FFFFFE" d="M52.584 76.973L68.638 76.973 68.638 76.602 52.584 76.602zM52.584 78.133L68.638 78.133 68.638 77.763 52.584 77.763zM52.584 79.293L63.331 79.293 63.331 78.923 52.584 78.923z" transform="translate(-54 -140) translate(54 140)"/>
                <path fill="#959894" d="M44.616 97.979h-.424v1.427c0 .083-.064.147-.147.147-.08 0-.147-.064-.147-.147v-1.427h-.422c-.083 0-.147-.07-.147-.15 0-.083.064-.147.147-.147h1.14c.08 0 .147.064.147.147 0 .08-.066.15-.147.15M45.203 99.406v-1.577c0-.083.064-.147.147-.147.083 0 .15.064.15.147v.642h.692v-.642c0-.083.064-.147.147-.147.082 0 .149.064.149.147v1.577c0 .083-.067.147-.15.147-.082 0-.146-.064-.146-.147v-.642H45.5v.642c0 .083-.067.147-.15.147-.083 0-.147-.064-.147-.147M47.87 99.553c-.43 0-.771-.347-.771-.772v-.952c0-.083.064-.147.147-.147.08 0 .149.064.149.147v.952c0 .262.214.476.476.476.264 0 .475-.214.475-.476v-.952c0-.083.067-.147.15-.147.082 0 .146.064.146.147v.952c0 .425-.344.772-.771.772M45.846 102.613c0 .082-.064.146-.147.146h-.95c-.041 0-.084-.016-.11-.048-.057-.061-.052-.152.007-.208l.791-.717c.078-.07.112-.16.112-.256 0-.086-.03-.166-.088-.233-.07-.078-.163-.113-.256-.113-.083 0-.166.03-.233.089l-.083.075c-.06.056-.152.05-.208-.011-.053-.062-.05-.153.011-.209l.083-.075c.12-.112.277-.165.43-.165.174 0 .35.072.475.21.112.121.166.28.166.432 0 .173-.072.35-.211.475l-.505.458h.569c.083 0 .147.067.147.15M46.676 101.327c0 .083.066.152.152.152.08 0 .147-.07.147-.152 0-.081-.067-.148-.147-.148-.086 0-.152.067-.152.148zm.497.796c0-.19-.156-.348-.345-.348-.192 0-.348.158-.35.348.002.19.158.345.35.345.19 0 .345-.155.345-.345zm.29 0c0 .35-.285.636-.635.636-.353 0-.642-.286-.642-.636 0-.222.113-.417.286-.532-.056-.072-.087-.166-.087-.264 0-.241.197-.44.443-.44.24 0 .438.199.438.44 0 .098-.032.192-.088.264.17.115.286.31.286.532z" transform="translate(-54 -140) translate(54 140)"/>
                <path fill="#F9C75A" d="M50.805 104.936L70.418 104.936 70.418 97.343 50.805 97.343z" transform="translate(-54 -140) translate(54 140)"/>
                <path fill="#FFFFFE" d="M52.584 99.403L68.638 99.403 68.638 99.033 52.584 99.033zM52.584 100.563L68.638 100.563 68.638 100.192 52.584 100.192zM52.584 101.723L68.638 101.723 68.638 101.352 52.584 101.352zM52.584 102.883L63.331 102.883 63.331 102.513 52.584 102.513z" transform="translate(-54 -140) translate(54 140)"/>
                <path fill="#959894" d="M45.639 85.823l-.655 1.558-.013.025-.003.002-.013.016-.003.008-.019.014h-.003l-.023.016h-.003l-.003.002-.021.006h-.005l-.027.002-.024-.002h-.008l-.019-.006-.005-.002-.024-.016h-.003l-.019-.014-.005-.008-.01-.016-.006-.002-.01-.025-.35-.828-.35.828-.011.025-.003.002-.016.016-.003.008-.016.014h-.005l-.022.016h-.002l-.003.002-.021.006h-.008l-.024.002-.027-.002h-.008l-.019-.006-.005-.002-.024-.016h-.003l-.018-.014-.006-.008-.013-.016v-.002l-.013-.025-.657-1.558c-.03-.072.002-.16.08-.19.072-.032.16.002.19.077l.523 1.239.345-.822c.023-.058.08-.09.138-.09.056 0 .112.032.139.09l.345.822.52-1.239c.033-.075.118-.11.196-.077.072.03.107.118.075.19M46.064 87.325v-1.577c0-.083.064-.147.147-.147h.874c.077 0 .146.064.146.147 0 .083-.069.15-.146.15h-.724v.49h.622c.08 0 .147.068.147.146 0 .083-.066.15-.147.15h-.622v.492h.724c.077 0 .146.067.146.15 0 .08-.069.146-.146.146h-.866l-.005-.002-.003.002c-.083 0-.147-.066-.147-.147M47.944 87.176h.165c.353-.003.636-.286.636-.642 0-.35-.283-.636-.636-.636h-.165v1.278zm-.297.15v-1.578c0-.083.064-.147.147-.147h.315c.516 0 .933.42.933.933 0 .519-.417.938-.933.938h-.315c-.083 0-.147-.066-.147-.147zM45.74 90.531c0 .083-.065.148-.148.148h-.95c-.04 0-.084-.016-.11-.048-.056-.062-.051-.153.008-.21l.79-.715c.078-.07.113-.16.113-.257 0-.086-.03-.166-.088-.233-.07-.077-.164-.112-.257-.112-.083 0-.166.03-.232.088l-.083.075c-.061.056-.152.051-.208-.01-.054-.062-.051-.153.01-.21l.083-.074c.12-.112.278-.166.43-.166.174 0 .35.072.476.212.112.12.165.277.165.43 0 .174-.072.35-.21.476l-.506.457h.57c.082 0 .146.067.146.15M47.162 89.743c0-.193-.054-.361-.129-.476-.076-.112-.165-.166-.248-.163-.082-.003-.173.051-.254.163-.074.115-.128.283-.128.476 0 .19.054.361.128.473.08.116.172.166.254.166.083 0 .172-.05.248-.166.075-.112.129-.283.129-.473zm-1.055 0c.003-.246.064-.468.181-.639.113-.171.286-.297.497-.297.206 0 .382.126.494.297.116.171.18.393.18.64 0 .242-.064.467-.18.638-.112.169-.288.297-.494.297-.21 0-.384-.128-.497-.297-.117-.171-.178-.396-.181-.639z" transform="translate(-54 -140) translate(54 140)"/>
                <path fill="#FDE1A0" d="M50.805 94.907L70.418 94.907 70.418 85.263 50.805 85.263z" transform="translate(-54 -140) translate(54 140)"/>
                <path fill="#FFFFFE" d="M52.584 87.322L68.638 87.322 68.638 86.952 52.584 86.952zM52.584 88.482L68.638 88.482 68.638 88.112 52.584 88.112zM52.584 89.642L68.638 89.642 68.638 89.272 52.584 89.272zM52.584 90.802L68.638 90.802 68.638 90.432 52.584 90.432zM52.584 91.962L68.638 91.962 68.638 91.592 52.584 91.592zM52.584 93.122L63.331 93.122 63.331 92.751 52.584 92.751z" transform="translate(-54 -140) translate(54 140)"/>
                <path fill="#EC9993" d="M190.638 161.56c.864.28 25.499-.04 26.428-.649.357-.225.52-3.82.592-8.17l-.029-16.066-16.062.165.207 16.064s-9.375 4.343-10.327 5.12c-.945.775-1.673 3.262-.809 3.537" transform="translate(-54 -140) translate(54 140)"/>
                <path fill="#F5BB3D" d="M198.041 154.59c.064-.019.098-.038.101-.056 0 0-.037.018-.101.056" transform="translate(-54 -140) translate(54 140)"/>
                <path fill="#132529" d="M217.61 155.01c-.09 3.272-.25 5.717-.545 5.902-.927.61-25.563.929-26.425.648-.866-.274-.137-2.76.808-3.535.454-.374 2.837-1.559 5.199-2.696-3.509 1.997-6.147 4.754 20.963-.318" transform="translate(-54 -140) translate(54 140)"/>
                <path fill="#253C40" d="M217.61 155.01c-.09 3.272-.25 5.717-.545 5.902-.366.24-4.47.439-9.336.569l5.934-5.751c1.24-.22 2.553-.46 3.947-.72" transform="translate(-54 -140) translate(54 140)"/>
                <path fill="#EC9993" d="M222.685 65.657s-4.162 41.971-4.765 45.15c-.14.724.237 4.35.18 9.412-.128 11.042-.417 30.96-.417 30.96h-15.974s-.51-34.51.259-40.86c.769-6.355 5.683-44.662 5.683-44.662h15.034" transform="translate(-54 -140) translate(54 140)"/>
                <path fill="#EC9993" d="M210.803 163.03c.882.218 25.431-1.847 26.316-2.52.34-.25.248-3.849.012-8.192-.003-.045-1.703-15.981-1.703-15.981l-15.79 1.281 1.66 15.988s-9.044 4.997-9.939 5.84c-.887.838-1.438 3.371-.556 3.585" transform="translate(-54 -140) translate(54 140)"/>
                <path fill="#132529" d="M237.118 160.508c-.883.675-25.433 2.74-26.316 2.521-.88-.212-.329-2.744.558-3.583.513-.483 3.72-2.343 6.356-3.836-3.454 2.271-10.032 7.203 19.494-1.764.175 3.63.21 6.443-.092 6.662" transform="translate(-54 -140) translate(54 140)"/>
                <path fill="#EC9993" d="M221.098 151.814l15.852-1.195s-4.118-36.995-4.205-39.337c-.131-3.481-1.457-18.192-2.857-29.826 0 0 1.533-8.39-2.315-15.813h-19.937s1.336 9.054 3.623 14.795c0 0 1.742.54 4.433 2.025 0 0 1.642 26.28 1.716 29.516.147 6.395 3.69 39.835 3.69 39.835" transform="translate(-54 -140) translate(54 140)"/>
                <path fill="#132529" d="M207.636 65.643s-6.297 42.885-6.545 46.871c-.248 3.987-.363 11.835-.363 11.835s9.29 3.354 13.893 3.397c10.244.093 20.224-5.449 20.224-5.449s-4.638-40.736-4.666-40.822c-.029-.085 2.02-7.632-2.21-15.855l-20.333.023" transform="translate(-54 -140) translate(54 140)"/>
                <path fill="#253C40" d="M230.772 121.433c-.167 0-.303.136-.303.303 0 .167.136.303.303.303.167 0 .302-.136.302-.303 0-.167-.135-.303-.302-.303zm-4.568 0c-.166 0-.302.136-.302.303 0 .167.136.303.302.303.167 0 .303-.136.303-.303 0-.167-.136-.303-.303-.303zm-4.566 0c-.167 0-.303.136-.303.303 0 .167.136.303.303.303.167 0 .302-.136.302-.303 0-.167-.135-.303-.302-.303zm-4.568 0c-.167 0-.302.136-.302.303 0 .167.135.303.302.303.167 0 .303-.136.303-.303 0-.167-.136-.303-.303-.303zm-4.567 0c-.167 0-.302.136-.302.303 0 .167.135.303.302.303.167 0 .303-.136.303-.303 0-.167-.136-.303-.303-.303zm-4.567 0c-.167 0-.302.136-.302.303 0 .167.135.303.302.303.167 0 .303-.136.303-.303 0-.167-.136-.303-.303-.303zm-4.567 0c-.167 0-.302.136-.302.303 0 .167.135.303.302.303.167 0 .303-.136.303-.303 0-.167-.136-.303-.303-.303zm25.12 3.473c-.164 0-.297.13-.305.29.177-.064.354-.129.527-.19-.052-.06-.133-.1-.221-.1zm-4.568.001c-.167 0-.302.136-.302.303 0 .167.135.303.302.303.167 0 .303-.136.303-.303 0-.167-.136-.303-.303-.303zm-4.567 0c-.167 0-.302.136-.302.303 0 .167.135.303.302.303.167 0 .302-.136.302-.303 0-.167-.135-.303-.302-.303zm-4.567 0c-.167 0-.303.136-.303.303 0 .167.136.303.303.303.167 0 .302-.136.302-.303 0-.167-.135-.303-.302-.303zm-4.567 0c-.168 0-.303.136-.303.303 0 .167.135.303.303.303.167 0 .302-.136.302-.303 0-.167-.135-.303-.302-.303zm-4.567 0c-.168 0-.303.136-.303.303 0 .167.135.303.303.303.167 0 .302-.136.302-.303 0-.167-.135-.303-.302-.303zm25.119-10.405c-.167 0-.303.136-.303.303 0 .167.136.302.303.302.167 0 .302-.135.302-.302 0-.167-.135-.303-.302-.303zm-4.568 0c-.166 0-.302.136-.302.303 0 .167.136.302.302.302.167 0 .303-.135.303-.302 0-.167-.136-.303-.303-.303zm-4.566 0c-.167 0-.303.136-.303.303 0 .167.136.302.303.302.167 0 .302-.135.302-.302 0-.167-.135-.303-.302-.303zm-4.568 0c-.167 0-.302.136-.302.303 0 .167.135.302.302.302.167 0 .303-.135.303-.302 0-.167-.136-.303-.303-.303zm-4.567 0c-.167 0-.302.136-.302.303 0 .167.135.302.302.302.167 0 .303-.135.303-.302 0-.167-.136-.303-.303-.303zm-4.567 0c-.167 0-.302.136-.302.303 0 .167.135.302.302.302.167 0 .303-.135.303-.302 0-.167-.136-.303-.303-.303zm-4.567 0c-.167 0-.302.136-.302.303 0 .167.135.302.302.302.167 0 .303-.135.303-.302 0-.167-.136-.303-.303-.303zm29.686 3.474c-.167 0-.302.136-.302.303 0 .167.135.302.302.302.167 0 .303-.135.303-.302 0-.167-.136-.303-.303-.303zm-4.567 0c-.167 0-.302.136-.302.303 0 .167.135.302.302.302.167 0 .302-.135.302-.302 0-.167-.135-.303-.302-.303zm-4.567 0c-.167 0-.302.136-.302.303 0 .167.135.302.302.302.167 0 .303-.135.303-.302 0-.167-.136-.303-.303-.303zm-4.567 0c-.167 0-.302.136-.302.303 0 .167.135.302.302.302.167 0 .302-.135.302-.302 0-.167-.135-.303-.302-.303zm-4.567 0c-.167 0-.303.136-.303.303 0 .167.136.302.303.302.167 0 .302-.135.302-.302 0-.167-.135-.303-.302-.303zm-4.567 0c-.168 0-.303.136-.303.303 0 .167.135.302.303.302.167 0 .302-.135.302-.302 0-.167-.135-.303-.302-.303zm-4.567 0c-.168 0-.303.136-.303.303 0 .167.135.302.303.302.167 0 .302-.135.302-.302 0-.167-.135-.303-.302-.303zm-4.57 0c-.084 0-.16.037-.216.093v.004l-.013.4c.057.064.137.108.23.108.169 0 .302-.137.302-.302 0-.17-.133-.302-.302-.302zm29.689-10.405c-.167 0-.303.136-.303.303 0 .167.136.302.303.302.167 0 .302-.135.302-.302 0-.167-.135-.303-.302-.303zm-4.568 0c-.166 0-.302.136-.302.303 0 .167.136.302.302.302.167 0 .303-.135.303-.302 0-.167-.136-.303-.303-.303zm-4.566 0c-.167 0-.303.136-.303.303 0 .167.136.302.303.302.167 0 .302-.135.302-.302 0-.167-.135-.303-.302-.303zm-4.568 0c-.167 0-.302.136-.302.303 0 .167.135.302.302.302.167 0 .303-.135.303-.302 0-.167-.136-.303-.303-.303zm-4.567 0c-.167 0-.302.136-.302.303 0 .167.135.302.302.302.167 0 .303-.135.303-.302 0-.167-.136-.303-.303-.303zm-4.567 0c-.167 0-.302.136-.302.303 0 .167.135.302.302.302.167 0 .303-.135.303-.302 0-.167-.136-.303-.303-.303zm-4.567 0c-.167 0-.302.136-.302.303 0 .167.135.302.302.302.167 0 .303-.135.303-.302 0-.167-.136-.303-.303-.303zm29.686 3.474c-.167 0-.302.136-.302.303 0 .167.135.302.302.302.167 0 .303-.135.303-.302 0-.167-.136-.303-.303-.303zm-4.567 0c-.167 0-.302.136-.302.303 0 .167.135.302.302.302.167 0 .302-.135.302-.302 0-.167-.135-.303-.302-.303zm-4.567 0c-.167 0-.302.136-.302.303 0 .167.135.302.302.302.167 0 .303-.135.303-.302 0-.167-.136-.303-.303-.303zm-4.567 0c-.167 0-.302.136-.302.303 0 .167.135.302.302.302.167 0 .302-.135.302-.302 0-.167-.135-.303-.302-.303zm-4.567 0c-.167 0-.303.136-.303.303 0 .167.136.302.303.302.167 0 .302-.135.302-.302 0-.167-.135-.303-.302-.303zm-4.567 0c-.168 0-.303.136-.303.303 0 .167.135.302.303.302.167 0 .302-.135.302-.302 0-.167-.135-.303-.302-.303zm-4.567 0c-.168 0-.303.136-.303.303 0 .167.135.302.303.302.167 0 .302-.135.302-.302 0-.167-.135-.303-.302-.303zm-4.42.038c-.024.202-.044.384-.06.552.124-.036.213-.153.213-.285 0-.113-.06-.214-.153-.267zm29.539-10.443c-.167 0-.303.135-.303.302 0 .167.136.303.303.303.167 0 .302-.136.302-.303 0-.167-.135-.302-.302-.302zm-4.568 0c-.166 0-.302.135-.302.302 0 .167.136.303.302.303.167 0 .303-.136.303-.303 0-.167-.136-.302-.303-.302zm-4.566 0c-.167 0-.303.135-.303.302 0 .167.136.303.303.303.167 0 .302-.136.302-.303 0-.167-.135-.302-.302-.302zm-4.568 0c-.167 0-.302.135-.302.302 0 .167.135.303.302.303.167 0 .303-.136.303-.303 0-.167-.136-.302-.303-.302zm-4.567 0c-.167 0-.302.135-.302.302 0 .167.135.303.302.303.167 0 .303-.136.303-.303 0-.167-.136-.302-.303-.302zm-4.567 0c-.167 0-.302.135-.302.302 0 .167.135.303.302.303.167 0 .303-.136.303-.303 0-.167-.136-.302-.303-.302zm-4.567 0c-.167 0-.302.135-.302.302 0 .167.135.303.302.303.167 0 .303-.136.303-.303 0-.167-.136-.302-.303-.302zm29.424 3.63c-.028.046-.04.093-.04.146 0 .08.028.149.08.202-.016-.117-.028-.23-.04-.347zm-4.305-.156c-.167 0-.302.135-.302.303 0 .166.135.302.302.302.167 0 .302-.136.302-.302 0-.168-.135-.303-.302-.303zm-4.567 0c-.167 0-.302.135-.302.303 0 .166.135.302.302.302.167 0 .303-.136.303-.302 0-.168-.136-.303-.303-.303zm-4.567 0c-.167 0-.302.135-.302.303 0 .166.135.302.302.302.167 0 .302-.136.302-.302 0-.168-.135-.303-.302-.303zm-4.567 0c-.167 0-.303.135-.303.303 0 .166.136.302.303.302.167 0 .302-.136.302-.302 0-.168-.135-.303-.302-.303zm-4.567 0c-.168 0-.303.135-.303.303 0 .166.135.302.303.302.167 0 .302-.136.302-.302 0-.168-.135-.303-.302-.303zm-4.567 0c-.168 0-.303.135-.303.303 0 .166.135.302.303.302.167 0 .302-.136.302-.302 0-.168-.135-.303-.302-.303zm25.119-10.406c-.167 0-.303.136-.303.303 0 .167.136.303.303.303.167 0 .302-.136.302-.303 0-.167-.135-.303-.302-.303zm-4.568 0c-.166 0-.302.136-.302.303 0 .167.136.303.302.303.167 0 .303-.136.303-.303 0-.167-.136-.303-.303-.303zm-4.566 0c-.167 0-.303.136-.303.303 0 .167.136.303.303.303.167 0 .302-.136.302-.303 0-.167-.135-.303-.302-.303zm-4.568 0c-.167 0-.302.136-.302.303 0 .167.135.303.302.303.167 0 .303-.136.303-.303 0-.167-.136-.303-.303-.303zm-4.567 0c-.167 0-.302.136-.302.303 0 .167.135.303.302.303.167 0 .303-.136.303-.303 0-.167-.136-.303-.303-.303zm-4.567 0c-.167 0-.302.136-.302.303 0 .167.135.303.302.303.167 0 .303-.136.303-.303 0-.167-.136-.303-.303-.303zm-4.364.08c-.024.165-.049.326-.069.491.1-.048.17-.149.17-.27 0-.088-.04-.168-.101-.221zm24.916 3.394c-.167 0-.302.136-.302.303 0 .167.135.302.302.302.167 0 .302-.135.302-.302 0-.167-.135-.303-.302-.303zm-4.567 0c-.167 0-.302.136-.302.303 0 .167.135.302.302.302.167 0 .303-.135.303-.302 0-.167-.136-.303-.303-.303zm-4.567 0c-.167 0-.302.136-.302.303 0 .167.135.302.302.302.167 0 .302-.135.302-.302 0-.167-.135-.303-.302-.303zm-4.567 0c-.167 0-.303.136-.303.303 0 .167.136.302.303.302.167 0 .302-.135.302-.302 0-.167-.135-.303-.302-.303zm-4.567 0c-.168 0-.303.136-.303.303 0 .167.135.302.303.302.167 0 .302-.135.302-.302 0-.167-.135-.303-.302-.303zm-4.567 0c-.168 0-.303.136-.303.303 0 .167.135.302.303.302.167 0 .302-.135.302-.302 0-.167-.135-.303-.302-.303zm25.14-10.404h-.02c-.17 0-.302.133-.302.302 0 .165.132.302.301.302l.089-.016c-.024-.201-.048-.395-.068-.588zm-4.589-.001c-.166 0-.302.135-.302.303 0 .167.136.302.302.302.167 0 .303-.135.303-.302 0-.168-.136-.303-.303-.303zm-4.566 0c-.167 0-.303.135-.303.303 0 .167.136.302.303.302.167 0 .302-.135.302-.302 0-.168-.135-.303-.302-.303zm-4.568 0c-.167 0-.302.135-.302.303 0 .167.135.302.302.302.167 0 .303-.135.303-.302 0-.168-.136-.303-.303-.303zm-4.567 0c-.167 0-.302.135-.302.303 0 .167.135.302.302.302.167 0 .303-.135.303-.302 0-.168-.136-.303-.303-.303zm-4.567 0c-.167 0-.302.135-.302.303 0 .167.135.302.302.302.167 0 .303-.135.303-.302 0-.168-.136-.303-.303-.303zm20.552 3.474c-.167 0-.302.135-.302.303 0 .167.135.302.302.302.167 0 .302-.135.302-.302 0-.168-.135-.303-.302-.303zm-4.567 0c-.167 0-.302.135-.302.303 0 .167.135.302.302.302.167 0 .303-.135.303-.302 0-.168-.136-.303-.303-.303zm-4.567 0c-.167 0-.302.135-.302.303 0 .167.135.302.302.302.167 0 .302-.135.302-.302 0-.168-.135-.303-.302-.303zm-4.567 0c-.167 0-.303.135-.303.303 0 .167.136.302.303.302.167 0 .302-.135.302-.302 0-.168-.135-.303-.302-.303zm-4.567 0c-.168 0-.303.135-.303.303 0 .167.135.302.303.302.167 0 .302-.135.302-.302 0-.168-.135-.303-.302-.303zm-4.567 0c-.168 0-.303.135-.303.303 0 .167.135.302.303.302.167 0 .302-.135.302-.302 0-.168-.135-.303-.302-.303zm20.551-10.405c-.166 0-.302.135-.302.302 0 .168.136.303.302.303.167 0 .303-.135.303-.303 0-.167-.136-.302-.303-.302zm-4.566 0c-.167 0-.303.135-.303.302 0 .168.136.303.303.303.167 0 .302-.135.302-.303 0-.167-.135-.302-.302-.302zm-4.568 0c-.167 0-.302.135-.302.302 0 .168.135.303.302.303.167 0 .303-.135.303-.303 0-.167-.136-.302-.303-.302zm-4.567 0c-.167 0-.302.135-.302.302 0 .168.135.303.302.303.167 0 .303-.135.303-.303 0-.167-.136-.302-.303-.302zm-4.567 0c-.167 0-.302.135-.302.302 0 .168.135.303.302.303.167 0 .303-.135.303-.303 0-.167-.136-.302-.303-.302zm20.552 3.474c-.167 0-.302.135-.302.303 0 .167.135.302.302.302.167 0 .302-.135.302-.302 0-.168-.135-.303-.302-.303zm-4.567 0c-.167 0-.302.135-.302.303 0 .167.135.302.302.302.167 0 .303-.135.303-.302 0-.168-.136-.303-.303-.303zm-4.567 0c-.167 0-.302.135-.302.303 0 .167.135.302.302.302.167 0 .302-.135.302-.302 0-.168-.135-.303-.302-.303zm-4.567 0c-.167 0-.303.135-.303.303 0 .167.136.302.303.302.167 0 .302-.135.302-.302 0-.168-.135-.303-.302-.303zm-4.567 0c-.168 0-.303.135-.303.303 0 .167.135.302.303.302.167 0 .302-.135.302-.302 0-.168-.135-.303-.302-.303zm-4.567 0c-.168 0-.303.135-.303.303 0 .167.135.302.303.302.167 0 .302-.135.302-.302 0-.168-.135-.303-.302-.303zm20.551-10.405c-.166 0-.302.135-.302.302 0 .168.136.303.302.303.167 0 .303-.135.303-.303 0-.167-.136-.302-.303-.302zm-4.566 0c-.167 0-.303.135-.303.302 0 .168.136.303.303.303.167 0 .302-.135.302-.303 0-.167-.135-.302-.302-.302zm-4.568 0c-.167 0-.302.135-.302.302 0 .168.135.303.302.303.167 0 .303-.135.303-.303 0-.167-.136-.302-.303-.302zm-4.567 0c-.167 0-.302.135-.302.302 0 .168.135.303.302.303.167 0 .303-.135.303-.303 0-.167-.136-.302-.303-.302zm-4.567 0c-.167 0-.302.135-.302.302 0 .168.135.303.302.303.167 0 .303-.135.303-.303 0-.167-.136-.302-.303-.302zm20.552 3.474c-.167 0-.302.135-.302.302 0 .168.135.303.302.303.167 0 .302-.135.302-.303 0-.167-.135-.302-.302-.302zm-4.567 0c-.167 0-.302.135-.302.302 0 .168.135.303.302.303.167 0 .303-.135.303-.303 0-.167-.136-.302-.303-.302zm-4.567 0c-.167 0-.302.135-.302.302 0 .168.135.303.302.303.167 0 .302-.135.302-.303 0-.167-.135-.302-.302-.302zm-4.567 0c-.167 0-.303.135-.303.302 0 .168.136.303.303.303.167 0 .302-.135.302-.303 0-.167-.135-.302-.302-.302zm-4.567 0c-.168 0-.303.135-.303.302 0 .168.135.303.303.303.167 0 .302-.135.302-.303 0-.167-.135-.302-.302-.302zm15.984-10.405c-.166 0-.302.135-.302.302 0 .167.136.302.302.302.167 0 .303-.135.303-.302 0-.167-.136-.302-.303-.302zm-4.566 0c-.167 0-.303.135-.303.302 0 .167.136.302.303.302.167 0 .302-.135.302-.302 0-.167-.135-.302-.302-.302zm-4.568 0c-.167 0-.302.135-.302.302 0 .167.135.302.302.302.167 0 .303-.135.303-.302 0-.167-.136-.302-.303-.302zm-4.567 0c-.167 0-.302.135-.302.302 0 .167.135.302.302.302.167 0 .303-.135.303-.302 0-.167-.136-.302-.303-.302zm-4.567 0c-.167 0-.302.135-.302.302 0 .167.135.302.302.302.167 0 .303-.135.303-.302 0-.167-.136-.302-.303-.302zm20.552 3.473c-.167 0-.302.136-.302.303 0 .167.135.303.302.303.167 0 .302-.136.302-.303 0-.167-.135-.303-.302-.303zm-4.567 0c-.167 0-.302.136-.302.303 0 .167.135.303.302.303.167 0 .303-.136.303-.303 0-.167-.136-.303-.303-.303zm-4.567 0c-.167 0-.302.136-.302.303 0 .167.135.303.302.303.167 0 .302-.136.302-.303 0-.167-.135-.303-.302-.303zm-4.567 0c-.167 0-.303.136-.303.303 0 .167.136.303.303.303.167 0 .302-.136.302-.303 0-.167-.135-.303-.302-.303zm-4.265.303c0 .167-.135.303-.302.303-.168 0-.303-.136-.303-.303 0-.167.135-.303.303-.303.167 0 .302.136.302.303z" transform="translate(-54 -140) translate(54 140)"/>
                <path fill="#132529" d="M205.294 54.419c.224.015 1.274.087 2.81.196.582-.956 1.293-2.662 1.133-5.13-.029-.408.825 1.971.294 5.23 2.966.208 7.002.487 10.529.698.13-1.376.315-2.645.315-2.645.075.999.247 1.905.452 2.694.482.032.955.055 1.408.082-.006-2.146.53-5.86.53-5.86.201 2.61.935 4.72 1.476 5.968 2.24.11 3.716.142 3.626.032-3.212-4.045-.627-6.172-1.435-9.642-.969-4.158-4.475-4.971-4.23-8.05.194-2.505.714-7.042-2.408-8.16 0 0-2.447-2.94-6.563-1.57-5.091 1.688-3.464 9.515-3.877 11.073-.589 2.225-1.694 2.969-2.609 5.496-.933 2.557.169 4.333.222 6.098.047 1.764-2.235 3.46-1.673 3.49" transform="translate(-54 -140) translate(54 140)"/>
                <path fill="#EC9993" d="M216.307 47.172c-.692 4.873-7.1 17.471-10.521 19.153-2.475 1.217-14.214-2.025-17.61-3.474-3.276-1.399 2.284-11.314 4.264-10.628 2.796.97 9.445 4.36 10.495 4.113.736-.173 4.13-3.949 9.115-10.47 2.759-3.61 4.67-1.603 4.257 1.306" transform="translate(-54 -140) translate(54 140)"/>
                <path fill="#EC9993" d="M182.398 49.662c-1.787.448-2.732 3.163-2.576 3.842.156.679 1.808 4.759 3.603 4.346 1.795-.414.502-3.368.484-3.756-.018-.389-.6-.932-.253-.975.347-.043 6.922 1.406 6.922 1.406l-2.658-4.742c-1.747-.2-3.734-.568-5.522-.121z" transform="translate(-54 -140) translate(54 140)"/>
                <path fill="#EC9993" d="M187.862 50.058c-.101.023-5.348-.768-7.135-.32-1.787.447-2.732 3.162-2.576 3.841.156.68 1.808 4.76 3.603 4.346 1.795-.413-.037-3.418-.055-3.806-.018-.39-.06-.882.287-.925.346-.043 6.921 1.406 6.921 1.406l-1.045-4.542" transform="translate(-54 -140) translate(54 140)"/>
                <path fill="#EC9993" d="M194.642 53.461s-6.019-3.391-7.262-4.054c-2.493-1.33-12.066-2.891-13.315-2.74-1.25.152-1.115 2.756 5.423 3.987 3.445.649 4.414 2.314 4.583 3.323.17 1.008-.353 3.08-2.034 3.419-1.682.34-3.327-1.852-4.925-1.77-1.598.084.063 2.666 1.522 4.044 1.458 1.378 3.733 2.266 5.303 2.476 1.57.21 6.486 1.108 6.486 1.108l4.219-9.793" transform="translate(-54 -140) translate(54 140)"/>
                <path fill="#132529" d="M179.692 56.698c.742.343 1.6.81 2.435.65.864-.164 1.292-.849 1.529-1.638.239-.797.287-1.653-.093-2.414-.342-.685-.922-1.228-1.576-1.612-.81-.476-1.705-.762-2.611-.986-.04-.01-.02-.07.021-.062.848.166 3.465.596 4.43 2.6.393.818.311 1.648.076 2.463-.218.751-.609 1.518-1.404 1.77-.969.307-2.003-.3-2.85-.737-.038-.02.005-.052.043-.034" transform="translate(-54 -140) translate(54 140)"/>
                <path fill="#F5BB3D" d="M192.667 52.298l-1.385 12.983s11.836 2.904 14.803 1.288c2.967-1.616 8.898-12.765 10.405-19.052.917-3.827-1.638-5.66-4.904-1.702-3.357 4.066-8.089 9.714-8.488 9.97-.4.257-10.43-3.487-10.43-3.487" transform="translate(-54 -140) translate(54 140)"/>
                <path fill="#F1B234" d="M203.097 67.056c-.516 0-1.067-.022-1.637-.062l5.878-11.051c.318 1.59 1.256 2.612 1.256 2.612l-1.442 7.163c-.384.384-.743.673-1.066.85-.648.352-1.715.488-2.989.488m10.305-22.516l.316-.595.005-.003h.003c.109-.057.218-.109.322-.15.057-.024.113-.044.165-.06.118-.04.233-.072.341-.09-.263.149-.52.325-.771.524l.043-.117s-.158.179-.424.49" transform="translate(-54 -140) translate(54 140)"/>
                <path fill="#132529" d="M194.127 64.842c-.023-.44.038-.885.056-1.326.018-.441.054-.881.092-1.321.072-.848.156-1.695.245-2.541l.271-2.539c.095-.874.15-1.77.313-2.633.007-.039.06-.036.06.004 0 .88-.114 1.77-.185 2.645-.07.864-.14 1.729-.212 2.593-.074.864-.151 1.728-.241 2.59-.044.425-.093.846-.154 1.268-.062.424-.086.857-.189 1.272l-.056-.012" transform="translate(-54 -140) translate(54 140)"/>
                <path fill="#E4E4DE" d="M207.068 68.522s15.25.66 21.704-.105c0 0-4.415-18.65-9.117-23.679-2.14-2.288-4.23-1.938-6.003-.466-.442.368-5.924 7.331-6.389 9.758-.41 2.145 1.331 4.525 1.331 4.525l-1.526 9.967" transform="translate(-54 -140) translate(54 140)"/>
                <path fill="#334F55" d="M215.239 48.984L214.429 47.287 213.058 48.585 213.298 49.836 214.621 49.981 215.239 48.984" transform="translate(-54 -140) translate(54 140)"/>
                <path fill="#334F55" d="M214.621 49.981L214.288 62.66 211.438 68.268 209.573 62.664 213.298 49.836 214.621 49.981" transform="translate(-54 -140) translate(54 140)"/>
                <path fill="#F5BB3D" d="M213.826 44.049s-2.348 6.32-2.49 7.944c-.142 1.623.586 7.718.586 7.718s3.572-6.435 4.437-8.516c1.345-3.231 1.644-7.73 1.644-7.73s1.34.61 3.099 3.022c2.353 3.228 6.6 15.359 7.992 22.115l-16.06 2.309-1.596-2.643-1.096 2.643-3.808-2.124 2.06-10.232s-1.991-2.17-1.156-5.104c.909-3.192 6.388-9.402 6.388-9.402" transform="translate(-54 -140) translate(54 140)"/>
                <path fill="#132529" d="M211.922 59.71c.022.717.01 1.432-.006 2.146-.012.715-.049 1.428-.085 2.142-.044.713-.088 1.425-.156 2.137-.065.712-.134 1.424-.237 2.133-.022-.717-.011-1.431.005-2.146.013-.715.05-1.428.086-2.141.045-.713.089-1.426.157-2.138.064-.712.134-1.423.236-2.132M213.352 61.566c-.002-.112-.054-.22-.14-.285-.086-.064-.194-.082-.284-.063-.19.043-.275.212-.273.347-.002.136.083.307.273.349.09.018.199.001.285-.064.085-.065.137-.173.139-.284zm0 0c.003.216-.155.458-.424.499-.13.018-.278-.016-.393-.108-.113-.093-.182-.241-.183-.392.001-.15.07-.299.183-.391.114-.093.263-.127.393-.108.27.04.427.283.424.5zM213.22 64.212c-.002-.11-.054-.22-.14-.284-.086-.065-.194-.082-.285-.063-.189.042-.274.211-.273.347-.002.135.083.306.273.348.09.019.2.002.285-.063.086-.065.137-.174.14-.285zm0 0c.003.217-.155.458-.425.499-.13.019-.278-.016-.392-.108-.113-.092-.182-.24-.184-.39.002-.151.07-.3.183-.393.114-.092.263-.126.393-.107.27.04.428.283.424.5zM213.087 66.858c-.002-.11-.055-.22-.14-.284-.086-.064-.194-.082-.285-.063-.189.043-.274.212-.273.348-.001.135.083.306.273.348.09.019.199.001.285-.064.086-.065.138-.173.14-.285zm0 0c.003.217-.155.459-.425.5-.13.018-.278-.016-.392-.108-.113-.092-.182-.241-.183-.391 0-.15.069-.3.182-.392.114-.093.263-.127.393-.108.27.04.427.283.425.5z" transform="translate(-54 -140) translate(54 140)"/>
                <path fill="#ECAD30" d="M218.62 62.872L218.486 62.132 224.146 61.106 224.325 61.837 218.62 62.872" transform="translate(-54 -140) translate(54 140)"/>
                <path fill="#132529" d="M209.235 50.066c.024-.037-.036-.068-.06-.033-.372.525-.73 1.08-1.042 1.657.125-.371.266-.737.415-1.099l-.024-.014c-.233.459-.41.94-.557 1.43-.72 1.438-1.118 3.006-.675 4.626.142.522.377 1.02.704 1.451.157.206.437.52.433.597-.004.087-.206.98-.244 1.177-.276 1.405-.574 2.806-.867 4.208-.164.783-.322 1.566-.475 2.351-.147.757-.303 1.514-.372 2.283-.004.037.051.038.062.006.429-1.322.664-2.726.935-4.088.272-1.372.548-2.744.828-4.115.07-.342.395-1.835.342-1.897-.044-.05-.223-.389-.356-.563-.164-.215-.305-.448-.422-.692-.502-1.045-.57-2.26-.355-3.387.27-1.408.966-2.7 1.73-3.898" transform="translate(-54 -140) translate(54 140)"/>
                <path fill="#253C40" d="M210.965 75.756L198.316 79.137 191.144 61.859 203.794 58.478 210.965 75.756" transform="translate(-54 -140) translate(54 140)"/>
                <path fill="#334F55" d="M210.344 75.922L197.695 79.303 190.523 62.025 203.172 58.644 210.344 75.922" transform="translate(-54 -140) translate(54 140)"/>
                <path fill="#FFFFFE" d="M198.563 68.634c.24.664.987 1.055 1.666.874.68-.182 1.035-.868.795-1.532-.242-.664-.988-1.055-1.667-.873-.68.181-1.035.867-.794 1.53" transform="translate(-54 -140) translate(54 140)"/>
                <path fill="#EC9993" d="M219.995 45.051c4.36 4.7 14.453 17.249 12.342 20.204-3.47 4.857-12.59 9.67-15.478 10.835-1.247.503-6.694-8.399-5.555-9.277 1.365-1.053 10.65-5.047 10.52-5.918-.074-.493-1.824-5.724-3.33-10.956-1.745-6.068.007-6.5 1.501-4.888" transform="translate(-54 -140) translate(54 140)"/>
                <path fill="#EC9993" d="M215.913 65.73s-4.012-.787-6.66-1.177c-1.477-.218-4.044-.366-5.202-.03-1.733.504-8.66 3.718-7.917 5.415.672 1.537 6.272-1.98 6.272-1.98s-5.964 3.048-4.815 4.75c1.15 1.7 6.948-3.115 6.948-3.115s-6.058 3.27-4.596 4.837c1.105 1.184 6.604-2.881 6.604-2.881s-5.188 2.846-4.104 4.113c1.198 1.4 6.508-2.034 6.508-2.034 3.297 2.755 5.993 3.011 7.908 2.462.45-.129-.946-10.36-.946-10.36" transform="translate(-54 -140) translate(54 140)"/>
                <path fill="#132529" d="M204.124 66.924c-4.564 1.91-6.218 4.246-6.162 4.193 1.335-1.256 3.753-2.708 4.435-3.103.68-.394 1.063-.67 1.743-1.065l-.016-.025M205.872 69.208c-2.22.763-4.461 2.344-5.148 3.01-.056.053-.02.063.046.022.853-.526 4.24-2.53 5.115-3.012l-.013-.02M207.51 71.072c-1.934.833-2.716 1.4-3.917 2.448-.058.05-.002.066.064.023 1.286-.838 2.29-1.505 3.875-2.422l-.022-.049" transform="translate(-54 -140) translate(54 140)"/>
                <path fill="#F5BB3D" d="M216.76 63.684l5.907 10.243s9.95-5.947 10.322-9.844c.372-3.897-10.275-16.548-12.271-18.588-.565-.577-2.08-1.867-2.739-1.641-.743.254-.565 1.365-.288 3.946.368 3.442 3.923 12.67 3.751 13.076-.171.405-4.681 2.808-4.681 2.808" transform="translate(-54 -140) translate(54 140)"/>
                <path fill="#132529" d="M224.427 72.012c-.278-.343-.491-.737-.736-1.103-.246-.368-.476-.744-.706-1.122-.441-.727-.873-1.461-1.3-2.196-.427-.736-.852-1.473-1.277-2.21-.439-.762-.923-1.517-1.3-2.311l.052-.032c.518.71.95 1.496 1.409 2.245.453.739.907 1.478 1.357 2.219.45.74.897 1.484 1.333 2.233.214.369.424.738.623 1.115.2.378.436.742.598 1.138l-.053.024M221.592 60.853c.035-.166-.243-.991-.312-1.197-.28-.837-1.267-3.971-1.565-4.803-.332-.926-.652-1.857-1.017-2.77l-.04.011c.155.56.38 1.302.622 2.079-.052-.084-.102-.168-.158-.25-.171-.248-.33-.502-.452-.778l-.01.003c.096.278.221.547.357.808.068.133.148.258.228.385.047.074.102.144.156.215.583 1.849 1.933 6.059 1.957 6.128.04.117-3.873 2.41-4.719 2.934-.034.021.11.204.19.3l.05-.032c-.017-.043-.04-.094-.105-.184 1.47-.658 4.78-2.665 4.818-2.85" transform="translate(-54 -140) translate(54 140)"/>
                <path fill="#EC9993" d="M217.853 44.713c-.113.397-1.763 2.466-3.594 2.292-.596-.058-.818-2.882-.818-2.882l-.042-.245-.594-3.42 4.095-2.36.59-.31s.1.947.214 2.127l.017.167c.008.067.016.13.021.192.02.176.038.356.054.536.011.136.024.269.031.413l.03.429c.08 1.423.042 2.892-.004 3.06" transform="translate(-54 -140) translate(54 140)"/>
                <path fill="#132529" d="M217.704 39.915c-1.098 2.646-3.3 3.64-4.305 3.963l-.594-3.42 4.095-2.36.59-.31s.1.947.214 2.127" transform="translate(-54 -140) translate(54 140)"/>
                <path fill="#EC9993" d="M208.336 34.508c-1.229 5.968 2.204 7.378 3.49 7.642 1.168.24 5.174.906 7.012-4.902 1.839-5.81-.546-8.268-3.186-8.957-2.642-.689-6.087.249-7.316 6.217" transform="translate(-54 -140) translate(54 140)"/>
                <path fill="#132529" d="M209.942 33.46c.143.01.277-.006.42-.011.161-.006.29.006.427-.094.073-.053.092-.184.047-.26-.104-.177-.304-.219-.498-.219-.211 0-.374.053-.538.185-.158.129-.047.386.142.399M214.108 34.242c-.137-.043-.257-.104-.39-.16-.148-.063-.272-.098-.365-.239-.05-.075-.02-.205.048-.26.16-.128.361-.096.543-.028.198.074.331.182.437.364.103.177-.092.378-.273.323M213.34 35.19c.663.086.443 1.407-.171 1.327-.605-.078-.384-1.4.171-1.327M210.191 34.528c-.65-.154-.912 1.159-.309 1.302.593.141.855-1.172.31-1.302M212.103 38.901c-.11.085-.224.206-.375.2-.145-.005-.305-.09-.43-.157l-.02.02c.087.17.3.296.495.286.19-.01.302-.16.368-.325l-.038-.024" transform="translate(-54 -140) translate(54 140)"/>
                <path fill="#132529" d="M210.661 37.12s-.193.594-.244.882c-.005.027.062.052.158.075l.012.003c.493.17 1.036.086 1.419-.273l-.036-.048c-.429.21-.86.207-1.312.134-.006-.083.365-1.008.32-1.019-.155-.042-.484.01-.68.03.368-1.25.932-2.432 1.279-3.682.012-.045-.051-.07-.072-.033-.68 1.197-1.133 2.627-1.545 3.91-.053.158.578.049.701.02" transform="translate(-54 -140) translate(54 140)"/>
                <path fill="#132529" d="M218.151 37.697c-1.148-.047-1.002-2.673-1.002-2.673s-4.653-1.62-4.402-5.592c0 0-1.24 2.35-3.938 3.052 0 0 .888-4.25 4.418-4.51 0 0 4.464-.822 6.266 2.917 1.802 3.74-.571 6.838-1.342 6.806" transform="translate(-54 -140) translate(54 140)"/>
                <path fill="#132529" d="M212.779 29.14c-.164.586-.18 1.211-.087 1.819.095.607.304 1.205.64 1.728.073.137.18.252.268.378l.14.186c.051.058.105.113.16.168.109.108.213.222.327.326.12.097.241.191.363.284.062.046.121.094.184.137l.198.118.393.233c.276.13.558.244.839.354-.256-.167-.522-.304-.77-.47l-.365-.26-.181-.13c-.057-.047-.11-.099-.166-.148-.11-.1-.22-.199-.332-.294-.103-.105-.198-.218-.298-.326l-.149-.162-.13-.178c-.08-.121-.181-.23-.249-.361-.322-.491-.526-1.05-.664-1.623-.068-.287-.109-.582-.128-.88-.025-.297-.02-.597.007-.898" transform="translate(-54 -140) translate(54 140)"/>
                <path fill="#EC9993" d="M218.396 39.45c-.104.026-.199.038-.288.04-.106.006-.2-.005-.287-.027-.134-.029-.245-.085-.335-.153-.083-.06-.153-.133-.207-.203-.141-.185-.19-.367-.19-.367l.524-1.578s1.543-1.733 2.342-1.162c.803.572-.51 3.194-1.559 3.45" transform="translate(-54 -140) translate(54 140)"/>
                <path fill="#132529" d="M219.562 36.742l.002.027c-.739.203-1.187.814-1.526 1.462.24-.237.543-.346.863-.056l-.024.036c-.281-.096-.495-.07-.718.139-.157.147-.276.343-.397.52-.04.06-.15.013-.117-.057l.007-.015c.088-.902.934-2.08 1.91-2.056" transform="translate(-54 -140) translate(54 140)"/>
                <path fill="#FFFFFE" d="M218.342 39.185c-.048.149-.207.23-.356.181-.148-.048-.229-.207-.18-.356.048-.148.207-.229.356-.18.147.048.228.207.18.355M218.967 38.83c-.034.105-.146.162-.251.127-.105-.034-.162-.147-.128-.25.034-.106.147-.163.252-.129.104.034.161.147.127.252" transform="translate(-54 -140) translate(54 140)"/>
                <path fill="#E4E4DE" d="M213.392 43.95l1.15 2.742 3.372-3.545.988 1.105s-3.265 5.599-3.29 5.349l-1.173-2.36-1.615 1.68.069-4.156.499-.815" transform="translate(-54 -140) translate(54 140)"/>
                <path fill="#132529" d="M212.742 46.864c.035-.686.05-1.377.116-2.06l.046-.008c.148.66.003 3.281.015 3.91l.008-.008c.067-.072 1.497-1.48 1.512-1.458.252.374 1.113 2.093 1.173 2.25.515-.89 2.497-4.124 3.111-4.967l.042.023c-.454.938-3.075 5.292-3.116 5.281-.028.022-1.098-2.095-1.228-2.496-.24.306-1.681 1.891-1.688 1.79-.045-.688-.025-1.57.01-2.257" transform="translate(-54 -140) translate(54 140)"/>
            </g>
        </g>
    </g>
</svg>
