<svg xmlns="http://www.w3.org/2000/svg" xmlns:xlink="http://www.w3.org/1999/xlink" width="251" height="170" viewBox="0 0 251 170">
    <defs>
        <path id="sbyy540dua" d="M39.044 27.515H1.177c-.675 0-1.187-.611-1.069-1.278L4.46 1.73c.138-.777.812-1.342 1.6-1.342h37.866c.676 0 1.187.611 1.07 1.277l-4.352 24.509c-.138.776-.811 1.342-1.599 1.342z"/>
    </defs>
    <g fill="none" fill-rule="evenodd">
        <g>
            <g>
                <path fill="#FFF" d="M44.55 153.05l-.002-.003c11.25 2.55 18.363 3.311 21.34 2.282 12.055-4.17 12.234-14.355 35.752-14.355 6.52 0 13.51 4.558 24.157 5.716 10.647 1.158 25.842-5.052 25.842-5.052 18.042-6.414 33.007-9.62 44.896-9.62 44.187 0 53.981 37.075 53.981 37.075H0c3.913-10.127 19.566-20.006 38.293-17.595 2.272.293 4.35.834 6.256 1.553z" transform="translate(-55 -138) translate(55 138)"/>
                <path fill="#99A6B2" d="M214.335 44.099L213.424 44.099 214.335 38.97 215.245 38.97 214.335 44.099M217.104 44.099L216.194 44.099 217.104 38.97 218.015 38.97 217.104 44.099M219.874 44.099L218.963 44.099 219.874 38.97 220.785 38.97 219.874 44.099M222.644 44.099L221.733 44.099 222.644 38.97 223.554 38.97 222.644 44.099M225.413 44.099L224.503 44.099 225.413 38.97 226.324 38.97 225.413 44.099" transform="translate(-55 -138) translate(55 138)"/>
                <g fill="#BBC5CC">
                    <path d="M3.977 28.353v.355h20.711c2.197 0 3.977-1.784 3.977-3.984V3.984c0-2.2-1.78-3.984-3.977-3.984H3.977C1.78 0 0 1.783 0 3.983v20.741c0 2.2 1.78 3.984 3.977 3.984v-.71c-.904 0-1.72-.365-2.312-.958-.592-.594-.957-1.41-.957-2.316V3.984c0-.906.365-1.722.957-2.316.593-.593 1.408-.96 2.312-.96h20.711c.904 0 1.72.367 2.312.96.592.594.957 1.41.957 2.315v20.741c0 .905-.365 1.722-.957 2.316-.593.593-1.408.959-2.312.959H3.977v.354" transform="translate(-55 -138) translate(55 138) translate(125.258)"/>
                    <path d="M6.135 20.985l16.395-.006-8.203-14.217-8.192 14.223zm17.208 1.232c-.106.037-.218.057-.334.057l-17.352.006c-.362 0-.7-.195-.882-.51-.181-.313-.181-.704 0-1.018l8.671-15.053c.18-.314.516-.51.88-.51.363 0 .7.195.882.51l8.682 15.046c.18.314.18.705 0 1.02-.123.213-.32.372-.547.452z" transform="translate(-55 -138) translate(55 138) translate(125.258)"/>
                    <path d="M14.331 17.993c-.328 0-.599-.259-.614-.588l-.35-5.922c-.025-.55.413-1.009.961-1.009.55 0 .988.459.963 1.008l-.346 5.923c-.015.329-.286.588-.614.588M14.957 19.421c0 .347-.28.627-.625.627-.346 0-.626-.28-.626-.626s.28-.627.626-.627c.345 0 .625.28.625.626" transform="translate(-55 -138) translate(55 138) translate(125.258)"/>
                </g>
                <path fill="#444F68" d="M113.409 113.683l-9.696-63.687h-43.67l10.468 67.485c.71 4.573 4.517 7.792 9.216 7.792h73.43l.54-6.183h-33.912c-3.257 0-5.893-2.236-6.376-5.407" transform="translate(-55 -138) translate(55 138)"/>
                <path fill="#6C7384" d="M72.078 113.683l-9.337-61.33c-.21-1.383-1.36-2.357-2.78-2.357h-.086c-1.989 0-3.616 1.865-3.315 3.8l9.878 63.685c.71 4.573 4.517 7.792 9.216 7.792h47.294l.54-6.183H78.454c-3.256 0-5.893-2.236-6.375-5.407" transform="translate(-55 -138) translate(55 138)"/>
                <path fill="#4B423B" d="M101.277 160.037L102.002 160.037 102.002 125.273 101.277 125.273z" transform="translate(-55 -138) translate(55 138)"/>
                <path fill="#4B423B" d="M82.543 163.107c0-.748.302-1.423.792-1.914.49-.49 1.164-.793 1.912-.793h32.785c.748 0 1.421.302 1.912.793.49.491.791 1.166.792 1.914h.725c0-1.896-1.535-3.433-3.43-3.433H85.248c-1.895 0-3.43 1.537-3.43 3.433h.726" transform="translate(-55 -138) translate(55 138)"/>
                <path fill="#4B423B" d="M98.647 163.107c0-.748.302-1.423.792-1.914.49-.49 1.164-.793 1.912-.793v-.726c-1.894 0-3.43 1.537-3.43 3.433h.726" transform="translate(-55 -138) translate(55 138)"/>
                <path fill="#6C7384" d="M85.276 166.208c0 1.712-1.386 3.1-3.096 3.1-1.71 0-3.096-1.388-3.096-3.1 0-1.712 1.386-3.1 3.096-3.1 1.71 0 3.096 1.388 3.096 3.1" transform="translate(-55 -138) translate(55 138)"/>
                <path fill="#788292" d="M82.18 167.347c-.628 0-1.137-.51-1.137-1.139s.51-1.139 1.137-1.139c.628 0 1.137.51 1.137 1.14 0 .628-.509 1.138-1.137 1.138" transform="translate(-55 -138) translate(55 138)"/>
                <path fill="#6C7384" d="M101.38 166.208c0 1.712-1.386 3.1-3.095 3.1-1.71 0-3.097-1.388-3.097-3.1 0-1.712 1.387-3.1 3.097-3.1s3.095 1.388 3.095 3.1" transform="translate(-55 -138) translate(55 138)"/>
                <path fill="#788292" d="M98.285 167.347c-.629 0-1.138-.51-1.138-1.139s.51-1.139 1.138-1.139c.627 0 1.137.51 1.137 1.14 0 .628-.51 1.138-1.137 1.138" transform="translate(-55 -138) translate(55 138)"/>
                <path fill="#6C7384" d="M124.194 166.208c0 1.712-1.386 3.1-3.095 3.1-1.71 0-3.097-1.388-3.097-3.1 0-1.712 1.386-3.1 3.097-3.1 1.71 0 3.095 1.388 3.095 3.1" transform="translate(-55 -138) translate(55 138)"/>
                <path fill="#788292" d="M121.099 167.347c-.629 0-1.138-.51-1.138-1.139s.51-1.139 1.138-1.139c.627 0 1.137.51 1.137 1.14 0 .628-.51 1.138-1.137 1.138" transform="translate(-55 -138) translate(55 138)"/>
                <path fill="#B2AFA8" d="M102.622 39.216s10.158 1.636 14.075 4.801c3.916 3.166 11.277 14.914 13.91 19.65 1.755 3.157 3.466 5.91 5.133 8.256l9.536 11.068c-1.63 1.53-4.361 3.621-4.361 3.621s-11.611-5.162-15.79-10.566c-5.68-7.342-21.837-17.553-21.837-17.553" transform="translate(-55 -138) translate(55 138)"/>
                <path fill="#28356F" d="M146.647 164.071l-.919 3.539c-.223.86.425 1.698 1.312 1.698h10.707c.645 0 1.166-.522 1.166-1.167 0-.508-.328-.958-.811-1.112l-7.318-2.958" transform="translate(-55 -138) translate(55 138)"/>
                <path fill="#F5C6B4" d="M140.476 108.79c-1.71 17.993 6.171 55.281 6.171 55.281s1.873 2.267 4.137 0c0 0 1.898-35.552 3.899-51.537" transform="translate(-55 -138) translate(55 138)"/>
                <path fill="#EE9C3B" d="M114.934 87.714l12.287 6.453v.126s25.078-1.686 28.87 7.28c5.939 14.04 6.95 59.704 6.95 59.704h-18.355s-6.83-38.356-9.166-40.695c-2.335-2.339-11.966-2.167-29.674-2.167-19.89 0-10.181-25.683-2.775-27.887" transform="translate(-55 -138) translate(55 138)"/>
                <path fill="#BF642E" d="M146.197 161.244c0-.002-1.364-9.898-3.23-20.162-.933-5.132-1.991-10.355-3.069-14.484-.539-2.065-1.082-3.857-1.621-5.231-.27-.688-.537-1.271-.807-1.736-.27-.465-.537-.814-.834-1.03-1.134-.815-3.072-1.3-5.443-1.607-2.369-.302-5.164-.411-7.972-.411-7.336 0-14.756.743-14.76.744l.048.482s.461-.046 1.27-.116c2.424-.208 7.963-.626 13.442-.626 2.795 0 5.575.109 7.911.408 2.335.295 4.231.796 5.22 1.518.205.146.45.447.7.88.472.814.971 2.084 1.473 3.671 1.758 5.56 3.56 15.011 4.917 23.06.68 4.026 1.249 7.703 1.648 10.373.2 1.335.357 2.419.464 3.168.107.75.164 1.164.164 1.165l.48-.066" transform="translate(-55 -138) translate(55 138)"/>
                <path fill="#28356F" d="M108.16 164.071l-.918 3.539c-.224.86.424 1.698 1.311 1.698h10.708c.644 0 1.166-.522 1.166-1.167 0-.508-.328-.958-.812-1.112l-7.318-2.958" transform="translate(-55 -138) translate(55 138)"/>
                <path fill="#F5C6B4" d="M109.944 108.79c-1.71 17.993-1.783 55.281-1.783 55.281s1.873 2.267 4.136 0c0 0 6.442-35.552 8.443-51.537" transform="translate(-55 -138) translate(55 138)"/>
                <path fill="#F2AE4F" d="M93.259 93.364s32.234.52 36.45 10.302c5.186 12.028-3.361 57.61-3.361 57.61h-19.43v-40.779c0-.791-.617-1.5-1.406-1.48-2.691.073-8.695.073-16.318.073-19.89 0-10.181-31.002-2.776-33.206" transform="translate(-55 -138) translate(55 138)"/>
                <path fill="#BF642E" d="M93.255 93.607c.001 0 .5.007 1.388.04 3.107.117 10.94.542 18.443 2.004 3.751.73 7.42 1.722 10.365 3.055 2.95 1.331 5.158 3.007 6.036 5.056 1.138 2.635 1.84 6.855 1.838 11.942 0 1.086-.032 2.213-.097 3.372l.483.028c.066-1.169.098-2.304.098-3.4-.001-5.133-.699-9.397-1.878-12.134-1.106-2.55-3.97-4.429-7.607-5.866-5.462-2.15-12.719-3.291-18.619-3.9-5.899-.609-10.437-.682-10.442-.682l-.008.485" transform="translate(-55 -138) translate(55 138)"/>
                <path fill="#DF7C2D" d="M109.869 161.278s.017-3.587.017-8.694c0-6.073-.024-14.297-.132-21.196-.053-3.45-.127-6.569-.23-8.924-.05-1.178-.109-2.165-.175-2.91-.033-.372-.069-.684-.107-.931-.04-.25-.076-.427-.134-.566-.349-.822-.948-1.362-1.77-1.663-.824-.303-1.865-.395-3.182-.396-2.587 0-6.253.366-11.362.366-4.594-.003-7.623-1.528-9.534-3.878-1.909-2.352-2.699-5.565-2.698-8.956-.001-3.869 1.028-7.96 2.543-11.214.757-1.628 1.636-3.046 2.56-4.122.925-1.077 1.896-1.806 2.815-2.078l-.137-.465c-1.054.316-2.081 1.108-3.044 2.227-2.88 3.36-5.216 9.72-5.22 15.652 0 3.463.802 6.789 2.806 9.261 2.004 2.475 5.212 4.06 9.909 4.058 5.13 0 8.817-.368 11.362-.367 1.294 0 2.29.097 3.014.367.724.272 1.184.688 1.494 1.4.024.054.066.218.1.448.136.872.246 2.732.332 5.186.258 7.37.306 20.163.306 28.701 0 2.553-.004 4.726-.009 6.26-.003 1.535-.008 2.43-.008 2.432l.484.002" transform="translate(-55 -138) translate(55 138)"/>
                <path fill="#DF7C2D" d="M80.869 98.59c.001 0 .603.015 1.536.015 1.46 0 3.729-.036 5.788-.22 1.03-.091 2.007-.22 2.81-.402.805-.187 1.434-.406 1.802-.765.31-.314.489-.766.603-1.294.112-.53.155-1.143.156-1.789-.002-2.58-.693-5.705-.694-5.714l-.472.104s.042.192.106.522c.192.989.576 3.214.576 5.088 0 .624-.043 1.208-.145 1.688-.101.48-.266.849-.472 1.052-.218.228-.798.466-1.566.636-2.314.527-6.318.61-8.492.61-.928 0-1.523-.015-1.524-.015l-.012.484M80.62 99.962s.561.013 1.456.014v-.484c-.89-.002-1.445-.014-1.446-.014l-.01.484zm2.426.013c.447-.002.937-.008 1.456-.017l-.01-.485c-.516.01-1.004.015-1.45.018l.004.484zm2.427-.04c.474-.014.963-.031 1.455-.053l-.022-.484c-.489.022-.975.04-1.447.052l.014.485zm2.426-.104c.49-.028.98-.063 1.455-.104l-.041-.483c-.471.04-.955.075-1.443.104l.029.483zm2.425-.2c.514-.057 1.003-.123 1.453-.201l-.082-.477c-.438.075-.918.14-1.424.197l.053.482zm2.42-.402c.616-.157 1.102-.338 1.425-.597l-.304-.376c-.212.176-.655.359-1.24.503l.118.47zm2.024-1.5c.16-.433.245-.94.284-1.491l-.482-.033c-.036.52-.119.988-.255 1.355l.453.168zm.306-2.481c-.01-.484-.044-.982-.093-1.471l-.482.05c.049.478.083.963.091 1.43l.484-.01zm-.212-2.443c-.073-.522-.158-1.015-.239-1.445l-.475.09c.08.424.163.91.235 1.423l.479-.068zm-.433-2.403c-.085-.393-.144-.628-.145-.63l-.469.118.04.162c.024.106.06.26.102.453l.472-.103z" transform="translate(-55 -138) translate(55 138)"/>
                <path fill="#B2AFA8" d="M79.914 94.293c3.704 0 42.795-.516 45.21-.516 1.391 0-.683-12.269-2.988-24.14-1.697-8.734-5.303-17.217-8.752-20.55 0 0-9.6-13.131-14.917-11.875-5.317 1.255-19.811 13.541-19.811 13.541s-2.447 43.54 1.258 43.54z" transform="translate(-55 -138) translate(55 138)"/>
                <path fill="#7A6461" d="M122.936 73.34c-1.365-5.637-2.655-9.92-3.87-12.852-1.216-2.932-2.583-5.82-4.101-8.665l-.239.131c.902 1.682 2.015 4.046 3.338 7.091 1.89 4.348 2.36 6.561 2.67 7.596.46 1.544 1.195 4.142 2.202 7.796V73.34z" transform="translate(-55 -138) translate(55 138)"/>
                <path fill="#F5C6B4" d="M83.658 91.67l-1.763-2.74s-3.285-.756-4.478-1.365c-1.193-.61-1.989-1.69-2.32-2.604-.255-.7-.456-2.344.394-2.117.672.18 2.378 1.767 3.037 1.924.659.156 2.295.11 3.47.263 1.98.258 2.815 2.115 2.815 2.115l1.809 3.286" transform="translate(-55 -138) translate(55 138) rotate(165 80.749 87.247)"/>
                <path fill="#F5C6B4" d="M148.96 89.86l-.512-.762s-2.169-.586-3.362-1.195c-1.193-.61-2.612-1.327-2.943-2.24-.255-.7-.55-2.682.3-2.455.672.18 2.554 1.555 3.213 1.711.66.157 2.19.186 3.365.34 1.98.258 2.815 2.115 2.815 2.115l.402.994-3.279 1.492z" transform="translate(-55 -138) translate(55 138) rotate(165 147.058 86.525)"/>
                <path fill="#B2AFA8" d="M93.876 39.466s-12.05-.449-19.194 4.66C68.084 48.845 59.206 62.77 62.87 57.698c.363-.503-7.878 10.835-6.345 16.628 2.066 7.808 17.85 14.896 20.289 15.262l4.535-4.722c-8.13-5.262-12.916-10.54-11.618-13.72 4.21-10.319 22.293-15.46 22.293-15.46" transform="translate(-55 -138) translate(55 138)"/>
                <path fill="#7A6461" d="M78.356 62.17L78.356 55.692 78.076 55.692 78.076 62.17z" transform="translate(-55 -138) translate(55 138)"/>
                <path fill="#E5E7EA" d="M94.656 40.493L102.44 48.845 103.458 39.19" transform="translate(-55 -138) translate(55 138)"/>
                <path fill="#7A6461" d="M94.479 40.659l7.784 8.35c.065.07.163.095.253.065s.154-.11.164-.204l1.019-9.655-.481-.05-.963 9.127-7.422-7.964-.354.33" transform="translate(-55 -138) translate(55 138)"/>
                <path fill="#F5C6B4" d="M100.907 32.063l2.19 4.805s.881 2.754-2.768 4c-4 1.368-6.453-1.402-6.453-1.402l-.577-7.541" transform="translate(-55 -138) translate(55 138)"/>
                <path fill="#FFFFFE" d="M93.666 36.719s2.88 3.615 6.663 4.15L97.58 44.95c-2.226-1.256-4.947-6.129-4.947-6.129l1.032-2.103M102.867 36.209s-.462 2.58-2.538 4.66l3.13 2.369c.719-1.773.636-4.533.636-4.533l-1.228-2.496" transform="translate(-55 -138) translate(55 138)"/>
                <path fill="#F5C6B4" d="M104.151 24.304s2.067 7.925-1.036 9.928c-3.103 2.003-8.5-1.045-8.812-2.039-.31-.995-1.72-9.456.304-10.09 3.598-1.129 8.488-1.178 9.544 2.2" transform="translate(-55 -138) translate(55 138)"/>
                <path fill="#28356F" d="M104.084 26.875c.051.217-.083.435-.3.486-.217.05-.435-.084-.486-.301-.05-.217.084-.435.301-.486.217-.051.434.084.485.301M103.394 24.513c.136.02.743.083.615.384-.057.133-.27.13-.387.123-.124-.007-.253-.026-.367.016.032.035.058.078.077.123.036.09-.263.1-.296.1-.298 0-.658-.056-1.021.188.234-.859 1.157-.967 1.379-.934M99.111 27.972c.012.223.203.393.425.38.223-.011.393-.202.38-.425-.011-.223-.202-.394-.424-.381-.223.012-.393.203-.38.426M97.915 26.371c-.291.157-.534.37-.469.613.052.194.243.143.362.049.196-.157.421-.277.66-.354-.106.088-.168.227-.16.364.753-.075 1.41-.725 1.492-1.48-.006.055-.494.356-.565.389-.426.197-.897.191-1.32.42" transform="translate(-55 -138) translate(55 138)"/>
                <path fill="#E59178" d="M101.849 27.437s.048.122.122.32c.11.296.276.759.413 1.214.138.45.244.908.241 1.134 0 .051-.006.088-.01.098v.003l.091.041-.05-.082-.041.04.091.042-.05-.082c-.034.021-.128.056-.247.08-.361.079-.937.093-1.22.092l-.177-.001-.012.484c.002 0 .073.002.189.002.199 0 .526-.006.85-.035.162-.015.324-.036.47-.068.149-.032.28-.07.4-.142.099-.062.146-.154.17-.232.023-.08.03-.158.03-.24-.001-.23-.055-.505-.132-.81-.23-.905-.677-2.032-.679-2.037l-.45.179M102.028 34.466l-.006.002c-.082.03-.888.317-1.99.316-1.068 0-2.407-.264-3.67-1.276l-.302.378c1.364 1.094 2.826 1.383 3.972 1.382 1.264 0 2.153-.344 2.17-.35l-.174-.452" transform="translate(-55 -138) translate(55 138)"/>
                <path fill="#28356F" d="M105.901 20.05c-.032-.376-.093-.778-.35-1.053-.298-.316-.773-.378-1.206-.38-1.517-.012-3.034.472-4.264 1.361l1.012-.881c.267-.233.865-.6.577-1.034-.253-.383-.974-.166-1.341-.17-1.731-.022-3.402.598-4.995 1.21-.786.301-1.578.608-2.288 1.06-.71.452-1.344 1.063-1.686 1.834-.3.675-.36 1.432-.355 2.17.01 1.328.218 2.646.425 3.958.227 1.43.57 4.25 2.488 4.42.372.034.78.057 1.081-.162.298-.218.404-.61.448-.977.073-.597.03-1.206-.112-1.79.36.196.699.522 1.102.463.133-.02.269-.093.316-.22.031-.079.022-.168.013-.253-.15-1.37-.233-2.732-.32-4.108 1.963-.415 3.939-.774 5.923-1.073.88-.133 1.812-.276 2.495-.848.977-.818 1.144-2.257 1.037-3.528" transform="translate(-55 -138) translate(55 138)"/>
                <path fill="#F5C6B4" d="M95.756 30.147c-.326-.806-.895-1.778-1.787-1.23-.316.193-.492.606-.614 1.006-.41 1.33.544 3.383 1.849 3.194.636-.093.988-.849 1.248-1.472" transform="translate(-55 -138) translate(55 138)"/>
                <path fill="#4B423B" d="M43.084 169.382L58.616 94.802 57.906 94.653 42.374 169.234" transform="translate(-55 -138) translate(55 138)"/>
                <path fill="#4B423B" d="M74.148 169.234L58.616 94.653 57.906 94.802 73.438 169.382M199.958 169.382L215.49 94.802 214.78 94.653 199.248 169.234" transform="translate(-55 -138) translate(55 138)"/>
                <path fill="#E7EAED" d="M43.231 94.727L228.76 94.727 228.76 90.265 43.231 90.265z" transform="translate(-55 -138) translate(55 138)"/>
                <path fill="#444F68" d="M219.818 81.76h-65.562c-1.17 0-2.056-1.058-1.851-2.212l7.533-42.434c.239-1.344 1.406-2.324 2.769-2.324h65.563c1.17 0 2.055 1.06 1.85 2.212l-7.533 42.434c-.239 1.345-1.405 2.324-2.769 2.324" transform="translate(-55 -138) translate(55 138)"/>
                <path fill="#BBC5CC" d="M221.342 81.76h-65.563c-1.17 0-2.055-1.058-1.85-2.212l7.533-42.434c.239-1.344 1.406-2.324 2.768-2.324h65.563c1.17 0 2.056 1.06 1.851 2.212l-7.533 42.434c-.239 1.345-1.406 2.324-2.77 2.324" transform="translate(-55 -138) translate(55 138)"/>
                <g transform="translate(-55 -138) translate(55 138) translate(170.235 54.245)">
                    <mask id="6uwgxoy24b" fill="#fff">
                        <use xlink:href="#sbyy540dua"/>
                    </mask>
                    <path fill="#A3B0B9" d="M-0.01 27.515L45.112 27.515 45.112 0.387 -0.01 0.387z" mask="url(#6uwgxoy24b)"/>
                </g>
                <path fill="#C3CED6" d="M210.186 81.76H172.32c-.676 0-1.187-.611-1.069-1.278l4.351-24.508c.138-.777.812-1.342 1.6-1.342h37.866c.676 0 1.188.611 1.07 1.277l-4.352 24.509c-.137.776-.812 1.342-1.599 1.342" transform="translate(-55 -138) translate(55 138)"/>
                <path fill="#8795A3" d="M186.424 81.76L201.792 81.76 201.792 67.346 186.424 67.346z" transform="translate(-55 -138) translate(55 138)"/>
                <path fill="#444F68" d="M197.193 83.539c-1.722 0-3.543-2.012-4.067-4.493-.523-2.482.448-4.493 2.17-4.493 1.723 0 3.543 2.011 4.067 4.493.524 2.481-.447 4.493-2.17 4.493zm3.72-16.193h-14.489v4.14l3.956 16.438h15.377l-4.844-20.578zM177.949 87.924h34.427v2.341H175.61c0-1.293 1.047-2.34 2.338-2.34" transform="translate(-55 -138) translate(55 138)"/>
                <path fill="#BBC5CC" d="M184.853 90.265L212.376 90.265 212.376 87.924 184.853 87.924zM198.027 83.539c-1.722 0-3.543-2.012-4.067-4.493-.524-2.482.447-4.493 2.17-4.493 1.722 0 3.543 2.011 4.067 4.493.524 2.481-.447 4.493-2.17 4.493zm3.775-16.193h-15.378l4.845 20.578h15.378l-4.845-20.578z" transform="translate(-55 -138) translate(55 138)"/>
                <path fill="#99A6B2" d="M165.893 44.099L164.982 44.099 165.893 38.97 166.803 38.97 165.893 44.099M168.528 44.099L167.618 44.099 168.528 38.97 169.439 38.97 168.528 44.099M171.164 44.099L170.253 44.099 171.164 38.97 172.075 38.97 171.164 44.099M173.8 44.099L172.889 44.099 173.8 38.97 174.711 38.97 173.8 44.099M176.436 44.099L175.525 44.099 176.436 38.97 177.346 38.97 176.436 44.099M200.486 44.099L199.575 44.099 200.486 38.97 201.396 38.97 200.486 44.099M203.256 44.099L202.345 44.099 203.256 38.97 204.166 38.97 203.256 44.099M206.026 44.099L205.115 44.099 206.026 38.97 206.936 38.97 206.026 44.099M208.795 44.099L207.885 44.099 208.795 38.97 209.706 38.97 208.795 44.099M211.565 44.099L210.654 44.099 211.565 38.97 212.476 38.97 211.565 44.099" transform="translate(-55 -138) translate(55 138)"/>
                <path fill="#E8EAEA" d="M102.886 86.42h-2.522v-1.205h2.522c.812 0 1.472-.662 1.472-1.475v-2.076c0-.813-.66-1.474-1.472-1.474h-2.522v-1.204h2.522c1.475 0 2.675 1.202 2.675 2.678v2.076c0 1.477-1.2 2.68-2.675 2.68" transform="translate(-55 -138) translate(55 138)"/>
                <path fill="#E8EAEA" d="M99.293 89.588h-4.25c-1.636 0-2.962-1.328-2.962-2.966v-9.343h10.174v9.343c0 1.638-1.326 2.966-2.962 2.966" transform="translate(-55 -138) translate(55 138)"/>
                <path fill="#C3CED6" d="M90.435 87.869s.098 2.396 3.817 2.396h5.832c3.718 0 3.817-2.396 3.817-2.396H90.435" transform="translate(-55 -138) translate(55 138)"/>
                <path fill="#444F68" d="M118.367 90.265L172.185 90.265 172.185 89.307 118.367 89.307zM120.207 89.307L124.064 89.307 124.064 88.535 120.207 88.535zM126.046 89.307L129.902 89.307 129.902 88.535 126.046 88.535zM131.883 89.307L135.74 89.307 135.74 88.535 131.883 88.535zM137.721 89.307L141.578 89.307 141.578 88.535 137.721 88.535zM143.559 89.307L147.416 89.307 147.416 88.535 143.559 88.535zM149.397 89.307L153.254 89.307 153.254 88.535 149.397 88.535zM155.235 89.307L159.091 89.307 159.091 88.535 155.235 88.535zM161.073 89.307L164.93 89.307 164.93 88.535 161.073 88.535zM166.911 89.307L170.768 89.307 170.768 88.535 166.911 88.535z" transform="translate(-55 -138) translate(55 138)"/>
                <path fill="#BBC5CC" d="M119.072 90.265L172.889 90.265 172.889 89.307 119.072 89.307zM120.912 89.307L124.768 89.307 124.768 88.535 120.912 88.535zM126.75 89.307L130.607 89.307 130.607 88.535 126.75 88.535zM132.587 89.307L136.444 89.307 136.444 88.535 132.587 88.535zM138.425 89.307L142.282 89.307 142.282 88.535 138.425 88.535zM144.263 89.307L148.12 89.307 148.12 88.535 144.263 88.535zM150.101 89.307L153.958 89.307 153.958 88.535 150.101 88.535zM155.939 89.307L159.796 89.307 159.796 88.535 155.939 88.535zM161.777 89.307L165.634 89.307 165.634 88.535 161.777 88.535zM167.615 89.307L171.472 89.307 171.472 88.535 167.615 88.535z" transform="translate(-55 -138) translate(55 138)"/>
                <path fill="#89B497" d="M42.492 126.42c.668-2.659.371-5.55-.825-8.016s-3.28-4.488-5.781-5.605c-1.019-.455-2.111-.77-3.034-1.398-.18 1.323-.263 2.658-.247 3.993.016 1.32.132 2.658.59 3.896 1.18 3.2 4.39 5.167 7.553 6.435" transform="translate(-55 -138) translate(55 138)"/>
                <path fill="#577865" d="M42.88 135c.097-6.192.178-13.264-4.687-17.876-.077-.073-.182.036-.115.115 2.182 2.54 3.745 5.608 4.21 8.95.406 2.922.243 5.879.482 8.812.005.07.108.072.11 0" transform="translate(-55 -138) translate(55 138)"/>
                <path fill="#89B497" d="M34.974 143.123c-.465-3.676-2.502-7.125-5.495-9.304-1.475-1.074-3.174-1.832-4.95-2.24-1.002-.232-5.631.01-5.631.01s.981 3.435 2.12 5.084c2.655 3.844 7.308 6.765 13.956 6.45" transform="translate(-55 -138) translate(55 138)"/>
                <path fill="#9DC6AC" d="M30.925 131.285c-.12-2.225-.528-4.433-1.21-6.545-.275-.85-.597-1.69-1.069-2.44-1.527-2.43-4.388-3.566-7.14-4.066-.033 2.345.235 4.811 1.522 6.74.57.852 1.314 1.56 2.066 2.243 1.493 1.356 4.228 2.856 5.831 4.068M46.549 123.184c-.431-2.963-.83-6.145.516-8.819.482-.958 1.169-1.8 1.916-2.57 1.808-1.863 4.173-3.404 6.767-3.408.466 2.775-.097 5.712-1.556 8.117-1.46 2.405-4.969 5.816-7.643 6.68M41.796 140.397c2.75.571 5.728-.045 8.027-1.662 2.3-1.616 3.89-4.21 4.29-6.995.017-.124.028-.265-.056-.358-.079-.088-.212-.096-.33-.097-4.755-.024-10.66 4.524-11.931 9.112M32.011 129.685c3.919-2.209 6.436-6.634 6.51-11.442-2.828-.157-4.957 1.586-6.189 3.089-1.715 2.09-1.86 5.766-.32 8.353M34.859 137.445c-1.047-2.61-.718-5.73.85-8.064 1.567-2.334 4.329-3.815 7.138-3.828.116 0 .251.01.319.106.04.056.045.13.048.2.108 2.41-.951 4.759-2.469 6.633-1.517 1.873-3.472 3.337-5.433 4.739" transform="translate(-55 -138) translate(55 138)"/>
                <path fill="#577865" d="M50.842 116.29c-5.22 4.966-7.046 12.927-8.433 19.73-1.601 7.86-2.499 16.013-2.795 24.028-.005.137.192.13.208 0 .938-7.846 1.307-15.714 2.843-23.486 1.37-6.935 3.13-14.985 8.276-20.174.064-.063-.033-.16-.099-.098M34.855 141.595c-.084-2.352.316-4.475.846-6.753.022-.094-.114-.161-.162-.068-.984 1.9-1.269 4.76-.918 6.853.022.133.238.102.234-.032M35.18 121.567c-3.13 2.843-3.93 8.8-2.652 12.661.031.095.172.057.15-.041-.926-4.032-.622-9.507 2.537-12.585l-.034-.035" transform="translate(-55 -138) translate(55 138)"/>
                <path fill="#577865" d="M36.32 155.245c.172-5.464-.728-11.196-2.23-16.437-1.482-5.169-3.853-10.774-7.793-14.567-.111-.107-.259.051-.166.167 1.757 2.175 3.39 4.327 4.68 6.822 1.317 2.55 2.329 5.249 3.105 8.01 1.481 5.264 1.899 10.576 2.223 16.005.007.117.178.118.182 0" transform="translate(-55 -138) translate(55 138)"/>
                <path fill="#E2E2E2" d="M52.322 145.724v3.87c0 15.349-5.08 19.714-5.08 19.714H31.507s-5.081-4.365-5.081-19.713v-3.871h25.895" transform="translate(-55 -138) translate(55 138)"/>
                <path fill="#D7D7D7" d="M0.108 169.793L250.624 169.793 250.624 169.247 250.624 168.824 0.108 168.824z" transform="translate(-55 -138) translate(55 138)"/>
                <g fill="#BBC5CC">
                    <path d="M2.717 19.375v.242H16.87c1.501 0 2.718-1.218 2.718-2.722V2.722C19.588 1.219 18.371 0 16.87 0H2.717C1.217 0 0 1.219 0 2.722v14.173c0 1.504 1.217 2.722 2.717 2.722v-.484c-.617 0-1.174-.25-1.579-.656-.405-.405-.654-.963-.654-1.582V2.722c0-.619.25-1.177.654-1.582.405-.405.962-.655 1.58-.656H16.87c.618 0 1.175.25 1.58.656.405.405.654.963.655 1.582v14.173c0 .619-.25 1.177-.655 1.582-.405.406-.962.656-1.58.656H2.717v.242" transform="translate(-55 -138) translate(55 138) translate(35.304 21.795)"/>
                    <path d="M15.266 9.809h-.726c0 1.315-.53 2.498-1.39 3.36-.861.862-2.043 1.392-3.356 1.393-1.313 0-2.495-.53-3.356-1.393-.86-.862-1.39-2.045-1.39-3.36s.53-2.499 1.39-3.361c.861-.862 2.043-1.392 3.356-1.393 1.313 0 2.495.531 3.356 1.393.86.862 1.39 2.046 1.39 3.36h1.451c0-3.427-2.775-6.205-6.197-6.206-3.423 0-6.196 2.78-6.197 6.207 0 3.427 2.774 6.205 6.197 6.206 3.423 0 6.196-2.779 6.197-6.206h-.725" transform="translate(-55 -138) translate(55 138) translate(35.304 21.795)"/>
                    <path d="M12.976 5.426L5.25 13.163 6.276 14.191 14.001 6.454" transform="translate(-55 -138) translate(55 138) translate(35.304 21.795)"/>
                </g>
            </g>
        </g>
    </g>
</svg>
