<svg xmlns="http://www.w3.org/2000/svg" xmlns:xlink="http://www.w3.org/1999/xlink" width="107" height="86" viewBox="0 0 107 86">
    <defs>
        <path id="9s9c3unaxb" d="M0.129 32.899L20.741 44.312 49.316 27.867 49.759 3.142 30.737 0.049 0.966 20.81 0.129 32.899"/>
        <path id="571t9a2tod" d="M4.41 4.959L0.226 2.544 4.409 0.128 8.593 2.544z"/>
        <linearGradient id="ovte57m0ra" x1="50%" x2="50%" y1="0%" y2="100%">
            <stop offset="0%" stop-color="#A69773"/>
            <stop offset="100%" stop-color="#F1E2BD"/>
        </linearGradient>
    </defs>
    <g fill="none" fill-rule="evenodd">
        <path fill="url(#ovte57m0ra)" d="M40.128 85.34L13.003 66.631c-1.474-.854-1.286-2.34.417-3.321l1.558-.897 24.36 14.107c.902.522 2.11.778 3.374.778 1.495 0 3.069-.357 4.31-1.056h.002l.013-.008s.002 0 .003-.002l.01-.006c.003 0 .005-.002.007-.003l.008-.005.014-.008 54.305-31.253 1.843 1.068c1.473.853 1.286 2.34-.418 3.32L88.503 57.58l-.53.067-3.14.934-2.077 1.454-1.234 1.562-35.64 23.512c-.93.535-2.119.808-3.247.808-.94 0-1.837-.19-2.507-.578z"/>
        <path fill="#3B6397" d="M39.339 76.521l-28.23-16.347c-.927-.537-1.36-1.261-1.328-2.015l-.007.002.012-4.096 1.57 1.84c.102-.068.204-.135.315-.2L69.42 22.473c2.293-1.32 5.759-1.458 7.741-.31l27.833 16.117c.563-.616 1.744-1.919 1.744-1.919l-.013 4.007h-.001c.042.903-.601 1.865-1.896 2.61L47.08 76.21c-2.293 1.32-5.758 1.458-7.74.31"/>
        <path fill="#263764" d="M24.074 66.493l1.626.938c.216.125.39-.007.39-.296 0-.287-.174-.622-.39-.746l-1.626-.94c-.216-.124-.39.009-.39.296 0 .288.174.623.39.748"/>
        <path fill="#5589BB" d="M69.42 22.472c2.292-1.32 5.758-1.458 7.74-.31l27.833 16.117c.563-.616 1.744-1.919 1.744-1.919l-.013 4.007h-.001c.042.903-.601 1.865-1.896 2.61L47.08 76.21c-1.196.688-2.71 1.052-4.168 1.083l.055-39.598 26.453-15.224"/>
        <path fill="#D4EAF2" d="M105.401 34.39L77.172 18.043c-1.982-1.148-5.448-1.009-7.74.31L11.682 51.589c-2.292 1.32-2.544 3.32-.562 4.467l28.23 16.348c1.982 1.148 5.447 1.01 7.74-.31l57.748-33.235c2.293-1.319 2.544-3.32.562-4.468"/>
        <path fill="#FFFFFE" d="M39.329 72.84l-28.23-16.347c-1.021-.592-1.445-1.411-1.305-2.246.05.678.485 1.32 1.327 1.808l28.23 16.348c1.982 1.148 5.447 1.01 7.74-.31l57.748-33.235c1.11-.638 1.737-1.437 1.868-2.221.068.917-.571 1.9-1.89 2.659L47.07 72.53c-2.293 1.32-5.759 1.458-7.741.31"/>
        <path fill="#263764" d="M103.227 35.035L76.102 19.327c-1.474-.853-4.05-.75-5.754.23L13.42 52.32c-1.703.98-1.89 2.467-.417 3.32l27.125 15.708c1.473.854 4.05.75 5.753-.23l56.928-32.762c1.704-.98 1.89-2.468.418-3.321"/>
        <path fill="#D4EAF2" d="M46.96 63.19L27.82 52.139 29.041 51.434 48.182 62.485 46.96 63.19M33.643 59.968L23.951 54.373 25.173 53.667 34.864 59.263 33.643 59.968"/>
        <path fill="#FF6200" d="M38.346 62.684L35.203 60.869 36.424 60.163 39.568 61.978 38.346 62.684"/>
        <path fill="#FFFFFE" d="M43.092 65.424L39.949 63.609 41.17 62.903 44.313 64.718 43.092 65.424M33.751 57.797L25.885 53.256 27.107 52.55 34.973 57.092 33.751 57.797"/>
        <path fill="#D4EAF2" d="M43.353 63.341L35.487 58.799 36.709 58.094 44.574 62.635 43.353 63.341"/>
        <path fill="#FF6200" d="M37.53 53.633c-.394.227-1.032.227-1.426 0-.394-.227-.394-.595 0-.823.394-.227 1.032-.227 1.426 0 .393.228.393.596 0 .823"/>
        <path fill="#FFFFFE" d="M39.66 54.863c-.394.227-1.033.227-1.426 0-.394-.227-.394-.596 0-.823.393-.227 1.032-.227 1.425 0 .394.227.394.596 0 .823"/>
        <path fill="#D4EAF2" d="M41.789 56.093c-.394.227-1.032.227-1.425 0-.394-.228-.394-.596 0-.824.393-.227 1.031-.227 1.425 0 .394.228.394.596 0 .824"/>
        <path fill="#DA3685" d="M43.919 57.322c-.394.227-1.032.227-1.426 0-.393-.227-.393-.596 0-.823.394-.227 1.032-.227 1.426 0 .393.227.393.596 0 .823"/>
        <path fill="#FFFFFE" d="M46.049 58.552c-.394.227-1.032.227-1.426 0-.394-.228-.394-.596 0-.823.394-.228 1.032-.228 1.426 0 .393.227.393.595 0 .823"/>
        <path fill="#FF6200" d="M88.858 35.156L85.635 33.295 86.887 32.572 90.11 34.433 88.858 35.156"/>
        <path fill="#FFFFFE" d="M93.345 37.747L90.123 35.886 91.375 35.163 94.598 37.024 93.345 37.747M74.463 26.767L71.24 24.906 72.492 24.183 75.715 26.044 74.463 26.767M88.139 37.031L83.652 34.44 84.904 33.717 89.392 36.308 88.139 37.031"/>
        <path fill="#D4EAF2" d="M91.362 38.892L89.393 37.755 90.645 37.032 92.615 38.169 91.362 38.892"/>
        <path fill="#EADCB7" d="M68.245 83.987c-.815 0-1.675-.198-2.346-.586-1.227-.709-1.36-1.78-.298-2.394l11.232-6.485c.481-.278 1.124-.414 1.798-.414.569 0 1.16.098 1.693.288l3.091-1.81c-2.73-2.034-3.122-4.775-1.178-7.013l.058.055c.052-.102.109-.205.172-.306.05-.053.103-.105.156-.157.465.655 1.157 1.27 2.079 1.802 1.86 1.073 4.298 1.61 6.736 1.61 2.437 0 4.875-.537 6.735-1.61l.054-.032.009-.005.008-.005.002-.001.006-.003.004-.003.004-.002.005-.003.002-.001c.893-.53 1.564-1.139 2.012-1.787.114.165.214.332.3.5.327-.293.749-.524.924-.919-.14-.19-.295-.376-.468-.559l.001-.01c4.021 2.598 3.874 6.588-.446 9.082-2.235 1.29-5.161 1.934-8.088 1.935-2.763 0-5.526-.574-7.71-1.72l-3.118 1.825c.527.634.41 1.363-.396 1.829l-11.232 6.485c-.482.278-1.126.414-1.801.414"/>
        <path fill="#DE5702" d="M81.77 65.512l1.453-1.895 4.413-2.05 3.802-.338 4.452.545 3.088 1.596 1.973 1.26.355-2.051-.666-2.362s-1.687-1.117-1.791-1.22c-.104-.104-3.946-1.48-3.946-1.48l-3.841-.26-3.089.39-3.14.934-2.077 1.454-1.558 1.973-.175 2.465.746 1.039"/>
        <path fill="#80431C" d="M102.373 63.078L102.373 67.069 101.306 65.339 102.373 63.078"/>
        <path fill="#BC187A" d="M84.702 63.285c3.72-2.147 9.751-2.147 13.47 0 1.171.676 1.973 1.484 2.406 2.34.328-.293.75-.524.925-.919-.533-.725-1.309-1.405-2.333-1.996-4.27-2.466-11.195-2.466-15.465 0-.935.54-1.665 1.152-2.19 1.806.172.403.433.791.78 1.112.433-.857 1.235-1.666 2.407-2.343"/>
        <path fill="#ECF6F9" d="M91.438 68.578c-2.438 0-4.876-.538-6.736-1.611-.376-.218-.713-.448-1.012-.69.155.124.32.246.495.364.306-.25.65-.49 1.039-.714 1.86-1.074 4.297-1.611 6.735-1.611 2.438 0 4.876.537 6.736 1.61.183.106.354.216.519.328-.281.23-.597.45-.947.658h-.002l-.005.004-.004.002-.004.003-.006.003-.002.001-.007.005h-.001l-.009.005-.054.032c-1.86 1.073-4.298 1.61-6.735 1.61m-8.815-3.412l-.027-.04.028.04"/>
        <path fill="#ABBED1" d="M91.438 68.578c-2.438 0-4.876-.538-6.736-1.611-.922-.532-1.614-1.147-2.079-1.802h.001c.275.387.63.76 1.066 1.111.299.243.636.473 1.012.69 1.86 1.074 4.298 1.612 6.736 1.612 2.437 0 4.875-.538 6.735-1.611-1.86 1.073-4.298 1.61-6.735 1.61m6.829-1.665c.35-.208.666-.428.947-.658.437-.356.792-.735 1.065-1.129-.448.648-1.119 1.257-2.012 1.787"/>
        <path fill="#E0F0F6" d="M84.185 66.641c-.176-.118-.34-.24-.495-.365-.434-.351-.788-.726-1.063-1.115l-.003.003-.028-.04c.465-.67 1.167-1.296 2.106-1.839 1.86-1.074 4.298-1.61 6.735-1.61 2.438 0 4.876.536 6.736 1.61.938.542 1.639 1.168 2.104 1.836-.272.396-.626.776-1.063 1.133-.165-.112-.336-.222-.52-.327-1.86-1.074-4.297-1.611-6.735-1.611-2.438 0-4.876.537-6.735 1.61-.39.225-.733.465-1.04.715"/>
        <path fill="#C0D5E3" d="M83.69 66.276c-.436-.35-.79-.724-1.066-1.112l.003-.003c.275.39.629.764 1.063 1.115m15.524-.022c.437-.357.79-.737 1.063-1.133l.002.004c-.273.394-.628.773-1.065 1.13"/>
        <path fill="#B64F0F" d="M100.84 63.95c-.454-.442-1.01-.86-1.67-1.24-2.135-1.233-4.934-1.85-7.733-1.85-2.799 0-5.597.617-7.732 1.85-.659.38-1.216.796-1.671 1.238-.014-.05-.027-.1-.038-.151.263-1.159 1.164-2.28 2.706-3.17 1.86-1.073 4.298-1.61 6.735-1.61 2.438 0 4.876.537 6.736 1.61 1.542.891 2.443 2.011 2.706 3.17-.011.051-.024.102-.038.153"/>
        <path fill="#B64F0F" d="M100.28 65.125c-.002-.001-.003-.002-.003-.004-.465-.668-1.166-1.294-2.104-1.835-1.86-1.075-4.298-1.611-6.736-1.611-2.437 0-4.875.536-6.735 1.61-.94.543-1.641 1.17-2.106 1.84-.264-.381-.452-.776-.562-1.177.455-.442 1.012-.858 1.67-1.238 2.136-1.233 4.934-1.85 7.733-1.85 2.799 0 5.598.617 7.733 1.85.66.38 1.216.798 1.67 1.24-.11.4-.297.795-.56 1.175"/>
        <path fill="#B64F0F" d="M101.503 64.706c-.074.168-.194.306-.332.432l-.003-.042-.987.589-1.211 1.124-1.679.745-2.318.83-2.06.485-2.838.121-1.834-.19-3.634-.952-2.368-2.094c.02-.042.035-.084.056-.126-.347-.32-.608-.71-.78-1.112-.065.08-.125.16-.183.242l-.83-1.73v4.146l.002-.003c-.002 1.617 1.064 3.234 3.201 4.468 4.27 2.465 11.195 2.465 15.465 0 3.247-1.875 4.023-4.634 2.333-6.933"/>
        <path fill="#FF6200" d="M83.093 66.51l-.854-.756c.02-.042.035-.084.056-.126-.347-.32-.608-.71-.78-1.112-.065.08-.125.16-.183.242l-.83-1.73v4.146l.002-.003c-.002 1.453.863 2.906 2.589 4.081V66.51"/>
        <path fill="#DE5702" d="M98.173 66.967c-3.72 2.147-9.75 2.147-13.471 0-3.72-2.148-3.72-5.63 0-7.778 3.72-2.148 9.75-2.147 13.47 0 3.721 2.148 3.721 5.63.001 7.778zm.997-8.353c-4.27-2.466-11.195-2.466-15.465 0-4.27 2.465-4.27 6.463 0 8.928 4.27 2.466 11.195 2.466 15.465 0 4.27-2.465 4.27-6.463 0-8.928z"/>
        <path fill="#D4EAF2" d="M76.552 72.067L82.613 68.54 83.419 69.846 77.33 73.392 76.552 72.067"/>
        <path fill="#734F8F" d="M77.484 73.043c0 .347-.243.487-.543.314-.3-.174-.543-.595-.543-.941 0-.347.243-.487.543-.314.3.173.543.594.543.941"/>
        <path fill="#734F8F" d="M77.484 73.043c0 .347-.243.487-.543.314-.3-.174-.543-.595-.543-.941 0-.347.243-.487.543-.314.3.173.543.594.543.941"/>
        <path fill="#D4EAF2" d="M83.547 69.515c0 .346-.243.487-.543.314-.3-.174-.543-.595-.543-.941 0-.347.243-.487.543-.314.3.173.543.594.543.94"/>
        <path fill="#5589BB" d="M80.466 73.299c0-1.49-1.047-3.304-2.338-4.05-.66-.38-1.256-.407-1.681-.143l-.001-.001-12.815 7.447 3.349 5.7 12.679-7.382c.087-.037.168-.084.244-.142l.01-.006c.344-.272.553-.759.553-1.423"/>
        <path fill="#D4EAF2" d="M64.559 78.13L78.9 69.85c-.242-.238-.502-.444-.773-.6-.66-.382-1.256-.408-1.681-.144l-.001-.001-12.815 7.447.928 1.578"/>
        <path fill="#D4EAF2" d="M67.643 80.752c0 1.49-1.046 2.095-2.337 1.35-1.291-.746-2.338-2.559-2.338-4.05 0-1.49 1.047-2.095 2.338-1.35 1.29.746 2.337 2.559 2.337 4.05"/>
        <path fill="#5589BB" d="M65.745 80.055c0 .841-.682 1.523-1.523 1.523-.84 0-1.523-.682-1.523-1.523 0-.84.682-1.523 1.523-1.523.841 0 1.523.682 1.523 1.523"/>
        <path fill="#FFFFFE" d="M63.944 79.497c0 .249-.202.45-.45.45-.249 0-.45-.201-.45-.45 0-.248.201-.45.45-.45.248 0 .45.202.45.45M65.478 76.602c-.69-.398-1.31-.407-1.738-.104.415-.194.963-.143 1.566.204 1.29.746 2.337 2.559 2.337 4.05 0 .693-.228 1.191-.6 1.454.474-.22.773-.76.773-1.554 0-1.491-1.047-3.304-2.338-4.05M98.173 59.19c-3.72-2.148-9.751-2.149-13.471 0-1.937 1.117-2.863 2.598-2.783 4.063.074-1.349 1-2.684 2.783-3.714 3.72-2.147 9.75-2.147 13.47 0 1.784 1.03 2.71 2.366 2.784 3.714.08-1.465-.846-2.945-2.783-4.064M99.17 67.543c-4.27 2.465-11.194 2.465-15.465 0-2.058-1.19-3.121-2.733-3.196-4.29-.08 1.674.983 3.362 3.196 4.64 4.27 2.465 11.195 2.465 15.465 0 2.213-1.278 3.276-2.966 3.196-4.64-.074 1.557-1.138 3.101-3.196 4.29M0 37.686L0 35.575.265 35.575.782 36.771.782 35.575 1.1 35.575 1.1 37.686.848 37.686.326 36.43.326 37.686 0 37.686M1.894 37.41c.027.011.059.016.096.016.037 0 .07-.005.096-.016.026-.011.047-.026.063-.043.015-.018.028-.042.037-.07.008-.03.014-.058.017-.087.003-.029.005-.063.005-.103v-.959c0-.05-.003-.093-.008-.127s-.015-.066-.03-.096-.037-.053-.067-.068c-.03-.014-.067-.022-.113-.022s-.084.008-.114.022c-.03.015-.052.037-.067.068-.014.03-.024.062-.029.096-.005.034-.008.076-.008.127v.959c0 .04.002.074.005.103.003.029.009.058.018.087.009.028.02.052.036.07.015.017.036.032.063.043zm.096.302c-.217 0-.373-.06-.467-.177-.094-.118-.142-.291-.142-.518v-.78c0-.112.011-.209.032-.291.022-.083.056-.154.103-.214.047-.06.11-.106.189-.136.079-.03.174-.045.285-.045.217 0 .372.058.467.174.095.117.142.287.142.513v.779c0 .11-.011.207-.033.29-.021.084-.056.157-.103.218-.047.062-.11.108-.189.14-.079.03-.174.047-.284.047zM3.109 37.686L2.807 35.575 3.131 35.575 3.304 36.936 3.529 35.575 3.788 35.575 4.018 36.937 4.192 35.575 4.509 35.575 4.207 37.686 3.9 37.686 3.662 36.277 3.425 37.686 3.109 37.686"/>
        <g>
            <path fill="#ACCBE0" d="M40.745 8.744L40.745 8.744 42.043 7.997 42.043 7.997 40.745 8.744" transform="translate(38.311 43.282)"/>
            <path fill="#2D4F80" d="M40.745 8.744L40.745 0.844 42.044 0.097 42.043 7.997 40.745 8.744" transform="translate(38.311 43.282)"/>
            <path fill="#B9D6E6" d="M35.8 11.59L35.8 11.59 40.745 8.744 40.745 8.744 35.8 11.59" transform="translate(38.311 43.282)"/>
            <path fill="#355786" d="M35.8 11.59L35.8 3.69 40.745 0.844 40.745 8.744 35.8 11.59" transform="translate(38.311 43.282)"/>
            <path fill="#D4EAF2" d="M34.018 12.615L34.018 12.615 35.109 11.987 34.018 12.615" transform="translate(38.311 43.282)"/>
            <path fill="#4E6990" d="M34.018 12.615L34.019 4.715 35.109 4.088 35.109 11.987 34.018 12.615" transform="translate(38.311 43.282)"/>
            <path fill="#ACCBE0" d="M35.109 11.987L35.109 11.987 35.8 11.59 35.8 11.59 35.109 11.987" transform="translate(38.311 43.282)"/>
            <path fill="#2D4F80" d="M35.109 11.987L35.109 4.088 35.8 3.69 35.8 11.59 35.109 11.987" transform="translate(38.311 43.282)"/>
            <path fill="#C69EBE" d="M32.721 13.362L32.721 13.362 34.018 12.615 34.018 12.615 32.721 13.362" transform="translate(38.311 43.282)"/>
            <path fill="#452B69" d="M32.721 13.362L32.721 5.462 34.019 4.715 34.018 12.615 32.721 13.362" transform="translate(38.311 43.282)"/>
            <path fill="#D3C2D5" d="M27.776 16.208L27.776 16.208 32.721 13.362 32.721 13.362 27.776 16.208" transform="translate(38.311 43.282)"/>
            <path fill="#4E477A" d="M27.776 16.208L27.776 8.308 32.721 5.462 32.721 13.362 27.776 16.208" transform="translate(38.311 43.282)"/>
            <path fill="#D4ACC6" d="M25.773 17.361L25.773 17.36 27.085 16.606 27.085 16.606 25.773 17.361" transform="translate(38.311 43.282)"/>
            <path fill="#523470" d="M25.773 17.36L25.774 9.46 27.085 8.706 27.085 16.606 25.773 17.36" transform="translate(38.311 43.282)"/>
            <path fill="#C69EBE" d="M27.085 16.606L27.085 16.606 27.776 16.208 27.776 16.208 27.085 16.606" transform="translate(38.311 43.282)"/>
            <path fill="#452B69" d="M27.085 16.606L27.085 8.706 27.776 8.308 27.776 16.208 27.085 16.606" transform="translate(38.311 43.282)"/>
            <path fill="#D4EAF2" d="M9.011 27.007L9.011 27.007 9.618 26.657 9.011 27.007" transform="translate(38.311 43.282)"/>
            <path fill="#4E6990" d="M9.01 27.007L.843 22.291c-.527-.305-.784-.707-.77-1.107v.013l9.546 5.46-.607.35" transform="translate(38.311 43.282)"/>
            <path fill="#ACCBE0" d="M24.475 18.108L24.475 18.107 25.773 17.36 25.773 17.361 24.475 18.108" transform="translate(38.311 43.282)"/>
            <path fill="#2D4F80" d="M24.475 18.107L24.475 10.207 25.774 9.46 25.773 17.36 24.475 18.107" transform="translate(38.311 43.282)"/>
            <path fill="#B9D6E6" d="M19.53 20.953L19.53 20.953 24.475 18.107 24.475 18.108 19.53 20.953" transform="translate(38.311 43.282)"/>
            <path fill="#355786" d="M19.53 20.953L19.53 13.053 24.475 10.207 24.475 18.107 19.53 20.953" transform="translate(38.311 43.282)"/>
            <path fill="#D4EAF2" d="M9.618 26.657L9.618 26.657 18.839 21.351 18.839 21.351 9.618 26.657" transform="translate(38.311 43.282)"/>
            <path fill="#4E6990" d="M9.618 26.657l-9.546-5.46v-1.816l1.185-.684-1.185-.684v-.823l4.97 2.869 1.221-.705-6.191-3.575v-.823l8.577 4.952 1.222-.705-9.799-5.657v-1.894c.17.066.367.1.564.1.257 0 .515-.057.712-.17.394-.228.394-.596 0-.824-.197-.113-.455-.17-.712-.17-.197 0-.394.033-.564.1v-7.63L4.677 5.61v7.452c-.181.023-.354.075-.495.157-.393.227-.393.595 0 .822.141.082.314.134.495.157v.012l1.37.791c.043.099.131.193.265.27.134.077.296.128.468.153l6.967 4.023v-8.815l5.092 2.82v7.9l-9.22 5.306m-6.76-7.035l-1.222.706 3.144 1.814 1.221-.705-3.143-1.815m-.094-7.804c-.258 0-.516.056-.712.17-.394.227-.394.595 0 .823.196.114.454.17.712.17.258 0 .516-.056.713-.17.393-.228.393-.596 0-.823-.197-.114-.455-.17-.713-.17" transform="translate(38.311 43.282)"/>
            <path fill="#D4EAF2" d="M8.649 19.908L0.072 14.956 0.072 13.546 9.871 19.203 8.649 19.908" transform="translate(38.311 43.282)"/>
            <path fill="#B87F5B" d="M0.072 19.381L0.072 18.013 1.257 18.697 0.072 19.381" transform="translate(38.311 43.282)"/>
            <path fill="#F5FAFB" d="M4.781 22.142L1.637 20.328 2.859 19.622 6.002 21.437 4.781 22.142" transform="translate(38.311 43.282)"/>
            <path fill="#D4EAF2" d="M5.042 20.059L0.072 17.19 0.072 15.779 6.263 19.354 5.042 20.059" transform="translate(38.311 43.282)"/>
            <path fill="#F5FAFB" d="M.636 11.752c-.197 0-.394-.034-.564-.1v-.965c.17-.066.367-.1.564-.1.257 0 .515.058.712.171.394.228.394.596 0 .823-.197.114-.455.17-.712.17" transform="translate(38.311 43.282)"/>
            <path fill="#D4EAF2" d="M2.765 12.981c-.258 0-.516-.056-.712-.17-.394-.228-.394-.596 0-.823.196-.114.454-.17.712-.17.258 0 .516.056.713.17.393.227.393.595 0 .823-.197.114-.455.17-.713.17" transform="translate(38.311 43.282)"/>
            <path fill="#FF6200" d="M4.677 14.197c-.181-.023-.354-.075-.495-.157-.393-.227-.393-.595 0-.822.141-.082.314-.134.495-.157v1.136" transform="translate(38.311 43.282)"/>
            <path fill="#F5FAFB" d="M6.78 15.423c-.172-.025-.334-.076-.468-.153s-.222-.171-.265-.27l.733.423" transform="translate(38.311 43.282)"/>
            <path fill="#ACCBE0" d="M18.839 21.351L18.839 21.351 19.53 20.953 19.53 20.953 18.839 21.351" transform="translate(38.311 43.282)"/>
            <path fill="#2D4F80" d="M18.839 21.351L18.839 13.451 19.53 13.053 19.53 20.953 18.839 21.351" transform="translate(38.311 43.282)"/>
            <path fill="#5B6F91" d="M13.747 19.446L6.78 15.423c.08.012.162.017.245.017.258 0 .515-.056.712-.17.394-.227.394-.596 0-.823-.197-.114-.454-.17-.712-.17-.258 0-.516.056-.713.17-.26.15-.348.361-.265.553l-1.37-.79v-.013c.072.01.145.014.218.014.258 0 .516-.057.713-.17.393-.228.393-.596 0-.823-.197-.114-.455-.171-.713-.171-.073 0-.146.005-.218.014V5.609l9.07 5.022v8.815" transform="translate(38.311 43.282)"/>
            <path fill="#B87F5B" d="M4.895 14.211c-.073 0-.146-.005-.218-.014v-1.136c.072-.01.145-.014.218-.014.258 0 .516.057.713.17.393.228.393.596 0 .823-.197.114-.455.171-.713.171" transform="translate(38.311 43.282)"/>
            <path fill="#FFFFFE" d="M7.025 15.44c-.083 0-.165-.005-.245-.017L6.047 15c-.083-.192.005-.403.265-.553.197-.114.455-.17.713-.17.258 0 .515.056.712.17.394.227.394.596 0 .823-.197.114-.454.17-.712.17" transform="translate(38.311 43.282)"/>
        </g>
        <g transform="translate(36.41 12.42)">
            <mask id="i5xmdfh01c" fill="#fff">
                <use xlink:href="#9s9c3unaxb"/>
            </mask>
            <path fill="#DC9C2F" d="M34.995 28.264L33.537 33.043 29.807 35.61 32.637 36.764 31.789 41.508 34.995 37.381 38.201 37.806 37.353 34.041 40.182 29.62 36.452 31.361 34.995 28.264" mask="url(#i5xmdfh01c)"/>
            <path fill="#BC187A" d="M41.923 30.62l-1.74-1-2.69 1.255s.01 1.807 0 1.85c-.009.043 1.109.097 1.184.097.075 0 3.246-2.202 3.246-2.202M31.789 41.508L33.529 42.507 34.377 37.763 33.537 36.873 32.589 37.034 31.789 41.508" mask="url(#i5xmdfh01c)"/>
            <path fill="#DA3685" d="M36.735 29.263L35.278 34.043 31.548 36.61 34.377 37.763 33.529 42.507 36.735 38.38 39.942 38.805 39.094 35.041 41.923 30.62 38.193 32.36 36.735 29.263" mask="url(#i5xmdfh01c)"/>
            <path fill="#FFFFFE" d="M33.869 42.069L34.668 37.603 32.088 36.551 35.499 34.204 36.787 29.978 38.069 32.702 41.663 31.026 41.923 30.62 38.193 32.36 36.735 29.263 35.278 34.043 31.548 36.61 34.377 37.763 33.529 42.507 33.869 42.069" mask="url(#i5xmdfh01c)"/>
            <path fill="#BC187A" d="M36.735 29.263L34.995 28.264 33.537 33.043 35.278 34.043 36.735 29.263" mask="url(#i5xmdfh01c)"/>
            <path fill="#BC187A" d="M29.807 35.61L31.548 36.61 35.278 34.043 33.537 33.043 29.807 35.61" mask="url(#i5xmdfh01c)"/>
            <path fill="#FFFFFE" d="M35.191 34.163L35.456 34.01 33.576 32.916 33.537 33.043 33.414 33.129 35.191 34.163" mask="url(#i5xmdfh01c)"/>
            <path fill="#DC9C2F" d="M23.105 35.069L21.648 39.849 17.917 42.416 20.747 43.57 19.899 48.314 23.105 44.186 26.311 44.612 25.463 40.847 28.293 36.426 24.562 38.166 23.105 35.069" mask="url(#i5xmdfh01c)"/>
            <path fill="#BC187A" d="M30.033 37.425l-1.74-.999-2.689 1.254s.01 1.808 0 1.851c-.01.043 1.108.097 1.184.097.075 0 3.245-2.203 3.245-2.203M19.899 48.314L21.639 49.313 22.488 44.569 21.648 43.679 20.699 43.84 19.899 48.314" mask="url(#i5xmdfh01c)"/>
            <path fill="#DA3685" d="M24.846 36.068L23.388 40.848 19.658 43.415 22.488 44.569 21.639 49.313 24.846 45.186 28.052 45.611 27.204 41.846 30.033 37.425 26.303 39.166 24.846 36.068" mask="url(#i5xmdfh01c)"/>
            <path fill="#FFFFFE" d="M21.98 48.875L22.779 44.409 20.198 43.357 23.609 41.009 24.897 36.784 26.179 39.508 29.773 37.831 30.033 37.425 26.303 39.166 24.846 36.068 23.388 40.849 19.658 43.415 22.488 44.569 21.639 49.313 21.98 48.875" mask="url(#i5xmdfh01c)"/>
            <path fill="#BC187A" d="M24.846 36.068L23.105 35.069 21.648 39.849 23.388 40.848 24.846 36.068" mask="url(#i5xmdfh01c)"/>
            <path fill="#BC187A" d="M17.917 42.416L19.658 43.415 23.388 40.848 21.648 39.849 17.917 42.416" mask="url(#i5xmdfh01c)"/>
            <path fill="#FFFFFE" d="M23.302 40.968L23.567 40.815 21.687 39.721 21.648 39.849 21.524 39.934 23.302 40.968" mask="url(#i5xmdfh01c)"/>
            <path fill="#DC9C2F" d="M11.215 41.875L9.758 46.655 6.028 49.222 8.857 50.375 8.009 55.12 11.215 50.992 14.422 51.417 13.573 47.653 16.403 43.232 12.673 44.972 11.215 41.875" mask="url(#i5xmdfh01c)"/>
            <path fill="#BC187A" d="M18.144 44.231l-1.74-1-2.69 1.255s.01 1.808 0 1.85c-.009.044 1.109.098 1.184.098.075 0 3.246-2.203 3.246-2.203" mask="url(#i5xmdfh01c)"/>
            <path fill="#DA3685" d="M12.956 42.874L11.499 47.654 7.769 50.221 10.598 51.375 9.75 56.119 12.956 51.991 16.162 52.417 15.314 48.652 18.144 44.231 14.414 45.971 12.956 42.874" mask="url(#i5xmdfh01c)"/>
            <path fill="#FFFFFE" d="M10.09 55.681L10.889 51.215 8.308 50.163 11.719 47.815 13.007 43.589 14.289 46.314 17.884 44.637 18.144 44.231 14.414 45.971 12.956 42.874 11.499 47.654 7.769 50.221 10.598 51.375 9.75 56.119 10.09 55.681" mask="url(#i5xmdfh01c)"/>
            <path fill="#BC187A" d="M12.956 42.874L11.215 41.875 9.758 46.655 11.499 47.654 12.956 42.874" mask="url(#i5xmdfh01c)"/>
            <path fill="#DC9C2F" d="M26.722 16.977L25.265 21.757 21.535 24.324 24.364 25.478 23.516 30.222 26.722 26.095 29.928 26.52 29.08 22.755 31.91 18.334 28.18 20.075 26.722 16.977" mask="url(#i5xmdfh01c)"/>
            <path fill="#BC187A" d="M33.65 19.334l-1.74-1-2.689 1.255s.01 1.807 0 1.85c-.009.043 1.108.097 1.184.097.075 0 3.245-2.202 3.245-2.202M23.516 30.222L25.257 31.221 26.105 26.477 25.265 25.587 24.316 25.748 23.516 30.222" mask="url(#i5xmdfh01c)"/>
            <path fill="#DA3685" d="M28.463 17.976L27.006 22.756 23.276 25.324 26.105 26.477 25.257 31.221 28.463 27.094 31.669 27.519 30.821 23.755 33.65 19.334 29.92 21.074 28.463 17.976" mask="url(#i5xmdfh01c)"/>
            <path fill="#FFFFFE" d="M25.597 30.783L26.396 26.317 23.815 25.265 27.226 22.917 28.514 18.692 29.796 21.416 33.391 19.74 33.65 19.334 29.92 21.074 28.463 17.976 27.006 22.756 23.276 25.324 26.105 26.477 25.257 31.221 25.597 30.783" mask="url(#i5xmdfh01c)"/>
            <path fill="#BC187A" d="M28.463 17.976L26.722 16.977 25.265 21.757 27.006 22.756 28.463 17.976" mask="url(#i5xmdfh01c)"/>
            <path fill="#BC187A" d="M21.535 24.324L23.276 25.324 27.006 22.756 25.265 21.757 21.535 24.324" mask="url(#i5xmdfh01c)"/>
            <path fill="#FFFFFE" d="M26.919 22.877L27.184 22.723 25.304 21.63 25.265 21.757 25.141 21.842 26.919 22.877" mask="url(#i5xmdfh01c)"/>
            <path fill="#DC9C2F" d="M14.833 23.783L13.375 28.563 9.645 31.13 12.474 32.284 11.626 37.028 14.833 32.9 18.039 33.326 17.19 29.561 20.02 25.14 16.29 26.88 14.833 23.783" mask="url(#i5xmdfh01c)"/>
            <path fill="#BC187A" d="M21.76 26.14l-1.74-1-2.688 1.254s.009 1.808 0 1.85c-.01.044 1.108.098 1.183.098.075 0 3.246-2.203 3.246-2.203M11.626 37.028L13.367 38.027 14.215 33.283 13.375 32.392 12.426 32.554 11.626 37.028" mask="url(#i5xmdfh01c)"/>
            <path fill="#DA3685" d="M16.573 24.782L15.116 29.562 11.386 32.129 14.215 33.283 13.367 38.027 16.573 33.9 19.779 34.325 18.931 30.56 21.761 26.139 18.031 27.88 16.573 24.782" mask="url(#i5xmdfh01c)"/>
            <path fill="#FFFFFE" d="M13.707 37.589L14.506 33.123 11.925 32.071 15.337 29.723 16.624 25.497 17.906 28.222 21.501 26.545 21.761 26.139 18.031 27.88 16.573 24.782 15.116 29.562 11.386 32.129 14.215 33.283 13.367 38.027 13.707 37.589" mask="url(#i5xmdfh01c)"/>
            <path fill="#BC187A" d="M16.573 24.782L14.833 23.783 13.375 28.563 15.116 29.562 16.573 24.782" mask="url(#i5xmdfh01c)"/>
            <path fill="#BC187A" d="M9.645 31.13L11.386 32.129 15.116 29.562 13.375 28.563 9.645 31.13" mask="url(#i5xmdfh01c)"/>
            <path fill="#FFFFFE" d="M15.029 29.682L15.294 29.529 13.414 28.435 13.375 28.563 13.251 28.648 15.029 29.682" mask="url(#i5xmdfh01c)"/>
            <path fill="#D4EAF2" d="M19.014 33.035c-1.027.593-1.027 1.558 0 2.15l17.454 10.078c.282.163.74.163 1.022 0 .283-.163.283-.427 0-.59L20.036 34.595c-.463-.267-.463-.702 0-.97l1.691-.976c-.188-.283-.358-.577-.525-.877l-2.188 1.263" mask="url(#i5xmdfh01c)"/>
            <path fill="#5589BB" d="M43.734 41.068L26.28 30.99c-1.027-.592-2.698-.592-3.725 0l-1.353.782c.167.3.337.594.525.877l1.851-1.068c.463-.268 1.216-.268 1.68 0l17.454 10.077c.282.163.74.163 1.022 0 .282-.163.282-.427 0-.59" mask="url(#i5xmdfh01c)"/>
            <path fill="#5589BB" d="M43.944 41.384L43.946 16.84 25.655 6.644 23.097 6.475 20.623 8.077 19.105 9.398 36.926 37.659 42.745 41.088 43.944 41.384" mask="url(#i5xmdfh01c)"/>
            <path fill="#76A9CF" d="M37.179 44.484L42.647 41.327 42.647 17.607 37.011 20.227 37.179 44.484" mask="url(#i5xmdfh01c)"/>
            <path fill="#D4EAF2" d="M18.244 9.588L18.244 34.092 37.446 45.075 37.702 44.973 37.702 20.433 18.244 9.588" mask="url(#i5xmdfh01c)"/>
            <path fill="#FFFFFE" d="M29.044 9.79l-3.816-2.192c-.466-.215-1.148-.202-1.58.048L20.106 9.69c-.274.158-.384.375-.334.582l9.643 5.762 7.746 4.754 5.486-3.182L29.044 9.79" mask="url(#i5xmdfh01c)"/>
            <path fill="#5589BB" d="M37.011 20.048v25.336c.174-.005.346-.044.48-.121.138-.08.208-.185.21-.29v-24.54l-.69-.385" mask="url(#i5xmdfh01c)"/>
            <path fill="#FFFFFE" d="M43.946 17.146L43.946 16.84 43.848 16.84 43.819 17.048 43.946 17.146M37.701 20.751L37.701 20.437 37.607 20.571 37.701 20.751" mask="url(#i5xmdfh01c)"/>
            <path fill="#D4EAF2" d="M36.468 20.723L19.014 10.646c-1.027-.593-1.027-1.557 0-2.15l3.541-2.045c1.027-.593 2.698-.593 3.725 0l17.454 10.077c.282.163.282.428 0 .59-.282.164-.74.164-1.022 0L25.258 7.042c-.464-.267-1.217-.267-1.68 0l-3.542 2.045c-.463.268-.463.702 0 .97L37.49 20.133c.283.163.283.428 0 .59-.282.163-.74.163-1.022 0" mask="url(#i5xmdfh01c)"/>
            <path fill="#FFFFFE" d="M31.919 32.341L22.849 27.104 22.849 18.011 31.919 23.248 31.919 32.341M43.734 17.119c-.282.163-.74.163-1.022 0L25.258 7.04c-.464-.267-1.217-.267-1.68 0l-3.542 2.045c-.303.175-.406.422-.313.647.05-.119.153-.231.313-.324l3.542-2.044c.463-.268 1.216-.268 1.68 0l17.454 10.077c.282.163.74.163 1.022 0 .214-.124.265-.305.155-.457-.035.049-.086.094-.155.134M37.49 20.723c-.282.163-.74.163-1.022 0L19.014 10.646c-.442-.255-.693-.58-.755-.913-.08.441.17.9.755 1.237l17.454 10.077c.282.163.74.163 1.022 0 .214-.124.265-.305.155-.457-.035.049-.086.094-.155.133" mask="url(#i5xmdfh01c)"/>
            <path fill="#DA3685" d="M10.989 43.044c-1.027.593-1.027 1.558 0 2.15l17.454 10.078c.283.163.74.163 1.023 0 .282-.163.282-.427 0-.59L12.012 44.605c-.464-.268-.464-.703 0-.97l1.69-.977c-.187-.282-.358-.577-.524-.877l-2.19 1.263" mask="url(#i5xmdfh01c)"/>
            <path fill="#BC187A" d="M35.71 51.077L18.255 41c-1.027-.593-2.697-.593-3.724 0l-1.353.781c.166.3.337.595.525.877l1.85-1.068c.463-.268 1.217-.268 1.68 0l17.454 10.077c.283.163.74.163 1.023 0 .282-.163.282-.427 0-.59" mask="url(#i5xmdfh01c)"/>
            <path fill="#AB4200" d="M35.92 51.393L35.921 26.849 17.63 16.653 15.072 16.484 12.599 18.086 11.081 19.407 28.902 47.668 34.721 51.098 35.92 51.393" mask="url(#i5xmdfh01c)"/>
            <path fill="#FFCFB2" d="M29.155 54.493L34.622 51.336 34.622 27.616 28.986 30.236 29.155 54.493" mask="url(#i5xmdfh01c)"/>
            <path fill="#FF6200" d="M10.219 19.597L10.219 44.101 29.421 55.084 29.677 54.982 29.677 30.442 10.219 19.597" mask="url(#i5xmdfh01c)"/>
            <path fill="#FFFFFE" d="M21.02 19.8l-3.817-2.193c-.466-.215-1.148-.202-1.58.048L12.083 19.7c-.275.158-.385.375-.334.582l9.643 5.762 7.745 4.754 5.486-3.182L21.02 19.8" mask="url(#i5xmdfh01c)"/>
            <path fill="#BC187A" d="M28.986 30.057v25.336c.175-.005.347-.044.48-.121.139-.08.208-.185.21-.29h.001v-24.54l-.69-.385" mask="url(#i5xmdfh01c)"/>
            <path fill="#FFFFFE" d="M35.921 27.156L35.921 26.849 35.824 26.849 35.794 27.057 35.921 27.156M29.677 30.76L29.677 30.447 29.583 30.58 29.677 30.76" mask="url(#i5xmdfh01c)"/>
            <path fill="#F05C00" d="M28.443 30.733L10.99 20.656c-1.027-.593-1.027-1.558 0-2.15l3.542-2.046c1.027-.593 2.697-.593 3.724 0L35.71 26.538c.282.163.282.427 0 .59-.283.163-.74.163-1.023 0L17.233 17.05c-.463-.268-1.217-.268-1.68 0l-3.541 2.044c-.464.268-.464.703 0 .97l17.454 10.077c.282.163.282.428 0 .59-.283.164-.74.164-1.023 0" mask="url(#i5xmdfh01c)"/>
            <path fill="#FFFFFE" d="M23.895 42.35L14.825 37.113 14.825 28.021 23.895 33.257 23.895 42.35M35.71 27.128c-.283.163-.74.163-1.023 0L17.233 17.05c-.463-.268-1.217-.268-1.68 0l-3.541 2.044c-.304.175-.407.422-.313.647.05-.119.153-.231.313-.323l3.541-2.045c.463-.268 1.217-.268 1.68 0L34.687 27.45c.283.163.74.163 1.023 0 .214-.123.265-.305.154-.457-.035.049-.086.094-.154.134M29.466 30.733c-.283.163-.74.163-1.023 0L10.99 20.656c-.442-.256-.693-.58-.754-.914-.081.441.17.9.754 1.237l17.454 10.077c.283.163.74.163 1.023 0 .214-.124.265-.305.154-.457-.035.049-.086.094-.154.134" mask="url(#i5xmdfh01c)"/>
            <path fill="#5589BB" d="M27.674 58.949L27.676 34.405 9.385 24.209 6.827 24.04 4.353 25.642 2.835 26.963 20.656 55.224 26.475 58.653 27.674 58.949" mask="url(#i5xmdfh01c)"/>
            <path fill="#76A9CF" d="M20.909 62.048L26.377 58.892 26.377 35.172 20.741 37.792 20.909 62.048" mask="url(#i5xmdfh01c)"/>
            <path fill="#D4EAF2" d="M1.974 27.153L1.974 51.657 21.176 62.64 21.432 62.538 21.432 37.998 1.974 27.153" mask="url(#i5xmdfh01c)"/>
            <path fill="#FFFFFE" d="M12.774 27.356l-3.817-2.193c-.466-.215-1.147-.202-1.58.047l-3.54 2.045c-.275.159-.386.376-.335.582l9.643 5.763 7.746 4.754 5.486-3.182-13.603-7.816" mask="url(#i5xmdfh01c)"/>
            <path fill="#5589BB" d="M20.74 37.613v25.335c.175-.004.347-.043.48-.12.139-.08.209-.185.21-.29h.002v-24.54l-.691-.385" mask="url(#i5xmdfh01c)"/>
            <path fill="#FFFFFE" d="M27.676 34.711L27.676 34.405 27.578 34.405 27.548 34.613 27.676 34.711M21.431 38.316L21.431 38.002 21.337 38.135 21.431 38.316" mask="url(#i5xmdfh01c)"/>
            <path fill="#D4EAF2" d="M20.198 38.288L2.743 28.211c-1.026-.593-1.026-1.558 0-2.15l3.542-2.045c1.027-.593 2.698-.593 3.725 0l17.454 10.077c.282.163.282.427 0 .59-.282.163-.74.163-1.022 0L8.987 24.606c-.463-.267-1.216-.267-1.68 0l-3.541 2.045c-.463.267-.463.702 0 .97L21.22 37.698c.283.163.283.427 0 .59-.282.163-.74.163-1.022 0" mask="url(#i5xmdfh01c)"/>
            <path fill="#FFFFFE" d="M15.649 49.906L6.579 44.669 6.579 35.576 15.649 40.813 15.649 49.906M27.464 34.683c-.282.163-.74.163-1.022 0L8.987 24.606c-.463-.267-1.216-.267-1.68 0l-3.541 2.045c-.304.175-.407.422-.313.647.05-.119.153-.232.313-.324l3.542-2.044c.463-.268 1.216-.268 1.68 0l17.454 10.077c.282.163.74.163 1.022 0 .214-.124.265-.305.155-.457-.035.049-.086.094-.155.133M21.22 38.288c-.282.163-.74.163-1.022 0L2.743 28.211c-.442-.255-.692-.58-.754-.913-.08.44.17.899.754 1.236l17.455 10.078c.282.162.74.162 1.022 0 .214-.124.265-.306.155-.457-.035.048-.086.094-.155.133" mask="url(#i5xmdfh01c)"/>
        </g>
        <g transform="translate(93.704 22.374)">
            <mask id="hw2d7xeswe" fill="#fff">
                <use xlink:href="#571t9a2tod"/>
            </mask>
            <path fill="#EADCB7" d="M0.226 4.959L8.593 4.959 8.593 0.128 0.226 0.128z" mask="url(#hw2d7xeswe)"/>
        </g>
        <path fill="#AB4200" d="M102.297 21.851L98.114 24.267 98.114 19.436 102.297 17.021 102.297 21.851"/>
        <path fill="#F05C00" d="M98.114 19.436L93.93 17.021 98.113 14.606 102.296 17.021 98.114 19.436"/>
        <path fill="#FF6200" d="M98.114 24.267L93.93 21.851 93.93 17.021 98.114 19.436 98.114 24.267"/>
        <path fill="#FFFFFE" d="M96.607 21.657L95.437 20.982 95.437 19.631 96.607 20.306 96.607 21.657"/>
        <path fill="#8595AC" d="M13.346 83.637L8.991 81.122 13.346 78.608 17.701 81.122 13.346 83.637"/>
        <path fill="#263764" d="M17.701 77.93L13.346 80.444 13.346 75.416 17.701 72.902 17.701 77.93"/>
        <path fill="#D4EAF2" d="M13.346 75.416L8.991 72.902 13.346 70.387 17.701 72.902 13.346 75.416"/>
        <path fill="#5589BB" d="M13.346 80.444L8.991 77.93 8.991 72.902 13.346 75.416 13.346 80.444"/>
        <path fill="#FFFFFE" d="M11.777 77.728L10.559 77.024 10.559 75.618 11.777 76.321 11.777 77.728"/>
        <path fill="#F05C00" d="M53.83 6.384L42.947.102c-.216-.125-.41-.13-.562-.045V.05l-1.055.61.742.27v7.925c0 .644.391 1.393.875 1.672l10.4 6.005v.93l1.067-.614-.006-.002c.18-.11.296-.351.296-.698V8.057c0-.645-.392-1.394-.876-1.673"/>
        <path fill="#FF6200" d="M52.755 17.43l-10.882-6.283c-.483-.28-.875-1.028-.875-1.673v-8.09c0-.645.392-.942.875-.663l10.882 6.283c.483.279.875 1.028.875 1.673v8.09c0 .645-.392.941-.875.663"/>
        <path fill="#FFFFFE" d="M53.021 6.811L42.141.53c-.307-.177-.576-.122-.732.105.135-.035.293-.012.464.087l10.882 6.283c.483.279.875 1.028.875 1.673v8.09c0 .237-.054.425-.144.557.246-.064.411-.332.411-.75v-8.09c0-.645-.392-1.394-.876-1.673M45.533 8.359c0 .468-.33.658-.735.424-.405-.234-.734-.804-.734-1.272 0-.468.329-.658.734-.424.406.234.735.804.735 1.272"/>
        <path fill="#FFFFFE" d="M47.757 9.643c0 .468-.329.658-.735.424-.405-.234-.734-.804-.734-1.272 0-.468.329-.658.734-.424.406.234.735.804.735 1.272M49.98 10.927c0 .468-.328.658-.733.424-.406-.234-.735-.804-.735-1.272 0-.468.33-.658.735-.424.405.234.734.804.734 1.272"/>
    </g>
</svg>
