<svg xmlns="http://www.w3.org/2000/svg" width="64" height="95" viewBox="0 0 64 95">
    <g fill="none">
        <path fill="#FFF" d="M42.522 6.024C37.876 2.179 32.031.08 26 .089 19.982.079 14.149 2.17 9.506 6l16.636 32.884 16.38-32.86zM.037 26.051c0 14.028 11.125 25.455 25.033 25.944L4.59 11.364C1.617 15.684.03 20.807.037 26.051zM47.413 11.368L27.19 51.985c13.786-.622 24.773-11.994 24.773-25.934.008-5.243-1.58-10.364-4.55-14.683z" transform="translate(6 6)"/>
        <path fill="#FF7800" d="M47.413 11.368c-1.374-2-3.02-3.799-4.891-5.344L28.4 34.353c-.932 1.872-3.6 1.879-4.544.014L9.506 6c-1.88 1.55-3.535 3.356-4.916 5.364L25.07 52c.309.011.619.019.93.019.4 0 .8-.011 1.189-.029l20.224-40.622z" transform="translate(6 6)"/>
        <path fill="#FFF" d="M15.694 70.382c.01 1.119-.187 2.23-.579 3.277-.368.981-.922 1.882-1.633 2.652-.7.754-1.548 1.357-2.49 1.772-2.006.848-4.27.848-6.276 0-.942-.414-1.79-1.017-2.49-1.772-.71-.768-1.26-1.67-1.621-2.652-.757-2.119-.757-4.435 0-6.554.36-.982.91-1.884 1.621-2.652.7-.755 1.547-1.358 2.49-1.772 2.006-.85 4.27-.85 6.276 0 .942.414 1.79 1.017 2.49 1.772.71.77 1.266 1.67 1.633 2.652.392 1.048.589 2.158.579 3.277zm-2.5 0c.017-1.067-.218-2.123-.685-3.082-.424-.874-1.076-1.618-1.887-2.153-.8-.525-1.727-.787-2.78-.788-.976-.016-1.936.258-2.756.788-.808.531-1.457 1.272-1.876 2.143-.448.903-.672 1.933-.671 3.092 0 1.143.224 2.17.671 3.08.417.876 1.066 1.62 1.876 2.154.82.529 1.78.802 2.756.784 1.05 0 1.977-.262 2.78-.787.811-.535 1.463-1.28 1.887-2.154.466-.958.7-2.012.684-3.077h.001zm2.918 8.963c.286.004.558.125.752.336.214.2.336.481.336.775 0 .325-.15.633-.451.927-.342.321-.733.587-1.158.787-.474.233-.971.415-1.483.545-.465.125-.943.192-1.424.2-.942 0-1.706-.092-2.293-.277-.515-.155-1.012-.365-1.482-.626-.4-.23-.79-.439-1.17-.625-.424-.195-.888-.29-1.355-.278-.247-.01-.493.038-.718.139l-.579.289c-.24.109-.501.16-.764.151-.312.005-.61-.131-.811-.371-.205-.22-.321-.509-.324-.81 0-.5.224-.826.672-1l4.516-1.668 2.108.371-4.239 1.529 1-.626c.517-.01 1.031.077 1.517.255.437.169.863.366 1.274.591.408.223.83.42 1.262.59.48.177.99.262 1.502.251.412.012.822-.067 1.2-.232.283-.13.554-.286.811-.463.262-.185.49-.358.683-.521.17-.152.39-.237.617-.239h.001zM29.613 62.252c.307-.013.603.11.811.336.204.234.31.536.3.846v8.777c0 1.236-.27 2.34-.811 3.312-.518.95-1.287 1.74-2.223 2.282-.942.548-2.03.822-3.266.822-1.22 0-2.305-.274-3.254-.822-.943-.541-1.72-1.33-2.246-2.282-.55-.972-.824-2.076-.824-3.312v-8.777c-.009-.319.118-.626.348-.846.243-.228.567-.349.9-.336.3.003.588.124.8.336.236.217.367.525.359.846v8.777c0 .819.181 1.533.544 2.143.35.596.85 1.091 1.449 1.436.583.342 1.246.522 1.922.521 1.44.013 2.78-.73 3.532-1.957.388-.646.585-1.39.567-2.143v-8.777c-.011-.308.092-.61.29-.846.202-.228.497-.352.802-.336zM36.468 77.307c-.024.486-.328.913-.78 1.095-.45.182-.966.084-1.32-.25-.224-.223-.345-.529-.336-.845v-13.85c-.009-.319.118-.626.348-.846.243-.227.567-.348.9-.335.307 0 .603.12.822.335.237.217.368.525.359.846l.007 13.85zM50.712 62.276c.309.006.607.116.845.312.262.191.413.498.406.822-.007.268-.096.527-.255.742L42.281 76.4l-.208-.139h8.477c.302-.008.596.099.822.3.227.207.35.504.336.81.005.298-.117.585-.336.788-.22.214-.516.33-.822.324H40.058c-.327.005-.64-.125-.868-.359-.225-.205-.355-.495-.359-.8.006-.264.104-.518.278-.718l9.426-12.246.185.14h-7.851c-.305.008-.6-.105-.822-.313-.226-.212-.349-.512-.336-.822-.012-.3.112-.588.336-.787.226-.201.52-.309.822-.3l9.843-.002z" transform="translate(6 6)"/>
    </g>
</svg>
