<svg xmlns="http://www.w3.org/2000/svg" xmlns:xlink="http://www.w3.org/1999/xlink" width="177" height="160" viewBox="0 0 177 160">
    <defs>
        <path id="iz7xdmeska" d="M0.269 0.142L59.118 0.142 59.118 43.717 0.269 43.717z"/>
        <path id="b9wbh5xpvc" d="M0.152 0.16L68.332 0.16 68.332 30.099 0.152 30.099z"/>
    </defs>
    <g fill="none" fill-rule="evenodd">
        <g>
            <g>
                <path fill="#E4E4DE" d="M161.638 127.55c1.712-.884 3.73-.999 5.63-.684 1.021.168 2.086.474 2.781 1.242.696.767.827 2.117.029 2.776-.475.392-1.138.452-1.754.445-1.488-.018-3.14-.28-4.328.616-.679.511-1.13 1.36-1.941 1.612-.794.245-1.69-.223-2.11-.939-.421-.716-.435-1.612-.239-2.419 0 0 .207-1.76 1.932-2.65M157.714 119.976c1.047 1.495 3.083 1 4.026.087.944-.913 1.343-2.236 1.706-3.497.83-2.883 1.666-5.908 1.05-8.844-.185-.877-.514-1.752-1.13-2.404-.617-.65-1.565-1.038-2.432-.81-1.027.272-1.664 1.277-2.125 2.233-1.355 2.81-2.073 5.926-2.083 9.046-.005 1.457.166 2.985.988 4.189M154.839 122.122c1.137-1.35 1.352-3.318.846-5.008-.505-1.69-1.648-3.13-2.966-4.303-1.544-1.376-3.36-2.448-5.311-3.134-.769-.27-1.579-.483-2.389-.406-.81.077-1.627.492-2.005 1.213-.559 1.066-.023 2.359.557 3.414 1.02 1.859 2.189 3.637 3.489 5.313 1.045 1.348 2.243 2.678 3.836 3.287 1.594.609 3.25.538 4.094-.567" transform="translate(-92 -152) translate(92 152)"/>
                <path fill="#D4D5CF" d="M157.643 142.537c.02.001.052-.241.095-.68.049-.494.109-1.115.18-1.854.087-.78.201-1.71.418-2.72.216-1.01.554-2.103.989-3.212.45-1.102.998-2.103 1.64-2.905.636-.805 1.376-1.387 2.072-1.723.694-.343 1.316-.482 1.746-.544.434-.044.677-.078.677-.098 0-.019-.243-.023-.69-.01-.44.03-1.088.14-1.82.473-.733.326-1.518.917-2.186 1.739-.673.818-1.242 1.842-1.7 2.963-.442 1.129-.775 2.233-.981 3.264-.206 1.029-.3 1.968-.362 2.755-.059.788-.081 1.425-.092 1.866-.01.44-.004.685.014.686" transform="translate(-92 -152) translate(92 152)"/>
                <path fill="#D4D5CF" d="M157.771 141.11c.01 0 .016-.109.018-.315l-.002-.902c-.002-.783-.002-1.915.04-3.314.07-2.797.31-5.807.776-10.05.44-3.992 1.031-8.636 1.655-11.655.134-.687.269-1.305.396-1.846.12-.542.224-1.01.324-1.388l.21-.877c.045-.201.065-.308.055-.31-.01-.003-.047.098-.11.295l-.261.864c-.117.375-.235.84-.371 1.38-.141.538-.29 1.155-.437 1.84-.617 2.736-1.27 6.56-1.74 10.815-.467 4.252-.677 8.124-.695 10.928-.017 1.403.013 2.537.049 3.32l.055.902c.016.206.029.314.038.313" transform="translate(-92 -152) translate(92 152)"/>
                <path fill="#D4D5CF" d="M157.79 133.641c.02 0 .016-.335-.007-.942-.034-.605-.118-1.48-.288-2.552-.18-1.069-.433-2.338-.83-3.718-.172-.63-.576-2.142-1.555-4.4-1.29-3.06-3.042-5.56-4.566-7.11-.358-.411-.756-.708-1.075-.999-.164-.14-.31-.278-.459-.388l-.416-.288c-.502-.343-.783-.523-.794-.507-.044.061 1.124.749 2.6 2.319 1.47 1.566 3.173 4.05 4.453 7.085.713 1.645 1.21 3.113 1.563 4.359.408 1.366.679 2.623.883 3.681.195 1.061.308 1.927.375 2.527.056.601.097.934.116.933M150.571 146.816L151.32 157.069 164.491 157.069 165.239 146.816 150.571 146.816M149.299 146.816L166.811 146.816 166.811 142.775 149.299 142.775z" transform="translate(-92 -152) translate(92 152)"/>
                <path fill="#E4E4DE" d="M149.299 157.796L166.522 157.796 166.522 156.676 149.299 156.676z" transform="translate(-92 -152) translate(92 152)"/>
                <path fill="#D4D5CF" d="M150.928 159.768L150.122 157.796 165.894 157.796 164.953 159.768 150.928 159.768" transform="translate(-92 -152) translate(92 152)"/>
                <path fill="#F1F0EC" d="M164.994 150.166c.004.003-.018.035-.06.095l-.198.261c-.186.24-.444.568-.767.982l-.034.044-.033-.046-1.885-2.607h.108l-1.855 2.627-.059.083-.065-.078-2.2-2.619h.126l-.121.151-1.968 2.468-.066.082-.06-.086-1.857-2.627.108.005-2.287 2.605-.04.047-.031-.053c-.302-.505-.542-.91-.716-1.202l-.184-.32c-.04-.074-.06-.112-.056-.115.003-.002.03.033.077.102l.203.308.751 1.18-.071-.005 2.25-2.637.056-.066.052.071 1.874 2.616-.126-.004 1.963-2.47.12-.153.063-.079.065.078 2.195 2.623-.124.005 1.875-2.614.055-.077.053.077 1.846 2.635-.067-.002.798-.957.213-.247c.05-.056.077-.083.08-.08M165.422 146.748c0 .046-3.3.082-7.37.082-4.071 0-7.371-.036-7.371-.082 0-.045 3.3-.082 7.37-.082 4.071 0 7.371.037 7.371.082M166.088 157.907c0 .045-3.587.082-8.01.082-4.426 0-8.011-.037-8.011-.082 0-.046 3.585-.082 8.01-.082 4.424 0 8.01.036 8.01.082" transform="translate(-92 -152) translate(92 152)"/>
                <path fill="#D4D5CF" d="M147.151 68.082c.015.018-.17.23-.481.56-.311.328-.75.773-1.24 1.256-.49.484-.942.914-1.274 1.22-.333.306-.547.486-.564.47-.017-.018.167-.23.479-.558.312-.328.75-.774 1.243-1.259.492-.485.944-.917 1.276-1.222.333-.306.546-.486.561-.467M87.675 28.343l.231.385c.26.43.637.778 1.088 1.001l.401.199-.383.231c-.431.26-.78.637-1.002 1.088l-.199.402-.231-.384c-.26-.432-.637-.779-1.088-1.002l-.402-.199.384-.23c.431-.26.78-.638 1.002-1.089l.199-.402M128.918 17.565l.23.384c.26.431.638.779 1.09 1.002l.4.199-.383.23c-.431.26-.78.638-1.002 1.089l-.199.401-.23-.384c-.26-.43-.638-.778-1.089-1.002l-.402-.198.384-.232c.432-.259.78-.636 1.002-1.087l.2-.402M107.912 4.485l.116.193c.13.215.32.39.545.501l.202.1-.193.116c-.216.13-.39.32-.502.545l-.1.201-.115-.192c-.13-.216-.32-.39-.545-.502l-.202-.1.192-.116c.217-.13.39-.319.503-.545l.099-.2M123.87 17.709l.117.192c.13.216.32.39.545.502l.201.1-.192.115c-.216.13-.39.32-.502.546l-.1.201-.115-.192c-.13-.216-.32-.39-.546-.502l-.201-.1.192-.116c.217-.13.39-.32.502-.545l.1-.201M108.74 31.814l.116.192c.13.216.32.39.546.503l.201.099-.193.116c-.216.13-.39.319-.502.545l-.1.202-.115-.193c-.13-.216-.32-.39-.545-.502l-.202-.1.192-.116c.217-.13.391-.319.503-.545l.1-.201" transform="translate(-92 -152) translate(92 152)"/>
                <g transform="translate(-92 -152) translate(92 152) translate(68.068)">
                    <mask id="0lmp5i462b" fill="#fff">
                        <use xlink:href="#iz7xdmeska"/>
                    </mask>
                    <path fill="#E4E4DE" d="M59.109 43.534c.142-1.032-1.315-1.88-2.409-1.969-.522-.042-1.064.038-1.558-.134-1.071-.374-1.499-1.758-2.544-2.199-.781-.33-1.681-.036-2.439.346-.757.38-1.506.86-2.352.915-.736.047-1.536-.226-2.18.134-.48.267-.731.82-1.173 1.147-.433.319-.997.387-1.534.416-.537.029-1.093.034-1.582.258-.49.224-.894.741-.792 1.27l18.563-.184" mask="url(#0lmp5i462b)"/>
                    <path fill="#F1F0EC" d="M25.76 6.24c.195-1.416-1.803-2.58-3.304-2.702-.716-.058-1.46.052-2.138-.185-1.47-.512-2.057-2.41-3.491-3.015-1.072-.453-2.307-.05-3.346.473-1.04.523-2.067 1.181-3.228 1.256-1.01.065-2.107-.31-2.99.183-.659.368-1.004 1.127-1.61 1.574-.595.438-1.369.531-2.106.571-.737.04-1.5.048-2.17.355C.706 5.057.15 5.767.29 6.49l25.47-.251" mask="url(#0lmp5i462b)"/>
                </g>
                <path fill="#D4D5CF" d="M7.018 77.257L52.291 77.257 52.291 2.318 7.018 2.318z" transform="translate(-92 -152) translate(92 152)"/>
                <path fill="#E4E4DE" d="M5.513 77.257L50.786 77.257 50.786 2.318 5.513 2.318z" transform="translate(-92 -152) translate(92 152)"/>
                <path fill="#FAF9F6" d="M7.441 75.738L48.858 75.738 48.858 3.838 7.441 3.838z" transform="translate(-92 -152) translate(92 152)"/>
                <path fill="#E4E4DE" d="M15.326 66.395L40.794 66.395 40.794 13.18 15.326 13.18z" transform="translate(-92 -152) translate(92 152)"/>
                <path fill="#D4D5CF" d="M15.326 47.564c-.06-4.971 4.41-9.824 9.333-10.518 2.347-.33 4.841.135 7.034-.764 3.915-1.605 5.16-6.807 9.1-8.35l.18 38.463H15.326V47.564" transform="translate(-92 -152) translate(92 152)"/>
                <path fill="#334F55" d="M22.321 26.768c.003 0 .014.036.035.107l.088.314c.035.14.083.31.158.506.07.198.143.429.26.676l.172.395.22.42c.073.15.164.297.26.449.096.151.184.316.302.47.434.639 1.008 1.315 1.743 1.952.734.637 1.636 1.227 2.689 1.668.523.231 1.093.391 1.684.53.596.122 1.22.196 1.861.256 1.277.126 2.662.194 3.987.728 1.323.53 2.478 1.494 3.475 2.6.994 1.113 1.867 2.314 2.394 3.633.264.657.43 1.342.48 2.023.051.682-.011 1.351-.127 1.99-.238 1.278-.679 2.433-1.055 3.515-.38 1.082-.7 2.104-.838 3.067-.146.961-.105 1.853.097 2.598.192.747.516 1.343.85 1.77.332.43.672.692.913.843.242.154.382.213.378.221 0 0-.144-.05-.391-.198-.248-.146-.598-.404-.94-.835-.345-.426-.68-1.027-.881-1.782-.211-.752-.26-1.66-.119-2.63.135-.974.451-2.005.828-3.09.372-1.084.807-2.236 1.039-3.501.113-.631.172-1.29.12-1.958-.049-.668-.213-1.339-.473-1.985-.52-1.297-1.386-2.488-2.373-3.593-.99-1.097-2.128-2.047-3.425-2.569-1.298-.525-2.671-.597-3.95-.726-.643-.062-1.271-.14-1.874-.264-.598-.142-1.175-.307-1.703-.542-1.063-.45-1.97-1.052-2.707-1.699-.738-.647-1.311-1.333-1.742-1.98-.117-.157-.205-.324-.301-.477-.095-.154-.185-.303-.256-.454l-.217-.426-.168-.4c-.113-.25-.183-.483-.25-.682-.07-.199-.114-.371-.146-.512l-.075-.319c-.017-.072-.024-.108-.022-.109" transform="translate(-92 -152) translate(92 152)"/>
                <path fill="#334F55" d="M30.274 22.624s.03.024.086.076l.243.235c.104.106.224.245.37.407.133.171.299.36.455.596.324.462.675 1.064.967 1.813.297.746.522 1.644.588 2.655.026.506.013 1.038-.057 1.587-.072.549-.202 1.11-.367 1.68-.327 1.143-.803 2.32-1.129 3.606-.16.643-.268 1.315-.283 2.007-.016.692.056 1.4.213 2.101.311 1.406.98 2.781 1.933 3.972.955 1.195 2.163 2.122 3.43 2.803 1.272.682 2.61 1.12 3.913 1.362 1.306.239 2.574.305 3.748.484 1.173.171 2.26.466 3.154.953.89.49 1.58 1.118 2.085 1.742.507.626.843 1.238 1.06 1.76.218.522.316.952.382 1.241.024.142.041.253.054.334.011.075.014.114.014.114s-.012-.038-.027-.112l-.067-.33c-.073-.286-.18-.711-.403-1.227-.223-.515-.563-1.119-1.07-1.733-.504-.613-1.192-1.229-2.072-1.707-.884-.475-1.959-.762-3.126-.927-1.168-.174-2.437-.235-3.753-.473-1.315-.24-2.667-.68-3.952-1.367-1.282-.687-2.505-1.623-3.473-2.835-.966-1.206-1.642-2.6-1.956-4.026-.159-.711-.23-1.43-.212-2.132.016-.703.128-1.385.29-2.034.332-1.297.813-2.472 1.142-3.606.166-.566.297-1.122.372-1.663.071-.542.087-1.068.064-1.568-.059-1.001-.276-1.892-.563-2.634-.284-.746-.626-1.347-.941-1.81-.152-.238-.314-.428-.443-.602-.142-.162-.258-.304-.36-.412l-.232-.244c-.052-.055-.077-.086-.077-.086" transform="translate(-92 -152) translate(92 152)"/>
                <path fill="#334F55" d="M49.713 50.651c.006.007-.104.106-.307.28-.203.173-.504.415-.881.708-.755.584-1.829 1.352-3.07 2.118-1.241.764-2.41 1.379-3.271 1.79-.43.207-.783.366-1.029.469-.245.104-.383.158-.387.15-.004-.009.127-.078.366-.197l1.008-.505c.85-.432 2.007-1.057 3.244-1.82 1.237-.762 2.316-1.516 3.083-2.08l.905-.674c.213-.16.333-.246.34-.239M47.612 49.014c.004.008-.106.072-.308.182l-.854.462c-.72.392-1.707.948-2.772 1.602-1.065.656-2.007 1.286-2.681 1.751l-.799.553c-.188.131-.295.2-.3.192-.006-.007.09-.09.27-.233.179-.143.443-.345.775-.588.662-.486 1.597-1.13 2.666-1.787 1.068-.656 2.065-1.2 2.798-1.572.366-.186.665-.331.874-.426.21-.096.327-.145.33-.136M44.598 48.38c.01.015-.22.184-.603.44-.383.257-.92.6-1.522.962-.603.362-1.157.675-1.563.893-.407.218-.664.341-.672.325-.01-.016.232-.168.626-.406l1.541-.925 1.54-.927c.395-.236.643-.377.653-.362M41.792 45.053c.01.016-.167.14-.457.334l-1.132.758-1.122.771c-.288.198-.469.316-.48.302-.01-.014.15-.16.425-.377.273-.217.662-.506 1.103-.805.442-.3.853-.554 1.156-.728.304-.175.498-.27.507-.255M41.566 42.088c.009.018-.33.2-.866.51s-1.266.757-2.04 1.3c-.773.544-1.441 1.078-1.915 1.478-.474.399-.76.656-.774.641-.006-.007.058-.078.18-.203.12-.125.302-.299.533-.508.46-.42 1.123-.97 1.9-1.516.778-.545 1.52-.983 2.07-1.273.276-.146.501-.258.66-.329.158-.072.248-.108.252-.1M40.099 39.788c.02.03-1.351 1.023-3.064 2.217-1.713 1.194-3.119 2.138-3.14 2.108-.02-.03 1.351-1.022 3.065-2.216 1.713-1.194 3.118-2.139 3.139-2.109M38.93 37.196c.005.007-.09.077-.264.195l-.74.498c-.625.418-1.485 1.002-2.42 1.669-.935.667-1.767 1.29-2.366 1.745l-.712.538c-.168.126-.264.192-.27.185-.006-.007.08-.086.238-.225.16-.139.393-.334.686-.571.586-.475 1.41-1.111 2.348-1.78.936-.667 1.806-1.24 2.446-1.64.319-.2.58-.357.763-.462.183-.106.286-.16.291-.152M36.52 35.758c.02.03-1.145.874-2.602 1.885-1.458 1.011-2.656 1.807-2.677 1.777-.02-.03 1.144-.874 2.602-1.885 1.457-1.012 2.656-1.807 2.676-1.777M33.986 34.313c.022.029-.577.545-1.338 1.154-.762.609-1.398 1.08-1.42 1.05-.023-.028.576-.544 1.338-1.153.761-.608 1.397-1.079 1.42-1.05M32.28 30.677c.012.013-.204.217-.57.528-.364.31-.88.727-1.466 1.165-.587.438-1.133.814-1.535 1.076-.402.262-.659.41-.668.396-.01-.016.228-.192.615-.473.388-.28.924-.668 1.508-1.105.585-.436 1.109-.84 1.488-1.131.38-.292.616-.47.628-.456M33.015 28.206c.005.008-.087.08-.26.203-.17.123-.423.296-.738.506-.63.418-1.513.976-2.512 1.553-.999.578-1.922 1.066-2.6 1.403-.338.169-.613.301-.806.388-.192.088-.3.132-.305.124-.004-.008.097-.068.282-.17l.787-.425c.665-.357 1.58-.857 2.577-1.433.996-.577 1.886-1.12 2.527-1.519l.76-.47c.18-.11.283-.168.288-.16M31.84 25.564c.006.007-.096.084-.284.217-.188.133-.462.32-.805.549-.684.456-1.638 1.073-2.705 1.733-1.068.66-2.046 1.24-2.76 1.648-.357.204-.647.367-.85.475-.202.11-.316.166-.321.158-.004-.008.1-.079.295-.202l.829-.511 2.738-1.68 2.724-1.7.827-.513c.197-.12.308-.182.313-.174M134.775 103.55c-.019.02-.31-.27-.872-.751-.281-.24-.63-.527-1.054-.837-.423-.306-.92-.64-1.501-.941-.291-.15-.603-.293-.938-.406-.333-.11-.695-.2-1.058-.188-.18.006-.36.041-.514.121-.155.08-.274.212-.35.374-.078.162-.106.356-.106.554 0 .199.03.404.077.61.097.41.259.822.456 1.227.199.405.432.805.692 1.197.52.787 1.146 1.545 1.842 2.266.7.718 1.44 1.367 2.21 1.91.385.273.777.518 1.176.729.399.21.805.383 1.213.493.204.053.409.09.608.095.198.007.392-.015.557-.088.163-.072.3-.187.383-.34.085-.151.126-.33.138-.51.022-.363-.057-.727-.157-1.063-.103-.338-.236-.655-.377-.95-.284-.59-.602-1.096-.896-1.53-.296-.43-.572-.789-.804-1.077-.464-.576-.744-.876-.725-.894.008-.008.087.059.229.193.141.136.345.34.593.619.248.277.542.628.856 1.055.312.428.649.933.954 1.532.151.3.296.623.41.976.112.353.205.737.187 1.156-.011.207-.054.427-.165.63-.106.204-.296.37-.512.466-.216.098-.452.123-.68.12-.228-.006-.453-.044-.674-.099-.44-.114-.866-.293-1.282-.508-.415-.215-.82-.466-1.216-.744-.792-.553-1.547-1.212-2.26-1.944-.709-.734-1.345-1.508-1.874-2.317-.266-.404-.503-.816-.706-1.238-.202-.42-.368-.852-.47-1.296-.048-.223-.079-.449-.077-.677.002-.227.036-.462.14-.676.102-.212.274-.397.481-.497.206-.104.427-.141.635-.146.42-.006.8.1 1.15.221.348.125.667.28.962.44.59.323 1.084.675 1.504 1 .417.327.758.63 1.028.887.27.256.47.467.6.612.13.146.195.227.187.235" transform="translate(-92 -152) translate(92 152)"/>
                <path fill="#334F55" d="M131.022 104.488c.025.008-.088.39-.238 1.089-.075.35-.157.78-.223 1.282-.063.502-.114 1.078-.094 1.711.01.316.035.648.101.982.066.334.164.68.35.977.093.148.21.28.35.373.142.093.31.135.483.13.174-.005.354-.062.525-.148.172-.086.337-.2.492-.331.312-.262.595-.583.855-.932.258-.35.498-.73.716-1.13.439-.798.803-1.677 1.098-2.6.292-.926.502-1.854.604-2.76.052-.452.075-.9.067-1.335-.012-.435-.057-.86-.161-1.255-.051-.197-.12-.385-.211-.554-.09-.17-.204-.32-.344-.424-.138-.104-.3-.167-.47-.172-.168-.006-.34.035-.5.102-.324.136-.604.362-.85.597-.247.235-.458.49-.65.743-.38.506-.67 1.006-.91 1.452-.235.45-.416.847-.556 1.176-.282.658-.409 1.035-.434 1.027-.01-.003.01-.101.059-.285.05-.182.132-.45.257-.788.124-.34.289-.749.513-1.212.226-.461.506-.977.886-1.507.191-.263.404-.533.66-.786.255-.252.546-.501.919-.666.185-.08.394-.137.617-.132.222.004.449.086.631.222.185.136.324.318.43.512.107.195.184.403.243.616.117.426.166.872.182 1.325.012.453-.009.914-.06 1.38-.101.93-.314 1.879-.61 2.822-.303.942-.675 1.838-1.13 2.657-.226.41-.475.8-.747 1.162-.273.36-.57.696-.912.977-.171.14-.355.265-.554.363-.198.097-.418.166-.647.17-.227.006-.46-.057-.643-.183-.185-.124-.323-.29-.428-.464-.209-.348-.304-.72-.367-1.073-.063-.355-.081-.697-.085-1.023-.005-.652.063-1.235.144-1.742.085-.507.187-.938.28-1.286.094-.348.182-.614.246-.793.066-.178.105-.27.116-.266" transform="translate(-92 -152) translate(92 152)"/>
                <path fill="#334F55" d="M132.306 102.679c.006.025-.378.129-1.052.37-.336.12-.745.277-1.207.485-.46.21-.977.47-1.505.82-.263.175-.532.37-.781.603-.25.231-.492.497-.647.812-.077.156-.129.325-.133.494-.004.168.048.334.144.479.096.145.238.268.402.368.163.1.347.181.54.245.387.127.809.198 1.242.236.435.035.882.04 1.337.014.91-.047 1.85-.2 2.79-.434.94-.239 1.84-.549 2.664-.939.413-.193.806-.409 1.171-.646.364-.239.702-.5.983-.797.14-.147.263-.305.36-.47.097-.166.164-.342.18-.516.015-.173-.017-.343-.101-.49-.084-.146-.21-.27-.35-.372-.287-.203-.626-.323-.955-.408-.33-.086-.66-.131-.974-.161-.631-.058-1.209-.042-1.714-.01-.505.036-.94.092-1.293.145-.708.107-1.095.197-1.101.172-.003-.012.09-.045.273-.1.182-.053.452-.125.806-.197.353-.073.788-.148 1.3-.202.51-.05 1.098-.083 1.748-.038.324.023.665.062 1.015.147.349.084.714.201 1.05.431.166.115.324.263.437.455.114.191.163.427.143.654-.018.228-.1.443-.209.635-.11.193-.245.369-.396.53-.3.324-.654.6-1.03.852-.38.25-.783.474-1.206.675-.845.404-1.762.722-2.72.967-.961.239-1.92.393-2.855.437-.467.023-.929.016-1.38-.024-.451-.043-.893-.12-1.311-.262-.21-.07-.412-.162-.6-.28-.187-.117-.361-.267-.486-.46-.124-.19-.193-.421-.182-.643.008-.223.077-.428.169-.608.187-.361.453-.638.72-.877.268-.24.55-.436.824-.61.552-.348 1.085-.597 1.558-.794.476-.196.895-.336 1.24-.439.347-.104.619-.168.804-.208.186-.038.285-.053.288-.041" transform="translate(-92 -152) translate(92 152)"/>
                <path fill="#334F55" d="M134.278 104.942c.142.562-.2 1.133-.76 1.274-.563.142-1.133-.199-1.275-.761-.141-.562.2-1.132.762-1.273.561-.142 1.132.199 1.273.76" transform="translate(-92 -152) translate(92 152)"/>
                <path fill="#E46C62" d="M155.65 86.982s-.042-.016-.12-.054l-.34-.173-1.308-.68c-1.14-.598-2.781-1.46-4.815-2.53l.041.002-14.834 5.67-.131.05.037-.136.453-1.64c1.036-3.74 2.018-7.28 2.88-10.396l.007-.02.017-.014 8.223-6.158 2.338-1.736.622-.456.161-.115c.037-.025.056-.038.057-.036l-.05.044-.156.124-.61.471-2.315 1.766-8.193 6.198.024-.034-2.868 10.4-.453 1.64-.094-.086 14.85-5.63.02-.008.021.01 4.794 2.571 1.295.703.335.186c.074.042.111.067.111.067" transform="translate(-92 -152) translate(92 152)"/>
                <path fill="#E46C62" d="M136.177 89.031L135.29 89.294 135.004 90.174 134.48 89.412 133.555 89.412 134.118 88.678 133.831 87.798 134.704 88.106 135.452 87.562 135.428 88.487 136.177 89.031M138.743 76.807L138.181 77.012 138.031 77.592 137.661 77.12 137.064 77.157 137.399 76.66 137.179 76.103 137.755 76.268 138.217 75.887 138.238 76.485 138.743 76.807M149.973 68.191L149.564 68.802 149.836 69.485 149.129 69.285 148.563 69.755 148.535 69.02 147.914 68.627 148.603 68.373 148.785 67.661 149.24 68.238 149.973 68.191M156.547 86.209L156.138 86.821 156.41 87.504 155.702 87.304 155.137 87.773 155.108 87.038 154.487 86.645 155.177 86.391 155.359 85.679 155.814 86.257 156.547 86.209M149.649 83.191L149.388 83.581 149.561 84.017 149.11 83.889 148.749 84.189 148.731 83.72 148.334 83.469 148.774 83.307 148.89 82.853 149.181 83.221 149.649 83.191" transform="translate(-92 -152) translate(92 152)"/>
                <path fill="#E86E37" d="M111.45 19.81c0 4.147-3.363 7.51-7.51 7.51-4.149 0-7.511-3.363-7.511-7.51 0-4.149 3.362-7.512 7.51-7.512s7.51 3.363 7.51 7.511" transform="translate(-92 -152) translate(92 152)"/>
                <path fill="#EFAC8F" d="M101.738 23.378c-.676 0-1.225-.548-1.225-1.225 0-.676.549-1.225 1.225-1.225.677 0 1.225.55 1.225 1.225 0 .677-.548 1.225-1.225 1.225M100.513 19.331c-.394 0-.713-.319-.713-.713 0-.393.32-.712.713-.712.394 0 .713.319.713.712 0 .394-.32.713-.713.713" transform="translate(-92 -152) translate(92 152)"/>
                <path fill="#E46C62" d="M96.653 21.636c.034.13-6.428 6.33-4.763 7.65 1.666 1.322 8.673-2.067 14.646-6.891 5.973-4.824 11.429-10.683 9.936-12.233-1.493-1.55-8.958 3.04-8.958 3.04l.892.569s4.513-2.896 5.94-1.771c1.428 1.124-2.641 5.513-8.385 9.706-5.743 4.192-11.292 7.135-12.153 5.987-.862-1.149 3.203-4.98 3.203-4.98l-.358-1.077" transform="translate(-92 -152) translate(92 152)"/>
                <path fill="#B7592E" d="M92.959 29.574c-.459 0-.822-.092-1.069-.287-.19-.151-.274-.366-.274-.628.001-2.025 5.04-6.881 5.037-7.023l.358 1.077c-.034.032-3.324 3.14-3.323 4.582 0 .153.037.288.12.398.127.17.357.25.675.25 1.833 0 6.585-2.665 11.478-6.237 4.959-3.62 8.67-7.386 8.673-9.071 0-.267-.092-.482-.287-.635-.233-.183-.546-.26-.909-.26-1.867 0-5.032 2.031-5.032 2.031l-.892-.569s5.464-3.36 7.977-3.36c.425 0 .765.096.98.32.17.175.25.406.25.685 0 1.492-2.292 4.35-5.439 7.377-1.448 1.393-3.077 2.822-4.746 4.17-1.944 1.57-3.998 2.989-5.94 4.142-3.145 1.866-6.001 3.038-7.637 3.038" transform="translate(-92 -152) translate(92 152)"/>
                <path fill="#EFAC8F" d="M99.58 24.903c-.103 0-.671-.359-1.296-1.187-.333-.44-.664-1.018-.912-1.71-.25-.69-.403-1.498-.39-2.352.022-.854.207-1.655.483-2.335.276-.682.63-1.246.98-1.672.653-.798 1.233-1.134 1.34-1.134.008 0 .013.002.015.006.061.072-.448.504-1.024 1.371-.577.854-1.18 2.207-1.213 3.775-.03 1.57.52 2.945 1.062 3.821.54.89 1.032 1.341.969 1.412-.003.003-.007.005-.015.005" transform="translate(-92 -152) translate(92 152)"/>
                <path fill="#E86E37" d="M115.3 26.43c.058-2.408 2.056-4.314 4.464-4.257 2.408.058 4.314 2.056 4.256 4.464-.056 2.408-2.055 4.314-4.463 4.257-2.408-.057-4.314-2.056-4.257-4.464" transform="translate(-92 -152) translate(92 152)"/>
                <path fill="#B7592E" d="M121.793 25.591h-.017c-.393-.009-.704-.335-.695-.728.01-.387.327-.694.711-.694h.018c.392.01.703.335.694.728-.01.387-.326.694-.71.694M122.918 26.948h-.01c-.229-.006-.41-.196-.404-.424.006-.225.19-.404.414-.404h.01c.228.005.409.195.403.424-.005.225-.19.404-.413.404M121.945 28.1h-.003c-.085-.003-.151-.072-.15-.157.003-.083.07-.148.153-.148h.004c.084.002.151.071.149.156-.002.083-.07.149-.153.149" transform="translate(-92 -152) translate(92 152)"/>
                <path fill="#132529" d="M133.31 58.968c-.036 0-.066-5.523-.066-12.334 0-6.814.03-12.336.066-12.336.037 0 .066 5.522.066 12.336 0 6.811-.03 12.334-.066 12.334" transform="translate(-92 -152) translate(92 152)"/>
                <path fill="#132529" d="M134.048 34.513c-.032.015-.405-.624-.838-1.433l.118-.007-.012.03c-.363.862-.683 1.55-.717 1.536-.033-.014.233-.725.595-1.587l.013-.03.053-.128.064.12c.434.816.757 1.483.724 1.499M133.174 31.385c-.022.028-.226-.105-.386-.35-.162-.247-.202-.486-.169-.495.036-.01.129.194.279.422.148.229.3.395.276.423" transform="translate(-92 -152) translate(92 152)"/>
                <path fill="#132529" d="M132.786 32.097c-.034-.018.13-.401.314-.88.186-.478.322-.872.358-.862.034.009-.047.424-.235.91-.187.485-.406.848-.437.832M131.544 37.548c-.033-.022.162-.329.226-.759.07-.428-.022-.78.016-.79.03-.016.189.346.113.81-.07.466-.332.763-.355.739" transform="translate(-92 -152) translate(92 152)"/>
                <path fill="#132529" d="M131.786 36.516c.014.006-.031.108-.188.145-.075.016-.176.013-.27-.045-.097-.057-.162-.175-.168-.298-.006-.124.048-.246.138-.313.089-.066.189-.08.265-.071.16.022.214.12.2.127-.012.015-.081-.04-.203-.034-.122 0-.281.1-.268.284.004.185.173.27.293.258.123-.005.186-.067.2-.053M152.515 57.216c0 .036-4.725.066-10.553.066-5.83 0-10.553-.03-10.553-.066 0-.037 4.724-.066 10.553-.066 5.828 0 10.553.03 10.553.066M152.731 57.19c-.013.034-.403-.09-.87-.276-.465-.186-.833-.365-.82-.398.014-.034.403.09.87.276.466.186.834.365.82.398M152.962 57.268c.012.034-.3.175-.698.315-.398.14-.73.224-.742.19-.012-.034.3-.175.698-.315.398-.139.73-.224.742-.19M132.32 57.887c.004-.013.19.112.271.437.04.16.043.366-.041.573-.043.102-.106.208-.213.286-.104.082-.28.095-.399.015-.238-.158-.302-.426-.304-.641 0-.223.096-.425.234-.529.134-.106.279-.13.37-.12.094.01.137.043.134.049-.004.01-.051-.004-.134.003-.082.005-.203.04-.31.14-.107.094-.179.263-.172.456.004.187.076.42.25.53.084.052.18.045.258-.009.078-.054.135-.14.174-.227.078-.177.086-.361.062-.508-.049-.3-.2-.442-.18-.455M149.506 58.164c-.008-.005.076-.044.177.042.047.04.093.115.089.21-.003.092-.049.19-.125.27-.149.166-.42.227-.545.429-.058.096-.059.234.002.34.059.106.191.172.322.16.13-.01.237-.108.277-.226.042-.12.007-.244-.068-.338-.076-.096-.178-.166-.28-.222-.1-.053-.225-.132-.253-.258-.027-.119.013-.225.067-.295.057-.072.124-.109.18-.13.112-.043.179-.034.18-.027.002.01-.063.02-.159.072-.047.027-.101.067-.14.127-.04.06-.063.147-.038.228.04.167.353.19.537.43.097.11.154.29.096.453-.049.16-.202.303-.387.316-.179.018-.363-.072-.446-.226-.082-.15-.077-.332.006-.467.084-.133.21-.202.314-.26.107-.057.202-.107.27-.171.067-.064.108-.14.117-.21.009-.07-.02-.13-.052-.169-.07-.08-.143-.066-.141-.078" transform="translate(-92 -152) translate(92 152)"/>
                <path fill="#132529" d="M149.444 57.67c-.036 0-.066-.262-.066-.584 0-.322.03-.583.066-.583.037 0 .066.261.066.583 0 .322-.03.584-.066.584M155.09 57.24c.001.019-.138.039-.362.056l-.395.024c-.02 0-.05.004-.09-.018-.04-.022-.057-.084-.046-.117.016-.067.056-.097.081-.124l.176-.18c.125-.117.206-.245.212-.371.005-.124-.076-.23-.164-.246-.09-.019-.176.022-.231.044-.057.025-.09.039-.096.03-.004-.006.019-.034.07-.074.05-.036.135-.102.272-.092.142.012.27.162.27.339.002.177-.112.344-.235.458l-.177.177-.055.066-.02.001.001-.003.007-.014.004.001.018.001.395.005c.226.007.365.02.366.038M136.122 57.216c-.006-.006-.012-.134-.017-.363l-.019-.969c-.012-.82-.026-1.955-.029-3.252l.065.064-1.227.002c.131-.132.037-.036.066-.065v.69l-.002.668-.005 1.243-.019 1.982-.04-.04.892.022c.211.007.33.013.335.018.005.005-.103.01-.31.018l-.917.022h-.04v-.04l-.019-1.982-.005-1.243-.001-.668v-.69c.028-.03-.067.065.065-.067l1.227.001h.064v.065c-.003 1.324-.017 2.48-.03 3.297l-.018.954c-.006.221-.011.339-.016.333M147.796 57.217c-.003-.003-.006-.05-.009-.14l-.008-.387-.02-1.416c-.012-1.2-.026-2.86-.028-4.741l.065.065h-1.226c.13-.13.036-.034.065-.063V51.574l-.002 1-.006 1.842c-.01 1.135-.017 2.095-.022 2.801l-.036-.035.897.02.242.008c.055.003.086.005.088.007.004.005-.102.01-.31.016l-.917.02h-.034v-.036l-.023-2.801-.006-1.842-.002-1V50.535c.029-.03-.066.064.066-.068l1.226.001h.065v.065c-.002 1.91-.016 3.591-.029 4.787l-.019 1.401-.009.373c-.002.084-.005.126-.008.123M139.072 57.216c-.003-.003-.005-.062-.009-.173l-.008-.482-.02-1.768-.028-5.905.065.066h-1.226c.13-.131.036-.035.066-.063v.667l-.001.657-.002 1.27-.007 2.321-.024 3.41-.032-.032.902.018.239.008c.055.002.084.004.085.006.002.002-.023.004-.074.006l-.231.008-.921.018h-.032v-.032l-.025-3.41-.007-2.32-.001-1.271-.001-.657v-.667c.03-.03-.066.063.066-.068h1.292v.065l-.03 5.952-.018 1.752-.009.467c-.003.106-.005.16-.009.157M141.961 57.19l-.004-.07-.005-.196c-.001-.18-.005-.43-.009-.748-.004-.656-.01-1.59-.02-2.746l-.027-9.143.065.066h-1.225c.13-.132.035-.034.065-.062v1.066l-.001 1.05-.002 2.022-.008 3.655-.028 5.106-.027-.026.904.015.238.006c.054.002.083.004.084.005.002.002-.023.004-.075.006l-.232.006-.919.015h-.027v-.027l-.028-5.106-.008-3.655-.002-2.022v-1.05-1.066c.029-.03-.067.062.066-.07H142.027v.066c-.01 3.624-.02 6.855-.028 9.19-.008 1.15-.014 2.08-.02 2.732l-.009.733-.004.188c-.001.042-.003.062-.005.06M144.92 57.19l-.004-.115-.005-.33c-.001-.296-.005-.721-.009-1.266-.005-1.1-.01-2.686-.02-4.648l-.027-15.423.066.066h-1.226c.13-.132.036-.032.065-.06v1.89l-.001 1.855-.002 3.556-.01 6.33-.032 8.145-.02-.02.919.012.229.005.078.003c.001.002-.022.003-.071.005l-.224.004-.932.012h-.02v-.02l-.033-8.146c-.002-1.904-.006-4.036-.01-6.33l-.002-3.556v-1.855-1.89c.03-.03-.068.06.066-.072h1.292v.066l-.028 15.472-.02 4.632-.01 1.25-.003.322c-.002.072-.004.108-.005.106" transform="translate(-92 -152) translate(92 152)"/>
                <path fill="#E86E37" d="M18.72 65.597L31.9 72.622l-12.74.726-.442-7.751zm-5.122-7.108l1.044 18.32 30.65-1.748-31.694-16.572z" transform="translate(-92 -152) translate(92 152)"/>
                <path fill="#132529" d="M16.64 60.08c.053.03-.165.545-.486 1.152-.321.608-.624 1.077-.675 1.048-.052-.03.166-.545.487-1.153.32-.607.623-1.076.675-1.047M21.341 62.509c.051.03-.165.531-.483 1.121-.319.59-.619 1.045-.67 1.015-.052-.03.164-.532.483-1.121.318-.59.618-1.045.67-1.015M26.04 64.937c.05.035-.217.51-.594 1.063-.376.553-.721.972-.77.937-.048-.035.218-.51.595-1.063.377-.552.722-.972.77-.937M30.666 67.475c.049.035-.217.51-.594 1.063-.377.552-.722.972-.77.937-.048-.035.218-.511.595-1.063.376-.552.72-.972.77-.937M35.491 69.955c.05.032-.19.537-.538 1.13-.348.593-.672 1.047-.722 1.016-.05-.031.19-.537.538-1.13.348-.593.672-1.047.722-1.016M40.505 72.57c.051.03-.163.511-.479 1.074-.315.562-.612.994-.664.963-.05-.03.163-.51.48-1.074.315-.562.612-.994.663-.963M18.107 60.847c.052.03-.036.298-.196.6-.16.303-.331.524-.383.495-.052-.029.036-.297.196-.6.16-.302.331-.524.383-.495M19.646 61.616c.052.03-.035.298-.195.6-.16.303-.332.524-.383.495-.052-.029.035-.298.195-.6s.332-.524.383-.495M23.076 63.43c.052.029-.036.298-.195.6-.16.302-.332.524-.384.495-.051-.03.036-.298.196-.6.16-.303.331-.524.383-.495M24.616 64.199c.051.03-.036.298-.195.6-.16.302-.332.524-.384.495-.052-.03.036-.298.195-.6.16-.302.332-.524.384-.495M27.72 65.936c.052.029-.035.297-.195.6-.16.302-.332.524-.383.495-.052-.03.035-.298.195-.6.16-.303.332-.524.384-.495M29.192 66.71c.051.028-.036.297-.196.6-.16.302-.331.523-.383.494-.052-.029.035-.298.195-.6s.332-.524.384-.495M32.364 68.354c.051.03-.036.298-.196.6-.16.303-.331.524-.383.495-.052-.029.035-.298.195-.6s.332-.524.384-.495M34.069 69.259c.052.029-.036.297-.196.6-.16.302-.33.523-.383.494-.052-.029.036-.297.195-.6.16-.302.332-.523.384-.494M37.134 70.873c.052.029-.035.297-.195.6-.16.302-.331.523-.383.494-.052-.029.035-.297.195-.6.16-.302.331-.523.383-.494M38.903 71.782c.052.03-.036.298-.195.6-.16.303-.332.524-.384.495-.052-.029.036-.298.196-.6s.331-.524.383-.495" transform="translate(-92 -152) translate(92 152)"/>
                <path fill="#E46C62" d="M66.016 32.989l-.003-.068-.003-.193-.007-.748-.015-2.823-.029-10.033.057.057-13.863.01h-.001l.066-.067-.01 13.865-.056-.057 10.033.03c1.212.005 2.166.01 2.823.014l.747.007c.082 0 .146.002.194.003l.067.003c.001.001-.02.002-.061.003l-.187.004-.737.006-2.81.015-10.07.03h-.056v-.058l-.01-13.865v-.065h.068l13.863.008h.057v.057l-.029 10.07-.015 2.81-.007.737c0 .079-.002.14-.003.187 0 .041-.002.062-.003.06" transform="translate(-92 -152) translate(92 152)"/>
                <path fill="#E46C62" d="M66.016 32.989s.035-.027.106-.074l.318-.205 1.227-.773 4.515-2.812-.024.043-.016-13.657.066.066h-.039l-13.665-.016.024-.007-4.653 2.622-1.274.71-.333.181c-.076.04-.116.057-.116.057s.035-.026.109-.07l.326-.194 1.26-.732 4.632-2.66.011-.007h.014l13.665-.016h.105v.066l-.016 13.657v.028l-.024.014-4.537 2.774-1.242.751-.325.193c-.074.042-.114.06-.114.06" transform="translate(-92 -152) translate(92 152)"/>
                <path fill="#E46C62" d="M72.208 15.511c.019.031-1.353.866-3.063 1.864-1.71.998-3.11 1.78-3.129 1.75-.018-.032 1.353-.866 3.063-1.864 1.71-.998 3.11-1.782 3.13-1.75M52.81 32.42c.017.031-.115.141-.297.245-.181.105-.343.164-.361.132-.019-.031.114-.141.296-.246.181-.104.343-.163.361-.131M54.125 31.664c.018.032-.115.142-.296.246-.182.104-.344.164-.362.132-.018-.031.115-.142.296-.246.182-.104.344-.163.362-.132M55.44 30.91c.019.031-.114.141-.296.245-.181.104-.343.164-.361.132-.018-.032.114-.142.296-.246.182-.104.344-.163.362-.132M56.756 30.154c.018.032-.114.142-.296.246-.182.104-.343.164-.362.132-.018-.032.115-.142.296-.246.182-.104.344-.163.362-.132M58.071 29.399c.019.032-.114.142-.296.246-.181.104-.343.163-.361.132-.018-.032.114-.142.296-.246.181-.104.343-.163.361-.132M58.405 28.07c.036 0 .064.17.063.38-.002.21-.033.379-.07.379-.036 0-.064-.171-.062-.38.002-.21.032-.38.069-.379M58.417 26.553c.036 0 .064.17.063.38-.002.21-.033.379-.07.378-.035 0-.064-.17-.062-.379.002-.21.032-.379.069-.379M58.429 25.037c.036 0 .064.17.063.38-.002.208-.033.378-.07.378-.036 0-.064-.17-.062-.38.001-.21.032-.379.069-.378M58.44 23.52c.037 0 .065.17.063.38-.001.209-.032.379-.069.378-.036 0-.064-.17-.062-.38.001-.209.032-.379.068-.378M58.452 22.003c.037 0 .065.17.063.38-.002.209-.032.378-.068.378-.037 0-.065-.17-.063-.38.001-.21.032-.378.068-.378M58.465 20.486c.036 0 .064.17.062.38-.001.21-.032.379-.069.378-.036 0-.064-.17-.062-.38.001-.209.032-.378.069-.378M58.476 18.97c.037 0 .065.17.063.379-.001.21-.032.379-.069.379-.036 0-.064-.17-.063-.38.002-.21.033-.38.07-.379M58.488 17.452c.036 0 .065.17.063.38-.002.21-.032.38-.069.379-.036 0-.064-.17-.062-.38.001-.21.032-.379.068-.379M58.5 15.935c.037 0 .065.17.063.38-.001.21-.033.38-.069.379-.036 0-.064-.17-.063-.38.002-.21.033-.379.07-.379M71.45 29.173c0-.034.17-.061.379-.061.21 0 .38.027.38.06 0 .034-.17.061-.38.061s-.38-.027-.38-.06M69.933 29.173c0-.034.17-.061.379-.061.21 0 .38.027.38.06 0 .034-.17.061-.38.061s-.38-.027-.38-.06M68.416 29.173c0-.034.17-.061.38-.061.209 0 .378.027.378.06 0 .034-.17.061-.379.061-.21 0-.38-.027-.38-.06M66.9 29.173c0-.034.169-.061.378-.061.21 0 .38.027.38.06 0 .034-.17.061-.38.061s-.379-.027-.379-.06M65.382 29.173c0-.034.17-.061.38-.061.209 0 .379.027.379.06 0 .034-.17.061-.38.061s-.379-.027-.379-.06M63.865 29.173c0-.034.17-.061.38-.061s.379.027.379.06c0 .034-.17.061-.38.061-.209 0-.379-.027-.379-.06M62.348 29.173c0-.034.17-.061.38-.061s.379.027.379.06c0 .034-.17.061-.38.061-.209 0-.379-.027-.379-.06M60.832 29.173c0-.034.17-.061.379-.061.21 0 .38.027.38.06 0 .034-.17.061-.38.061s-.38-.027-.38-.06M59.315 29.173c0-.034.17-.061.38-.061.208 0 .378.027.378.06 0 .034-.17.061-.379.061-.21 0-.38-.027-.38-.06M58.396 29.173c0-.034.036-.061.08-.061.044 0 .08.027.08.06 0 .034-.036.061-.08.061-.044 0-.08-.027-.08-.06M73.886 24.55c.002-.014.128.027.347-.016.21-.041.53-.194.718-.542.186-.34.201-.865-.04-1.32-.06-.107-.152-.198-.27-.218-.117-.02-.251.018-.355.096-.212.162-.33.455-.44.734-.113.313-.176.634-.196.942l-.128-.003c-.015-1.004-.022-1.881-.022-2.507l.006-.735c.004-.172.01-.266.018-.266.008 0 .017.094.027.265l.032.735c.022.625.046 1.501.067 2.506l-.128-.003c.018-.32.083-.654.201-.978.054-.15.117-.292.19-.429.074-.136.167-.27.296-.365.13-.095.295-.145.456-.115.165.03.285.158.352.281.258.503.227 1.057.016 1.425-.217.373-.566.519-.792.547-.116.016-.207.006-.267-.005-.059-.014-.088-.025-.088-.03" transform="translate(-92 -152) translate(92 152)"/>
                <path fill="#132529" d="M35.434 89.474s.055.014.16.048c.103.037.262.083.461.163.4.159.983.42 1.668.87.68.452 1.472 1.091 2.189 2.013.719.91 1.37 2.116 1.637 3.567.267 1.443.11 3.12-.608 4.698-.355.79-.87 1.54-1.525 2.19-.322.332-.7.614-1.092.881-.206.118-.409.246-.623.354-.22.1-.432.217-.663.296-1.824.725-3.924.755-6.008.555-1.049-.102-2.107-.253-3.18-.42-1.072-.173-2.162-.383-3.223-.747-1.061-.355-2.065-.885-2.883-1.62-.414-.364-.75-.8-1.053-1.247-.276-.464-.518-.947-.672-1.456-.334-1.01-.4-2.073-.308-3.086.11-1.014.404-1.985.847-2.852.917-1.73 2.37-2.996 3.88-3.818 1.517-.83 3.093-1.264 4.544-1.45 1.455-.184 2.788-.137 3.943-.024 1.156.116 2.14.307 2.938.48.798.177 1.41.343 1.825.458l.47.137c.105.032.158.052.158.052s-.056-.01-.163-.036l-.473-.123c-.417-.105-1.031-.26-1.83-.429-.798-.164-1.781-.345-2.934-.453-1.15-.104-2.476-.142-3.92.047-1.438.192-2.999.63-4.496 1.454-1.49.817-2.918 2.073-3.815 3.77-.432.853-.72 1.806-.827 2.802-.088.994-.022 2.036.306 3.024.15.498.388.968.657 1.421.295.436.623.859 1.027 1.214.798.717 1.782 1.237 2.83 1.588 1.047.36 2.128.569 3.196.742 1.07.166 2.128.318 3.17.42 2.074.202 4.15.172 5.941-.537 1.809-.67 3.136-2.1 3.839-3.642.712-1.55.873-3.201.617-4.624-.256-1.43-.892-2.626-1.598-3.532-.703-.919-1.483-1.56-2.153-2.017-.676-.455-1.252-.723-1.647-.891-.197-.085-.353-.135-.455-.177-.102-.04-.154-.063-.154-.063" transform="translate(-92 -152) translate(92 152)"/>
                <path fill="#132529" d="M24.99 99.583c0 .01-.113.023-.319.038-.205.014-.503.03-.87.045l-.29.011c-.1 0-.202.021-.332-.013-.063-.018-.13-.067-.164-.13-.035-.063-.046-.129-.052-.19l-.024-.357-.092-1.581c-.026-.563-.066-1.09-.07-1.587.006-.248.046-.496.165-.698.117-.202.3-.337.479-.408.363-.138.676-.11.88-.097.206.02.318.047.317.057-.001.011-.116.005-.32.004-.201.004-.508-.002-.833.137-.16.071-.314.193-.41.37-.1.177-.132.4-.134.637.01.477.056 1.018.082 1.577l.08 1.581c.024.231-.028.523.135.561.081.027.191.016.29.017l.29-.002c.368-.001.666 0 .872.005.206.005.32.012.32.023" transform="translate(-92 -152) translate(92 152)"/>
                <path fill="#132529" d="M24.55 97.02c0 .042-.363.085-.813.094-.45.01-.815-.018-.816-.06 0-.044.363-.086.813-.096.45-.009.815.018.816.061M28.623 96.295c-.003.044-.558.04-1.238.062-.681.02-1.234.058-1.24.014-.006-.042.545-.15 1.235-.17.69-.022 1.246.052 1.243.094M28.86 98.164c.002.042-.547.102-1.225.085-.678-.016-1.223-.103-1.219-.145.004-.044.55-.026 1.223-.01.672.017 1.219.026 1.22.07M35.437 99.287c-.011 0 .003-.17-.01-.477-.016-.306-.061-.756-.236-1.287-.092-.255-.19-.578-.452-.739-.13-.075-.296-.065-.429.03-.135.092-.242.24-.322.404-.347.67-.393 1.529-.398 2.428l-.152-.007c.043-.574.04-1.18-.022-1.799-.026-.245-.053-.494-.104-.724-.052-.228-.152-.44-.328-.565-.17-.132-.397-.13-.572-.016-.18.109-.294.295-.357.494-.064.2-.087.413-.112.621-.024.208-.04.411-.05.61-.022.395-.019.769 0 1.114l-.12.008-.081-2.125-.014-.581c0-.133.002-.203.007-.204.006 0 .016.07.028.202l.046.58.133 2.12-.118.008c-.024-.35-.033-.728-.016-1.13.008-.2.024-.406.046-.617.022-.21.044-.429.112-.65.067-.219.2-.445.417-.578.107-.065.235-.11.37-.109.134 0 .265.052.37.13.218.154.335.409.39.653.054.248.08.492.108.744.063.627.065 1.244.019 1.825l-.152-.006c.01-.9.061-1.787.432-2.486.09-.175.208-.338.372-.447.16-.116.393-.129.554-.028.32.21.396.551.488.811.166.546.196 1.005.195 1.315 0 .156-.011.276-.02.356-.01.08-.017.123-.022.122M38.865 99.04c.004.006-.055.064-.187.132-.13.068-.34.138-.608.15-.265.007-.595-.05-.9-.246-.306-.192-.552-.536-.65-.938-.096-.403-.035-.821.15-1.132.18-.313.448-.515.687-.63.244-.113.462-.145.61-.145.148 0 .227.025.226.032.004.032-.337-.027-.786.211-.217.12-.456.316-.612.602-.16.283-.21.659-.123 1.026.09.365.306.676.578.854.27.183.571.249.82.255.508.007.783-.202.795-.171M39.788 94.605c.003.041-.734-.02-1.74.303l-.265.084.195-.199c.32-.326.711-.696.972-1.183.21-.393.293-.834.204-1.203-.042-.181-.15-.328-.303-.333-.153-.008-.312.061-.44.12-.264.131-.435.308-.54.435-.106.128-.149.212-.16.207-.008-.004.017-.097.111-.243.094-.144.261-.343.537-.496.139-.07.293-.153.5-.151.103.002.216.054.288.138.074.082.118.183.146.287.108.414.017.893-.206 1.312-.278.519-.685.89-1.012 1.208l-.069-.114c.518-.154.971-.2 1.286-.206.316-.006.496.021.496.034" transform="translate(-92 -152) translate(92 152)"/>
                <path fill="#F1AD92" d="M65.988 89.98L74.324 88.372 90.315 92.039 98.421 93.73 98.536 104.805 80.457 108.136 68.255 104.521 63.643 97.734 65.988 89.98" transform="translate(-92 -152) translate(92 152)"/>
                <path fill="#E86E37" d="M60.063 91.083l7.868-1.853s5.562 17.195 19.289 16.454c11.188-.603 11.2-11.954 11.2-11.954l8.18 1.445s3.43 20.767-.33 35.334c-3.13 12.124-5.903 28.749-5.903 28.749H46.025l14.038-68.175" transform="translate(-92 -152) translate(92 152)"/>
                <path fill="#E86E37" d="M139.778 144.296s-22.412-39.261-26.446-44.303c-4.414-5.516-7.939-4.88-7.939-4.88l-2.373 26.453 19.055 27.036 4.542 1.638 13.16-5.944M61.004 90.861s-12.737 1.02-17.308 21.89c-2.067 9.44-4.68 20.502-5.432 27.937-.546 5.392 2.785 11.001 8.161 11.692l6.753 1.251c3.704.687 7.298-1.644 8.183-5.306l2.282-9.44-6.068-2.024 1.405-28.132 2.024-17.868" transform="translate(-92 -152) translate(92 152)"/>
                <path fill="#132529" d="M107.647 109.773c.006-.002.026.098.058.29l.128.841.088.609.074.728c.053.522.116 1.117.144 1.777.097 1.32.095 2.896.032 4.642-.075 1.748-.273 3.662-.565 5.656-.292 1.997-.66 3.883-1.034 5.589-.366 1.708-.742 3.235-1.06 4.516-.324 1.28-.592 2.314-.788 3.026l-.227.819c-.054.186-.086.284-.093.282-.007-.002.012-.103.053-.292l.19-.829.725-3.04c.3-1.285.66-2.814 1.017-4.521.363-1.706.724-3.59 1.016-5.58.291-1.988.494-3.895.578-5.634.073-1.74.09-3.31.012-4.626-.018-.66-.072-1.253-.114-1.775l-.057-.727-.07-.61-.09-.845c-.018-.194-.024-.296-.017-.296M64.237 139.91c-.005 0-.027-.057-.065-.17l-.162-.504-.251-.811c-.11-.316-.158-.715-.452-1.014-.287-.302-.704-.535-1.177-.719-.474-.187-1.01-.327-1.588-.447-1.157-.229-2.486-.368-3.926-.406l-.105-.003.016-.102 1.15-7.498 1.903-12.116.6-3.667.173-.996.05-.258c.013-.058.02-.088.024-.087.004 0 .003.03-.003.09l-.03.261-.136 1.002-.536 3.677-1.844 12.124-1.17 7.496-.09-.105c1.455.046 2.787.196 3.955.44.582.127 1.124.275 1.606.473.48.194.909.44 1.21.767.149.164.248.358.307.546.05.184.099.356.144.518l.226.82.134.51c.03.116.042.177.037.179" transform="translate(-92 -152) translate(92 152)"/>
                <path fill="#132529" d="M46.693 143.103c-.012-.002.016-.19.1-.525.084-.334.238-.81.493-1.373.498-1.121 1.482-2.59 3.019-3.707 1.537-1.12 3.236-1.605 4.457-1.734.614-.069 1.114-.07 1.457-.046.344.022.532.053.53.065 0 .042-.762-.047-1.968.124-1.199.164-2.853.661-4.356 1.755-1.503 1.094-2.485 2.515-3.01 3.605-.533 1.095-.682 1.848-.722 1.836M49.637 132.707c0-.014.11-.024.308-.03.198-.006.486.004.84.039.706.066 1.68.264 2.687.676 1.007.416 1.838.96 2.386 1.41.276.225.488.42.624.564.137.144.208.227.198.238-.024.024-.344-.273-.91-.687-.563-.416-1.388-.929-2.375-1.337-.988-.404-1.936-.62-2.628-.722-.694-.102-1.13-.117-1.13-.151M62.823 105.684c-.014 0-.024-.199-.031-.557-.002-.359-.023-.877-.067-1.515-.085-1.277-.322-3.036-.847-4.916-.53-1.88-1.243-3.505-1.835-4.64-.295-.567-.547-1.02-.731-1.328-.18-.31-.276-.485-.264-.492.012-.008.129.152.331.45.206.296.478.74.791 1.303.628 1.123 1.369 2.755 1.904 4.652.53 1.897.746 3.676.795 4.962.026.644.024 1.165.003 1.524-.018.36-.035.558-.049.557" transform="translate(-92 -152) translate(92 152)"/>
                <path fill="#BC4E1C" d="M107.127 127.18c.172-.922.335-1.88.48-2.864.291-1.994.49-3.908.564-5.656.063-1.746.065-3.323-.032-4.642-.028-.66-.091-1.255-.144-1.777l-.074-.728-.088-.609-.128-.84-.038-.219c-.039-.312-.08-.623-.123-.934 2.816 5.689 2.767 12.782-.417 18.27" transform="translate(-92 -152) translate(92 152)"/>
                <path fill="#051317" d="M107.06 127.294l-.096-.024c1.288-5.7 1.416-11.622.703-17.425.01.05.022.122.038.219l.128.84.088.609.074.728c.053.522.116 1.117.144 1.777.097 1.32.095 2.896.032 4.642-.075 1.748-.273 3.662-.565 5.656-.144.985-.307 1.942-.48 2.864-.021.039-.043.076-.066.114" transform="translate(-92 -152) translate(92 152)"/>
                <path fill="#132529" d="M59.744 152.021c.005.005-.03.041-.098.106-.072.06-.169.164-.316.268-.285.22-.738.493-1.347.711-.608.223-1.373.361-2.223.402-.85.043-1.785-.011-2.756-.097-1.948-.168-3.694-.452-4.952-.677-.629-.112-1.137-.21-1.487-.283-.35-.072-.542-.119-.54-.133.003-.014.2.007.554.055.391.057.894.13 1.497.22 1.262.188 3.006.448 4.945.615.97.085 1.893.145 2.731.113.837-.03 1.586-.151 2.185-.351 1.21-.393 1.779-.995 1.807-.949M103.925 49.087l1.606-1.565c2.14.933 3.136 3.417 3.494 5.724.358 2.308.31 4.735 1.29 6.855.755 1.63 2.12 3.142 1.955 4.93-.155 1.703-1.694 3.08-1.703 4.79-.008 1.645 1.37 2.91 2.167 4.349 1.617 2.916 2.666 14.84 1.819 18.066-7.107-.615-19.695-1.375-26.81-3.006 1.881-12.249 9.768-29.54 16.182-40.143" transform="translate(-92 -152) translate(92 152)"/>
                <path fill="#F1AD92" d="M93.875 97.156s-.009.117 0 0M107.104 60.015c.495-8.329-5.553-15.952-13.985-16.955-8.946-1.064-16.86 5.343-17.602 14.057L73.42 92.302c-.04.68.153 1.352.538 1.915 2.066 3.02 5.81 5.382 9.15 5.846 3.237.45 6.52-.392 9.272-1.922.932-.518 1.503-1.508 1.522-2.575l.144-7.876.054-.052c.487.036 1.73.055 2.207-.061 2.084-.508 7.394-2.549 9.175-10.341.59-2.584 1.19-9.92 1.623-17.22" transform="translate(-92 -152) translate(92 152)"/>
                <path fill="#132529" d="M95.535 71.518c-.001-.078.871-.165 2.281-.243.357-.012.697-.057.772-.29.1-.247-.024-.633-.17-1.05l-.877-2.728c-1.213-3.88-2.067-7.06-1.908-7.106.159-.045 1.27 3.063 2.483 6.943.29.956.569 1.868.832 2.74.11.405.31.87.096 1.38-.112.254-.385.425-.616.47-.231.052-.43.042-.607.04-1.412-.024-2.285-.078-2.286-.156M104.806 62.96c-.155.17-1.076-.609-2.401-.646-1.323-.058-2.308.652-2.449.471-.07-.08.092-.389.52-.71.423-.32 1.14-.623 1.965-.593.825.03 1.514.38 1.907.73.402.353.535.672.458.747M91.37 63.295c-.18.168-1.14-.705-2.586-.827-1.444-.145-2.566.536-2.708.338-.07-.088.123-.402.614-.712.482-.309 1.284-.579 2.185-.496.901.084 1.633.495 2.041.886.417.394.543.737.455.811" transform="translate(-92 -152) translate(92 152)"/>
                <path fill="#EA8E6C" d="M94.046 87.635s-5.388.059-11.838-4.37c0 0 1.666 7.113 11.795 6.889l.043-2.52" transform="translate(-92 -152) translate(92 152)"/>
                <path fill="#EA8E6C" d="M98.088 76.526c-.458-.684-1.31-1.101-2.185-1.07-.606.022-1.234.265-1.63.722-.398.457-.518 1.136-.216 1.62.342.543 1.116.718 1.792.579.674-.14 1.272-.528 1.841-.918.157-.108.318-.22.423-.376.104-.155.137-.366.03-.508" transform="translate(-92 -152) translate(92 152) rotate(-30 96.048 76.938)"/>
                <path fill="#132529" d="M94.74 73.937c.226.003.133 1.485 1.356 2.626 1.219 1.145 2.836 1.09 2.835 1.298.015.094-.376.263-1.056.234-.666-.024-1.624-.302-2.372-1-.745-.7-1.029-1.584-1.04-2.195-.018-.624.173-.979.276-.963" transform="translate(-92 -152) translate(92 152) rotate(-30 96.696 76.017)"/>
                <path fill="#132529" d="M91.587 57.843c-.163.36-1.537.08-3.178.15-1.644.037-2.99.405-3.182.057-.085-.167.168-.499.724-.818.551-.318 1.415-.596 2.4-.629.985-.03 1.87.19 2.445.472.582.281.862.596.79.768M105.09 58.135c-.28.312-1.396-.005-2.733-.014-1.337-.049-2.467.22-2.732-.104-.115-.157.06-.469.552-.765.484-.296 1.297-.539 2.217-.52.92.021 1.718.299 2.187.615.475.317.634.636.51.788" transform="translate(-92 -152) translate(92 152)"/>
                <path fill="#132529" d="M94.356 41.3c-.727-1.236-2.079-1.801-3.59-2.03-6.161-.933-13.042 2.778-16.494 7.967-3.453 5.188-3.638 12.93-1.11 18.626l3.844-2.405c7.718-3.182 13.17-10.62 18.132-18.302.676-1.046-.151-2.783-.782-3.856" transform="translate(-92 -152) translate(92 152)"/>
                <path fill="#132529" d="M103.838 44.689c-2.578-2.932-4.45-5.856-9.802-3.818-.788 1.5.8 3.444 2.125 4.58 1.942 1.664 3.638 2.788 4.912 3.98 2.575 2.407 5.501 10.5 5.753 14.918.016.277.492-3.792.77-3.835.361-.055 1.815-1.83 1.616-4.258-.681-8.288-2.796-8.635-5.374-11.567" transform="translate(-92 -152) translate(92 152)"/>
                <path fill="#334F55" d="M90.767 39.27c-.001-.04.47-.094 1.2.104.723.202 1.68.714 2.434 1.598.185.224.355.452.488.697.14.247.214.52.28.74.145.46.267.892.316 1.266.107.757-.073 1.217-.11 1.202-.062-.01.017-.461-.148-1.155-.08-.347-.22-.75-.382-1.206-.085-.24-.149-.46-.274-.67-.123-.216-.282-.426-.453-.633-.704-.823-1.572-1.336-2.233-1.589-.668-.25-1.123-.291-1.118-.354" transform="translate(-92 -152) translate(92 152)"/>
                <path fill="#132529" d="M103.586 65.503c.033.618-.463 1.156-1.108 1.202-.644.046-1.193-.416-1.227-1.034-.032-.618.464-1.156 1.107-1.203.645-.046 1.195.417 1.228 1.035M90.7 65.584c.033.618-.463 1.155-1.108 1.201-.643.046-1.193-.415-1.225-1.033-.034-.618.462-1.157 1.106-1.203.645-.047 1.194.416 1.227 1.035M55.241 75.377c.727-1.197 1.549-2.324 2.895-2.82 1.346-.497 2.838-.794 3.885-1.755 1.637-1.504 1.579-4.008 1.415-6.192-.165-2.183-.187-4.699 1.488-6.163 1.398-1.223 3.626-1.334 4.836-2.733.81-.936.97-2.227 1.255-3.419.766-3.198 2.531-8.778 11.951-11.99L74.632 71.97c.62.173 2.107 1.59 2.19 2.547.077.896-.311 1.805-.32 2.704-.012 1.1 1.197 1.757 1.957 2.573.962 1.033 1.257 2.528 1.11 3.916-.148 1.388-.97 4.225-1.505 5.52-7.733-.783-19.012-1.035-24.905-5.965-1.075-.9.461-5.218 2.082-7.888" transform="translate(-92 -152) translate(92 152)"/>
                <path fill="#F1AD92" d="M77.006 63.458c-.143-.078-5.837-2.33-6.198 3.658-.362 5.988 5.724 5.116 5.745 4.945.02-.17.453-8.603.453-8.603" transform="translate(-92 -152) translate(92 152)"/>
                <path fill="#EA8E6C" d="M74.86 69.682c-.024-.021-.108.066-.289.137-.176.068-.475.104-.78-.031-.62-.27-1.091-1.307-1.055-2.388.017-.546.163-1.058.382-1.476.21-.427.511-.716.833-.754.321-.054.535.15.598.324.07.172.025.29.057.301.015.017.134-.092.1-.342-.017-.121-.079-.266-.212-.39-.137-.125-.344-.198-.568-.187-.463.004-.905.404-1.146.862-.266.46-.442 1.034-.462 1.647-.034 1.21.515 2.376 1.365 2.678.415.136.774.03.964-.1.194-.137.234-.27.214-.281" transform="translate(-92 -152) translate(92 152)"/>
                <path fill="#334F55" d="M98.309 65.03c.032.002-.012-.493.19-1.343.2-.834.733-2.064 1.967-3.028.611-.471 1.384-.876 2.279-1.047.89-.166 1.896-.152 2.859.198.484.16.953.406 1.385.719.436.306.835.69 1.165 1.135.682.878 1.076 2.013 1.106 3.19.007 1.177-.35 2.325-1.003 3.224-.316.456-.702.852-1.129 1.173-.421.326-.882.587-1.361.763-.951.38-1.957.426-2.851.289-.9-.143-1.686-.522-2.312-.974-1.264-.924-1.837-2.136-2.063-2.963-.228-.843-.2-1.34-.232-1.336-.004 0-.005.03-.004.09l.007.263c.001.117.01.26.04.428.025.168.05.363.113.575.205.845.768 2.095 2.054 3.06.637.47 1.441.869 2.369 1.023.92.15 1.959.109 2.946-.28.496-.18.975-.447 1.413-.784.443-.33.843-.74 1.172-1.211.68-.93 1.053-2.123 1.044-3.344-.03-1.22-.442-2.399-1.15-3.307-.344-.46-.758-.856-1.211-1.173-.449-.322-.935-.574-1.437-.738-.998-.356-2.038-.364-2.954-.186-.922.185-1.713.609-2.334 1.1-1.254 1.005-1.777 2.272-1.955 3.123-.057.214-.075.41-.095.579-.025.168-.029.312-.027.428l.001.264c.002.06.004.09.008.09M83.19 65.272c.032.002-.011-.493.19-1.343.2-.834.734-2.064 1.967-3.028.612-.471 1.384-.876 2.28-1.047.889-.165 1.896-.152 2.859.198.484.16.952.406 1.385.719.436.306.834.689 1.164 1.135.682.878 1.076 2.013 1.106 3.19.008 1.177-.35 2.325-1.003 3.224-.316.457-.701.852-1.128 1.173-.422.326-.882.587-1.361.763-.952.38-1.957.426-2.852.289-.9-.143-1.685-.522-2.311-.974-1.264-.924-1.837-2.136-2.063-2.963-.228-.843-.201-1.34-.232-1.336-.004 0-.005.03-.005.09l.007.263c.002.117.01.26.04.428.026.168.05.363.114.575.205.845.768 2.095 2.053 3.06.637.47 1.442.868 2.37 1.023.92.149 1.959.109 2.945-.28.497-.18.976-.447 1.413-.784.444-.33.844-.739 1.173-1.211.68-.93 1.053-2.123 1.044-3.343-.03-1.22-.442-2.4-1.151-3.308-.344-.46-.757-.856-1.21-1.172-.45-.323-.935-.575-1.437-.739-.999-.356-2.038-.364-2.954-.185-.922.184-1.713.608-2.335 1.098-1.254 1.006-1.776 2.273-1.955 3.124-.057.214-.075.41-.094.579-.025.168-.029.312-.027.428l.001.264c.001.06.004.09.008.09" transform="translate(-92 -152) translate(92 152)"/>
                <path fill="#334F55" d="M93.988 64.86c.03.02.187-.234.55-.526.356-.291.953-.602 1.657-.616.704-.012 1.312.277 1.678.555.373.278.54.527.569.506.018-.01-.108-.294-.479-.619-.361-.322-1.006-.658-1.772-.646-.766.016-1.397.376-1.746.71-.36.339-.475.628-.457.636M75.63 63.075c-.004.026.417.125 1.107.23.69.106 1.649.21 2.707.303l2.709.243c.691.068 1.12.116 1.124.086.005-.025-.416-.124-1.107-.23-.69-.106-1.649-.21-2.708-.302l-2.707-.243c-.692-.068-1.12-.117-1.125-.087" transform="translate(-92 -152) translate(92 152)"/>
                <path fill="#FFFFFE" d="M107.04 68.413c-.05-.043.751-.72 1.173-1.892.441-1.164.274-2.199.34-2.2.022-.004.098.245.116.664.018.417-.043 1.004-.265 1.607-.224.603-.559 1.088-.844 1.392-.286.307-.506.447-.52.43M107.986 62.23c.03-.046.253.067.38.332.13.265.08.51.026.505-.058 0-.101-.2-.208-.416-.103-.218-.234-.376-.198-.421M93.23 67.228c-.032-.013.08-.315.167-.82.09-.503.128-1.216-.013-1.982-.144-.766-.437-1.417-.701-1.854-.264-.44-.476-.682-.451-.705.015-.015.268.195.572.627.303.429.63 1.099.78 1.895.147.796.083 1.539-.046 2.049-.127.512-.288.799-.307.79" transform="translate(-92 -152) translate(92 152)"/>
                <path fill="#F1AD92" d="M83.76 154.272l5.798 1.716s3.2 1.375 4.759 1.732c1.931.443 3.249-.159 3.32-1.231.072-1.073-1.43-1.216-1.43-1.216s-2.43-.93-3.717-1.716c-1.287-.786-2.074-2.36-2.074-2.36l2.074.287s4.36 3.146 6.005 4.075c1.645.93 2.002-.715 2.145-1.215.143-.5-4.861-5.577-4.861-5.577s4.79 3.075 5.648 3.843c.858.77 2.145 1.019 2.43.518.287-.5 1.073-.5 0-2.62-1.072-2.121-9.652-7.818-9.652-7.818l2.36-.5 2.574 1.143s.143 1.073 1.072 2.45c.93 1.378 2.574 0 2.574 0l-1.001-5.273-5.076-3.183s-5.291.644-6.077 1.001c-.787.358-1.645 1.854-1.645 1.854l-1.43.577c-2.216.644-2.145 2.86-2.86 2.932-.714.071-21.58-4-21.58-4l-1.89-.493c-3.116 2.377-4.378 6.3-4.929 9.776 0 0-.577 1.702 0 2.642l27.463 2.656" transform="translate(-92 -152) translate(92 152)"/>
                <path fill="#EA8E6C" d="M79.948 150.56c-.014 0-.02-.12-.02-.34-.005-.111.009-.245.034-.4.018-.157.049-.332.105-.522.187-.77.702-1.756 1.457-2.688.754-.934 1.56-1.663 2.159-2.164.6-.5.997-.775 1.013-.755.02.023-.345.34-.918.864-.571.526-1.354 1.264-2.095 2.183-.742.916-1.26 1.861-1.477 2.6-.23.735-.216 1.224-.258 1.222M88.986 140.182c.008.019-.173.09-.44.305-.268.213-.614.578-.952 1.092-.166.257-.34.549-.477.879-.148.318-.15.71-.226 1.12-.062.406-.189.86-.46 1.236-.26.376-.542.726-.694 1.164-.28.747-.256 1.56-.009 2.21l.028.072-.066.042c-1.108.704-1.645 1.778-1.842 2.531-.204.77-.141 1.253-.176 1.252-.01 0-.03-.117-.038-.338-.006-.22.01-.544.1-.942.169-.782.699-1.913 1.854-2.665l-.038.115c-.272-.69-.302-1.552-.004-2.348.162-.467.472-.85.72-1.204.257-.356.371-.755.44-1.157.079-.393.087-.803.256-1.154.15-.344.335-.636.513-.894.361-.515.733-.874 1.023-1.074.144-.102.266-.167.353-.2.086-.034.132-.048.135-.042M94.008 142.522c.008.05-.686.126-1.479-.16-.795-.28-1.285-.776-1.246-.81.037-.049.56.355 1.315.618.75.272 1.41.29 1.41.352M95.346 148.3c-.022.052-1.005-.323-2.195-.839-1.19-.514-2.136-.974-2.114-1.025.022-.052 1.005.324 2.195.839 1.19.515 2.137.974 2.114 1.025M90.639 151.155c-.028.05-.517-.172-1.126-.421-.608-.252-1.112-.438-1.096-.494.014-.053.553.049 1.174.305.621.255 1.075.563 1.048.61M94.625 148.67c.02.057-.486.235-.87.733-.397.49-.452 1.024-.512 1.017-.025 0-.049-.139-.01-.358.036-.22.15-.516.362-.785.212-.268.475-.447.679-.533.205-.088.344-.097.35-.073M96.721 145.497c.026.054-.358.252-.616.689-.269.429-.269.861-.328.863-.052.018-.151-.475.154-.97.3-.498.782-.636.79-.582M96.134 139.75c-.023.01-.1-.087-.157-.277-.059-.188-.08-.47-.004-.765.077-.295.235-.53.377-.666.143-.138.258-.185.272-.165.039.046-.32.35-.451.883-.146.528.018.969-.037.99" transform="translate(-92 -152) translate(92 152)"/>
                <g transform="translate(-92 -152) translate(92 152) translate(91.54 129.878)">
                    <mask id="bbm2tnlord" fill="#fff">
                        <use xlink:href="#b9wbh5xpvc"/>
                    </mask>
                    <path fill="#F1F0EC" d="M46.886 11.674s-.266-5.132-5.584-6.196-14.625 3.458-14.625 3.458L.567 27.13l.779 2.25 26.493-3.693 2.428.931L48.88 14.386 66.443 1.688 64.503.16s-4.92 3.39-8.177 4.853c-3.258 1.462-7.977 4.015-9.44 6.66" mask="url(#bbm2tnlord)"/>
                    <path fill="#334F55" d="M.152 30.122l22.095-13.727 23.358-3.75s1.173 1.695 3.157 1.28L67.972.63l.36.805-37.246 26.161c-1.35.419-2.387.101-3.247-.631L.152 30.122" mask="url(#bbm2tnlord)"/>
                </g>
                <path fill="#132529" d="M137.145 142.522c.005.006-.057.056-.18.148-.14.102-.32.23-.539.39-.469.337-1.147.825-1.973 1.444-1.657 1.232-3.904 2.99-6.346 4.982-2.44 1.995-4.618 3.84-6.183 5.188l-1.852 1.598-.507.431c-.117.097-.181.146-.186.14-.005-.005.05-.063.159-.17l.481-.46c.422-.395 1.038-.961 1.81-1.648 1.542-1.376 3.706-3.24 6.15-5.237 2.444-1.993 4.708-3.736 6.389-4.94.838-.606 1.53-1.077 2.013-1.394l.561-.358c.13-.08.2-.12.203-.114" transform="translate(-92 -152) translate(92 152)"/>
                <path fill="#D4D5CF" d="M136.908 139.666c-2.118-2.273-5.45-3.083-8.547-2.841-3.097.24-6.04 1.398-8.928 2.542l-27.029 18.5.241.695 27.175-18.392s6.07-1.964 8.756-2.293c4.504-.55 8.332 1.789 8.332 1.789M141.147 142.099l12.996-8.766s-10.649 5.536-12.996 8.766" transform="translate(-92 -152) translate(92 152)"/>
                <path fill="#132529" d="M92.404 157.867c-.002-.003.036-.033.11-.088l.335-.241 1.296-.91 4.789-3.318 15.843-10.88 4.6-3.145.008-.006.009-.004c2.837-1.224 5.625-2.106 8.221-2.47 2.604-.328 4.984.115 6.736.95.88.413 1.6.928 2.158 1.45.557.527.947 1.063 1.205 1.53.265.465.389.862.468 1.128l.07.309c.015.07.022.104.019.105-.036.013-.085-.59-.618-1.508-.264-.455-.657-.978-1.213-1.49-.557-.507-1.273-1.007-2.144-1.408-1.735-.807-4.087-1.23-6.66-.893-2.564.372-5.342 1.256-8.164 2.481l.017-.01-4.597 3.15-15.877 10.83-4.826 3.264-1.317.878-.346.225c-.079.05-.12.074-.122.071" transform="translate(-92 -152) translate(92 152)"/>
                <path fill="#132529" d="M116.064 143.882c-.003-.007.067-.05.204-.125.136-.076.339-.187.603-.323.527-.274 1.297-.656 2.267-1.094 1.932-.866 4.698-1.97 7.93-2.428 3.233-.458 6.233-.004 8.225.752 1 .37 1.77.772 2.273 1.09.258.148.44.293.57.38.128.09.193.14.19.146-.012.016-.286-.166-.8-.458-.513-.295-1.285-.673-2.282-1.022-1.984-.714-4.947-1.14-8.148-.686-3.202.453-5.958 1.527-7.9 2.358-.974.42-1.752.782-2.29 1.034l-.62.287c-.143.064-.22.095-.222.089M157.285 131.017c.004.005-.054.05-.169.128l-.505.335-1.875 1.207c-1.585 1.015-3.774 2.421-6.173 4-2.4 1.58-4.557 3.033-6.117 4.088l-1.85 1.244-.508.332c-.117.074-.181.11-.185.104-.004-.006.052-.053.162-.138l.485-.363c.425-.312 1.045-.756 1.814-1.298 1.54-1.085 3.685-2.558 6.087-4.14 2.4-1.578 4.602-2.966 6.208-3.951.803-.493 1.456-.886 1.91-1.152l.526-.303c.122-.067.187-.1.19-.093" transform="translate(-92 -152) translate(92 152)"/>
                <path fill="#F1AD92" d="M145.464 145.085s-.51 1.213-1.009 1.806c-.498.593-2.134 1.424-2.265 2.555-.131 1.132.14 3.783-1.63 5.799-1.768 2.016-4.19 2.723-4.19 2.723l-6.973-.681-11.143-4.383s-.918-.25-.71-1.17c.124-.554.6-.96 1.16-1.05l.267-.043s-.641-.524.276-1.442c.791-.793 2.454-.343 3.313-.055.858.287 5.907 2.395 6.814 2.718.802.285 1.417.54 1.417.54s-6.458-4.358-6.547-4.928c-.107-.685-.034-.997.625-1.477.776-.564 2.066.042 3.31.565.925.389 6.839 3.309 6.839 3.309s.264-.258.016-.785c-.25-.528-2.233-3.05-2.539-3.515-.304-.461-.388-.735-.085-1.128.433-.561 1.577-.827 2.609.127.665.613 3.014 2.191 3.014 2.191l10.85-7.917s1.351-.034.881 1.846c-.47 1.88-4.3 4.395-4.3 4.395" transform="translate(-92 -152) translate(92 152)"/>
                <path fill="#EA8E6C" d="M137.377 151.681c-.013.05-.607-.103-1.173-.583-.57-.476-.824-1.036-.776-1.056.052-.032.369.452.907.9.533.454 1.064.683 1.042.74M138.265 146.96c-.002-.024.142-.064.378-.036.234.026.554.14.836.372.28.233.453.527.523.752.072.226.06.374.036.377-.057.015-.167-.552-.689-.972-.51-.433-1.088-.435-1.084-.493M138.778 149.142c-.06 0-.09-.583-.32-1.252-.223-.671-.555-1.152-.506-1.188.037-.036.462.414.7 1.123.242.707.178 1.322.126 1.317M145.206 144.522c-.018.018-.141-.061-.281-.248-.141-.185-.282-.487-.323-.844-.04-.358.032-.684.128-.895.095-.214.199-.318.219-.304.054.027-.226.52-.144 1.176.065.658.447 1.077.4 1.115M135.388 154.413c0 .023-.293.063-.762-.011-.468-.07-1.1-.279-1.723-.64-.624-.36-1.128-.773-1.48-1.077-.352-.307-.556-.512-.538-.533.018-.023.255.144.628.42.374.275.884.663 1.492 1.013.606.35 1.203.572 1.65.676.445.107.734.119.733.152M137.202 153.295c.056-.005.06.395-.27.714-.325.322-.725.31-.718.254-.008-.058.309-.131.576-.4.275-.261.354-.576.412-.568M139.868 151.338c.024.009.022.108-.05.246-.071.138-.224.305-.441.408-.217.103-.443.116-.595.084-.153-.031-.231-.092-.222-.116.018-.055.362.03.73-.152.372-.17.525-.49.578-.47" transform="translate(-92 -152) translate(92 152)"/>
                <g>
                    <path fill="#EA8E6C" d="M130.473 5.168c-.023.052-2.616-1.03-5.792-2.417-3.176-1.388-5.733-2.553-5.71-2.605.023-.052 2.615 1.031 5.792 2.418 3.176 1.387 5.732 2.553 5.71 2.604" transform="translate(-92 -152) translate(92 152) translate(0 150.611)"/>
                    <path fill="#132529" d="M176.162 8.656c0 .056-39.438.102-88.077.102C39.43 8.758 0 8.712 0 8.656c0-.056 39.43-.102 88.085-.102 48.639 0 88.077.046 88.077.102" transform="translate(-92 -152) translate(92 152) translate(0 150.611)"/>
                </g>
                <path fill="#D4D5CF" d="M5.038 117.593l8.489 41.674h73.682c.812 0 1.47-.658 1.47-1.471 0-.813-.658-1.472-1.47-1.472H72.376l-7.87-38.758c-.152-.743-.801-1.28-1.56-1.289l-56.314-.614c-1.025-.011-1.799.926-1.594 1.93" transform="translate(-92 -152) translate(92 152)"/>
                <path fill="#132529" d="M5.038 117.593s-.01-.042-.023-.126c-.014-.083-.025-.21-.007-.378.03-.322.204-.863.779-1.218.141-.087.307-.15.487-.193.182-.04.38-.038.58-.036l1.326.01 3.315.028 21.293.201 14.843.15 8.315.086 4.362.045 2.23.023c.189.005.367-.003.57.014.197.02.39.077.568.164.358.175.65.48.81.849.082.184.116.384.154.566l.114.56c.076.375.152.75.23 1.127.152.754.307 1.512.462 2.275l.943 4.636 1.952 9.595 4.134 20.333-.1-.08 8.543-.001h6.045c.18 0 .376-.01.573.034.388.08.74.316.966.643.228.326.321.74.26 1.133-.067.482-.38.915-.803 1.146-.214.114-.453.179-.694.188l-.68.002h-8.039l-10.477-.001-19.947-.005-34.595-.018h-.064l-.012-.062-6.168-30.45-1.675-8.326-.43-2.172c-.097-.49-.14-.742-.14-.742s.059.25.162.738l.453 2.167 1.716 8.317 6.235 30.437-.077-.063 34.595-.017 19.947-.005 10.477-.001h8.039l.673-.003c.21-.008.417-.064.603-.163.369-.201.642-.578.7-.997.053-.342-.028-.703-.227-.987-.196-.284-.503-.49-.84-.56-.167-.037-.343-.029-.532-.03H80.918l-8.542-.001h-.083l-.016-.081-4.125-20.334-1.945-9.597-.94-4.637-.46-2.275-.23-1.126-.113-.561c-.038-.19-.068-.369-.142-.531-.142-.33-.404-.603-.723-.76-.16-.08-.334-.13-.51-.149-.172-.015-.37-.008-.554-.013l-2.229-.025-4.362-.05-8.314-.096-14.844-.175c-9.04-.112-16.294-.2-21.292-.263l-3.315-.045-1.326-.018c-.203-.004-.393-.008-.57.03-.176.04-.338.1-.477.184-.565.341-.744.87-.78 1.188-.033.332.023.502.012.502" transform="translate(-92 -152) translate(92 152)"/>
                <path fill="#FFFFFE" d="M38.99 136.665c0 1.344-1.089 2.434-2.433 2.434-1.344 0-2.433-1.09-2.433-2.434s1.09-2.433 2.433-2.433c1.344 0 2.434 1.09 2.434 2.433" transform="translate(-92 -152) translate(92 152)"/>
                <path fill="#132529" d="M5.106 117.93s.087-.006.254-.008l.745-.004 2.865.004 10.536.05 34.757.245 5.027.041 1.235.01c.2.004.414-.009.63.038.213.043.416.126.598.242.365.231.638.6.748 1.015.092.407.16.793.242 1.188l1.796 9.052 3.03 15.33 2.025 10.338.54 2.813c.06.317.104.56.136.732.03.166.04.251.04.251s-.024-.083-.06-.247l-.156-.728-.578-2.805-2.089-10.326-3.072-15.322-1.808-9.05c-.08-.388-.154-.794-.24-1.173-.097-.367-.34-.694-.662-.898-.161-.103-.342-.176-.53-.214-.184-.042-.383-.03-.592-.034l-1.235-.01-5.027-.039-34.757-.305-10.535-.115-2.864-.042-.745-.016c-.168-.005-.254-.012-.254-.012" transform="translate(-92 -152) translate(92 152)"/>
            </g>
        </g>
    </g>
</svg>
