<svg xmlns="http://www.w3.org/2000/svg" width="14" height="16" viewBox="0 0 14 16">
    <path d="M12.178 10.446l-.672-1.36-.238-3.934c-.176-2.09-1.508-3.688-3.3-4.112C7.82.4 7.46 0 7.01 0c-.45 0-.81.4-.957 1.04-1.8.422-3.132 2.023-3.301 4.122l-.24 3.968-.667 1.315c-.707.13-1.245.751-1.245 1.496 0 .84.683 1.522 1.522 1.522h2.98v.629c0 1.052.856 1.908 1.908 1.908s1.908-.856 1.908-1.908v-.629h2.98c.84 0 1.522-.683 1.522-1.522 0-.744-.536-1.364-1.242-1.495zM7.01.91c.003.005.006.013.01.018H7c.004-.005.007-.013.01-.018zM3.316 9.438c.027-.052.042-.11.046-.168l.245-4.048C3.768 3.232 5.2 1.786 7.01 1.786c1.804 0 3.236 1.446 3.403 3.428l.243 4.011c.003.057.018.113.043.164l.509 1.03H2.82l.496-.98zm4.745 4.654c0 .58-.472 1.05-1.05 1.05-.58 0-1.051-.47-1.051-1.05v-.629h2.1v.629zm3.837-1.486H2.122c-.366 0-.664-.299-.664-.665 0-.367.298-.665.664-.665h9.776c.366 0 .665.298.665.665 0 .366-.299.665-.665.665z"/>
</svg>
