<svg width="80" height="80" viewBox="0 0 80 80" fill="none" xmlns="http://www.w3.org/2000/svg">
<circle opacity="0.1" cx="40" cy="40" r="40" fill="url(#paint0_linear)"/>
<path d="M22.4082 51.15C21.2477 53.15 22.6907 55.6556 25.003 55.6556H54.7762C57.0885 55.6556 58.5315 53.1499 57.371 51.15L42.4844 25.4944C41.3283 23.5019 38.4509 23.5019 37.2948 25.4944L22.4082 51.15Z" fill="#FFDECE" stroke="#434570" stroke-width="2"/>
<path d="M41.2812 38.2969V43.7344C41.2812 44.6405 40.5467 45.375 39.6406 45.375C38.7345 45.375 38 44.6405 38 43.7344V38.2969C38 37.3908 38.7345 36.6562 39.6406 36.6562C40.5467 36.6562 41.2812 37.3908 41.2812 38.2969Z" fill="#FF6200"/>
<path d="M39.6406 50.6562C38.7345 50.6562 38 49.9217 38 49.0156C38 47.7031 39.0938 47.3229 39.6406 47.2969C40.5467 47.2969 41.2812 48.0314 41.2812 48.9375C41.2812 50.25 40.1875 50.6302 39.6406 50.6562Z" fill="#FF6200"/>
<defs>
<linearGradient id="paint0_linear" x1="17.5" y1="70" x2="71" y2="16" gradientUnits="userSpaceOnUse">
<stop stop-color="#434570"/>
<stop offset="1" stop-color="#434570" stop-opacity="0"/>
</linearGradient>
</defs>
</svg>
