<svg xmlns="http://www.w3.org/2000/svg" width="16" height="15" viewBox="0 0 16 15">
    <g>
        <g>
            <path d="M7.2 2.637L5.998 3.841l-.62.62L3.87 5.967 2.284 7.554l-.562.562c-.087.087-.18.17-.262.262-.001.003-.004.004-.006.006-.006.01.128-.086.078-.062l.114-.047c-.043.017-.092.023-.138.03l.127-.018c-.382.05-.773.045-1.158.043l.475.475c-.003-.39-.01-.787.038-1.174l-.017.127c.01-.084.044-.166.044-.25l-.065.24c-.063.105-.078.091-.036.05l.07-.071.254-.254.773-.773 1.144-1.144c.394-.394.789-.79 1.185-1.184l.88-.881 1.385-1.384.033-.034h-.672L7.045 3.15l.157.157c.176.176.5.189.672 0 .174-.19.188-.484 0-.671L6.789 1.55l-.15-.15c-.183-.183-.49-.183-.672 0L4.698 2.668l-.857.858L2.5 4.87 1.497 5.872c-.421.421-.85.838-1.264 1.265-.098.102-.165.227-.165.37l.018-.126c-.048.133-.051.285-.06.425-.012.149-.015.3-.018.448-.003.184-.005.367-.003.551.001.258.215.474.475.475.353.002.708 0 1.06-.031.215-.02.427-.038.592-.195l.097-.097L3.565 7.62l1.892-1.89 1.16-1.16c.401-.403.802-.803 1.205-1.206l.053-.054c.176-.175.189-.498 0-.671-.191-.176-.486-.189-.674-.002z" transform="translate(5.734 2.36)"/>
            <path d="M8.393 1.445L7.351 2.487l-.15.15h.671L6.787 1.552l-.15-.15v.671l1.061-1.06.1-.1c.008-.009.019-.016.025-.026 0-.002.005-.003.005-.005-.002.022-.11.065-.02.024l-.115.048c.022-.008.041-.013.065-.016-.043.006-.084.01-.127.017h.045L7.549.938c.025.004.048.01.071.019L7.506.909c.083.043.17.078.265.078L7.53.922c.037.024.062.065-.055-.043l-.14-.336c0 .263.262.458.433.63l.515.514.082.082c.007.007.013.015.02.02l.003.002c.01.01.001-.001-.024-.031-.05-.067-.011-.013-.003.006l-.048-.114c.008.02.013.038.016.06l-.017-.126v.061c.006-.042.01-.084.017-.126-.003.02-.01.04-.016.06l.048-.114c-.016.047-.051.07.031-.022-.168.183-.194.492 0 .671.183.168.495.197.672 0 .266-.291.27-.711-.005-1-.054-.056-.11-.11-.165-.164L8.311.367 8.153.21l.139.336c0-.268-.25-.507-.516-.507l.239.065c-.301-.176-.651-.098-.889.138l-.252.252-.731.731-.178.178c-.182.182-.182.49 0 .671L7.042 3.15l.157.157c.182.182.49.182.672 0l1.042-1.042.15-.15c.176-.176.189-.5 0-.672-.187-.171-.481-.185-.67.002z" transform="translate(5.734 2.36)"/>
            <path d="M8.393 1.445L7.351 2.487l-.15.15h.671L6.787 1.552l-.15-.15v.671l1.061-1.06.1-.1c.008-.009.019-.016.025-.026 0-.002.005-.003.005-.005-.002.022-.11.065-.02.024l-.115.048c.022-.008.041-.013.065-.016-.043.006-.084.01-.127.017h.045L7.549.938c.025.004.048.01.071.019L7.506.909c.083.043.17.078.265.078L7.53.922c.077.05-.096-.087-.039-.027l.062.062.222.221c.17.172.342.343.513.514l.079.079.019.019.003.003c.01.01.002-.002-.024-.032-.049-.066-.01-.012-.003.007l-.047-.114c.008.02.012.038.016.06l-.018-.127c.002.02.002.04 0 .062l.018-.127c-.004.02-.01.04-.016.06l.047-.114c-.017.046-.052.068.03-.023-.168.183-.194.492 0 .671.183.168.495.197.672 0 .266-.291.27-.716-.008-1.002-.062-.065-.127-.127-.19-.19l-.61-.61c-.136-.137-.27-.278-.481-.278.079.023.16.043.239.065-.301-.175-.651-.098-.889.138l-.252.252-.731.732c-.06.058-.12.119-.178.177-.182.182-.182.49 0 .672l1.077 1.077.157.157c.182.182.49.182.672 0l1.042-1.043.15-.15c.176-.176.189-.499 0-.672-.187-.17-.481-.183-.67.004zM.082 7.383l-.006.016c-.02.063-.022.126-.008.19.003.063.022.122.057.177.03.056.071.1.122.133.046.043.1.07.162.086.042.006.084.01.126.017.086 0 .167-.022.24-.065l.096-.074c.059-.059.1-.13.122-.21L1 7.639c.021-.064.023-.127.008-.19-.003-.064-.022-.122-.057-.178-.03-.055-.07-.1-.122-.133-.046-.042-.1-.07-.161-.085L.54 7.034c-.085 0-.166.022-.239.065-.032.026-.063.05-.097.075-.058.058-.1.128-.122.209z" transform="translate(5.734 2.36)"/>
            <path d="M.95 7.749l.01-.018-.075.097.004-.003H.217c.043.046.093.079.154.098.057.03.117.043.183.041.065.003.127-.011.184-.041.059-.02.11-.052.154-.098l.074-.097c.043-.074.065-.154.065-.24-.006-.042-.01-.083-.017-.126-.022-.08-.064-.15-.122-.209-.043-.046-.094-.08-.154-.098-.057-.03-.117-.043-.184-.041-.042.006-.084.01-.126.017-.081.022-.15.064-.21.122-.03.032-.056.067-.079.103l-.006.013c-.035.054-.054.114-.057.177-.014.064-.011.127.008.19.014.062.043.116.085.162.034.052.078.092.134.122l.114.047c.084.022.167.022.253 0l.114-.047c.067-.043.124-.1.166-.171z" transform="translate(5.734 2.36)"/>
        </g>
        <path fill-opacity=".85" d="M11.568 1.513v2.593l.81-.336-.007-.008c-.183-.182-.49-.182-.672 0L10.43 5.03l-.857.858-1.341 1.342-1.003 1.002c-.421.422-.849.838-1.264 1.266-.098.101-.165.226-.165.37l.018-.126c-.048.133-.05.285-.06.424-.011.15-.015.3-.018.449-.003.183-.005.367-.003.55.002.259.215.474.475.476.276.002.55-.003.825-.016.29-.014.62-.01.842-.223.267-.26.529-.53.792-.792l1.473-1.473 1.468-1.469c.253-.253.513-.5.759-.758l.01-.011-.81-.336v6.257c0 .044-.003.09-.008.134.006-.043.01-.084.017-.127-.012.092-.036.18-.071.265l.047-.114c-.025.057-.052.112-.087.165-.01.014-.02.028-.028.042-.022.04.082-.096.03-.04l-.062.069c-.022.022-.046.041-.068.062-.049.044.048-.038.048-.037.001.003-.04.027-.043.03-.056.037-.113.067-.173.094l.114-.048c-.085.035-.174.059-.264.072l.126-.018c-.118.014-.24.008-.36.008H2.644c-.374 0-.749.003-1.123 0-.047 0-.093-.003-.14-.008l.128.018c-.092-.013-.18-.037-.265-.072l.114.048c-.057-.024-.112-.052-.165-.087l-.042-.029c-.04-.022.096.083.04.03-.023-.02-.047-.04-.069-.062-.022-.022-.041-.045-.062-.068-.044-.049.038.048.037.048-.003.001-.027-.04-.03-.043-.037-.055-.067-.112-.094-.173l.048.115c-.035-.086-.059-.175-.072-.265l.018.127c-.016-.135-.008-.273-.008-.409v-.813-1.218-1.501-1.641V5.71 4.17 2.872v-.927-.418c0-.048.003-.095.008-.143l-.018.127c.013-.092.037-.179.072-.264l-.048.114c.025-.057.052-.113.087-.165l.029-.043c.022-.04-.083.097-.03.04l.061-.068c.023-.023.046-.042.069-.062.049-.045-.048.038-.048.036-.002-.003.04-.027.043-.03.055-.036.112-.066.172-.093l-.114.047c.086-.035.175-.058.265-.071L1.38.969c.119-.014.241-.008.361-.008h8.143c.374 0 .75-.003 1.123 0 .048 0 .094.004.14.008-.043-.006-.084-.01-.127-.017.092.013.18.036.265.071l-.114-.047c.057.023.112.052.164.087l.043.028c.04.023-.097-.082-.04-.03l.069.062c.022.022.04.046.061.068.045.05-.038-.047-.036-.047.003-.002.027.04.03.042.036.056.067.113.093.173l-.047-.114c.035.086.059.174.071.265-.006-.043-.01-.084-.017-.127.001.043.005.085.005.13.003.248.217.486.475.475.255-.011.478-.21.475-.475-.005-.43-.189-.865-.524-1.14-.282-.23-.616-.362-.984-.365-.114-.002-.226 0-.34 0H1.513C1.147.01.813.143.531.374c-.36.293-.525.746-.525 1.2v11.248c.004.394.157.776.434 1.058.28.287.674.445 1.073.448.362.004.725 0 1.09 0h7.666c.516 0 1.093.065 1.547-.23.403-.262.643-.67.696-1.144.008-.072.008-.141.008-.213v-.722-2.666-2.406-.385c0-.19-.12-.36-.292-.434-.174-.073-.383-.038-.52.099l-.454.454-1.09 1.09L8.85 9.086l-1.128 1.127-.368.368c-.054.054-.114.104-.163.163-.028.035.133-.087.075-.059l.114-.047c-.043.017-.092.024-.138.03l.127-.018c-.382.05-.773.045-1.158.043l.475.475c-.003-.39-.01-.787.038-1.173l-.018.126c.012-.084.045-.166.045-.25l-.065.24c-.064.105-.078.091-.037.05l.072-.071.253-.254.773-.773L8.891 7.92l1.185-1.185.88-.88 1.385-1.385.033-.033h-.672l.008.008c.136.136.345.17.52.098.172-.073.291-.244.291-.434V1.836v-.32c0-.249-.218-.486-.475-.475-.26.008-.478.206-.478.472z"/>
        <g>
            <path d="M.482.958H6.718c.288 0 .578.007.866 0h.011c.249 0 .486-.218.475-.475-.01-.258-.209-.475-.475-.475H1.359c-.288 0-.578-.006-.866 0H.482c-.25 0-.487.219-.476.475.011.258.21.475.476.475zM5.696 2.68H.482c-.25 0-.487.219-.476.475.011.258.21.475.476.475h5.214c.249 0 .486-.218.475-.475-.013-.258-.209-.475-.475-.475zM3.162 5.35H.483c-.249 0-.486.22-.475.476.011.258.209.475.475.475H3.162c.248 0 .486-.219.475-.475-.013-.257-.21-.475-.475-.475zM2.528 8.023H.483c-.249 0-.486.218-.475.475.011.258.209.475.475.475h2.045c.249 0 .486-.219.475-.475-.013-.258-.209-.475-.475-.475z" transform="translate(2.218 2.677)"/>
        </g>
    </g>
</svg>
