<svg xmlns="http://www.w3.org/2000/svg" width="13" height="15" viewBox="0 0 13 15">
    <g>
        <path d="M.202 2.437v12.031c0 .09.037.177.102.241.066.064.155.1.247.1h9.311c.093 0 .182-.036.247-.1.066-.063.102-.15.102-.24V12.87h1.808c.092 0 .181-.036.247-.1.065-.064.102-.15.102-.24v-12c0-.09-.037-.176-.102-.24-.066-.064-.155-.1-.247-.1H2.708c-.193 0-.35.152-.35.34v1.565H.552c-.192 0-.349.152-.349.34zM3.057.873h8.613v11.316H3.057V.873zM.901 2.778h1.458v9.752c0 .09.037.177.102.241.066.064.154.1.247.1h6.805v1.256H.9V2.777z"/>
        <path d="M4.498 3.232h6.004c.193 0 .349-.153.349-.34 0-.19-.156-.342-.35-.342H4.499c-.193 0-.349.153-.349.341 0 .188.156.341.35.341zM4.498 5.425h6.004c.193 0 .349-.153.349-.341 0-.188-.156-.34-.35-.34H4.499c-.193 0-.349.152-.349.34 0 .188.156.34.35.34zM4.498 7.618h6.004c.193 0 .349-.153.349-.341 0-.188-.156-.341-.35-.341H4.499c-.193 0-.349.153-.349.34 0 .19.156.342.35.342zM4.498 9.81h6.004c.193 0 .349-.152.349-.34 0-.188-.156-.341-.35-.341H4.499c-.193 0-.349.153-.349.34 0 .19.156.342.35.342z"/>
    </g>
</svg>
