<svg xmlns="http://www.w3.org/2000/svg" xmlns:xlink="http://www.w3.org/1999/xlink" width="172" height="184" viewBox="0 0 172 184">
    <defs>
        <linearGradient id="prefix__c" x1="50%" x2="50%" y1="0%" y2="100%">
            <stop offset="0%" stop-color="#3784F1"/>
            <stop offset="100%" stop-color="#357BDC"/>
        </linearGradient>
        <filter id="prefix__b" width="117.9%" height="116.7%" x="-9%" y="-6%" filterUnits="objectBoundingBox">
            <feOffset dy="4" in="SourceAlpha" result="shadowOffsetOuter1"/>
            <feGaussianBlur in="shadowOffsetOuter1" result="shadowBlurOuter1" stdDeviation="4"/>
            <feComposite in="shadowBlurOuter1" in2="SourceAlpha" operator="out" result="shadowBlurOuter1"/>
            <feColorMatrix in="shadowBlurOuter1" values="0 0 0 0 0 0 0 0 0 0 0 0 0 0 0 0 0 0 0.08 0"/>
        </filter>
        <path id="prefix__a" d="M8 0h140c4.418 0 8 3.582 8 8v152c0 4.418-3.582 8-8 8H8c-4.418 0-8-3.582-8-8V8c0-4.418 3.582-8 8-8z"/>
    </defs>
    <g fill="none" fill-rule="evenodd" transform="translate(8 4)">
        <mask id="prefix__d" fill="#fff">
            <use xlink:href="#prefix__a"/>
        </mask>
        <use fill="#000" filter="url(#prefix__b)" xlink:href="#prefix__a"/>
        <use fill="url(#prefix__c)" xlink:href="#prefix__a"/>
        <g mask="url(#prefix__d)" opacity=".2">
            <g transform="translate(94.54 -2.73)">
                <path fill="#1D479E" d="M39.07 22.68c5.816 0 10.53-5.524 10.53-11.34s-4.714-9.72-10.53-9.72c-5.816 0-10.53 3.904-10.53 9.72 0 5.816 4.714 11.34 10.53 11.34z"/>
                <circle cx="39.07" cy="10.53" r="10.53" fill="#FFF"/>
                <path fill="#598ED8" d="M39.07 17.01c2.471 0 4.165-1.15 5.08-3.45.332-.832-.074-1.774-.905-2.105-.19-.076-.394-.115-.6-.115h-7.15c-.895 0-1.62.725-1.62 1.62 0 .205.038.409.114.6.916 2.3 2.61 3.45 5.081 3.45z"/>
                <g transform="translate(43.93 11.34)">
                    <path fill="#1D479E" d="M16.2 17.82c4.474 0 8.1-4.436 8.1-8.91s-3.626-7.29-8.1-7.29-8.1 2.816-8.1 7.29 3.626 8.91 8.1 8.91z"/>
                    <circle cx="16.2" cy="8.1" r="8.1" fill="#FFF"/>
                    <path fill="#FFF" d="M14.376 20.25h3.648c6.004 0 11.174 4.238 12.351 10.125l1.25 6.25c.35 1.754-.787 3.461-2.542 3.812-.209.042-.422.063-.635.063H3.952c-1.79 0-3.24-1.45-3.24-3.24 0-.213.021-.426.063-.635l1.25-6.25c1.177-5.887 6.347-10.125 12.35-10.125z"/>
                    <path fill="#000" fill-opacity=".2" d="M15.411 25.325l1.56 7.35c.742 3.501-1.494 6.941-4.995 7.684-.442.094-.893.141-1.345.141H3.952c-1.79 0-3.24-1.45-3.24-3.24 0-.213.021-.426.063-.635l1.25-6.25c1.107-5.534 5.74-9.61 11.278-10.08.991 1.495 1.718 3.19 2.108 5.03z" style="mix-blend-mode:multiply"/>
                </g>
                <g>
                    <g transform="translate(.63 11.34) matrix(-1 0 0 1 33.4 0)">
                        <path fill="#1D479E" d="M16.2 17.82c4.474 0 8.1-4.436 8.1-8.91s-3.626-7.29-8.1-7.29-8.1 2.816-8.1 7.29 3.626 8.91 8.1 8.91z"/>
                        <circle cx="16.2" cy="8.1" r="8.1" fill="#FFF"/>
                        <path fill="#FFF" d="M14.376 20.25h3.648c6.004 0 11.174 4.238 12.351 10.125l1.25 6.25c.35 1.754-.787 3.461-2.542 3.812-.209.042-.422.063-.635.063H3.952c-1.79 0-3.24-1.45-3.24-3.24 0-.213.021-.426.063-.635l1.25-6.25c1.177-5.887 6.347-10.125 12.35-10.125z"/>
                        <path fill="#000" fill-opacity=".2" d="M15.411 25.325l1.56 7.35c.742 3.501-1.494 6.941-4.995 7.684-.442.094-.893.141-1.345.141H3.952c-1.79 0-3.24-1.45-3.24-3.24 0-.213.021-.426.063-.635l1.25-6.25c1.107-5.534 5.74-9.61 11.278-10.08.991 1.495 1.718 3.19 2.108 5.03z" style="mix-blend-mode:multiply"/>
                    </g>
                    <path fill="#598ED8" d="M17.2 12.96c1.787 0 3.034-.99 3.74-2.968.15-.421-.07-.885-.491-1.035-.087-.031-.18-.047-.272-.047h-5.954c-.447 0-.81.363-.81.81 0 .093.016.185.047.272.706 1.979 1.953 2.968 3.74 2.968z" transform="translate(.63 11.34)"/>
                </g>
                <path fill="#FFF" d="M34.228 25.11h9.23c6.887 0 12.834 4.818 14.263 11.555l1.56 7.35c.742 3.501-1.494 6.941-4.995 7.684-.442.094-.893.141-1.345.141H24.964c-3.578 0-6.48-2.901-6.48-6.48 0-.389.035-.777.105-1.16l1.294-7.118c1.26-6.933 7.299-11.972 14.345-11.972z"/>
                <path fill="#598ED8" d="M60.13 24.3c1.787 0 3.034-.99 3.74-2.968.15-.421-.07-.885-.491-1.035-.087-.031-.18-.047-.272-.047h-5.954c-.447 0-.81.363-.81.81 0 .093.016.185.047.272.706 1.979 1.953 2.968 3.74 2.968z"/>
            </g>
        </g>
        <path fill="#FFF" fill-rule="nonzero" d="M28.5 33.5c2.418 0 4.375-1.957 4.375-4.375S30.918 24.75 28.5 24.75s-4.375 1.957-4.375 4.375S26.082 33.5 28.5 33.5zm8.75-1.25c1.727 0 3.125-1.398 3.125-3.125S38.977 26 37.25 26s-3.125 1.398-3.125 3.125 1.398 3.125 3.125 3.125zm-17.5 0c1.727 0 3.125-1.398 3.125-3.125S21.477 26 19.75 26s-3.125 1.398-3.125 3.125 1.398 3.125 3.125 3.125zm8.75-.625c-1.379 0-2.5-1.121-2.5-2.5s1.121-2.5 2.5-2.5 2.5 1.121 2.5 2.5-1.121 2.5-2.5 2.5zm8.75-1.25c-.688 0-1.25-.562-1.25-1.25 0-.687.562-1.25 1.25-1.25.687 0 1.25.563 1.25 1.25 0 .688-.563 1.25-1.25 1.25zm-17.5 0c-.687 0-1.25-.562-1.25-1.25 0-.687.563-1.25 1.25-1.25s1.25.563 1.25 1.25c0 .688-.563 1.25-1.25 1.25zm20.309 7.344c.515 0 .937-.422.937-.938C41 34.973 39.527 33.5 37.72 33.5h-.938c-.676 0-1.304.207-1.828.559.524.394.984.867 1.344 1.414.152-.055.312-.098.48-.098h.938c.773 0 1.406.633 1.406 1.406 0 .516.422.938.938.938zm-23.122 0c.516 0 .938-.422.938-.938 0-.773.633-1.406 1.406-1.406h.938c.172 0 .332.043.48.098.363-.547.824-1.02 1.348-1.414-.524-.352-1.152-.559-1.828-.559h-.938C17.473 33.5 16 34.973 16 36.781c0 .516.422.938.937.938zm17.18 4.531c1.035 0 1.875-.84 1.875-1.875v-1.75c.008-.93-.273-1.793-.758-2.512-1.074-1.593-3.152-2.187-4.992-1.629-.555.168-1.137.262-1.746.262-.61 0-1.191-.094-1.746-.262-1.84-.558-3.918.032-4.992 1.63-.485.718-.766 1.581-.766 2.511v1.75c0 1.035.84 1.875 1.875 1.875h11.25zm.008-1.875h-11.25v-1.75c0-1.422 1.14-2.586 2.555-2.625.996.414 2.027.625 3.07.625 1.043 0 2.074-.21 3.07-.625 1.414.04 2.555 1.2 2.555 2.625v1.75zM61.052 41.22c.968 0 1.826-.077 2.574-.231.748-.154 1.415-.356 2.002-.605v-6.908h-4.95V35.5h2.398v3.432c-.484.19-1.159.286-2.024.286-1.379 0-2.438-.44-3.179-1.32-.74-.88-1.111-2.149-1.111-3.806 0-.939.121-1.734.363-2.387s.572-1.188.99-1.606c.418-.418.902-.722 1.452-.913.55-.19 1.133-.286 1.749-.286.557 0 1.107.055 1.65.165.543.11 1.07.29 1.584.539l.572-1.892c-.543-.264-1.148-.462-1.815-.594-.667-.132-1.419-.198-2.255-.198-1.012 0-1.954.154-2.827.462-.873.308-1.628.766-2.266 1.375-.638.609-1.14 1.36-1.507 2.255-.367.895-.55 1.921-.55 3.08s.183 2.182.55 3.069c.367.887.873 1.632 1.518 2.233.645.601 1.404 1.056 2.277 1.364.873.308 1.808.462 2.805.462zm9.68-.22v-5.302c0-1.115.257-1.929.77-2.442.513-.513 1.144-.77 1.892-.77.337 0 .623.033.858.099s.433.143.594.231l.44-2.112c-.176-.088-.396-.169-.66-.242-.264-.073-.572-.11-.924-.11-.807 0-1.481.209-2.024.627-.543.418-.939.928-1.188 1.529l-.33-1.958h-2.002V41h2.574zm10.538.22c.748 0 1.445-.125 2.09-.374.645-.25 1.21-.609 1.694-1.078.484-.47.862-1.049 1.133-1.738.271-.69.407-1.467.407-2.332 0-.88-.132-1.65-.396-2.31-.264-.66-.63-1.217-1.1-1.672-.47-.455-1.023-.796-1.661-1.023-.638-.227-1.331-.341-2.079-.341-.748 0-1.445.125-2.09.374-.645.25-1.21.609-1.694 1.078-.484.47-.862 1.052-1.133 1.749-.271.697-.407 1.485-.407 2.365 0 .85.132 1.606.396 2.266.264.66.63 1.214 1.1 1.661.47.447 1.023.788 1.661 1.023.638.235 1.331.352 2.079.352zm.066-1.936c-.337 0-.664-.066-.979-.198-.315-.132-.594-.341-.836-.627s-.436-.645-.583-1.078c-.147-.433-.22-.957-.22-1.573 0-.675.073-1.24.22-1.694.147-.455.337-.818.572-1.089.235-.271.506-.462.814-.572.308-.11.63-.165.968-.165.337 0 .664.066.979.198.315.132.594.337.836.616.242.279.436.642.583 1.089.147.447.22.986.22 1.617 0 .66-.073 1.214-.22 1.661-.147.447-.337.803-.572 1.067-.235.264-.51.455-.825.572-.315.117-.634.176-.957.176zm11.066 1.936c.836 0 1.533-.15 2.09-.451.557-.3 1.005-.627 1.342-.979h.088L96.23 41h1.958V30.55h-2.596v7.502c-.293.337-.642.62-1.045.847-.403.227-.876.341-1.419.341-.513 0-.935-.15-1.265-.451-.33-.3-.495-.81-.495-1.529v-6.71h-2.596v6.974c0 1.232.33 2.156.99 2.772.66.616 1.54.924 2.64.924zm11.088 4.84v-5.412c.264.176.59.315.979.418.389.103.796.154 1.221.154.69 0 1.35-.117 1.98-.352.63-.235 1.184-.59 1.661-1.067.477-.477.858-1.067 1.144-1.771.286-.704.429-1.525.429-2.464 0-1.643-.4-2.922-1.199-3.839-.8-.917-1.888-1.375-3.267-1.375-.675 0-1.276.128-1.804.385s-.997.583-1.408.979l-.308-1.232h-2.002V46.06h2.574zm1.87-6.776c-.352 0-.69-.048-1.012-.143-.323-.095-.609-.246-.858-.451v-5.192c.205-.25.506-.502.902-.759s.858-.385 1.386-.385c.821 0 1.434.304 1.837.913s.605 1.397.605 2.365c0 .675-.084 1.243-.253 1.705-.169.462-.389.836-.66 1.122-.271.286-.576.495-.913.627-.337.132-.682.198-1.034.198zm10.648 1.936c1.32 0 2.361-.297 3.124-.891.763-.594 1.144-1.397 1.144-2.409 0-.792-.238-1.43-.715-1.914s-1.184-.865-2.123-1.144l-.66-.198c-.704-.205-1.173-.407-1.408-.605-.235-.198-.352-.436-.352-.715 0-.337.143-.601.429-.792.286-.19.7-.286 1.243-.286.821 0 1.665.205 2.53.616l.55-1.87c-.484-.22-1.008-.385-1.573-.495-.565-.11-1.148-.165-1.749-.165-.601 0-1.148.077-1.639.231-.491.154-.91.37-1.254.649-.345.279-.612.612-.803 1.001-.19.389-.286.81-.286 1.265 0 .777.216 1.404.649 1.881.433.477 1.104.862 2.013 1.155l.682.22c.69.205 1.177.396 1.463.572.286.176.429.44.429.792 0 .777-.609 1.166-1.826 1.166-.513 0-1.008-.066-1.485-.198-.477-.132-.928-.3-1.353-.506l-.572 1.936c.939.47 2.12.704 3.542.704z"/>
        <g fill="#FFF">
            <path fill-rule="nonzero" d="M4.392 16.132c.504 0 .932-.044 1.284-.132.352-.088.624-.188.816-.3l-.336-1.2c-.184.112-.404.2-.66.264s-.568.096-.936.096c-.328 0-.634-.054-.918-.162-.284-.108-.532-.27-.744-.486-.212-.216-.378-.49-.498-.822-.12-.332-.18-.726-.18-1.182 0-.472.062-.874.186-1.206.124-.332.294-.604.51-.816.216-.212.468-.366.756-.462.288-.096.596-.144.924-.144.312 0 .594.038.846.114.252.076.482.17.69.282l.372-1.212c-.208-.112-.478-.216-.81-.312-.332-.096-.754-.144-1.266-.144-.6 0-1.144.092-1.632.276-.488.184-.902.446-1.242.786-.34.34-.604.75-.792 1.23-.188.48-.282 1.016-.282 1.608 0 .608.096 1.154.288 1.638.192.484.462.896.81 1.236.348.34.762.6 1.242.78.48.18 1.004.27 1.572.27zM8.872 16v-4.068c.175-.168.373-.302.593-.402.22-.1.434-.15.642-.15.304 0 .536.084.696.252.16.168.24.448.24.84V16h1.596v-3.804c0-.296-.04-.57-.12-.822-.08-.252-.202-.468-.366-.648-.164-.18-.372-.32-.624-.42-.252-.1-.546-.15-.882-.15-.352 0-.678.06-.978.18-.3.12-.566.272-.798.456v-3.36H7.275V16h1.596zm6.399.132c.376 0 .706-.064.99-.192.284-.128.518-.304.702-.528h.048l.144.588h1.236v-3.72c0-.376-.054-.698-.162-.966-.108-.268-.264-.488-.468-.66-.204-.172-.448-.298-.732-.378-.284-.08-.598-.12-.942-.12-.432 0-.84.054-1.224.162-.384.108-.748.262-1.092.462l.552 1.056c.296-.16.566-.276.81-.348.244-.072.482-.108.714-.108.296 0 .526.062.69.186.164.124.246.318.246.582v.348h-.72c-.384 0-.742.036-1.074.108-.332.072-.622.184-.87.336-.248.152-.442.346-.582.582-.14.236-.21.518-.21.846 0 .248.042.48.126.696.084.216.21.402.378.558.168.156.372.28.612.372.24.092.516.138.828.138zm.504-1.14c-.208 0-.394-.05-.558-.15-.164-.1-.246-.286-.246-.558 0-.208.096-.386.288-.534.192-.148.532-.23 1.02-.246l.516-.012v.9c-.096.16-.238.3-.426.42s-.386.18-.594.18zM21.682 16c.304 0 .592-.032.864-.096s.476-.128.612-.192l-.24-1.116c-.104.056-.24.1-.408.132-.168.032-.332.048-.492.048-.208 0-.374-.05-.498-.15-.124-.1-.186-.286-.186-.558v-2.64h1.524v-1.152h-1.524V8.512H19.75v1.764h-.888v1.152h.888v2.916c0 .552.148.966.444 1.242.296.276.792.414 1.488.414zm5.84 0v-3.972c.183-.2.39-.358.617-.474.228-.116.446-.174.654-.174.28 0 .492.086.636.258.144.172.216.406.216.702V16h1.596v-3.828c0-.656-.168-1.156-.504-1.5-.336-.344-.82-.516-1.452-.516-.384 0-.734.074-1.05.222-.316.148-.606.358-.87.63l-.192-.732h-1.248V16h1.596zm7.347.132c.416 0 .804-.07 1.164-.21.36-.14.674-.34.942-.6.268-.26.478-.578.63-.954.152-.376.228-.8.228-1.272 0-.48-.074-.904-.222-1.272-.148-.368-.352-.674-.612-.918s-.568-.43-.924-.558c-.356-.128-.742-.192-1.158-.192-.416 0-.804.068-1.164.204-.36.136-.674.334-.942.594-.268.26-.478.58-.63.96-.152.38-.228.814-.228 1.302 0 .464.074.878.222 1.242.148.364.352.67.612.918s.568.436.924.564c.356.128.742.192 1.158.192zm.036-1.176c-.168 0-.33-.036-.486-.108-.156-.072-.296-.18-.42-.324-.124-.144-.222-.33-.294-.558-.072-.228-.108-.498-.108-.81 0-.352.036-.644.108-.876.072-.232.168-.418.288-.558.12-.14.256-.24.408-.3.152-.06.312-.09.48-.09.168 0 .332.034.492.102.16.068.3.174.42.318.12.144.216.332.288.564.072.232.108.512.108.84 0 .336-.036.618-.108.846-.072.228-.168.414-.288.558-.12.144-.256.246-.408.306-.152.06-.312.09-.48.09zM41.328 16l.744-3.096.264-1.38.252 1.38.744 3.096h1.86l1.584-5.724h-1.62l-.708 3.036-.252 1.5h-.048l-.252-1.5-.72-3.036h-1.68l-.708 3.036-.252 1.5h-.048l-.216-1.5-.732-3.036h-1.668L39.468 16h1.86z" transform="translate(77 133)"/>
            <path d="M55.812 9.65l3.7 2.96c.216.172.25.487.078.702-.023.03-.05.055-.078.078l-3.7 2.96c-.215.173-.53.138-.702-.078-.071-.089-.11-.199-.11-.312v-5.92c0-.276.224-.5.5-.5.114 0 .224.039.312.11z" transform="translate(77 133)"/>
        </g>
        <path fill="#FFF" fill-rule="nonzero" d="M20.83 70.126c.56 0 1.034-.037 1.421-.112.387-.075.744-.191 1.071-.35l-.294-1.036c-.299.14-.6.247-.903.322-.303.075-.688.112-1.155.112-.401 0-.78-.063-1.134-.189-.355-.126-.665-.324-.931-.595-.266-.27-.478-.625-.637-1.064-.159-.439-.238-.975-.238-1.61 0-.625.082-1.16.245-1.603.163-.443.383-.805.658-1.085.275-.28.597-.483.966-.609s.758-.189 1.169-.189c.205 0 .39.01.553.028.163.019.322.047.476.084.154.037.308.086.462.147.154.06.32.128.497.203l.308-1.008c-.317-.159-.663-.285-1.036-.378-.373-.093-.85-.14-1.428-.14-.616 0-1.185.1-1.708.301-.523.2-.973.495-1.351.882s-.674.863-.889 1.428c-.215.565-.322 1.206-.322 1.925 0 .737.11 1.388.329 1.953.22.565.518 1.038.896 1.421s.824.672 1.337.868c.513.196 1.06.294 1.638.294zm6.734 0c.457 0 .882-.077 1.274-.231.392-.154.735-.38 1.029-.679.294-.299.525-.665.693-1.099.168-.434.252-.926.252-1.477 0-.541-.082-1.02-.245-1.435-.163-.415-.387-.763-.672-1.043-.285-.28-.62-.49-1.008-.63-.387-.14-.81-.21-1.267-.21-.457 0-.882.077-1.274.231-.392.154-.735.378-1.029.672-.294.294-.525.656-.693 1.085-.168.43-.252.92-.252 1.47 0 .541.082 1.02.245 1.435.163.415.387.765.672 1.05.285.285.62.5 1.008.644.387.145.81.217 1.267.217zm.042-.952c-.243 0-.48-.047-.714-.14-.233-.093-.441-.238-.623-.434s-.329-.45-.441-.763c-.112-.313-.168-.688-.168-1.127 0-.476.054-.87.161-1.183.107-.313.25-.562.427-.749.177-.187.383-.317.616-.392.233-.075.471-.112.714-.112s.48.044.714.133c.233.089.441.231.623.427.182.196.329.448.441.756.112.308.168.681.168 1.12 0 .476-.054.87-.161 1.183-.107.313-.25.565-.427.756-.177.191-.383.327-.616.406-.233.08-.471.119-.714.119zm5.936.826v-4.774c.541-.597 1.13-.896 1.764-.896.43 0 .737.117.924.35.187.233.28.57.28 1.008V70h1.232v-4.676c0-.047-.005-.093-.014-.14.55-.57 1.143-.854 1.778-.854.43 0 .737.117.924.35.187.233.28.57.28 1.008V70h1.232v-4.536c0-.672-.17-1.197-.511-1.575-.34-.378-.847-.567-1.519-.567-.476 0-.91.093-1.302.28-.392.187-.751.453-1.078.798-.15-.336-.373-.6-.672-.791-.299-.191-.681-.287-1.148-.287-.495 0-.92.091-1.274.273-.355.182-.686.427-.994.735l-.182-.91h-.952V70h1.232zm11.536 0v-4.774c.541-.597 1.13-.896 1.764-.896.43 0 .737.117.924.35.187.233.28.57.28 1.008V70h1.232v-4.676c0-.047-.005-.093-.014-.14.55-.57 1.143-.854 1.778-.854.43 0 .737.117.924.35.187.233.28.57.28 1.008V70h1.232v-4.536c0-.672-.17-1.197-.511-1.575-.34-.378-.847-.567-1.519-.567-.476 0-.91.093-1.302.28-.392.187-.751.453-1.078.798-.15-.336-.373-.6-.672-.791-.299-.191-.681-.287-1.148-.287-.495 0-.92.091-1.274.273-.355.182-.686.427-.994.735l-.182-.91h-.952V70h1.232zm12.6.126c.476 0 .894-.091 1.253-.273.36-.182.66-.408.903-.679h.056l.168.826h.966v-6.58h-1.232v4.83c-.27.28-.555.5-.854.658-.299.159-.635.238-1.008.238-.187 0-.36-.026-.518-.077-.159-.051-.296-.135-.413-.252-.117-.117-.21-.273-.28-.469-.07-.196-.105-.434-.105-.714V63.42h-1.232v4.368c0 .784.212 1.37.637 1.757.425.387.978.581 1.659.581zM64.16 70v-4.788c.57-.588 1.18-.882 1.834-.882.43 0 .749.119.959.357.21.238.315.558.315.959V70H68.5v-4.536c0-.672-.191-1.197-.574-1.575-.383-.378-.91-.567-1.582-.567-.467 0-.88.086-1.239.259-.36.173-.702.422-1.029.749l-.182-.91h-.966V70h1.232zm7.056-8.274c.205 0 .387-.072.546-.217.159-.145.238-.324.238-.539 0-.215-.08-.397-.238-.546-.159-.15-.34-.224-.546-.224-.215 0-.399.075-.553.224-.154.15-.231.331-.231.546 0 .215.077.394.231.539.154.145.338.217.553.217zM71.832 70v-6.58H70.6V70h1.232zm5.04.126c.7 0 1.302-.126 1.806-.378l-.266-.924c-.215.103-.434.187-.658.252-.224.065-.485.098-.784.098-.28 0-.555-.042-.826-.126-.27-.084-.513-.222-.728-.413-.215-.191-.387-.446-.518-.763-.13-.317-.196-.714-.196-1.19 0-.765.21-1.36.63-1.785.42-.425.97-.637 1.652-.637.495 0 .957.121 1.386.364l.28-.938c-.355-.159-.67-.259-.945-.301-.275-.042-.558-.063-.847-.063-.504 0-.966.08-1.386.238-.42.159-.78.385-1.078.679-.299.294-.532.651-.7 1.071-.168.42-.252.891-.252 1.414 0 .57.089 1.066.266 1.491.177.425.422.78.735 1.064.313.285.677.497 1.092.637.415.14.861.21 1.337.21zm4.9 0c.42 0 .803-.065 1.148-.196.345-.13.663-.35.952-.658h.028l.154.728h1.022v-4.284c0-.457-.06-.838-.182-1.141-.121-.303-.292-.548-.511-.735-.22-.187-.48-.32-.784-.399-.303-.08-.637-.119-1.001-.119-.243 0-.467.014-.672.042-.205.028-.406.07-.602.126-.196.056-.392.128-.588.217-.196.089-.406.189-.63.301l.476.896c.401-.224.758-.376 1.071-.455.313-.08.59-.119.833-.119.41 0 .737.086.98.259.243.173.364.497.364.973v.56h-1.26c-.896 0-1.617.18-2.163.539-.546.36-.819.884-.819 1.575 0 .29.054.55.161.784.107.233.259.432.455.595.196.163.427.29.693.378.266.089.558.133.875.133zm.294-.91c-.159 0-.31-.016-.455-.049-.145-.033-.27-.086-.378-.161-.107-.075-.194-.18-.259-.315s-.098-.301-.098-.497c0-.327.147-.604.441-.833.294-.229.791-.352 1.491-.371l1.036-.028v1.344c-.243.317-.523.548-.84.693-.317.145-.63.217-.938.217zm7 .784c.317 0 .62-.028.91-.084.29-.056.527-.121.714-.196l-.196-.938c-.168.056-.364.105-.588.147-.224.042-.43.063-.616.063-.261 0-.474-.056-.637-.168-.163-.112-.245-.331-.245-.658v-3.822h1.932v-.924h-1.932v-2.1H87.19v2.1h-.98v.924h.98v3.99c0 .541.15.954.448 1.239.299.285.775.427 1.428.427zm5.964.126c.42 0 .814-.037 1.183-.112.369-.075.688-.173.959-.294l-.252-.91c-.327.13-.628.224-.903.28-.275.056-.59.084-.945.084-.681 0-1.22-.196-1.617-.588-.397-.392-.595-.952-.595-1.68v-.056h4.718v-.644c0-.43-.065-.821-.196-1.176-.13-.355-.317-.658-.56-.91-.243-.252-.534-.448-.875-.588-.34-.14-.721-.21-1.141-.21-.495 0-.94.082-1.337.245-.397.163-.735.392-1.015.686-.28.294-.497.651-.651 1.071-.154.42-.231.887-.231 1.4 0 .597.091 1.11.273 1.54.182.43.432.782.749 1.057.317.275.684.478 1.099.609.415.13.861.196 1.337.196zm-2.142-4.13c.075-.532.273-.961.595-1.288.322-.327.74-.49 1.253-.49.28 0 .518.047.714.14.196.093.357.22.483.378.126.159.22.343.28.553.06.21.091.436.091.679l-3.416.028zM104.704 70l1.148-4.032.336-1.624.322 1.624L107.63 70h1.4l2.002-6.58h-1.26l-1.092 4.144-.308 1.47h-.056l-.294-1.47-1.162-4.144h-1.33l-1.134 4.144-.308 1.47h-.056l-.252-1.47-1.12-4.144h-1.316l2.03 6.58h1.33zm8.218-8.274c.205 0 .387-.072.546-.217.159-.145.238-.324.238-.539 0-.215-.08-.397-.238-.546-.159-.15-.34-.224-.546-.224-.215 0-.399.075-.553.224-.154.15-.231.331-.231.546 0 .215.077.394.231.539.154.145.338.217.553.217zm.616 8.274v-6.58h-1.232V70h1.232zm4.2 0c.317 0 .62-.028.91-.084.29-.056.527-.121.714-.196l-.196-.938c-.168.056-.364.105-.588.147-.224.042-.43.063-.616.063-.261 0-.474-.056-.637-.168-.163-.112-.245-.331-.245-.658v-3.822h1.932v-.924h-1.932v-2.1h-1.218v2.1h-.98v.924h.98v3.99c0 .541.15.954.448 1.239.299.285.775.427 1.428.427zm4.158 0v-4.76c.317-.29.637-.513.959-.672.322-.159.642-.238.959-.238.42 0 .733.114.938.343.205.229.308.595.308 1.099V70h1.232v-4.536c0-.308-.044-.593-.133-.854-.089-.261-.22-.488-.392-.679-.173-.191-.394-.34-.665-.448-.27-.107-.588-.161-.952-.161-.448 0-.859.089-1.232.266-.373.177-.714.401-1.022.672v-4.2h-1.232V70h1.232zM17.246 91.402c.588-.205 1.094-.532 1.519-.98.425-.448.777-1.069 1.057-1.862l2.534-7.14h-1.26l-1.274 3.766-.476 1.568h-.028l-.476-1.568-1.4-3.766h-1.316L18.8 88l-.126.378c-.187.56-.45.999-.791 1.316-.34.317-.73.56-1.169.728l.532.98zm8.946-3.276c.457 0 .882-.077 1.274-.231.392-.154.735-.38 1.029-.679.294-.299.525-.665.693-1.099.168-.434.252-.926.252-1.477 0-.541-.082-1.02-.245-1.435-.163-.415-.387-.763-.672-1.043-.285-.28-.62-.49-1.008-.63-.387-.14-.81-.21-1.267-.21-.457 0-.882.077-1.274.231-.392.154-.735.378-1.029.672-.294.294-.525.656-.693 1.085-.168.43-.252.92-.252 1.47 0 .541.082 1.02.245 1.435.163.415.387.765.672 1.05.285.285.62.5 1.008.644.387.145.81.217 1.267.217zm.042-.952c-.243 0-.48-.047-.714-.14-.233-.093-.441-.238-.623-.434s-.329-.45-.441-.763c-.112-.313-.168-.688-.168-1.127 0-.476.054-.87.161-1.183.107-.313.25-.562.427-.749.177-.187.383-.317.616-.392.233-.075.471-.112.714-.112s.48.044.714.133c.233.089.441.231.623.427.182.196.329.448.441.756.112.308.168.681.168 1.12 0 .476-.054.87-.161 1.183-.107.313-.25.565-.427.756-.177.191-.383.327-.616.406-.233.08-.471.119-.714.119zm7 .952c.476 0 .894-.091 1.253-.273.36-.182.66-.408.903-.679h.056l.168.826h.966v-6.58h-1.232v4.83c-.27.28-.555.5-.854.658-.299.159-.635.238-1.008.238-.187 0-.36-.026-.518-.077-.159-.051-.296-.135-.413-.252-.117-.117-.21-.273-.28-.469-.07-.196-.105-.434-.105-.714V81.42h-1.232v4.368c0 .784.212 1.37.637 1.757.425.387.978.581 1.659.581zm6.44-.126v-3.402c0-.355.049-.67.147-.945.098-.275.233-.506.406-.693.173-.187.373-.327.602-.42.229-.093.478-.14.749-.14.187 0 .348.019.483.056.135.037.259.084.371.14l.238-1.078c-.13-.056-.275-.103-.434-.14-.159-.037-.36-.056-.602-.056-.476 0-.896.13-1.26.392-.364.261-.625.602-.784 1.022l-.21-1.316h-.924V88h1.218zm8.624 0v-5.656H50.3v-.924h-2.002v-.756c0-.607.096-1.036.287-1.288.191-.252.511-.378.959-.378.187 0 .364.021.532.063.168.042.345.1.532.175l.252-.854c-.224-.112-.478-.205-.763-.28-.285-.075-.558-.112-.819-.112-.71 0-1.253.196-1.631.588-.378.392-.567.952-.567 1.68v1.162h-.966v.924h.966V88h1.218zm4.34 0v-3.402c0-.355.049-.67.147-.945.098-.275.233-.506.406-.693.173-.187.373-.327.602-.42.229-.093.478-.14.749-.14.187 0 .348.019.483.056.135.037.259.084.371.14l.238-1.078c-.13-.056-.275-.103-.434-.14-.159-.037-.36-.056-.602-.056-.476 0-.896.13-1.26.392-.364.261-.625.602-.784 1.022l-.21-1.316h-.924V88h1.218zm4.83-8.274c.205 0 .387-.072.546-.217.159-.145.238-.324.238-.539 0-.215-.08-.397-.238-.546-.159-.15-.34-.224-.546-.224-.215 0-.399.075-.553.224-.154.15-.231.331-.231.546 0 .215.077.394.231.539.154.145.338.217.553.217zM58.084 88v-6.58h-1.232V88h1.232zm5.068.126c.42 0 .814-.037 1.183-.112.369-.075.688-.173.959-.294l-.252-.91c-.327.13-.628.224-.903.28-.275.056-.59.084-.945.084-.681 0-1.22-.196-1.617-.588-.397-.392-.595-.952-.595-1.68v-.056H65.7v-.644c0-.43-.065-.821-.196-1.176-.13-.355-.317-.658-.56-.91-.243-.252-.534-.448-.875-.588-.34-.14-.721-.21-1.141-.21-.495 0-.94.082-1.337.245-.397.163-.735.392-1.015.686-.28.294-.497.651-.651 1.071-.154.42-.231.887-.231 1.4 0 .597.091 1.11.273 1.54.182.43.432.782.749 1.057.317.275.684.478 1.099.609.415.13.861.196 1.337.196zm-2.142-4.13c.075-.532.273-.961.595-1.288.322-.327.74-.49 1.253-.49.28 0 .518.047.714.14.196.093.357.22.483.378.126.159.22.343.28.553.06.21.091.436.091.679l-3.416.028zM68.388 88v-4.788c.57-.588 1.18-.882 1.834-.882.43 0 .749.119.959.357.21.238.315.558.315.959V88h1.232v-4.536c0-.672-.191-1.197-.574-1.575-.383-.378-.91-.567-1.582-.567-.467 0-.88.086-1.239.259-.36.173-.702.422-1.029.749l-.182-.91h-.966V88h1.232zm8.624.126c.448 0 .819-.068 1.113-.203.294-.135.586-.352.875-.651h.042l.154.728h1.036v-9.94H79v3.906c-.243-.215-.52-.376-.833-.483-.313-.107-.642-.161-.987-.161-.467 0-.882.08-1.246.238-.364.159-.672.387-.924.686-.252.299-.446.658-.581 1.078-.135.42-.203.887-.203 1.4 0 .579.08 1.08.238 1.505.159.425.369.777.63 1.057.261.28.558.49.889.63.331.14.674.21 1.029.21zm.28-.952c-.224 0-.446-.047-.665-.14-.22-.093-.415-.24-.588-.441-.173-.2-.31-.457-.413-.77-.103-.313-.154-.693-.154-1.141 0-.43.056-.798.168-1.106.112-.308.259-.56.441-.756.182-.196.392-.338.63-.427.238-.089.483-.133.735-.133.597 0 1.115.247 1.554.742v3.262c-.439.607-1.008.91-1.708.91zm6.594.952c.793 0 1.412-.182 1.855-.546.443-.364.665-.845.665-1.442 0-.504-.161-.903-.483-1.197-.322-.294-.796-.534-1.421-.721l-.42-.126c-.476-.14-.789-.282-.938-.427-.15-.145-.224-.315-.224-.511 0-.27.107-.488.322-.651.215-.163.546-.245.994-.245.252 0 .504.028.756.084.252.056.532.159.84.308l.28-.938c-.317-.14-.651-.24-1.001-.301-.35-.06-.688-.091-1.015-.091-.345 0-.663.044-.952.133-.29.089-.539.212-.749.371-.21.159-.376.355-.497.588-.121.233-.182.49-.182.77 0 .467.147.847.441 1.141.294.294.744.539 1.351.735l.434.14c.401.121.71.245.924.371.215.126.322.338.322.637 0 .345-.124.593-.371.742-.247.15-.581.224-1.001.224-.327 0-.649-.04-.966-.119-.317-.08-.611-.184-.882-.315l-.294.966c.28.13.614.233 1.001.308.387.075.791.112 1.211.112zm8.792 0c.42 0 .803-.065 1.148-.196.345-.13.663-.35.952-.658h.028l.154.728h1.022v-4.284c0-.457-.06-.838-.182-1.141-.121-.303-.292-.548-.511-.735-.22-.187-.48-.32-.784-.399-.303-.08-.637-.119-1.001-.119-.243 0-.467.014-.672.042-.205.028-.406.07-.602.126-.196.056-.392.128-.588.217-.196.089-.406.189-.63.301l.476.896c.401-.224.758-.376 1.071-.455.313-.08.59-.119.833-.119.41 0 .737.086.98.259.243.173.364.497.364.973v.56h-1.26c-.896 0-1.617.18-2.163.539-.546.36-.819.884-.819 1.575 0 .29.054.55.161.784.107.233.259.432.455.595.196.163.427.29.693.378.266.089.558.133.875.133zm.294-.91c-.159 0-.31-.016-.455-.049-.145-.033-.27-.086-.378-.161-.107-.075-.194-.18-.259-.315s-.098-.301-.098-.497c0-.327.147-.604.441-.833.294-.229.791-.352 1.491-.371l1.036-.028v1.344c-.243.317-.523.548-.84.693-.317.145-.63.217-.938.217zM99.02 88v-4.788c.57-.588 1.18-.882 1.834-.882.43 0 .749.119.959.357.21.238.315.558.315.959V88h1.232v-4.536c0-.672-.191-1.197-.574-1.575-.383-.378-.91-.567-1.582-.567-.467 0-.88.086-1.239.259-.36.173-.702.422-1.029.749l-.182-.91h-.966V88h1.232zm8.624.126c.448 0 .819-.068 1.113-.203.294-.135.586-.352.875-.651h.042l.154.728h1.036v-9.94h-1.232v3.906c-.243-.215-.52-.376-.833-.483-.313-.107-.642-.161-.987-.161-.467 0-.882.08-1.246.238-.364.159-.672.387-.924.686-.252.299-.446.658-.581 1.078-.135.42-.203.887-.203 1.4 0 .579.08 1.08.238 1.505.159.425.369.777.63 1.057.261.28.558.49.889.63.331.14.674.21 1.029.21zm.28-.952c-.224 0-.446-.047-.665-.14-.22-.093-.415-.24-.588-.441-.173-.2-.31-.457-.413-.77-.103-.313-.154-.693-.154-1.141 0-.43.056-.798.168-1.106.112-.308.259-.56.441-.756.182-.196.392-.338.63-.427.238-.089.483-.133.735-.133.597 0 1.115.247 1.554.742v3.262c-.439.607-1.008.91-1.708.91zM19.136 106c.317 0 .62-.028.91-.084.29-.056.527-.121.714-.196l-.196-.938c-.168.056-.364.105-.588.147-.224.042-.43.063-.616.063-.261 0-.474-.056-.637-.168-.163-.112-.245-.331-.245-.658v-3.822h1.932v-.924h-1.932v-2.1H17.26v2.1h-.98v.924h.98v3.99c0 .541.15.954.448 1.239.299.285.775.427 1.428.427zm5.964.126c.42 0 .814-.037 1.183-.112.369-.075.688-.173.959-.294l-.252-.91c-.327.13-.628.224-.903.28-.275.056-.59.084-.945.084-.681 0-1.22-.196-1.617-.588-.397-.392-.595-.952-.595-1.68v-.056h4.718v-.644c0-.43-.065-.821-.196-1.176-.13-.355-.317-.658-.56-.91-.243-.252-.534-.448-.875-.588-.34-.14-.721-.21-1.141-.21-.495 0-.94.082-1.337.245-.397.163-.735.392-1.015.686-.28.294-.497.651-.651 1.071-.154.42-.231.887-.231 1.4 0 .597.091 1.11.273 1.54.182.43.432.782.749 1.057.317.275.684.478 1.099.609.415.13.861.196 1.337.196zm-2.142-4.13c.075-.532.273-.961.595-1.288.322-.327.74-.49 1.253-.49.28 0 .518.047.714.14.196.093.357.22.483.378.126.159.22.343.28.553.06.21.091.436.091.679l-3.416.028zm7.882 4.13c.42 0 .803-.065 1.148-.196.345-.13.663-.35.952-.658h.028l.154.728h1.022v-4.284c0-.457-.06-.838-.182-1.141-.121-.303-.292-.548-.511-.735-.22-.187-.48-.32-.784-.399-.303-.08-.637-.119-1.001-.119-.243 0-.467.014-.672.042-.205.028-.406.07-.602.126-.196.056-.392.128-.588.217-.196.089-.406.189-.63.301l.476.896c.401-.224.758-.376 1.071-.455.313-.08.59-.119.833-.119.41 0 .737.086.98.259.243.173.364.497.364.973v.56h-1.26c-.896 0-1.617.18-2.163.539-.546.36-.819.884-.819 1.575 0 .29.054.55.161.784.107.233.259.432.455.595.196.163.427.29.693.378.266.089.558.133.875.133zm.294-.91c-.159 0-.31-.016-.455-.049-.145-.033-.27-.086-.378-.161-.107-.075-.194-.18-.259-.315s-.098-.301-.098-.497c0-.327.147-.604.441-.833.294-.229.791-.352 1.491-.371l1.036-.028v1.344c-.243.317-.523.548-.84.693-.317.145-.63.217-.938.217zm7.84.91c.7 0 1.302-.126 1.806-.378l-.266-.924c-.215.103-.434.187-.658.252-.224.065-.485.098-.784.098-.28 0-.555-.042-.826-.126-.27-.084-.513-.222-.728-.413-.215-.191-.387-.446-.518-.763-.13-.317-.196-.714-.196-1.19 0-.765.21-1.36.63-1.785.42-.425.97-.637 1.652-.637.495 0 .957.121 1.386.364l.28-.938c-.355-.159-.67-.259-.945-.301-.275-.042-.558-.063-.847-.063-.504 0-.966.08-1.386.238-.42.159-.78.385-1.078.679-.299.294-.532.651-.7 1.071-.168.42-.252.891-.252 1.414 0 .57.089 1.066.266 1.491.177.425.422.78.735 1.064.313.285.677.497 1.092.637.415.14.861.21 1.337.21zm4.41-.126v-4.76c.317-.29.637-.513.959-.672.322-.159.642-.238.959-.238.42 0 .733.114.938.343.205.229.308.595.308 1.099V106h1.232v-4.536c0-.308-.044-.593-.133-.854-.089-.261-.22-.488-.392-.679-.173-.191-.394-.34-.665-.448-.27-.107-.588-.161-.952-.161-.448 0-.859.089-1.232.266-.373.177-.714.401-1.022.672v-4.2h-1.232V106h1.232zm9.366.126c.42 0 .814-.037 1.183-.112.369-.075.688-.173.959-.294l-.252-.91c-.327.13-.628.224-.903.28-.275.056-.59.084-.945.084-.681 0-1.22-.196-1.617-.588-.397-.392-.595-.952-.595-1.68v-.056h4.718v-.644c0-.43-.065-.821-.196-1.176-.13-.355-.317-.658-.56-.91-.243-.252-.534-.448-.875-.588-.34-.14-.721-.21-1.141-.21-.495 0-.94.082-1.337.245-.397.163-.735.392-1.015.686-.28.294-.497.651-.651 1.071-.154.42-.231.887-.231 1.4 0 .597.091 1.11.273 1.54.182.43.432.782.749 1.057.317.275.684.478 1.099.609.415.13.861.196 1.337.196zm-2.142-4.13c.075-.532.273-.961.595-1.288.322-.327.74-.49 1.253-.49.28 0 .518.047.714.14.196.093.357.22.483.378.126.159.22.343.28.553.06.21.091.436.091.679l-3.416.028zM57.944 106v-3.402c0-.355.049-.67.147-.945.098-.275.233-.506.406-.693.173-.187.373-.327.602-.42.229-.093.478-.14.749-.14.187 0 .348.019.483.056.135.037.259.084.371.14l.238-1.078c-.13-.056-.275-.103-.434-.14-.159-.037-.36-.056-.602-.056-.476 0-.896.13-1.26.392-.364.261-.625.602-.784 1.022l-.21-1.316h-.924V106h1.218zm9.31 0c.317 0 .62-.028.91-.084.29-.056.527-.121.714-.196l-.196-.938c-.168.056-.364.105-.588.147-.224.042-.43.063-.616.063-.261 0-.474-.056-.637-.168-.163-.112-.245-.331-.245-.658v-3.822h1.932v-.924h-1.932v-2.1h-1.218v2.1h-.98v.924h.98v3.99c0 .541.15.954.448 1.239.299.285.775.427 1.428.427zm5.698.126c.457 0 .882-.077 1.274-.231.392-.154.735-.38 1.029-.679.294-.299.525-.665.693-1.099.168-.434.252-.926.252-1.477 0-.541-.082-1.02-.245-1.435-.163-.415-.387-.763-.672-1.043-.285-.28-.62-.49-1.008-.63-.387-.14-.81-.21-1.267-.21-.457 0-.882.077-1.274.231-.392.154-.735.378-1.029.672-.294.294-.525.656-.693 1.085-.168.43-.252.92-.252 1.47 0 .541.082 1.02.245 1.435.163.415.387.765.672 1.05.285.285.62.5 1.008.644.387.145.81.217 1.267.217zm.042-.952c-.243 0-.48-.047-.714-.14-.233-.093-.441-.238-.623-.434s-.329-.45-.441-.763c-.112-.313-.168-.688-.168-1.127 0-.476.054-.87.161-1.183.107-.313.25-.562.427-.749.177-.187.383-.317.616-.392.233-.075.471-.112.714-.112s.48.044.714.133c.233.089.441.231.623.427.182.196.329.448.441.756.112.308.168.681.168 1.12 0 .476-.054.87-.161 1.183-.107.313-.25.565-.427.756-.177.191-.383.327-.616.406-.233.08-.471.119-.714.119zm9.562.952c.793 0 1.412-.182 1.855-.546.443-.364.665-.845.665-1.442 0-.504-.161-.903-.483-1.197-.322-.294-.796-.534-1.421-.721l-.42-.126c-.476-.14-.789-.282-.938-.427-.15-.145-.224-.315-.224-.511 0-.27.107-.488.322-.651.215-.163.546-.245.994-.245.252 0 .504.028.756.084.252.056.532.159.84.308l.28-.938c-.317-.14-.651-.24-1.001-.301-.35-.06-.688-.091-1.015-.091-.345 0-.663.044-.952.133-.29.089-.539.212-.749.371-.21.159-.376.355-.497.588-.121.233-.182.49-.182.77 0 .467.147.847.441 1.141.294.294.744.539 1.351.735l.434.14c.401.121.71.245.924.371.215.126.322.338.322.637 0 .345-.124.593-.371.742-.247.15-.581.224-1.001.224-.327 0-.649-.04-.966-.119-.317-.08-.611-.184-.882-.315l-.294.966c.28.13.614.233 1.001.308.387.075.791.112 1.211.112zm6.734 0c.457 0 .882-.077 1.274-.231.392-.154.735-.38 1.029-.679.294-.299.525-.665.693-1.099.168-.434.252-.926.252-1.477 0-.541-.082-1.02-.245-1.435-.163-.415-.387-.763-.672-1.043-.285-.28-.62-.49-1.008-.63-.387-.14-.81-.21-1.267-.21-.457 0-.882.077-1.274.231-.392.154-.735.378-1.029.672-.294.294-.525.656-.693 1.085-.168.43-.252.92-.252 1.47 0 .541.082 1.02.245 1.435.163.415.387.765.672 1.05.285.285.62.5 1.008.644.387.145.81.217 1.267.217zm.042-.952c-.243 0-.48-.047-.714-.14-.233-.093-.441-.238-.623-.434s-.329-.45-.441-.763c-.112-.313-.168-.688-.168-1.127 0-.476.054-.87.161-1.183.107-.313.25-.562.427-.749.177-.187.383-.317.616-.392.233-.075.471-.112.714-.112s.48.044.714.133c.233.089.441.231.623.427.182.196.329.448.441.756.112.308.168.681.168 1.12 0 .476-.054.87-.161 1.183-.107.313-.25.565-.427.756-.177.191-.383.327-.616.406-.233.08-.471.119-.714.119zm5.964.826v-9.94h-1.204V106h1.204zm4.872 0l2.45-6.58h-1.316l-1.456 4.536-.238 1.022h-.056l-.252-1.036-1.484-4.522h-1.33l2.478 6.58h1.204zm6.622.126c.42 0 .814-.037 1.183-.112.369-.075.688-.173.959-.294l-.252-.91c-.327.13-.628.224-.903.28-.275.056-.59.084-.945.084-.681 0-1.22-.196-1.617-.588-.397-.392-.595-.952-.595-1.68v-.056h4.718v-.644c0-.43-.065-.821-.196-1.176-.13-.355-.317-.658-.56-.91-.243-.252-.534-.448-.875-.588-.34-.14-.721-.21-1.141-.21-.495 0-.94.082-1.337.245-.397.163-.735.392-1.015.686-.28.294-.497.651-.651 1.071-.154.42-.231.887-.231 1.4 0 .597.091 1.11.273 1.54.182.43.432.782.749 1.057.317.275.684.478 1.099.609.415.13.861.196 1.337.196zm-2.142-4.13c.075-.532.273-.961.595-1.288.322-.327.74-.49 1.253-.49.28 0 .518.047.714.14.196.093.357.22.483.378.126.159.22.343.28.553.06.21.091.436.091.679l-3.416.028zm-85.316 22.13c.448 0 .819-.068 1.113-.203.294-.135.586-.352.875-.651h.042l.154.728h1.036v-9.94H21.32v3.906c-.243-.215-.52-.376-.833-.483-.313-.107-.642-.161-.987-.161-.467 0-.882.08-1.246.238-.364.159-.672.387-.924.686-.252.299-.446.658-.581 1.078-.135.42-.203.887-.203 1.4 0 .579.08 1.08.238 1.505.159.425.369.777.63 1.057.261.28.558.49.889.63.331.14.674.21 1.029.21zm.28-.952c-.224 0-.446-.047-.665-.14-.22-.093-.415-.24-.588-.441-.173-.2-.31-.457-.413-.77-.103-.313-.154-.693-.154-1.141 0-.43.056-.798.168-1.106.112-.308.259-.56.441-.756.182-.196.392-.338.63-.427.238-.089.483-.133.735-.133.597 0 1.115.247 1.554.742v3.262c-.439.607-1.008.91-1.708.91zm7.63.952c.457 0 .882-.077 1.274-.231.392-.154.735-.38 1.029-.679.294-.299.525-.665.693-1.099.168-.434.252-.926.252-1.477 0-.541-.082-1.02-.245-1.435-.163-.415-.387-.763-.672-1.043-.285-.28-.62-.49-1.008-.63-.387-.14-.81-.21-1.267-.21-.457 0-.882.077-1.274.231-.392.154-.735.378-1.029.672-.294.294-.525.656-.693 1.085-.168.43-.252.92-.252 1.47 0 .541.082 1.02.245 1.435.163.415.387.765.672 1.05.285.285.62.5 1.008.644.387.145.81.217 1.267.217zm.042-.952c-.243 0-.48-.047-.714-.14-.233-.093-.441-.238-.623-.434s-.329-.45-.441-.763c-.112-.313-.168-.688-.168-1.127 0-.476.054-.87.161-1.183.107-.313.25-.562.427-.749.177-.187.383-.317.616-.392.233-.075.471-.112.714-.112s.48.044.714.133c.233.089.441.231.623.427.182.196.329.448.441.756.112.308.168.681.168 1.12 0 .476-.054.87-.161 1.183-.107.313-.25.565-.427.756-.177.191-.383.327-.616.406-.233.08-.471.119-.714.119zm7 .952c.476 0 .894-.091 1.253-.273.36-.182.66-.408.903-.679h.056l.168.826h.966v-6.58h-1.232v4.83c-.27.28-.555.5-.854.658-.299.159-.635.238-1.008.238-.187 0-.36-.026-.518-.077-.159-.051-.296-.135-.413-.252-.117-.117-.21-.273-.28-.469-.07-.196-.105-.434-.105-.714v-4.214h-1.232v4.368c0 .784.212 1.37.637 1.757.425.387.978.581 1.659.581zm8.33 0c.41 0 .798-.08 1.162-.238.364-.159.681-.387.952-.686.27-.299.485-.658.644-1.078.159-.42.238-.891.238-1.414 0-1.064-.245-1.895-.735-2.492s-1.155-.896-1.995-.896c-.392 0-.768.075-1.127.224-.36.15-.688.383-.987.7v-4.186h-1.218V124h.882l.126-.616h.028c.28.252.581.439.903.56.322.121.698.182 1.127.182zm-.322-.952c-.327 0-.614-.068-.861-.203s-.469-.315-.665-.539v-3.192c.261-.29.537-.513.826-.672.29-.159.611-.238.966-.238.56 0 .994.217 1.302.651.308.434.462 1.015.462 1.743 0 .43-.056.798-.168 1.106-.112.308-.261.562-.448.763-.187.2-.404.348-.651.441-.247.093-.502.14-.763.14zm6.986.826c.317 0 .62-.028.91-.084.29-.056.527-.121.714-.196l-.196-.938c-.168.056-.364.105-.588.147-.224.042-.43.063-.616.063-.261 0-.474-.056-.637-.168-.163-.112-.245-.331-.245-.658v-3.822h1.932v-.924H48.62v-2.1h-1.218v2.1h-.98v.924h.98v3.99c0 .541.15.954.448 1.239.299.285.775.427 1.428.427zm4.662.126c.793 0 1.412-.182 1.855-.546.443-.364.665-.845.665-1.442 0-.504-.161-.903-.483-1.197-.322-.294-.796-.534-1.421-.721l-.42-.126c-.476-.14-.789-.282-.938-.427-.15-.145-.224-.315-.224-.511 0-.27.107-.488.322-.651.215-.163.546-.245.994-.245.252 0 .504.028.756.084.252.056.532.159.84.308l.28-.938c-.317-.14-.651-.24-1.001-.301-.35-.06-.688-.091-1.015-.091-.345 0-.663.044-.952.133-.29.089-.539.212-.749.371-.21.159-.376.355-.497.588-.121.233-.182.49-.182.77 0 .467.147.847.441 1.141.294.294.744.539 1.351.735l.434.14c.401.121.71.245.924.371.215.126.322.338.322.637 0 .345-.124.593-.371.742-.247.15-.581.224-1.001.224-.327 0-.649-.04-.966-.119-.317-.08-.611-.184-.882-.315l-.294.966c.28.13.614.233 1.001.308.387.075.791.112 1.211.112z" opacity=".9"/>
    </g>
</svg>
