<svg xmlns="http://www.w3.org/2000/svg" xmlns:xlink="http://www.w3.org/1999/xlink" width="344" height="148" viewBox="0 0 344 148">
    <defs>
        <linearGradient id="878ng70rjc" x1="50%" x2="50%" y1="0%" y2="100%">
            <stop offset="0%" stop-color="#5093F1"/>
            <stop offset="100%" stop-color="#504AEB"/>
        </linearGradient>
        <linearGradient id="58nnj04vmf" x1="50%" x2="50%" y1="0%" y2="100%">
            <stop offset="0%" stop-color="#5093F1"/>
            <stop offset="100%" stop-color="#B5B3FF"/>
        </linearGradient>
        <linearGradient id="juoo4td05i" x1="50%" x2="50%" y1="0%" y2="100%">
            <stop offset="0%" stop-color="#FFF"/>
            <stop offset="100%" stop-color="#E7DFFF"/>
        </linearGradient>
        <filter id="yzyu2d3iwa" width="108.5%" height="121.2%" x="-4.3%" y="-7.6%" filterUnits="objectBoundingBox">
            <feOffset dy="4" in="SourceAlpha" result="shadowOffsetOuter1"/>
            <feGaussianBlur in="shadowOffsetOuter1" result="shadowBlurOuter1" stdDeviation="4"/>
            <feComposite in="shadowBlurOuter1" in2="SourceAlpha" operator="out" result="shadowBlurOuter1"/>
            <feColorMatrix in="shadowBlurOuter1" values="0 0 0 0 0 0 0 0 0 0 0 0 0 0 0 0 0 0 0.08 0"/>
        </filter>
        <filter id="wiytx7mgxd" width="127.5%" height="156%" x="-13.7%" y="-20%" filterUnits="objectBoundingBox">
            <feOffset dy="4" in="SourceAlpha" result="shadowOffsetOuter1"/>
            <feGaussianBlur in="shadowOffsetOuter1" result="shadowBlurOuter1" stdDeviation="4"/>
            <feComposite in="shadowBlurOuter1" in2="SourceAlpha" operator="out" result="shadowBlurOuter1"/>
            <feColorMatrix in="shadowBlurOuter1" values="0 0 0 0 0 0 0 0 0 0 0 0 0 0 0 0 0 0 0.08 0"/>
        </filter>
        <filter id="7j9awp75zg" width="127.5%" height="156%" x="-13.7%" y="-20%" filterUnits="objectBoundingBox">
            <feOffset dy="4" in="SourceAlpha" result="shadowOffsetOuter1"/>
            <feGaussianBlur in="shadowOffsetOuter1" result="shadowBlurOuter1" stdDeviation="4"/>
            <feComposite in="shadowBlurOuter1" in2="SourceAlpha" operator="out" result="shadowBlurOuter1"/>
            <feColorMatrix in="shadowBlurOuter1" values="0 0 0 0 0 0 0 0 0 0 0 0 0 0 0 0 0 0 0.08 0"/>
        </filter>
        <path id="p7d6nwkiqb" d="M8 0h312c4.418 0 8 3.582 8 8v116c0 4.418-3.582 8-8 8H8c-4.418 0-8-3.582-8-8V8c0-4.418 3.582-8 8-8z"/>
        <path id="2j94y7br4e" d="M98.248 56c1.275 0 2.528.096 3.752.282v49.435c-1.224.186-2.477.282-3.752.282-7.784 0-14.734-3.589-19.298-9.21H44.187C39.623 102.41 32.674 106 24.89 106 11.143 106 0 94.807 0 81 0 67.33 10.922 56.224 24.478 56.003l.412-.004h73.358z"/>
        <path id="y3osq2vzdh" d="M98.248 53c1.275 0 2.528.096 3.752.282v49.435c-1.224.186-2.477.282-3.752.282-7.784 0-14.734-3.589-19.298-9.21H44.187C39.623 99.41 32.674 103 24.89 103 11.143 103 0 91.807 0 78 0 64.33 10.922 53.224 24.478 53.003l.412-.004h73.358z"/>
    </defs>
    <g fill="none" fill-rule="evenodd" transform="translate(8 4)">
        <use fill="#000" filter="url(#yzyu2d3iwa)" xlink:href="#p7d6nwkiqb"/>
        <use fill="url(#878ng70rjc)" xlink:href="#p7d6nwkiqb"/>
        <g>
            <g>
                <path fill="#FFF" fill-rule="nonzero" d="M15.937 20c.172 0 .313-.14.313-.313 0-.863-.7-1.562-1.563-1.562h-2.5v-3.25c1.418-.363 3.008-1.543 4.079-3.805 3.558-.676 6.234-3.21 6.234-5.57V3.125c0-.344-.281-.625-.625-.625H17.5V.625c0-.344-.281-.625-.625-.625H5.625C5.281 0 5 .281 5 .625V2.5H.625C.281 2.5 0 2.781 0 3.125V5.5c0 2.355 2.668 4.89 6.234 5.57 1.07 2.262 2.66 3.446 4.078 3.805v3.25h-2.5c-.863 0-1.562.7-1.562 1.562 0 .172.14.313.312.313h9.375zm-4.687-6.875c-2.07 0-4.375-3.063-4.375-8.438V1.875h8.75v2.812c0 5.489-2.375 8.438-4.375 8.438zM9.734 9.332l1.516-.797 1.516.797c.27.14.59-.086.539-.39l-.29-1.688 1.227-1.195c.219-.215.098-.59-.207-.633L12.34 5.18l-.758-1.535c-.137-.274-.527-.278-.664 0L10.16 5.18l-1.695.246c-.305.043-.426.418-.207.633l1.226 1.195-.289 1.687c-.05.301.266.536.54.391zM5.48 8.937C3.328 8.2 1.875 6.637 1.875 5.5V4.375H5c0 1.531.082 2.977.48 4.562zm11.54 0c.398-1.585.48-3.035.48-4.562h3.125V5.5c0 1.137-1.453 2.7-3.606 3.437zM39.29 17.5v-5.148h1.738c.763 0 1.474-.088 2.134-.264.66-.176 1.232-.451 1.716-.825.484-.374.865-.84 1.144-1.397.279-.557.418-1.225.418-2.002 0-.675-.121-1.272-.363-1.793-.242-.52-.59-.96-1.045-1.32-.455-.36-.997-.634-1.628-.825-.63-.19-1.335-.286-2.112-.286h-4.686V17.5h2.684zm1.232-7.238H39.29V5.708h1.606c.367 0 .719.044 1.056.132.337.088.634.224.891.407.257.183.458.418.605.704.147.286.22.627.22 1.023 0 .44-.08.807-.242 1.1-.161.293-.385.528-.671.704-.286.176-.62.3-1.001.374-.381.073-.792.11-1.232.11zM51.06 17.5V1.836h-2.552V17.5h2.552zm5.698.22c1.379 0 2.442-.44 3.19-1.32h.066l.264 1.1h2.046v-6.776c0-.704-.099-1.302-.297-1.793-.198-.491-.48-.891-.847-1.199-.367-.308-.8-.532-1.298-.671-.499-.14-1.056-.209-1.672-.209-.792 0-1.518.099-2.178.297-.66.198-1.313.473-1.958.825l.924 1.782c.557-.323 1.067-.55 1.529-.682.462-.132.898-.198 1.309-.198.572 0 1.027.121 1.364.363.337.242.506.649.506 1.221v.726h-1.54c-.704 0-1.357.07-1.958.209-.601.14-1.118.348-1.551.627-.433.279-.774.63-1.023 1.056-.25.425-.374.931-.374 1.518 0 .924.308 1.676.924 2.255.616.58 1.474.869 2.574.869zm.792-1.87c-.425 0-.8-.095-1.122-.286-.323-.19-.484-.557-.484-1.1 0-.425.19-.788.572-1.089.381-.3 1.056-.466 2.024-.495l1.188-.044v1.804c-.25.381-.568.678-.957.891-.389.213-.796.319-1.221.319zm8.294 7.304c1.247-.425 2.23-1.078 2.948-1.958.719-.88 1.29-1.929 1.716-3.146l3.894-11H71.74l-1.76 5.302-.704 2.53h-.066l-.726-2.508-1.958-5.324H63.71l4.334 10.428-.11.374c-.25.821-.649 1.496-1.199 2.024s-1.214.939-1.991 1.232l1.1 2.046zM2.408 42.5v-3.416h1.316c.476 0 .91-.056 1.302-.168.392-.112.733-.28 1.022-.504.29-.224.513-.506.672-.847.159-.34.238-.744.238-1.211 0-.43-.075-.81-.224-1.141-.15-.331-.36-.611-.63-.84-.27-.229-.593-.401-.966-.518-.373-.117-.789-.175-1.246-.175H1.12v8.82h1.288zm.798-4.466h-.798v-3.318h1.19c.252 0 .5.028.742.084.243.056.457.15.644.28.187.13.338.301.455.511.117.21.175.469.175.777 0 .336-.06.614-.182.833-.121.22-.287.39-.497.511-.21.121-.464.205-.763.252-.299.047-.62.07-.966.07zm6.804 4.592c.42 0 .803-.065 1.148-.196.345-.13.663-.35.952-.658h.028l.154.728h1.022v-4.284c0-.457-.06-.838-.182-1.141-.121-.303-.292-.548-.511-.735-.22-.187-.48-.32-.784-.399-.303-.08-.637-.119-1.001-.119-.243 0-.467.014-.672.042-.205.028-.406.07-.602.126-.196.056-.392.128-.588.217-.196.089-.406.189-.63.301l.476.896c.401-.224.758-.376 1.071-.455.313-.08.59-.119.833-.119.41 0 .737.086.98.259.243.173.364.497.364.973v.56h-1.26c-.896 0-1.617.18-2.163.539-.546.36-.819.884-.819 1.575 0 .29.054.55.161.784.107.233.259.432.455.595.196.163.427.29.693.378.266.089.558.133.875.133zm.294-.91c-.159 0-.31-.016-.455-.049-.145-.033-.27-.086-.378-.161-.107-.075-.194-.18-.259-.315s-.098-.301-.098-.497c0-.327.147-.604.441-.833.294-.229.791-.352 1.491-.371l1.036-.028v1.344c-.243.317-.523.548-.84.693-.317.145-.63.217-.938.217zm6.006.784v-3.402c0-.355.049-.67.147-.945.098-.275.233-.506.406-.693.173-.187.373-.327.602-.42.229-.093.478-.14.749-.14.187 0 .348.019.483.056.135.037.259.084.371.14l.238-1.078c-.13-.056-.275-.103-.434-.14-.159-.037-.36-.056-.602-.056-.476 0-.896.13-1.26.392-.364.261-.625.602-.784 1.022l-.21-1.316h-.924v6.58h1.218zm6.622 0c.317 0 .62-.028.91-.084.29-.056.527-.121.714-.196l-.196-.938c-.168.056-.364.105-.588.147-.224.042-.43.063-.616.063-.261 0-.474-.056-.637-.168-.163-.112-.245-.331-.245-.658v-3.822h1.932v-.924h-1.932v-2.1h-1.218v2.1h-.98v.924h.98v3.99c0 .541.15.954.448 1.239.299.285.775.427 1.428.427zm3.724-8.274c.205 0 .387-.072.546-.217.159-.145.238-.324.238-.539 0-.215-.08-.397-.238-.546-.159-.15-.34-.224-.546-.224-.215 0-.399.075-.553.224-.154.15-.231.331-.231.546 0 .215.077.394.231.539.154.145.338.217.553.217zm.616 8.274v-6.58H26.04v6.58h1.232zm5.04.126c.7 0 1.302-.126 1.806-.378l-.266-.924c-.215.103-.434.187-.658.252-.224.065-.485.098-.784.098-.28 0-.555-.042-.826-.126-.27-.084-.513-.222-.728-.413-.215-.191-.387-.446-.518-.763-.13-.317-.196-.714-.196-1.19 0-.765.21-1.36.63-1.785.42-.425.97-.637 1.652-.637.495 0 .957.121 1.386.364l.28-.938c-.355-.159-.67-.259-.945-.301-.275-.042-.558-.063-.847-.063-.504 0-.966.08-1.386.238-.42.159-.78.385-1.078.679-.299.294-.532.651-.7 1.071-.168.42-.252.891-.252 1.414 0 .57.089 1.066.266 1.491.177.425.422.78.735 1.064.313.285.677.497 1.092.637.415.14.861.21 1.337.21zm3.976-8.4c.205 0 .387-.072.546-.217.159-.145.238-.324.238-.539 0-.215-.08-.397-.238-.546-.159-.15-.34-.224-.546-.224-.215 0-.399.075-.553.224-.154.15-.231.331-.231.546 0 .215.077.394.231.539.154.145.338.217.553.217zm.616 8.274v-6.58h-1.232v6.58h1.232zm3.178 3.22v-3.556c.196.14.432.252.707.336.275.084.562.126.861.126.401 0 .796-.07 1.183-.21.387-.14.733-.355 1.036-.644.303-.29.546-.658.728-1.106.182-.448.273-.98.273-1.596 0-1.045-.252-1.848-.756-2.408-.504-.56-1.195-.84-2.072-.84-.43 0-.803.084-1.12.252-.317.168-.602.369-.854.602l-.182-.854h-1.022v9.898h1.218zm1.414-4.046c-.243 0-.485-.037-.728-.112-.243-.075-.471-.191-.686-.35v-3.514c.159-.196.383-.39.672-.581.29-.191.63-.287 1.022-.287.616 0 1.071.203 1.365.609.294.406.441.959.441 1.659 0 .476-.06.877-.182 1.204-.121.327-.28.593-.476.798-.196.205-.42.352-.672.441-.252.089-.504.133-.756.133zm6.594.952c.42 0 .803-.065 1.148-.196.345-.13.663-.35.952-.658h.028l.154.728h1.022v-4.284c0-.457-.06-.838-.182-1.141-.121-.303-.292-.548-.511-.735-.22-.187-.48-.32-.784-.399-.303-.08-.637-.119-1.001-.119-.243 0-.467.014-.672.042-.205.028-.406.07-.602.126-.196.056-.392.128-.588.217-.196.089-.406.189-.63.301l.476.896c.401-.224.758-.376 1.071-.455.313-.08.59-.119.833-.119.41 0 .737.086.98.259.243.173.364.497.364.973v.56h-1.26c-.896 0-1.617.18-2.163.539-.546.36-.819.884-.819 1.575 0 .29.054.55.161.784.107.233.259.432.455.595.196.163.427.29.693.378.266.089.558.133.875.133zm.294-.91c-.159 0-.31-.016-.455-.049-.145-.033-.27-.086-.378-.161-.107-.075-.194-.18-.259-.315s-.098-.301-.098-.497c0-.327.147-.604.441-.833.294-.229.791-.352 1.491-.371l1.036-.028v1.344c-.243.317-.523.548-.84.693-.317.145-.63.217-.938.217zm7.07.784c.317 0 .62-.028.91-.084.29-.056.527-.121.714-.196l-.196-.938c-.168.056-.364.105-.588.147-.224.042-.43.063-.616.063-.261 0-.474-.056-.637-.168-.163-.112-.245-.331-.245-.658v-3.822h1.932v-.924h-1.932v-2.1h-1.218v2.1h-.98v.924h.98v3.99c0 .541.15.954.448 1.239.299.285.775.427 1.428.427zm5.964.126c.42 0 .814-.037 1.183-.112.369-.075.688-.173.959-.294l-.252-.91c-.327.13-.628.224-.903.28-.275.056-.59.084-.945.084-.681 0-1.22-.196-1.617-.588-.397-.392-.595-.952-.595-1.68v-.056h4.718v-.644c0-.43-.065-.821-.196-1.176-.13-.355-.317-.658-.56-.91-.243-.252-.534-.448-.875-.588-.34-.14-.721-.21-1.141-.21-.495 0-.94.082-1.337.245-.397.163-.735.392-1.015.686-.28.294-.497.651-.651 1.071-.154.42-.231.887-.231 1.4 0 .597.091 1.11.273 1.54.182.43.432.782.749 1.057.317.275.684.478 1.099.609.415.13.861.196 1.337.196zm-2.142-4.13c.075-.532.273-.961.595-1.288.322-.327.74-.49 1.253-.49.28 0 .518.047.714.14.196.093.357.22.483.378.126.159.22.343.28.553.06.21.091.436.091.679l-3.416.028zm10.066-4.27c.205 0 .387-.072.546-.217.159-.145.238-.324.238-.539 0-.215-.08-.397-.238-.546-.159-.15-.34-.224-.546-.224-.215 0-.399.075-.553.224-.154.15-.231.331-.231.546 0 .215.077.394.231.539.154.145.338.217.553.217zm.616 8.274v-6.58h-1.232v6.58h1.232zm3.248 0v-4.788c.57-.588 1.18-.882 1.834-.882.43 0 .749.119.959.357.21.238.315.558.315.959V42.5h1.232v-4.536c0-.672-.191-1.197-.574-1.575-.383-.378-.91-.567-1.582-.567-.467 0-.88.086-1.239.259-.36.173-.702.422-1.029.749l-.182-.91h-.966v6.58h1.232zm11.9 0c.653 0 1.272-.08 1.855-.238.583-.159 1.097-.42 1.54-.784.443-.364.796-.84 1.057-1.428.261-.588.392-1.307.392-2.156 0-.7-.11-1.314-.329-1.841-.22-.527-.523-.966-.91-1.316-.387-.35-.847-.614-1.379-.791-.532-.177-1.11-.266-1.736-.266h-2.87v8.82h2.38zm-.126-1.064h-.966v-6.692h1.33c.485 0 .926.07 1.323.21.397.14.735.343 1.015.609.28.266.495.595.644.987.15.392.224.84.224 1.344 0 .719-.103 1.307-.308 1.764-.205.457-.474.819-.805 1.085-.331.266-.712.448-1.141.546-.43.098-.868.147-1.316.147zm8.232 1.19c.42 0 .803-.065 1.148-.196.345-.13.663-.35.952-.658h.028l.154.728h1.022v-4.284c0-.457-.06-.838-.182-1.141-.121-.303-.292-.548-.511-.735-.22-.187-.48-.32-.784-.399-.303-.08-.637-.119-1.001-.119-.243 0-.467.014-.672.042-.205.028-.406.07-.602.126-.196.056-.392.128-.588.217-.196.089-.406.189-.63.301l.476.896c.401-.224.758-.376 1.071-.455.313-.08.59-.119.833-.119.41 0 .737.086.98.259.243.173.364.497.364.973v.56h-1.26c-.896 0-1.617.18-2.163.539-.546.36-.819.884-.819 1.575 0 .29.054.55.161.784.107.233.259.432.455.595.196.163.427.29.693.378.266.089.558.133.875.133zm.294-.91c-.159 0-.31-.016-.455-.049-.145-.033-.27-.086-.378-.161-.107-.075-.194-.18-.259-.315s-.098-.301-.098-.497c0-.327.147-.604.441-.833.294-.229.791-.352 1.491-.371l1.036-.028v1.344c-.243.317-.523.548-.84.693-.317.145-.63.217-.938.217zm5.628-7.49c.205 0 .387-.072.546-.217.159-.145.238-.324.238-.539 0-.215-.08-.397-.238-.546-.159-.15-.34-.224-.546-.224-.215 0-.399.075-.553.224-.154.15-.231.331-.231.546 0 .215.077.394.231.539.154.145.338.217.553.217zm.616 8.274v-6.58h-1.232v6.58h1.232zm3.276 0v-9.94h-1.204v9.94h1.204zm2.254 3.402c.588-.205 1.094-.532 1.519-.98.425-.448.777-1.069 1.057-1.862l2.534-7.14h-1.26l-1.274 3.766-.476 1.568h-.028l-.476-1.568-1.4-3.766h-1.316l2.674 6.58-.126.378c-.187.56-.45.999-.791 1.316-.34.317-.73.56-1.169.728l.532.98zm15.904-.714c.27 0 .562-.042.875-.126.313-.084.6-.21.861-.378l-.504-.938c-.187.13-.385.226-.595.287-.21.06-.408.091-.595.091-.317 0-.607-.035-.868-.105-.261-.07-.513-.147-.756-.231-.243-.084-.483-.161-.721-.231s-.497-.105-.777-.105l1.904-1.064c.896-.504 1.545-1.101 1.946-1.792.401-.69.602-1.526.602-2.506 0-.756-.103-1.416-.308-1.981-.205-.565-.492-1.036-.861-1.414-.369-.378-.805-.663-1.309-.854-.504-.191-1.055-.287-1.652-.287s-1.15.098-1.659.294c-.509.196-.95.485-1.323.868s-.667.856-.882 1.421c-.215.565-.322 1.216-.322 1.953 0 .663.082 1.255.245 1.778.163.523.392.968.686 1.337.294.369.644.667 1.05.896.406.229.856.38 1.351.455l-2.156 1.246.532.966c.243-.14.483-.247.721-.322.238-.075.478-.112.721-.112.308 0 .616.044.924.133.308.089.62.187.938.294.317.107.637.205.959.294.322.089.646.133.973.133zM118.3 41.66c-.383 0-.737-.075-1.064-.224-.327-.15-.609-.373-.847-.672-.238-.299-.422-.67-.553-1.113-.13-.443-.196-.964-.196-1.561s.07-1.115.21-1.554c.14-.439.331-.803.574-1.092.243-.29.532-.504.868-.644.336-.14.695-.21 1.078-.21.383 0 .744.068 1.085.203.34.135.637.345.889.63.252.285.45.646.595 1.085.145.439.217.966.217 1.582 0 .579-.077 1.09-.231 1.533-.154.443-.362.817-.623 1.12-.261.303-.565.532-.91.686-.345.154-.71.231-1.092.231zm8.092.966c.476 0 .894-.091 1.253-.273.36-.182.66-.408.903-.679h.056l.168.826h.966v-6.58h-1.232v4.83c-.27.28-.555.5-.854.658-.299.159-.635.238-1.008.238-.187 0-.36-.026-.518-.077-.159-.051-.296-.135-.413-.252-.117-.117-.21-.273-.28-.469-.07-.196-.105-.434-.105-.714V35.92h-1.232v4.368c0 .784.212 1.37.637 1.757.425.387.978.581 1.659.581zm6.062-8.4c.205 0 .387-.072.546-.217.159-.145.238-.324.238-.539 0-.215-.08-.397-.238-.546-.159-.15-.34-.224-.546-.224-.215 0-.399.075-.553.224-.154.15-.231.331-.231.546 0 .215.077.394.231.539.154.145.338.217.553.217zm.616 8.274v-6.58h-1.232v6.58h1.232zm6.482 0v-.924h-3.556l3.486-4.942v-.714h-4.76v.924h3.248l-3.486 4.9v.756h5.068zm5.754 0v-.924h-3.556l3.486-4.942v-.714h-4.76v.924h3.248l-3.486 4.9v.756h5.068zm4.2.126c.42 0 .814-.037 1.183-.112.369-.075.688-.173.959-.294l-.252-.91c-.327.13-.628.224-.903.28-.275.056-.59.084-.945.084-.681 0-1.22-.196-1.617-.588-.397-.392-.595-.952-.595-1.68v-.056h4.718v-.644c0-.43-.065-.821-.196-1.176-.13-.355-.317-.658-.56-.91-.243-.252-.534-.448-.875-.588-.34-.14-.721-.21-1.141-.21-.495 0-.94.082-1.337.245-.397.163-.735.392-1.015.686-.28.294-.497.651-.651 1.071-.154.42-.231.887-.231 1.4 0 .597.091 1.11.273 1.54.182.43.432.782.749 1.057.317.275.684.478 1.099.609.415.13.861.196 1.337.196zm-2.142-4.13c.075-.532.273-.961.595-1.288.322-.327.74-.49 1.253-.49.28 0 .518.047.714.14.196.093.357.22.483.378.126.159.22.343.28.553.06.21.091.436.091.679l-3.416.028zm7.896 4.13c.793 0 1.412-.182 1.855-.546.443-.364.665-.845.665-1.442 0-.504-.161-.903-.483-1.197-.322-.294-.796-.534-1.421-.721l-.42-.126c-.476-.14-.789-.282-.938-.427-.15-.145-.224-.315-.224-.511 0-.27.107-.488.322-.651.215-.163.546-.245.994-.245.252 0 .504.028.756.084.252.056.532.159.84.308l.28-.938c-.317-.14-.651-.24-1.001-.301-.35-.06-.688-.091-1.015-.091-.345 0-.663.044-.952.133-.29.089-.539.212-.749.371-.21.159-.376.355-.497.588-.121.233-.182.49-.182.77 0 .467.147.847.441 1.141.294.294.744.539 1.351.735l.434.14c.401.121.71.245.924.371.215.126.322.338.322.637 0 .345-.124.593-.371.742-.247.15-.581.224-1.001.224-.327 0-.649-.04-.966-.119-.317-.08-.611-.184-.882-.315l-.294.966c.28.13.614.233 1.001.308.387.075.791.112 1.211.112zm9.716-.014c.373 0 .716-.035 1.029-.105.313-.07.595-.161.847-.273.252-.112.474-.24.665-.385.191-.145.352-.292.483-.441l1.064 1.092h1.512l-1.89-1.904c.187-.28.373-.602.56-.966.187-.364.355-.756.504-1.176l-1.008-.406c-.103.299-.224.609-.364.931-.14.322-.29.604-.448.847l-2.352-2.38c-.439-.439-.775-.833-1.008-1.183-.233-.35-.35-.735-.35-1.155 0-.317.098-.574.294-.77.196-.196.471-.294.826-.294.327 0 .595.103.805.308.21.205.315.471.315.798 0 .29-.072.541-.217.756-.145.215-.338.387-.581.518l.574.686c.41-.205.742-.471.994-.798.252-.327.378-.737.378-1.232 0-.29-.056-.555-.168-.798-.112-.243-.268-.45-.469-.623-.2-.173-.439-.306-.714-.399-.275-.093-.572-.14-.889-.14-.317 0-.618.044-.903.133-.285.089-.532.22-.742.392-.21.173-.376.38-.497.623s-.182.518-.182.826c0 .42.091.805.273 1.155.182.35.394.66.637.931-.299.121-.579.266-.84.434-.261.168-.49.364-.686.588-.196.224-.352.476-.469.756-.117.28-.175.593-.175.938 0 .392.075.754.224 1.085.15.331.364.618.644.861s.616.432 1.008.567c.392.135.83.203 1.316.203zm.14-.952c-.644 0-1.16-.152-1.547-.455-.387-.303-.581-.749-.581-1.337 0-.233.042-.45.126-.651.084-.2.198-.383.343-.546.145-.163.31-.31.497-.441.187-.13.383-.247.588-.35l2.744 2.786c-.112.15-.25.285-.413.406-.163.121-.343.226-.539.315s-.399.156-.609.203c-.21.047-.413.07-.609.07zm12.572.966c.42 0 .814-.037 1.183-.112.369-.075.688-.173.959-.294l-.252-.91c-.327.13-.628.224-.903.28-.275.056-.59.084-.945.084-.681 0-1.22-.196-1.617-.588-.397-.392-.595-.952-.595-1.68v-.056h4.718v-.644c0-.43-.065-.821-.196-1.176-.13-.355-.317-.658-.56-.91-.243-.252-.534-.448-.875-.588-.34-.14-.721-.21-1.141-.21-.495 0-.94.082-1.337.245-.397.163-.735.392-1.015.686-.28.294-.497.651-.651 1.071-.154.42-.231.887-.231 1.4 0 .597.091 1.11.273 1.54.182.43.432.782.749 1.057.317.275.684.478 1.099.609.415.13.861.196 1.337.196zm-2.142-4.13c.075-.532.273-.961.595-1.288.322-.327.74-.49 1.253-.49.28 0 .518.047.714.14.196.093.357.22.483.378.126.159.22.343.28.553.06.21.091.436.091.679l-3.416.028zm7.882 4.13c.42 0 .803-.065 1.148-.196.345-.13.663-.35.952-.658h.028l.154.728h1.022v-4.284c0-.457-.06-.838-.182-1.141-.121-.303-.292-.548-.511-.735-.22-.187-.48-.32-.784-.399-.303-.08-.637-.119-1.001-.119-.243 0-.467.014-.672.042-.205.028-.406.07-.602.126-.196.056-.392.128-.588.217-.196.089-.406.189-.63.301l.476.896c.401-.224.758-.376 1.071-.455.313-.08.59-.119.833-.119.41 0 .737.086.98.259.243.173.364.497.364.973v.56h-1.26c-.896 0-1.617.18-2.163.539-.546.36-.819.884-.819 1.575 0 .29.054.55.161.784.107.233.259.432.455.595.196.163.427.29.693.378.266.089.558.133.875.133zm.294-.91c-.159 0-.31-.016-.455-.049-.145-.033-.27-.086-.378-.161-.107-.075-.194-.18-.259-.315s-.098-.301-.098-.497c0-.327.147-.604.441-.833.294-.229.791-.352 1.491-.371l1.036-.028v1.344c-.243.317-.523.548-.84.693-.317.145-.63.217-.938.217zm6.006.784v-3.402c0-.355.049-.67.147-.945.098-.275.233-.506.406-.693.173-.187.373-.327.602-.42.229-.093.478-.14.749-.14.187 0 .348.019.483.056.135.037.259.084.371.14l.238-1.078c-.13-.056-.275-.103-.434-.14-.159-.037-.36-.056-.602-.056-.476 0-.896.13-1.26.392-.364.261-.625.602-.784 1.022l-.21-1.316h-.924v6.58h1.218zm5.18 0v-4.788c.57-.588 1.18-.882 1.834-.882.43 0 .749.119.959.357.21.238.315.558.315.959V42.5h1.232v-4.536c0-.672-.191-1.197-.574-1.575-.383-.378-.91-.567-1.582-.567-.467 0-.88.086-1.239.259-.36.173-.702.422-1.029.749l-.182-.91h-.966v6.58h1.232zM2.114 65.72v-3.556c.196.14.432.252.707.336.275.084.562.126.861.126.401 0 .796-.07 1.183-.21.387-.14.733-.355 1.036-.644.303-.29.546-.658.728-1.106.182-.448.273-.98.273-1.596 0-1.045-.252-1.848-.756-2.408-.504-.56-1.195-.84-2.072-.84-.43 0-.803.084-1.12.252-.317.168-.602.369-.854.602l-.182-.854H.896v9.898h1.218zm1.414-4.046c-.243 0-.485-.037-.728-.112-.243-.075-.471-.191-.686-.35v-3.514c.159-.196.383-.39.672-.581.29-.191.63-.287 1.022-.287.616 0 1.071.203 1.365.609.294.406.441.959.441 1.659 0 .476-.06.877-.182 1.204-.121.327-.28.593-.476.798-.196.205-.42.352-.672.441-.252.089-.504.133-.756.133zm6.048.826v-3.402c0-.355.049-.67.147-.945.098-.275.233-.506.406-.693.173-.187.373-.327.602-.42.229-.093.478-.14.749-.14.187 0 .348.019.483.056.135.037.259.084.371.14l.238-1.078c-.13-.056-.275-.103-.434-.14-.159-.037-.36-.056-.602-.056-.476 0-.896.13-1.26.392-.364.261-.625.602-.784 1.022l-.21-1.316h-.924v6.58h1.218zm4.76-8.274c.205 0 .387-.072.546-.217.159-.145.238-.324.238-.539 0-.215-.08-.397-.238-.546-.159-.15-.34-.224-.546-.224-.215 0-.399.075-.553.224-.154.15-.231.331-.231.546 0 .215.077.394.231.539.154.145.338.217.553.217zm.616 8.274v-6.58H13.72v6.58h1.232zm6.482 0v-.924h-3.556l3.486-4.942v-.714h-4.76v.924h3.248l-3.486 4.9v.756h5.068zm4.2.126c.42 0 .814-.037 1.183-.112.369-.075.688-.173.959-.294l-.252-.91c-.327.13-.628.224-.903.28-.275.056-.59.084-.945.084-.681 0-1.22-.196-1.617-.588-.397-.392-.595-.952-.595-1.68v-.056h4.718v-.644c0-.43-.065-.821-.196-1.176-.13-.355-.317-.658-.56-.91-.243-.252-.534-.448-.875-.588-.34-.14-.721-.21-1.141-.21-.495 0-.94.082-1.337.245-.397.163-.735.392-1.015.686-.28.294-.497.651-.651 1.071-.154.42-.231.887-.231 1.4 0 .597.091 1.11.273 1.54.182.43.432.782.749 1.057.317.275.684.478 1.099.609.415.13.861.196 1.337.196zm-2.142-4.13c.075-.532.273-.961.595-1.288.322-.327.74-.49 1.253-.49.28 0 .518.047.714.14.196.093.357.22.483.378.126.159.22.343.28.553.06.21.091.436.091.679l-3.416.028zM33.978 62.5v-4.774c.541-.597 1.13-.896 1.764-.896.43 0 .737.117.924.35.187.233.28.57.28 1.008V62.5h1.232v-4.676c0-.047-.005-.093-.014-.14.55-.57 1.143-.854 1.778-.854.43 0 .737.117.924.35.187.233.28.57.28 1.008V62.5h1.232v-4.536c0-.672-.17-1.197-.511-1.575-.34-.378-.847-.567-1.519-.567-.476 0-.91.093-1.302.28-.392.187-.751.453-1.078.798-.15-.336-.373-.6-.672-.791-.299-.191-.681-.287-1.148-.287-.495 0-.92.091-1.274.273-.355.182-.686.427-.994.735l-.182-.91h-.952v6.58h1.232zm13.09.126c.457 0 .882-.077 1.274-.231.392-.154.735-.38 1.029-.679.294-.299.525-.665.693-1.099.168-.434.252-.926.252-1.477 0-.541-.082-1.02-.245-1.435-.163-.415-.387-.763-.672-1.043-.285-.28-.62-.49-1.008-.63-.387-.14-.81-.21-1.267-.21-.457 0-.882.077-1.274.231-.392.154-.735.378-1.029.672-.294.294-.525.656-.693 1.085-.168.43-.252.92-.252 1.47 0 .541.082 1.02.245 1.435.163.415.387.765.672 1.05.285.285.62.5 1.008.644.387.145.81.217 1.267.217zm.042-.952c-.243 0-.48-.047-.714-.14-.233-.093-.441-.238-.623-.434s-.329-.45-.441-.763c-.112-.313-.168-.688-.168-1.127 0-.476.054-.87.161-1.183.107-.313.25-.562.427-.749.177-.187.383-.317.616-.392.233-.075.471-.112.714-.112s.48.044.714.133c.233.089.441.231.623.427.182.196.329.448.441.756.112.308.168.681.168 1.12 0 .476-.054.87-.161 1.183-.107.313-.25.565-.427.756-.177.191-.383.327-.616.406-.233.08-.471.119-.714.119zm5.936.826v-4.788c.57-.588 1.18-.882 1.834-.882.43 0 .749.119.959.357.21.238.315.558.315.959V62.5h1.232v-4.536c0-.672-.191-1.197-.574-1.575-.383-.378-.91-.567-1.582-.567-.467 0-.88.086-1.239.259-.36.173-.702.422-1.029.749l-.182-.91h-.966v6.58h1.232zm9.296.126c.42 0 .814-.037 1.183-.112.369-.075.688-.173.959-.294l-.252-.91c-.327.13-.628.224-.903.28-.275.056-.59.084-.945.084-.681 0-1.22-.196-1.617-.588-.397-.392-.595-.952-.595-1.68v-.056h4.718v-.644c0-.43-.065-.821-.196-1.176-.13-.355-.317-.658-.56-.91-.243-.252-.534-.448-.875-.588-.34-.14-.721-.21-1.141-.21-.495 0-.94.082-1.337.245-.397.163-.735.392-1.015.686-.28.294-.497.651-.651 1.071-.154.42-.231.887-.231 1.4 0 .597.091 1.11.273 1.54.182.43.432.782.749 1.057.317.275.684.478 1.099.609.415.13.861.196 1.337.196zm-2.142-4.13c.075-.532.273-.961.595-1.288.322-.327.74-.49 1.253-.49.28 0 .518.047.714.14.196.093.357.22.483.378.126.159.22.343.28.553.06.21.091.436.091.679l-3.416.028zm6.3 7.406c.588-.205 1.094-.532 1.519-.98.425-.448.777-1.069 1.057-1.862l2.534-7.14h-1.26l-1.274 3.766-.476 1.568h-.028l-.476-1.568-1.4-3.766H65.38l2.674 6.58-.126.378c-.187.56-.45.999-.791 1.316-.34.317-.73.56-1.169.728l.532.98zm11.564-3.276c.476 0 .894-.091 1.253-.273.36-.182.66-.408.903-.679h.056l.168.826h.966v-6.58h-1.232v4.83c-.27.28-.555.5-.854.658-.299.159-.635.238-1.008.238-.187 0-.36-.026-.518-.077-.159-.051-.296-.135-.413-.252-.117-.117-.21-.273-.28-.469-.07-.196-.105-.434-.105-.714V55.92h-1.232v4.368c0 .784.212 1.37.637 1.757.425.387.978.581 1.659.581zm6.412 3.094v-3.556c.196.14.432.252.707.336.275.084.562.126.861.126.401 0 .796-.07 1.183-.21.387-.14.733-.355 1.036-.644.303-.29.546-.658.728-1.106.182-.448.273-.98.273-1.596 0-1.045-.252-1.848-.756-2.408-.504-.56-1.195-.84-2.072-.84-.43 0-.803.084-1.12.252-.317.168-.602.369-.854.602l-.182-.854h-1.022v9.898h1.218zm1.414-4.046c-.243 0-.485-.037-.728-.112-.243-.075-.471-.191-.686-.35v-3.514c.159-.196.383-.39.672-.581.29-.191.63-.287 1.022-.287.616 0 1.071.203 1.365.609.294.406.441.959.441 1.659 0 .476-.06.877-.182 1.204-.121.327-.28.593-.476.798-.196.205-.42.352-.672.441-.252.089-.504.133-.756.133zm10.15.826c.317 0 .62-.028.91-.084.29-.056.527-.121.714-.196l-.196-.938c-.168.056-.364.105-.588.147-.224.042-.43.063-.616.063-.261 0-.474-.056-.637-.168-.163-.112-.245-.331-.245-.658v-3.822h1.932v-.924h-1.932v-2.1h-1.218v2.1h-.98v.924h.98v3.99c0 .541.15.954.448 1.239.299.285.775.427 1.428.427zm5.642.126c.457 0 .882-.077 1.274-.231.392-.154.735-.38 1.029-.679.294-.299.525-.665.693-1.099.168-.434.252-.926.252-1.477 0-.541-.082-1.02-.245-1.435-.163-.415-.387-.763-.672-1.043-.285-.28-.62-.49-1.008-.63-.387-.14-.81-.21-1.267-.21-.457 0-.882.077-1.274.231-.392.154-.735.378-1.029.672-.294.294-.525.656-.693 1.085-.168.43-.252.92-.252 1.47 0 .541.082 1.02.245 1.435.163.415.387.765.672 1.05.285.285.62.5 1.008.644.387.145.81.217 1.267.217zm.042-.952c-.243 0-.48-.047-.714-.14-.233-.093-.441-.238-.623-.434s-.329-.45-.441-.763c-.112-.313-.168-.688-.168-1.127 0-.476.054-.87.161-1.183.107-.313.25-.562.427-.749.177-.187.383-.317.616-.392.233-.075.471-.112.714-.112s.48.044.714.133c.233.089.441.231.623.427.182.196.329.448.441.756.112.308.168.681.168 1.12 0 .476-.054.87-.161 1.183-.107.313-.25.565-.427.756-.177.191-.383.327-.616.406-.233.08-.471.119-.714.119zm10.36.966l.952-.63-2.478-2.954c.373-.019.714-.089 1.022-.21.308-.121.574-.285.798-.49.224-.205.399-.439.525-.7.126-.261.198-.541.217-.84h1.484v-.896h-1.526c-.065-.317-.154-.588-.266-.812-.112-.224-.22-.401-.322-.532h2.114v-.896h-6.02v.896h2.674c.13.159.261.355.392.588.13.233.22.485.266.756h-3.332v.896h3.374c-.037.383-.215.705-.532.966-.317.261-.765.392-1.344.392-.168 0-.31-.012-.427-.035-.117-.023-.24-.058-.371-.105l-.35.686.364.364c.112.121.238.261.378.42.14.159.29.345.448.56l1.96 2.576zm10.514-.014c.448 0 .859-.072 1.232-.217.373-.145.698-.35.973-.616s.49-.586.644-.959c.154-.373.231-.793.231-1.26 0-.457-.075-.863-.224-1.218-.15-.355-.352-.656-.609-.903s-.558-.434-.903-.56c-.345-.126-.714-.189-1.106-.189-.392 0-.772.077-1.141.231-.369.154-.684.394-.945.721.01-.457.072-.877.189-1.26s.28-.71.49-.98c.21-.27.469-.483.777-.637.308-.154.667-.231 1.078-.231.261 0 .504.026.728.077.224.051.434.119.63.203l.294-.994c-.495-.187-1.06-.28-1.694-.28-.495 0-.968.086-1.421.259-.453.173-.854.453-1.204.84-.35.387-.63.891-.84 1.512-.21.62-.315 1.384-.315 2.289 0 .747.089 1.384.266 1.911.177.527.413.959.707 1.295.294.336.628.581 1.001.735.373.154.76.231 1.162.231zm.042-.952c-.28 0-.537-.063-.77-.189-.233-.126-.434-.296-.602-.511-.168-.215-.296-.467-.385-.756-.089-.29-.133-.602-.133-.938 0-.103.01-.205.028-.308.019-.103.056-.205.112-.308.15-.261.366-.49.651-.686.285-.196.637-.294 1.057-.294.56 0 1.008.154 1.344.462.336.308.504.793.504 1.456 0 .299-.044.574-.133.826-.089.252-.212.471-.371.658-.159.187-.348.331-.567.434-.22.103-.464.154-.735.154zm7.56.952c.457 0 .891-.086 1.302-.259.41-.173.775-.441 1.092-.805.317-.364.57-.833.756-1.407.187-.574.28-1.262.28-2.065 0-.803-.086-1.491-.259-2.065-.173-.574-.413-1.043-.721-1.407-.308-.364-.672-.632-1.092-.805-.42-.173-.873-.259-1.358-.259-.457 0-.894.091-1.309.273-.415.182-.78.462-1.092.84-.313.378-.562.852-.749 1.421-.187.57-.28 1.237-.28 2.002 0 .803.086 1.491.259 2.065.173.574.413 1.043.721 1.407.308.364.67.632 1.085.805.415.173.87.259 1.365.259zm.014-.966c-.28 0-.55-.049-.812-.147-.261-.098-.49-.278-.686-.539-.196-.261-.355-.623-.476-1.085-.121-.462-.182-1.062-.182-1.799 0-.7.058-1.279.175-1.736.117-.457.273-.824.469-1.099.196-.275.422-.467.679-.574.257-.107.525-.161.805-.161s.55.049.812.147c.261.098.49.278.686.539.196.261.355.625.476 1.092.121.467.182 1.064.182 1.792 0 .7-.058 1.279-.175 1.736-.117.457-.273.824-.469 1.099-.196.275-.422.467-.679.574-.257.107-.525.161-.805.161zm4.76 2.912c.448-.243.817-.574 1.106-.994.29-.42.434-.882.434-1.386 0-.28-.033-.506-.098-.679-.065-.173-.147-.308-.245-.406-.098-.098-.205-.163-.322-.196-.117-.033-.231-.049-.343-.049-.28 0-.497.089-.651.266-.154.177-.231.378-.231.602 0 .215.06.41.182.588.121.177.303.28.546.308l.252.042c-.065.327-.194.6-.385.819-.191.22-.408.394-.651.525l.406.56zm6.062-1.946c.457 0 .891-.086 1.302-.259.41-.173.775-.441 1.092-.805.317-.364.57-.833.756-1.407.187-.574.28-1.262.28-2.065 0-.803-.086-1.491-.259-2.065-.173-.574-.413-1.043-.721-1.407-.308-.364-.672-.632-1.092-.805-.42-.173-.873-.259-1.358-.259-.457 0-.894.091-1.309.273-.415.182-.78.462-1.092.84-.313.378-.562.852-.749 1.421-.187.57-.28 1.237-.28 2.002 0 .803.086 1.491.259 2.065.173.574.413 1.043.721 1.407.308.364.67.632 1.085.805.415.173.87.259 1.365.259zm.014-.966c-.28 0-.55-.049-.812-.147-.261-.098-.49-.278-.686-.539-.196-.261-.355-.623-.476-1.085-.121-.462-.182-1.062-.182-1.799 0-.7.058-1.279.175-1.736.117-.457.273-.824.469-1.099.196-.275.422-.467.679-.574.257-.107.525-.161.805-.161s.55.049.812.147c.261.098.49.278.686.539.196.261.355.625.476 1.092.121.467.182 1.064.182 1.792 0 .7-.058 1.279-.175 1.736-.117.457-.273.824-.469 1.099-.196.275-.422.467-.679.574-.257.107-.525.161-.805.161zm8.036.966c.457 0 .891-.086 1.302-.259.41-.173.775-.441 1.092-.805.317-.364.57-.833.756-1.407.187-.574.28-1.262.28-2.065 0-.803-.086-1.491-.259-2.065-.173-.574-.413-1.043-.721-1.407-.308-.364-.672-.632-1.092-.805-.42-.173-.873-.259-1.358-.259-.457 0-.894.091-1.309.273-.415.182-.78.462-1.092.84-.313.378-.562.852-.749 1.421-.187.57-.28 1.237-.28 2.002 0 .803.086 1.491.259 2.065.173.574.413 1.043.721 1.407.308.364.67.632 1.085.805.415.173.87.259 1.365.259zm.014-.966c-.28 0-.55-.049-.812-.147-.261-.098-.49-.278-.686-.539-.196-.261-.355-.623-.476-1.085-.121-.462-.182-1.062-.182-1.799 0-.7.058-1.279.175-1.736.117-.457.273-.824.469-1.099.196-.275.422-.467.679-.574.257-.107.525-.161.805-.161s.55.049.812.147c.261.098.49.278.686.539.196.261.355.625.476 1.092.121.467.182 1.064.182 1.792 0 .7-.058 1.279-.175 1.736-.117.457-.273.824-.469 1.099-.196.275-.422.467-.679.574-.257.107-.525.161-.805.161zm8.036.966c.457 0 .891-.086 1.302-.259.41-.173.775-.441 1.092-.805.317-.364.57-.833.756-1.407.187-.574.28-1.262.28-2.065 0-.803-.086-1.491-.259-2.065-.173-.574-.413-1.043-.721-1.407-.308-.364-.672-.632-1.092-.805-.42-.173-.873-.259-1.358-.259-.457 0-.894.091-1.309.273-.415.182-.78.462-1.092.84-.313.378-.562.852-.749 1.421-.187.57-.28 1.237-.28 2.002 0 .803.086 1.491.259 2.065.173.574.413 1.043.721 1.407.308.364.67.632 1.085.805.415.173.87.259 1.365.259zm.014-.966c-.28 0-.55-.049-.812-.147-.261-.098-.49-.278-.686-.539-.196-.261-.355-.623-.476-1.085-.121-.462-.182-1.062-.182-1.799 0-.7.058-1.279.175-1.736.117-.457.273-.824.469-1.099.196-.275.422-.467.679-.574.257-.107.525-.161.805-.161s.55.049.812.147c.261.098.49.278.686.539.196.261.355.625.476 1.092.121.467.182 1.064.182 1.792 0 .7-.058 1.279-.175 1.736-.117.457-.273.824-.469 1.099-.196.275-.422.467-.679.574-.257.107-.525.161-.805.161z" transform="translate(16) translate(0 15.5)"/>
                <g>
                    <path fill="#FFF" d="M12 0h57c6.627 0 12 5.373 12 12s-5.373 12-12 12H12C5.373 24 0 18.627 0 12S5.373 0 12 0z" transform="translate(16) translate(0 15.5) translate(0 76.5)"/>
                    <g fill="#5055EC">
                        <path fill-rule="nonzero" d="M2.472 9V6.252h.864c.416 0 .808-.05 1.176-.15.368-.1.69-.252.966-.456.276-.204.494-.462.654-.774.16-.312.24-.684.24-1.116 0-.368-.068-.694-.204-.978-.136-.284-.33-.526-.582-.726-.252-.2-.556-.352-.912-.456-.356-.104-.754-.156-1.194-.156H.828V9h1.644zm.672-4.008h-.672V2.688h.804c.408 0 .744.092 1.008.276.264.184.396.472.396.864 0 .224-.04.41-.12.558-.08.148-.19.268-.33.36-.14.092-.304.156-.492.192-.188.036-.386.054-.594.054zM8.631 9V.432H7.06V9h1.572zm2.656.132c.376 0 .706-.064.99-.192.284-.128.518-.304.702-.528h.048L13.17 9h1.236V5.28c0-.376-.054-.698-.162-.966-.108-.268-.264-.488-.468-.66-.204-.172-.448-.298-.732-.378-.284-.08-.598-.12-.942-.12-.432 0-.84.054-1.224.162-.384.108-.748.262-1.092.462l.552 1.056c.296-.16.566-.276.81-.348.244-.072.482-.108.714-.108.296 0 .526.062.69.186.164.124.246.318.246.582v.348h-.72c-.384 0-.742.036-1.074.108-.332.072-.622.184-.87.336-.248.152-.442.346-.582.582-.14.236-.21.518-.21.846 0 .248.042.48.126.696.084.216.21.402.378.558.168.156.372.28.612.372.24.092.516.138.828.138zm.504-1.14c-.208 0-.394-.05-.558-.15-.164-.1-.246-.286-.246-.558 0-.208.096-.386.288-.534.192-.148.532-.23 1.02-.246l.516-.012v.9c-.096.16-.238.3-.426.42s-.386.18-.594.18zm4.047 4.164c.392-.128.732-.292 1.02-.492.288-.2.538-.428.75-.684.212-.256.392-.534.54-.834.148-.3.282-.614.402-.942l2.1-5.928h-1.632l-.888 2.712-.372 1.404h-.048L17.326 6l-1.02-2.724h-1.74l2.412 5.7-.048.156c-.112.424-.32.788-.624 1.092-.304.304-.68.536-1.128.696l.66 1.236zM24.941 9V5.028c.184-.2.39-.358.618-.474.228-.116.446-.174.654-.174.28 0 .492.086.636.258.144.172.216.406.216.702V9h1.596V5.172c0-.656-.168-1.156-.504-1.5-.336-.344-.82-.516-1.452-.516-.384 0-.734.074-1.05.222-.316.148-.606.358-.87.63l-.192-.732h-1.248V9h1.596zm7.348.132c.416 0 .804-.07 1.164-.21.36-.14.674-.34.942-.6.268-.26.478-.578.63-.954.152-.376.228-.8.228-1.272 0-.48-.074-.904-.222-1.272-.148-.368-.352-.674-.612-.918s-.568-.43-.924-.558c-.356-.128-.742-.192-1.158-.192-.416 0-.804.068-1.164.204-.36.136-.674.334-.942.594-.268.26-.478.58-.63.96-.152.38-.228.814-.228 1.302 0 .464.074.878.222 1.242.148.364.352.67.612.918s.568.436.924.564c.356.128.742.192 1.158.192zm.036-1.176c-.168 0-.33-.036-.486-.108-.156-.072-.296-.18-.42-.324-.124-.144-.222-.33-.294-.558-.072-.228-.108-.498-.108-.81 0-.352.036-.644.108-.876.072-.232.168-.418.288-.558.12-.14.256-.24.408-.3.152-.06.312-.09.48-.09.168 0 .332.034.492.102.16.068.3.174.42.318.12.144.216.332.288.564.072.232.108.512.108.84 0 .336-.036.618-.108.846-.072.228-.168.414-.288.558-.12.144-.256.246-.408.306-.152.06-.312.09-.48.09zM38.748 9l.744-3.096.264-1.38.252 1.38L40.752 9h1.86l1.584-5.724h-1.62l-.708 3.036-.252 1.5h-.048l-.252-1.5-.72-3.036h-1.68l-.708 3.036-.252 1.5h-.048l-.216-1.5-.732-3.036h-1.668L36.888 9h1.86z" transform="translate(16) translate(0 15.5) translate(0 76.5) translate(12 6.5)"/>
                        <path d="M52.812 2.65l3.7 2.96c.216.172.25.487.078.702-.023.03-.05.055-.078.078l-3.7 2.96c-.215.173-.53.138-.702-.078-.071-.089-.11-.199-.11-.312V3.04c0-.276.224-.5.5-.5.114 0 .224.039.312.11z" transform="translate(16) translate(0 15.5) translate(0 76.5) translate(12 6.5)"/>
                    </g>
                </g>
            </g>
            <g opacity=".7" transform="translate(16) translate(210)">
                <path fill="#FFF" d="M30 38.5c0-4.695-3.806-8.5-8.5-8.5S13 33.804 13 38.5c0 4.694 3.806 8.5 8.5 8.5s8.5-3.806 8.5-8.5z" opacity=".4"/>
                <path fill="#FFF" d="M53 0h17c-.718 3.978-4.25 7-8.5 7S53.718 3.977 53 0zM38 121.5c0-3.038-2.462-5.5-5.5-5.5s-5.5 2.462-5.5 5.5c0 3.037 2.462 5.5 5.5 5.5s5.5-2.463 5.5-5.5z" opacity=".2"/>
                <path fill="#FFF" d="M76 108c0-2.762-2.239-5-5-5s-5 2.238-5 5c0 2.76 2.239 5 5 5s5-2.24 5-5z" opacity=".1"/>
                <path fill="#FFF" d="M98 36c0-1.657-1.343-3-3-3s-3 1.343-3 3c0 1.656 1.343 3 3 3s3-1.344 3-3z" opacity=".2"/>
                <path fill="#FFF" fill-rule="nonzero" d="M39 32.85c0-4.8 3.819-8.709 8.581-8.847l.26-.004H102v2.609H47.842c-3.445 0-6.237 2.794-6.237 6.242 0 3.37 2.67 6.118 6.008 6.238l.229.004h3.207c6.554 0 11.886 5.238 12.046 11.76l.004.301v2.543c0 .72-.584 1.303-1.303 1.303-.674 0-1.23-.513-1.296-1.17l-.007-.133v-2.543c0-5.13-4.083-9.307-9.175-9.45l-.269-.003h-3.207C42.959 41.7 39 37.738 39 32.85z"/>
                <use fill="#000" filter="url(#wiytx7mgxd)" xlink:href="#2j94y7br4e"/>
                <use fill="url(#58nnj04vmf)" xlink:href="#2j94y7br4e"/>
                <use fill="#000" filter="url(#7j9awp75zg)" xlink:href="#y3osq2vzdh"/>
                <use fill="url(#juoo4td05i)" xlink:href="#y3osq2vzdh"/>
                <path fill="#FFF" fill-rule="nonzero" d="M25 59C14.507 59 6 67.505 6 78c0 10.493 8.507 19 19 19s19-8.507 19-19c0-10.494-8.507-19-19-19z"/>
                <path fill="#000" fill-opacity=".6" d="M24.5 63C33.06 63 40 69.938 40 78.5 40 87.06 33.06 94 24.5 94 15.94 94 9 87.06 9 78.5 9 69.938 15.94 63 24.5 63z"/>
                <path fill="#FFF" d="M24.5 70c.828 0 1.5.572 1.5 1.278V85.72c0 .707-.672 1.28-1.5 1.28s-1.5-.573-1.5-1.28V71.278c0-.706.672-1.279 1.5-1.279z"/>
                <path fill="#FFF" d="M33 78.5c0 .828-.573 1.5-1.279 1.5H17.28C16.573 80 16 79.327 16 78.5c0-.829.573-1.5 1.279-1.5H31.72c.706 0 1.279.671 1.279 1.5z"/>
                <path fill="#FFF" fill-rule="nonzero" d="M98.199 59c1.301 0 2.572.128 3.801.372v37.255c-1.229.244-2.5.372-3.801.372C87.596 97 79 88.493 79 78c0-10.493 8.596-19 19.199-19z"/>
                <path fill="#000" fill-opacity=".6" d="M98.145 63c1.329 0 2.62.153 3.855.444v30.11c-1.235.291-2.526.445-3.855.445C89.228 94 82 87.06 82 78.5 82 69.94 89.228 63 98.145 63z"/>
                <path fill="#FFF" d="M98.5 74c1.38 0 2.5-1.12 2.5-2.5 0-1.381-1.12-2.5-2.5-2.5S96 70.118 96 71.5c0 1.38 1.12 2.5 2.5 2.5zM98.5 87c1.38 0 2.5-1.12 2.5-2.5 0-1.381-1.12-2.5-2.5-2.5S96 83.118 96 84.5c0 1.38 1.12 2.5 2.5 2.5zM89 78.5c0 1.38 1.12 2.5 2.5 2.5s2.5-1.12 2.5-2.5c0-1.381-1.12-2.5-2.5-2.5S89 77.118 89 78.5z"/>
                <path fill="#000" d="M53 82h4c1.105 0 2 .895 2 2 0 1.104-.895 2-2 2h-4c-1.105 0-2-.896-2-2 0-1.105.895-2 2-2zM66 82h4c1.105 0 2 .895 2 2 0 1.104-.895 2-2 2h-4c-1.105 0-2-.896-2-2 0-1.105.895-2 2-2z" opacity=".2"/>
                <path fill="#000" d="M52.313 62h18.374c.725 0 1.313.671 1.313 1.5 0 .828-.588 1.5-1.313 1.5H52.314C51.587 65 51 64.327 51 63.5c0-.829.588-1.5 1.313-1.5z" opacity=".2" style="mix-blend-mode:multiply"/>
            </g>
        </g>
    </g>
</svg>
